<?xml version="1.0" encoding="utf-8"?>
<!-- Generator: Adobe Illustrator 18.1.1, SVG Export Plug-In . SVG Version: 6.00 Build 0)  -->
<svg version="1.1" id="Layer_1" xmlns="http://www.w3.org/2000/svg" xmlns:xlink="http://www.w3.org/1999/xlink" x="0px" y="0px"
	 width="54px" height="25px" viewBox="0 0 54 25" enable-background="new 0 0 54 25" xml:space="preserve">
<g>
	<path fill="#FFFFFF" d="M5.9,1.8c0.2,0.3,0.3,1,0.3,1.4c0,0.9,0,1.5,0,1.9c0,1.6,0,1.6,0.6,1.8c0.1,0,0.3,0,0.3,0.2
		c0,0.1-0.1,0.1-0.3,0.1c-0.2,0-0.9,0-1.3,0c-0.4,0-1.2,0-1.3,0C4,7.1,3.9,7.1,3.9,7c0-0.1,0.3-0.1,0.5-0.2c0.3-0.1,0.4-0.2,0.5-0.5
		c0-0.4,0-0.9,0-1.8c0-1.2,0-1.9-0.3-2.3C4.4,1.9,4.1,1.8,3.6,1.8c-0.5,0-0.9,0.4-1.1,0.6c-0.2,0.4-0.2,1.2-0.2,2
		c0,1.1,0,1.6,0.1,1.9c0,0.2,0.2,0.3,0.4,0.4C2.9,6.9,3.2,6.9,3.2,7c0,0.1-0.2,0.1-0.3,0.1c-0.1,0-1.1,0-1.3,0c-0.2,0-1.2,0-1.3,0
		C0.1,7.1,0,7.1,0,7c0-0.1,0.2-0.1,0.4-0.2c0.3-0.1,0.4-0.1,0.5-0.4C1,6,1,5.2,1,4c0-0.8,0-1.3-0.1-1.5C0.8,2.4,0.7,2.4,0.5,2.3
		c-0.2,0-0.3,0-0.3-0.1c0-0.1,0-0.1,0.1-0.1c0.6-0.2,1.1-0.6,1.6-1C2,1,2.1,1,2.1,1c0.1,0,0.1,0.1,0.1,0.3v0.6c0,0.1,0,0.2,0.1,0.2
		c0.2,0,0.8-1,2-1C5.2,1,5.6,1.4,5.9,1.8"/>
	<path fill="#FFFFFF" d="M10.2,6.3c-0.3,0.4-0.9,1-1.7,1c-0.8,0-1.1-0.6-1.1-1.1c0-1,1-1.5,1.8-1.9c1.2-0.6,1.3-0.5,1.3-1.8
		c0-0.4,0-0.7-0.1-0.8c-0.2-0.3-0.4-0.4-0.7-0.4c-0.9,0-1.2,0.8-1.4,1.4C8.1,3,7.8,3.1,7.5,3.1C7.4,3.1,7.2,3,7.2,2.8
		c0-0.6,1-1.9,2.6-1.9c0.8,0,1.7,0.2,1.7,1.2c0,0.8-0.1,3.1-0.1,3.5c0,0.4,0.1,0.8,0.5,0.8c0.4,0,0.6-0.4,0.7-0.4
		c0.1,0,0.1,0.1,0.1,0.1c0,0.2-0.5,1-1.4,1c-0.6,0-0.9-0.4-1.1-0.8C10.3,6.3,10.3,6.3,10.2,6.3C10.2,6.3,10.2,6.3,10.2,6.3
		 M10.1,4.2c-0.2,0-1.6,0.7-1.6,1.7c0,0.5,0.4,0.8,0.7,0.8c0.3,0,0.6-0.2,0.8-0.5c0.3-0.4,0.3-1,0.3-1.7C10.3,4.2,10.2,4.2,10.1,4.2
		"/>
	<path fill="#FFFFFF" d="M32.1,3.3c-0.8,0-1.9-0.1-3.1-0.1c-0.3,0-0.4,0-0.4,0.6c0,1.4,0.6,2.6,2.2,2.6c1.2,0,1.7-0.8,1.8-0.8
		c0.1,0,0.1,0,0.1,0.1c0,0.2-1.1,1.6-2.6,1.6c-1.6,0-2.8-1.2-2.8-3c0-1.9,1.5-3.3,3.2-3.3c1.3,0,2.3,1,2.3,1.9
		C32.7,3.3,32.5,3.3,32.1,3.3 M30.4,1.3c-1.1,0-1.6,0.9-1.6,1.4c0,0.2,0.2,0.2,0.8,0.2c0.8,0,1.8-0.1,1.8-0.8
		C31.5,1.8,31.2,1.3,30.4,1.3"/>
	<path fill="#FFFFFF" d="M23.1,2.3c-0.1,0-0.2,0-0.2-0.1c0-0.1,0.1-0.1,0.3-0.2c0.2-0.1,1-0.5,1.4-0.9C24.7,1,24.8,1,24.8,1
		C24.9,1,25,1,25,1.2v0.7C25,2,25,2,25.1,2c0.2,0,0.7-1,1.6-1c0.5,0,0.8,0.4,0.8,0.8c0,0.5-0.3,0.7-0.7,0.7c-0.5,0-0.6-0.5-1.1-0.5
		c-0.2,0-0.3,0.2-0.4,0.3C25,2.6,25,3.4,25,4.5c0,1,0,1.9,0.1,2.1c0.2,0.2,0.7,0.3,0.9,0.4c0.2,0,0.3,0,0.3,0.1
		c0,0.1-0.2,0.1-0.3,0.1c-0.1,0-1.1,0-1.6,0c-0.4,0-1.4,0-1.5,0c-0.1,0-0.3,0-0.3-0.1c0-0.1,0.2-0.1,0.3-0.2c0.1,0,0.5-0.1,0.6-0.4
		c0.1-0.2,0.1-0.7,0.1-2.4S23.7,2.4,23.1,2.3"/>
	<path fill="#FFFFFF" d="M14.6,0.2c0,0.3,0,0.7,0,0.9c0,0.1,0.1,0.2,0.2,0.2l2.9-0.1c0.3,0,0.3,0.1,0.3,0.3c0,0.6,0,1.1,0,3.8
		c0,0.7,0.3,1.1,1.2,1.1c0.5,0,1-0.2,1.2-0.6c0.2-0.3,0.2-1.1,0.2-1.8c0-1.4,0-2.1-0.2-2.3c-0.1-0.1-0.3-0.1-0.6-0.2
		c-0.3,0-0.4,0-0.4-0.1c0-0.1,0-0.1,0.2-0.1l1.9,0c0.2,0,0.3,0.1,0.3,0.2c0,0.5-0.1,2.1-0.1,3.4c0,0.8,0,1.3,0.1,1.5
		c0.1,0.1,0.2,0.2,0.5,0.2c0.1,0,0.3,0,0.4,0c0.1,0,0.1,0,0.1,0.1c0,0.1-0.1,0.1-0.2,0.1c-0.3,0-1.3,0.3-1.7,0.5
		c-0.1,0-0.2,0.1-0.2,0.1c-0.1,0-0.1-0.1-0.1-0.2c0-0.2,0-0.4,0-0.6c0-0.1,0-0.2-0.1-0.2c-0.2,0-0.9,1-2,1c-0.7,0-1.7-0.4-1.7-1.8
		c0-0.8,0-3,0-3.2c0-0.5,0-0.5-1.1-0.5c-0.4,0-0.6,0-0.8,0c-0.2,0-0.2,0-0.2,0.3c0,0.5,0,1.2,0,2.8c0,0.7,0,1.1,0.1,1.3
		c0.1,0.2,0.3,0.3,0.7,0.3c0.4,0,0.9-0.2,1-0.2c0,0,0.1,0,0.1,0.1c0,0.1-0.9,0.9-1.9,0.9c-1,0-1.3-0.8-1.3-1.8c0-0.5,0.1-3,0.1-3.2
		c0-0.2,0-0.4-0.3-0.4h-0.4c-0.1,0-0.1,0-0.1-0.1c0-0.1,0.1-0.1,0.3-0.3c0.5-0.3,1.1-0.9,1.5-1.3C14.3,0.1,14.4,0,14.5,0
		C14.5,0,14.6,0.1,14.6,0.2"/>
</g>
<g>
	<path fill="#FFFFFF" d="M17.5,12.3c0.3,0.5,0.4,1.5,0.4,2.1c0,1.4,0,2.2,0,2.9c0,2.5,0,2.4,0.9,2.7c0.2,0.1,0.5,0.1,0.5,0.2
		c0,0.1-0.2,0.2-0.4,0.2c-0.2,0-1.4-0.1-1.9-0.1c-0.5,0-1.8,0.1-2,0.1c-0.4,0-0.5,0-0.5-0.1c0-0.2,0.4-0.2,0.7-0.3
		c0.4-0.1,0.7-0.2,0.7-0.8c0.1-0.5,0.1-1.3,0.1-2.8c0-1.8,0-2.9-0.4-3.4c-0.4-0.5-0.9-0.7-1.6-0.7c-0.8,0-1.4,0.5-1.7,1
		c-0.3,0.6-0.4,1.9-0.4,3.1c0,1.6,0,2.4,0.1,2.9c0.1,0.3,0.3,0.5,0.6,0.6c0.2,0.1,0.7,0.1,0.7,0.3c0,0.2-0.3,0.2-0.5,0.2
		c-0.2,0-1.6-0.1-2-0.1c-0.4,0-1.9,0.1-2,0.1c-0.3,0-0.3,0-0.3-0.1c0-0.2,0.3-0.2,0.7-0.3c0.4-0.1,0.7-0.2,0.8-0.6
		c0.1-0.7,0.1-1.9,0.1-3.7c0-1.2,0-2-0.2-2.3c-0.1-0.1-0.3-0.2-0.5-0.2c-0.3,0-0.5,0-0.5-0.2c0-0.1,0.1-0.1,0.1-0.2
		c0.9-0.3,1.7-0.8,2.5-1.6c0.1-0.1,0.2-0.2,0.3-0.2c0.2,0,0.2,0.2,0.2,0.4v1c0,0.1,0,0.3,0.1,0.3c0.3,0,1.2-1.6,3.1-1.6
		C16.3,11.1,17,11.6,17.5,12.3L17.5,12.3z"/>
	<path fill="#FFFFFF" d="M28,13c-0.1,0-0.2,0-0.2-0.1c0-0.1,0.1-0.2,0.4-0.3c0.3-0.1,1.5-0.8,2.1-1.3c0.3-0.3,0.4-0.3,0.5-0.3
		c0.1,0,0.2,0.1,0.2,0.3v1c0,0.2,0.1,0.2,0.1,0.2c0.3,0,1-1.6,2.4-1.6c0.8,0,1.3,0.6,1.3,1.2c0,0.7-0.5,1.1-1.1,1.1
		c-0.8,0-0.9-0.8-1.7-0.8c-0.4,0-0.5,0.3-0.6,0.4c-0.4,0.4-0.4,1.6-0.4,3.3c0,1.6,0,2.8,0.2,3.1c0.2,0.4,1.1,0.5,1.4,0.6
		c0.2,0,0.4,0,0.4,0.2c0,0.1-0.3,0.1-0.4,0.1c-0.2,0-1.7-0.1-2.4-0.1c-0.7,0-2.1,0.1-2.2,0.1c-0.2,0-0.4,0-0.4-0.1
		c0-0.2,0.2-0.2,0.5-0.2c0.2,0,0.8-0.2,1-0.5c0.1-0.4,0.2-1.1,0.2-3.6C29.1,13.4,29,13.1,28,13L28,13z"/>
	<path fill="#FFFFFF" d="M26.6,14.5c-1.3,0-2.8-0.1-4.6-0.1c-0.5,0-0.7,0-0.7,0.9c0,2.1,0.9,4,3.3,4c1.8,0,2.6-1.2,2.7-1.2
		c0.1,0,0.1,0.1,0.1,0.1c0,0.4-1.7,2.4-3.9,2.4c-2.4,0-4.3-1.8-4.3-4.6c0-2.9,2.2-5,4.8-5c1.9,0,3.4,1.5,3.4,3
		C27.4,14.5,27.2,14.5,26.6,14.5L26.6,14.5z M23.9,11.4c-1.6,0-2.4,1.4-2.4,2.1c0,0.3,0.3,0.3,1.3,0.3c1.2,0,2.8-0.1,2.8-1.1
		C25.6,12.3,25.1,11.4,23.9,11.4L23.9,11.4z"/>
	<path fill="#FFFFFF" d="M7.4,14.5c-1.3,0-2.8-0.1-4.6-0.1c-0.5,0-0.7,0-0.7,0.9c0,2.1,0.9,4,3.3,4c1.8,0,2.6-1.2,2.7-1.2
		c0.1,0,0.1,0.1,0.1,0.1c0,0.4-1.7,2.4-3.9,2.4C1.9,20.5,0,18.8,0,16c0-2.9,2.2-5,4.8-5c1.9,0,3.4,1.5,3.4,3
		C8.3,14.5,8,14.5,7.4,14.5L7.4,14.5z M4.7,11.4c-1.6,0-2.4,1.4-2.4,2.1c0,0.3,0.3,0.3,1.3,0.3c1.2,0,2.8-0.1,2.8-1.1
		C6.4,12.3,6,11.4,4.7,11.4L4.7,11.4z"/>
	<path fill="#FFFFFF" d="M37,16.9c-0.6-0.3-1-0.6-1.3-1.1c-0.3-0.5-0.5-1-0.5-1.6c0-0.9,0.4-1.6,1.1-2.3c0.7-0.6,1.6-1,2.8-1
		c0.9,0,1.7,0.2,2.4,0.6c0,0,1.6,0.2,2.7,0.2c1.8,0,3.9,0,3.9,0v0.4h-0.2c-0.3,0-0.6,0.1-0.7,0.2c-0.2,0.1-0.2,0.3-0.2,0.5
		c0,0.3,0.1,0.6,0.3,1.1l2.3,4.5l2.1-5c0.1-0.3,0.2-0.5,0.2-0.8c0-0.1,0-0.2-0.1-0.3c-0.1-0.1-0.1-0.1-0.3-0.2
		c-0.1,0-0.3-0.1-0.6-0.1v-0.4H54v0.4c-0.3,0-0.5,0.1-0.6,0.2c-0.1,0.1-0.3,0.2-0.5,0.4c-0.1,0.1-0.2,0.3-0.4,0.8l-3.9,8.9
		c-0.4,0.9-0.9,1.5-1.5,2C46.6,24.8,46,25,45.4,25c-0.4,0-0.7-0.1-1-0.3c-0.3-0.2-0.4-0.5-0.4-0.8c0-0.3,0.1-0.5,0.3-0.7
		c0.2-0.2,0.5-0.2,0.8-0.2c0.2,0,0.5,0.1,0.9,0.2c0.3,0.1,0.5,0.1,0.5,0.1c0.2,0,0.4-0.1,0.7-0.3c0.3-0.2,0.5-0.6,0.8-1.2l0.7-1.6
		l-3.4-6.8c-0.1-0.2-0.3-0.5-0.5-0.8c-0.2-0.2-0.3-0.4-0.4-0.5c-0.1,0-0.1-0.1-0.2-0.1c0,0-1.9,0.2-1.9,0.2c0.4,0.5,0.6,1.1,0.6,1.8
		c0,0.8-0.3,1.5-1,2.1C41,17,40.1,17.3,39,17.3c-0.5,0-1-0.1-1.5-0.2c-0.3,0.2-0.5,0.5-0.6,0.7c-0.1,0.2-0.2,0.3-0.2,0.5
		c0,0.1,0.1,0.2,0.2,0.3c0.1,0.1,0.3,0.2,0.7,0.2c0.2,0,0.7,0,1.5,0.1c1.4,0,2.4,0.1,2.8,0.1c0.6,0.1,1.2,0.3,1.5,0.7
		C43.8,20,44,20.4,44,21c0,0.7-0.4,1.4-1.1,2.1c-1.1,1-2.5,1.4-4.3,1.4c-1.3,0-2.5-0.3-3.4-0.9c-0.5-0.3-0.8-0.7-0.8-1
		c0-0.2,0-0.3,0.1-0.5c0.1-0.2,0.4-0.6,0.7-1c0-0.1,0.4-0.4,1.1-1.1c-0.4-0.2-0.6-0.4-0.8-0.5c-0.1-0.2-0.2-0.3-0.2-0.5
		c0-0.2,0.1-0.5,0.3-0.8C35.8,17.9,36.3,17.5,37,16.9L37,16.9z M38.8,11.4c-0.5,0-0.9,0.2-1.3,0.6c-0.3,0.4-0.5,1-0.5,1.8
		c0,1,0.2,1.8,0.7,2.4c0.4,0.4,0.8,0.6,1.4,0.6c0.5,0,1-0.2,1.3-0.6c0.3-0.4,0.5-1,0.5-1.8c0-1-0.2-1.8-0.7-2.4
		C39.8,11.6,39.4,11.4,38.8,11.4L38.8,11.4z M36.9,20.2c-0.3,0.3-0.6,0.6-0.7,0.9c-0.2,0.3-0.3,0.6-0.3,0.8c0,0.3,0.2,0.6,0.6,0.8
		c0.7,0.4,1.7,0.6,3,0.6c1.3,0,2.2-0.2,2.8-0.6c0.6-0.4,0.9-0.9,0.9-1.3c0-0.3-0.2-0.6-0.5-0.7c-0.4-0.1-1.1-0.2-2.2-0.3
		C38.9,20.3,37.7,20.3,36.9,20.2L36.9,20.2z"/>
</g>
</svg>
