<svg width="140" height="14" viewBox="0 0 140 14" xmlns="http://www.w3.org/2000/svg"><title>Group</title><g fill="#4E4E4E" fill-rule="evenodd"><path d="M75.352 5.684c0-2.78-2.377-3.77-4.6-3.77-1.134 0-2.841 0-3.825.033v11.564h2.878v-3.53h.875c.175 0 .34-.006.492-.016l.023-.003.014.02c.478.763 1.087 1.993 1.282 3.53.632 0 1.122 0 1.536.002h.815c.274 0 .529 0 .799-.003-.268-1.768-1.23-3.541-1.788-4.444l-.017-.033.027-.02c.96-.764 1.489-1.946 1.489-3.33zm-3.054.404c0 1.193-.504 1.726-1.636 1.726-.362 0-.6 0-.82-.018l-.037-.003V4.105l.038-.003c.255-.017.587-.017.855-.017 1.333 0 1.6.766 1.6 2.003zm-7.489 7.423V11.25h-4.131V8.708h3.732V6.471h-3.732V4.189h4.076V1.932h-6.83v9.53c0 .01-.017.915.584 1.535.374.39.909.588 1.589.59 2.095.013 4.389-.063 4.712-.076zm-12.904.359c1.118 0 2.801-.289 4.055-.934V7.179h-3.796v1.975h1.198v2.364l-.027.01c-.289.104-.979.159-1.267.159-1.52 0-2.112-1.125-2.112-4.005 0-2.533.875-3.763 2.674-3.763.601 0 1.479.268 2.413.737l.78-1.93a7.128 7.128 0 0 0-3.645-1.048c-1.745 0-3.003.49-3.847 1.497-.837 1.001-1.242 2.486-1.242 4.541 0 4.486 1.306 6.154 4.816 6.154zm-9.706-.359h3.034V1.932h-2.547v7.576l-3.448-7.576h-3.149v11.58h2.535V6.205l3.575 7.305zm-11.516 0h2.876V1.95h-2.876v11.561zm-3.609-4.444l-.019-.033.028-.02c.96-.764 1.489-1.947 1.489-3.33 0-2.78-2.375-3.77-4.6-3.77-1.134 0-2.841 0-3.825.033v11.564h2.878v-3.53h.875c.175 0 .34-.006.492-.016l.024-.003.013.02c.478.763 1.087 1.993 1.282 3.53.632 0 1.122 0 1.536.002h.814c.276 0 .531 0 .8-.003-.266-1.768-1.232-3.541-1.787-4.444zm-1.556-2.979c0 1.193-.504 1.726-1.635 1.726-.362 0-.601 0-.82-.018l-.038-.003V4.105l.038-.003c.255-.017.588-.017.855-.017 1.333 0 1.6.766 1.6 2.003zm-6.817-.444c0-2.406-1.522-3.73-4.286-3.73-1.135 0-2.842 0-3.826.033v11.564h2.879v-3.53h.875c1.31 0 4.358-.421 4.358-4.337zm-2.74.444c0 1.193-.505 1.726-1.636 1.726-.363 0-.601 0-.82-.018l-.037-.004V4.105l.038-.003c.255-.017.587-.017.855-.017 1.332 0 1.6.767 1.6 2.003zM3.79 4.147c0-.648.42-1.303 1.357-1.303.68 0 1.486.227 2.536.71l1.045-2.088C7.514.756 6.268.413 4.925.413 2.315.413.756 1.815.756 4.163S2.58 7.42 4.043 8.147c1.063.528 1.98.986 1.98 1.846 0 .742-.66 1.243-1.644 1.243-.787 0-1.748-.291-2.858-.863l-1.047 2.24c1.403.794 2.684 1.15 4.149 1.15 2.711 0 4.33-1.503 4.33-4.022 0-2.38-1.82-3.236-3.284-3.922-1.008-.473-1.88-.882-1.88-1.672zM135.296 11.25V8.708h3.732V6.471h-3.732V4.189h4.077V1.932h-6.833v9.53c0 .01-.015.915.585 1.535.375.39.91.588 1.589.592 2.095.011 4.389-.065 4.71-.078V11.25h-4.128zm-6.224-2.183l-.018-.032.028-.02c.96-.765 1.489-1.948 1.489-3.33 0-2.78-2.375-3.77-4.6-3.77-1.134 0-2.841 0-3.827.032v11.564h2.88v-3.53h.875c.175 0 .34-.006.492-.016l.022-.003.014.02c.478.763 1.088 1.993 1.283 3.53.632 0 1.122 0 1.536.002h.813c.276 0 .533 0 .8-.003-.267-1.768-1.23-3.541-1.787-4.444zm-1.555-2.977c0 1.191-.506 1.724-1.636 1.724-.361 0-.6 0-.819-.018l-.038-.003V4.105l.038-.003c.255-.017.587-.017.855-.017 1.333 0 1.6.767 1.6 2.005zm-7.5 3.275V1.932h-2.98v7.71c0 1.186-.069 1.911-1.394 1.911-1.27 0-1.484-.594-1.484-1.929V1.932h-2.98v7.849c0 2.762 1.337 3.993 4.337 3.993 3.071 0 4.5-1.4 4.5-4.409zm-12.783-5.072h2.213v-2.36h-7.805v2.36h2.596v9.218h2.996V4.293zm-8.794 9.218h3.095L98.758 1.932H94.27l-2.814 11.58h2.936l.415-1.84h3.22l.414 1.84zm-.753-4.025h-2.544L96.34 4.45h.12l.007.03 1.219 5.005zM86.394 13.51h3.404V.531H87.03l.114 9.055L82.91.531h-3.36v12.98h2.665l-.023-8.958.077.162 4.125 8.796z"/></g></svg>