<?xml version="1.0" encoding="UTF-8" standalone="no"?>
<svg width="74px" height="25px" viewBox="0 0 74 25" version="1.1" xmlns="http://www.w3.org/2000/svg" xmlns:xlink="http://www.w3.org/1999/xlink">
    <!-- Generator: Sketch 47 (45396) - http://www.bohemiancoding.com/sketch -->
    <title>Nature_Primary_stacked</title>
    <desc>Created with Sketch.</desc>
    <defs></defs>
    <g id="Page-1" stroke="none" stroke-width="1" fill="none" fill-rule="evenodd">
        <g id="article-kitchen-sink" transform="translate(-221.000000, -161.000000)" fill-rule="nonzero" fill="#FFFFFF">
            <g id="Nature_Primary_stacked" transform="translate(221.000000, 161.000000)">
                <path d="M15.4852941,16.5980392 C15.8284314,16.5980392 16.0882353,16.5539216 16.0882353,16.3382353 C16.0882353,16.122549 15.6568627,16.0784314 15.3333333,15.995098 C14.0147059,15.6470588 14.0147059,15.7156863 14.0147059,12.0196078 C14.0147059,11.0931373 14.0147059,9.79411765 14.0147059,7.74509804 C14.0147059,6.76470588 13.9068627,5.29411765 13.3872549,4.56862745 C12.600871,3.42559449 11.2777684,2.77239376 9.89215686,2.84313725 C7.06372549,2.84313725 5.83333333,5.19607843 5.31372549,5.19607843 C5.14215686,5.19607843 5.09803922,4.98039216 5.09803922,4.78431373 L5.09803922,3.31372549 C5.09803922,2.97058824 5.05392157,2.68627451 4.81862745,2.68627451 C4.64526465,2.72550035 4.48694435,2.81402353 4.3627451,2.94117647 C3.28684091,3.94965404 2.02476992,4.73886466 0.647058824,5.26470588 C0.51615132,5.27763603 0.419997195,5.39345804 0.431372549,5.5245098 C0.431372549,5.72058824 0.710784314,5.72058824 1.18627451,5.78431373 C1.48928316,5.80237216 1.7744554,5.93358638 1.98529412,6.15196078 C2.26470588,6.51960784 2.26470588,7.68627451 2.26470588,9.54411765 C2.31511721,11.3645371 2.25782766,13.1863448 2.09313725,15 C1.98529412,15.6862745 1.64215686,15.7794118 0.980392157,15.9509804 C0.460784314,16.0784314 0,16.122549 0,16.3823529 C0,16.6421569 0.12745098,16.5980392 0.519607843,16.5980392 C0.735294118,16.5980392 3.00490196,16.4901961 3.54411765,16.4901961 C4.08333333,16.4901961 6.17647059,16.5980392 6.48529412,16.5980392 C6.79411765,16.5980392 7.17647059,16.5980392 7.17647059,16.3627451 C7.17647059,16.127451 6.50490196,16.0392157 6.16176471,15.872549 C5.72513466,15.7611311 5.37789994,15.4306082 5.24509804,15 C5.07352941,14.1813725 5.04901961,13.0392157 5.04901961,10.6176471 C5.04901961,8.82352941 5.04901961,6.92647059 5.58823529,6.01960784 C6.12680383,5.14346768 7.06561409,4.59230706 8.09313725,4.54901961 C9.21568627,4.54901961 9.8872549,4.76470588 10.5441176,5.52941176 C11.2009804,6.29411765 11.1715686,7.90686275 11.1715686,10.6470588 C11.2130468,12.0368727 11.1770433,13.4279181 11.0637255,14.8137255 C10.9558824,15.5931373 10.5735294,15.7401961 9.96078431,15.9558824 C9.47058824,16.127451 8.85784314,16.1078431 8.85784314,16.3872549 C8.85784314,16.5588235 9.09313725,16.5833333 9.6372549,16.5833333 C10.0245098,16.5833333 11.8382353,16.4754902 12.6372549,16.4754902 C13.4362745,16.4754902 15.1372549,16.5980392 15.4852941,16.5980392 Z" id="Shape"></path>
                <path d="M28.8088235,14.4852941 C28.818688,14.4311495 28.8059171,14.3753284 28.7734915,14.3308589 C28.7410659,14.2863895 28.6918227,14.2571628 28.6372549,14.25 C28.4313725,14.245098 27.9411765,15.0441176 26.9607843,15.0441176 C25.9803922,15.0441176 25.8578431,14.1372549 25.8578431,13.1862745 C25.8578431,12.2352941 26.0931373,7.20588235 26.0931373,5.34313725 C26.0931373,3.05392157 24.0196078,2.68627451 22.2254902,2.68627451 C18.4656863,2.68627451 16.2892157,5.53921569 16.2892157,6.89705882 C16.2904612,7.08946555 16.3691281,7.27326631 16.5074692,7.40699604 C16.6458103,7.54072576 16.8321714,7.6131187 17.0245098,7.60784314 C17.6700683,7.61205623 18.2592908,7.24092261 18.5343137,6.65686275 C18.9803922,5.22058824 19.6078431,3.38235294 21.6176471,3.38235294 C22.372549,3.38235294 22.8921569,3.50980392 23.2794118,4.28921569 C23.4754902,4.67647059 23.4313725,5.34803922 23.4313725,6.21078431 C23.4313725,9.15196078 23.3872549,8.80392157 20.5784314,10.2058824 C18.8284314,11.0931373 16.5637255,12.1666667 16.5637255,14.4166667 C16.5536874,15.0908773 16.8218503,15.7394442 17.3050905,16.2096991 C17.7883308,16.679954 18.4439598,16.9303555 19.1176471,16.9019608 C20.6827239,16.8569145 22.126957,16.0496815 22.9852941,14.7401961 C23.0117418,14.6959459 23.0614763,14.6710786 23.1127451,14.6764706 C23.2125132,14.6867092 23.2874093,14.7723047 23.2843137,14.872549 C23.6027164,15.9579462 24.604231,16.699067 25.7352941,16.6862745 C27.6617647,16.6666667 28.8088235,15.0245098 28.8088235,14.4852941 Z M22.6127451,14.2892157 C22.2383453,14.9595277 21.5461227,15.3907787 20.7794118,15.4313725 C20.3292225,15.4370889 19.8964305,15.2577185 19.5822706,14.935218 C19.2681106,14.6127175 19.1001393,14.1753752 19.1176471,13.7254902 C19.1176471,11.5245098 22.377451,9.92647059 22.7892157,9.92647059 C23.1127451,9.92647059 23.2794118,10.0784314 23.2794118,10.5294118 C23.254902,12 23.1911765,13.4460784 22.6078431,14.2892157 L22.6127451,14.2892157 Z" id="Shape"></path>
                <path d="M51.5882353,15.3921569 C51.5856962,15.3375316 51.5615296,15.2861605 51.5210665,15.2493759 C51.4806034,15.2125913 51.4271684,15.1934154 51.372549,15.1960784 C51.245098,15.1960784 50.745098,15.2401961 50.5294118,15.2401961 C49.9019608,15.2401961 49.6029412,15.1519608 49.4509804,14.872549 C49.2352941,14.4852941 49.2156863,13.2107843 49.2156863,11.4803922 C49.2156863,8.62745098 49.4313725,5 49.4313725,3.87745098 C49.4313725,3.46568627 49.3039216,3.29411765 48.8039216,3.31372549 L44.4215686,3.42156863 C43.9901961,3.42156863 43.9019608,3.52941176 43.9019608,3.7254902 C43.9019608,3.92156863 44.1176471,3.92156863 44.7647059,4.00980392 C45.2328955,4.00981851 45.6903911,4.14979849 46.0784314,4.41176471 C46.4460784,4.73529412 46.4460784,6.31372549 46.4460784,9.54901961 C46.4460784,11.1029412 46.4460784,12.9803922 46.0784314,13.5882353 C45.5882353,14.4509804 44.4362745,14.9901961 43.2941176,14.9901961 C41.245098,14.9901961 40.5294118,13.9558824 40.5294118,12.4656863 C40.5980392,6.42647059 40.6372549,5.22058824 40.6372549,3.92156863 C40.6372549,3.2745098 40.5735294,3.12254902 39.9460784,3.14215686 L33.3333333,3.43137255 C33.2227242,3.42724755 33.1198601,3.3735087 33.0532964,3.28507415 C32.9867328,3.1966396 32.9635546,3.08292211 32.9901961,2.9754902 C32.9901961,2.37254902 33.0539216,1.46568627 33.0539216,0.882352941 C33.0789669,0.785821214 33.0566249,0.683132055 32.9937372,0.605731874 C32.9308496,0.528331693 32.8349086,0.485441707 32.7352941,0.490196078 C32.5392157,0.490196078 32.4558824,0.705882353 32.2794118,0.980392157 C31.5441176,2.08333333 30.0098039,3.28921569 28.9754902,4.0245098 C28.5196078,4.34803922 28.2647059,4.36764706 28.2647059,4.65196078 C28.2739718,4.7042847 28.3045973,4.75039138 28.3492353,4.77922011 C28.3938733,4.80804884 28.4484961,4.8169983 28.5,4.80392157 L29.4509804,4.80392157 C30.0784314,4.80392157 30.0980392,5.25490196 30.0980392,5.64705882 C30.0980392,6.03921569 29.9509804,11.5882353 29.9509804,12.7794118 C29.9509804,15.1568627 30.4705882,16.8823529 32.8039216,16.8823529 C34.9656863,16.8823529 36.995098,15.0686275 36.995098,14.7892157 C36.9954656,14.745274 36.9767933,14.7033245 36.9438979,14.6741886 C36.9110025,14.6450527 36.8671051,14.6315833 36.8235294,14.6372549 C36.11306,14.9366199 35.3608267,15.1250916 34.5931373,15.1960784 C33.8137255,15.1960784 33.3627451,15 33.0588235,14.4607843 C32.754902,13.9215686 32.754902,12.9509804 32.754902,11.4607843 C32.754902,7.89705882 32.7990196,6.25490196 32.8627451,5.17647059 C32.9068627,4.46568627 32.9705882,4.42156863 33.4019608,4.39705882 C33.8333333,4.37254902 34.504902,4.33333333 35.2941176,4.33333333 C37.745098,4.33333333 37.7794118,4.33333333 37.7794118,5.56372549 C37.7794118,6.19117647 37.6715686,11.2009804 37.6715686,12.9166667 C37.6715686,15.9852941 39.872549,16.8921569 41.4509804,16.8921569 C44.0833333,16.8921569 45.7254902,14.6029412 46.0735294,14.6029412 C46.2892157,14.6029412 46.3333333,14.8382353 46.3333333,15.0931373 C46.3333333,15.6960784 46.2892157,16.0735294 46.2892157,16.5196078 C46.2892157,16.8627451 46.3529412,17.0098039 46.5686275,17.0098039 C46.7459874,16.966072 46.9197062,16.908712 47.0882353,16.8382353 C48.379328,16.3602609 49.70297,15.9752908 51.0490196,15.6862745 C51.4362745,15.627451 51.5882353,15.5441176 51.5882353,15.3921569 Z" id="Shape"></path>
                <path d="M58.8627451,16.0588235 C58.4509804,15.9705882 57.1127451,15.7794118 56.7696078,15.2401961 C56.4656863,14.7892157 56.5098039,12.9509804 56.5098039,10.5980392 C56.5098039,8.07352941 56.5539216,6.34313725 57.0931373,5.74019608 C57.2910752,5.3944695 57.6469899,5.16881222 58.0441176,5.1372549 C59.1029412,5.1372549 59.3382353,6.34803922 60.495098,6.34803922 C60.9430361,6.35778254 61.3751769,6.18242534 61.6896642,5.86329965 C62.0041514,5.54417395 62.1731631,5.10951211 62.1568627,4.66176471 C62.1642194,4.15561264 61.961971,3.66894371 61.5980461,3.31708768 C61.2341211,2.96523166 60.7409105,2.77950528 60.2352941,2.80392157 C58.1813725,2.80392157 57.127451,5.1127451 56.6960784,5.1127451 C56.6078431,5.1127451 56.5245098,5.06862745 56.5245098,4.78921569 L56.5245098,3.23529412 C56.5245098,2.82352941 56.372549,2.71568627 56.2205882,2.71568627 C55.9311221,2.76362458 55.6741002,2.92847313 55.5098039,3.17156863 C54.5844241,3.96829104 53.555479,4.63611597 52.4509804,5.15686275 C52.0637255,5.30882353 51.8676471,5.37254902 51.8676471,5.56862745 C51.8676471,5.67647059 52.0196078,5.72058824 52.2107843,5.74019608 C53.6813725,5.82843137 53.745098,6.19607843 53.745098,9.8627451 C53.745098,13.5294118 53.7009804,14.6764706 53.5098039,15.2205882 C53.3186275,15.7647059 52.3431373,15.9558824 52.0833333,16.0196078 C51.8235294,16.0833333 51.3921569,16.1470588 51.3921569,16.3872549 C51.3921569,16.627451 51.7598039,16.6029412 52.0196078,16.6029412 C52.2794118,16.6029412 54.372549,16.495098 55.3431373,16.495098 C56.3137255,16.495098 58.627451,16.6029412 58.8627451,16.6029412 C59.0980392,16.6029412 59.5098039,16.6029412 59.5098039,16.3872549 C59.5098039,16.1715686 59.2107843,16.127451 58.8627451,16.0588235 Z" id="Shape"></path>
                <path d="M67.6127451,16.8823529 C70.9362745,16.8823529 73.4656863,13.8382353 73.4656863,13.2990196 C73.4737547,13.2412649 73.4527699,13.1832533 73.4096199,13.144026 C73.3664698,13.1047987 73.3067267,13.0894213 73.25,13.1029412 C73.0343137,13.1029412 71.8676471,14.9607843 69.2107843,14.9607843 C65.6715686,14.9607843 64.3088235,12.1960784 64.3088235,9.04411765 C64.3088235,7.7254902 64.6127451,7.70588235 65.3235294,7.70588235 C68.0441176,7.70588235 70.3529412,7.87745098 72.2352941,7.87745098 C73.0980392,7.87745098 73.5294118,7.87745098 73.5294118,7.07843137 C73.5294118,4.85294118 71.3284314,2.66666667 68.4313725,2.66666667 C66.4827895,2.66047657 64.6151125,3.44531674 63.2558539,4.84153679 C61.8965954,6.23775683 61.1621339,8.12581348 61.2205882,10.0735294 C61.1960784,14.245098 64.004902,16.8823529 67.6127451,16.8823529 Z M68.2598039,3.34313725 C70.0735294,3.34313725 70.7107843,4.66176471 70.7107843,5.26470588 C70.7107843,6.84313725 68.2941176,6.97058824 66.5637255,6.97058824 C65.0931373,6.97058824 64.6617647,6.8627451 64.6617647,6.48039216 C64.6519608,5.39215686 65.8627451,3.34313725 68.2598039,3.34313725 L68.2598039,3.34313725 Z" id="Shape"></path>
                <path d="M0.205882353,20.3186275 C0.272018119,20.3250713 0.337567125,20.3365424 0.401960784,20.3529412 C0.468688828,20.3676584 0.534229254,20.3873205 0.598039216,20.4117647 C0.655116298,20.4275807 0.704129218,20.4643404 0.735294118,20.5147059 C0.756066635,20.5626072 0.766105356,20.614474 0.764705882,20.6666667 L0.764705882,23.3529412 C0.767482923,23.4095139 0.753865636,23.4656852 0.725490196,23.5147059 C0.693931938,23.5584555 0.649307782,23.5910655 0.598039216,23.6078431 C0.537432496,23.6254453 0.474846371,23.6353274 0.411764706,23.6372549 L0.205882353,23.6372549 L0.205882353,23.8235294 L1.87745098,23.8235294 L1.87745098,23.6519608 C1.80664196,23.6495096 1.73614888,23.6413127 1.66666667,23.627451 L1.47058824,23.5784314 C1.41739671,23.5574848 1.37259897,23.5195791 1.34313725,23.4705882 C1.31698697,23.4242414 1.30346422,23.3718407 1.30392157,23.3186275 L1.30392157,20.6372549 C1.30332904,20.5830431 1.31506231,20.5294053 1.33823529,20.4803922 C1.36574903,20.428854 1.41386325,20.3914318 1.47058824,20.377451 C1.53476352,20.3579041 1.60030379,20.3431576 1.66666667,20.3333333 L1.85784314,20.3333333 L1.85784314,20.1323529 L0.205882353,20.1323529 L0.205882353,20.3186275 Z" id="Shape"></path>
                <path d="M4.90196078,23.6127451 C4.8521832,23.6011422 4.80850117,23.5714384 4.77941176,23.5294118 C4.75747743,23.4836186 4.74736567,23.4330598 4.75,23.3823529 L4.75,22.0588235 C4.76078358,21.8383955 4.69687959,21.6207765 4.56862745,21.4411765 C4.4334221,21.2804188 4.22904351,21.1946527 4.01960784,21.2107843 C3.91825335,21.2099447 3.81738162,21.2248274 3.72058824,21.254902 C3.63949743,21.2786619 3.56199631,21.31329 3.49019608,21.3578431 C3.42752793,21.4002473 3.36850038,21.4477973 3.31372549,21.5 L3.15686275,21.6519608 L3.15686275,21.6519608 L3.15686275,21.2696078 L3.12254902,21.2352941 L2.26470588,21.2941176 L2.26470588,21.4656863 L2.41176471,21.4656863 C2.45327546,21.4733384 2.493105,21.4882745 2.52941176,21.5098039 C2.57524371,21.5407639 2.61237334,21.5829566 2.6372549,21.6323529 C2.66303664,21.6823769 2.67648243,21.7378407 2.67647059,21.7941176 L2.67647059,23.3823529 C2.67889943,23.43517 2.66704568,23.4876652 2.64215686,23.5343137 C2.61802649,23.574717 2.57949752,23.6044894 2.53431373,23.6176471 L2.42156863,23.6176471 L2.29901961,23.6176471 L2.29901961,23.7892157 L3.53431373,23.7892157 L3.53431373,23.6666667 L3.40196078,23.6666667 L3.28431373,23.6078431 C3.24155492,23.5926458 3.20410298,23.565408 3.17647059,23.5294118 C3.15125783,23.4846616 3.13935288,23.4336404 3.14215686,23.3823529 L3.14215686,21.9117647 L3.21568627,21.7990196 C3.25421002,21.7493614 3.30056931,21.7063135 3.35294118,21.6715686 C3.4153312,21.6289263 3.48285953,21.5943387 3.55392157,21.5686275 C3.63553189,21.5386654 3.72189056,21.5237187 3.80882353,21.5245098 C3.93024247,21.5236291 4.04555281,21.5776808 4.12254902,21.6715686 C4.21497935,21.7918683 4.26030123,21.9417792 4.25,22.0931373 L4.25,23.4166667 C4.25242884,23.4694837 4.24057509,23.5219789 4.21568627,23.5686275 C4.1915559,23.6090307 4.15302693,23.6388031 4.10784314,23.6519608 C4.06876965,23.6566837 4.02926956,23.6566837 3.99019608,23.6519608 L3.85784314,23.6519608 L3.85784314,23.8235294 L5.11764706,23.8235294 L5.11764706,23.6666667 L4.99019608,23.6666667 L4.90196078,23.6127451 Z" id="Shape"></path>
                <path d="M6.65686275,23.5784314 C6.57902608,23.5787109 6.50206819,23.5619809 6.43137255,23.5294118 C6.37783203,23.5065737 6.33312058,23.4670212 6.30392157,23.4166667 C6.27308947,23.3572887 6.25473893,23.2922277 6.25,23.2254902 C6.2452983,23.1356824 6.2452983,23.0456901 6.25,22.9558824 L6.25,21.5245098 L6.98529412,21.5245098 L6.98529412,21.2745098 L6.23529412,21.2745098 L6.23529412,20.4705882 L5.74509804,20.4705882 L5.74509804,21.2745098 L5.25490196,21.2745098 L5.25490196,21.5245098 L5.72058824,21.5245098 L5.72058824,23.2696078 C5.7104199,23.4338509 5.75716149,23.5965809 5.85294118,23.7303922 C5.97208486,23.8513231 6.14010301,23.9109425 6.30882353,23.8921569 C6.43478388,23.8949879 6.56043181,23.8784553 6.68137255,23.8431373 C6.78267974,23.8104575 6.89052288,23.7712418 7.00490196,23.7254902 L7.00490196,23.5294118 C6.94567178,23.5456808 6.88486556,23.5555413 6.82352941,23.5588235 L6.65686275,23.5784314 Z" id="Shape"></path>
                <path d="M9.06372549,23.5294118 C8.94326156,23.6041113 8.80344214,23.6416239 8.66176471,23.6372549 C8.52576429,23.640686 8.39103215,23.6103712 8.26960784,23.5490196 C8.16272115,23.4922836 8.07172411,23.4097123 8.00490196,23.3088235 C7.92782681,23.1942427 7.87295432,23.0662069 7.84313725,22.9313725 C7.80925798,22.7801532 7.79281093,22.6255508 7.79411765,22.4705882 L9.50980392,22.4705882 L9.50980392,22.2990196 C9.51113958,22.153142 9.49132579,22.0078409 9.45098039,21.8676471 C9.41399368,21.7423242 9.35232798,21.6256593 9.26960784,21.5245098 C9.18153952,21.4174768 9.068847,21.3333779 8.94117647,21.2794118 C8.78582118,21.2157855 8.61877121,21.1857165 8.45098039,21.1911765 C8.2809385,21.1892198 8.11288482,21.2278722 7.96078431,21.3039216 C7.81851666,21.3765484 7.69322424,21.4784529 7.59313725,21.6029412 C7.48540127,21.7386313 7.40394077,21.89324 7.35294118,22.0588235 C7.30086188,22.2170034 7.27438451,22.382487 7.2745098,22.5490196 C7.27860684,22.7151912 7.30498607,22.8800614 7.35294118,23.0392157 C7.39828174,23.1997032 7.47491546,23.3496387 7.57843137,23.4803922 C7.68265496,23.6086721 7.81521392,23.7110278 7.96568627,23.7794118 C8.13689281,23.8550259 8.32269955,23.8918525 8.50980392,23.8872549 C8.73088805,23.8911531 8.94795664,23.8279126 9.13235294,23.7058824 C9.31676201,23.5818582 9.46683387,23.4132382 9.56862745,23.2156863 L9.3872549,23.1029412 C9.31696763,23.2700293 9.20569673,23.4167046 9.06372549,23.5294118 Z M8,21.6176471 C8.10591819,21.4718297 8.2756605,21.3860459 8.45588235,21.3872549 C8.55127014,21.3825999 8.64567327,21.4083462 8.7254902,21.4607843 C8.79632721,21.511441 8.85357394,21.5787901 8.89215686,21.6568627 C8.93201724,21.7455934 8.95845057,21.8397621 8.97058824,21.9362745 C8.98650956,22.0400992 8.99470201,22.1449624 8.99509804,22.25 L7.80392157,22.25 C7.80035171,22.0237246 7.86903919,21.8022075 8,21.6176471 Z" id="Shape"></path>
                <path d="M11.4754902,21.2009804 C11.3474495,21.2059687 11.2227151,21.2430519 11.1127451,21.3088235 C10.9705426,21.3901224 10.8469685,21.5003372 10.75,21.6323529 L10.75,21.6323529 L10.75,21.2696078 L10.7156863,21.2352941 L9.85784314,21.2941176 L9.85784314,21.4656863 L10.004902,21.4656863 C10.0464127,21.4733384 10.0862423,21.4882745 10.122549,21.5098039 C10.1691859,21.5419471 10.2064116,21.585941 10.2303922,21.6372549 C10.2550993,21.6859261 10.2685042,21.7395456 10.2696078,21.7941176 L10.2696078,23.3823529 C10.2720367,23.43517 10.2601829,23.4876652 10.2352941,23.5343137 C10.2111637,23.574717 10.1726348,23.6044894 10.127451,23.6176471 L10.0147059,23.6176471 L9.89215686,23.6176471 L9.89215686,23.7892157 L11.25,23.7892157 L11.25,23.6666667 L11.0686275,23.6666667 C11.0116782,23.6604542 10.9557052,23.6472841 10.9019608,23.627451 C10.8518407,23.6106766 10.8098512,23.5756854 10.7843137,23.5294118 C10.7595951,23.4844707 10.7477236,23.4335928 10.75,23.3823529 L10.75,21.872549 C10.81253,21.751442 10.9033295,21.6471908 11.0147059,21.5686275 C11.1005882,21.5106299 11.2004746,21.4767701 11.3039216,21.4705882 L11.2745098,21.5686275 L11.2745098,21.6715686 C11.2763418,21.7356131 11.3047602,21.7960021 11.3529412,21.8382353 C11.4150444,21.8922721 11.4964117,21.9188049 11.5784314,21.9117647 C11.649552,21.9172776 11.7189484,21.8880581 11.7647059,21.8333333 C11.8081278,21.7626599 11.8302532,21.6809661 11.8284314,21.5980392 C11.8452825,21.4970233 11.8224509,21.393403 11.7647059,21.3088235 C11.689963,21.2303907 11.5833378,21.1906322 11.4754902,21.2009804 L11.4754902,21.2009804 Z" id="Shape"></path>
                <path d="M14.6764706,23.6127451 C14.6321046,23.5980161 14.594072,23.5686273 14.5686275,23.5294118 C14.5466931,23.4836186 14.5365814,23.4330598 14.5392157,23.3823529 L14.5392157,22.0588235 C14.5499993,21.8383955 14.4860953,21.6207765 14.3578431,21.4411765 C14.2226378,21.2804188 14.0182592,21.1946527 13.8088235,21.2107843 C13.707469,21.2099447 13.6065973,21.2248274 13.5098039,21.254902 C13.4287131,21.2786619 13.351212,21.31329 13.2794118,21.3578431 C13.2167301,21.400229 13.157701,21.4477801 13.1029412,21.5 L12.9460784,21.6519608 L12.9460784,21.6519608 L12.9460784,21.2696078 L12.9117647,21.2352941 L12.0539216,21.2941176 L12.0539216,21.4656863 L12.2009804,21.4656863 C12.2424912,21.4733384 12.2823207,21.4882745 12.3186275,21.5098039 C12.3644594,21.5407639 12.401589,21.5829566 12.4264706,21.6323529 C12.4522523,21.6823769 12.4656981,21.7378407 12.4656863,21.7941176 L12.4656863,23.3823529 C12.4681151,23.43517 12.4562614,23.4876652 12.4313725,23.5343137 C12.4072422,23.574717 12.3687132,23.6044894 12.3235294,23.6176471 L12.2107843,23.6176471 L12.0882353,23.6176471 L12.0882353,23.7892157 L13.3529412,23.7892157 L13.3529412,23.6666667 L13.2205882,23.6666667 L13.1029412,23.627451 C13.0466458,23.6128565 12.9977498,23.5779308 12.9656863,23.5294118 C12.9404735,23.4846616 12.9285686,23.4336404 12.9313725,23.3823529 L12.9313725,21.9117647 L13.004902,21.7990196 C13.0434257,21.7493614 13.089785,21.7063135 13.1421569,21.6715686 C13.2060789,21.6285559 13.2752758,21.5939574 13.3480392,21.5686275 C13.4296495,21.5386654 13.5160082,21.5237187 13.6029412,21.5245098 C13.7243601,21.5236291 13.8396705,21.5776808 13.9166667,21.6715686 C14.009097,21.7918683 14.0544189,21.9417792 14.0441176,22.0931373 L14.0441176,23.4166667 C14.0465465,23.4694837 14.0346927,23.5219789 14.0098039,23.5686275 C13.9856736,23.6090307 13.9471446,23.6388031 13.9019608,23.6519608 C13.8628873,23.6566837 13.8233872,23.6566837 13.7843137,23.6519608 L13.6519608,23.6519608 L13.6519608,23.8235294 L14.9117647,23.8235294 L14.9117647,23.6666667 L14.7843137,23.6666667 L14.6764706,23.6127451 Z" id="Shape"></path>
                <path d="M17.372549,23.5980392 C17.3282229,23.5737397 17.2910397,23.5382467 17.2647059,23.495098 C17.2392311,23.4451359 17.2273946,23.3893351 17.2303922,23.3333333 C17.2303922,23.1045752 17.2303922,22.8937908 17.2303922,22.7009804 C17.2303922,22.5081699 17.2303922,22.2875817 17.2303922,22.0392157 C17.2337758,21.8936352 17.2088019,21.7487871 17.1568627,21.6127451 C17.1159915,21.5074233 17.046352,21.415703 16.9558824,21.3480392 C16.8704364,21.2840929 16.7715171,21.2405013 16.6666667,21.2205882 C16.5403577,21.1993206 16.4123894,21.1894768 16.2843137,21.1911765 C16.1730064,21.1910708 16.0623077,21.207593 15.9558824,21.2401961 C15.8562391,21.2686596 15.7606805,21.3098487 15.6715686,21.3627451 C15.587204,21.4147899 15.5125573,21.4811425 15.4509804,21.5588235 C15.355371,21.6885338 15.355371,21.8653878 15.4509804,21.995098 C15.4939088,22.0575847 15.5664915,22.0929455 15.6421569,22.0882353 C15.7255719,22.0944296 15.8081442,22.0680767 15.872549,22.0147059 C15.923056,21.9737626 15.9534319,21.9130108 15.9558824,21.8480392 C15.955021,21.7852032 15.9467949,21.7226848 15.9313725,21.6617647 C15.9177259,21.6121477 15.9095077,21.5611954 15.9068627,21.5098039 C15.9495082,21.4720377 15.9996088,21.4436473 16.0539216,21.4264706 C16.1259236,21.3992381 16.2024433,21.3859303 16.2794118,21.3872549 C16.3748744,21.3819022 16.4694924,21.4077071 16.5490196,21.4607843 C16.6094869,21.5050824 16.6596541,21.5619386 16.6960784,21.627451 C16.7278221,21.6836901 16.7493945,21.7450886 16.7598039,21.8088235 C16.76243,21.8529021 16.76243,21.8970979 16.7598039,21.9411765 L16.7598039,22.2009804 C16.6011946,22.2750095 16.4373536,22.3372691 16.2696078,22.3872549 L15.7794118,22.5539216 C15.710087,22.5815883 15.6429093,22.6143579 15.5784314,22.6519608 C15.5131585,22.6886435 15.4550383,22.7368003 15.4068627,22.7941176 C15.351075,22.8554216 15.3077827,22.9270204 15.2794118,23.004902 C15.2497024,23.0899717 15.2347808,23.179501 15.2352941,23.2696078 C15.2281013,23.4443034 15.2958803,23.613751 15.4215686,23.7352941 C15.5539646,23.858669 15.7311102,23.9224415 15.9117647,23.9117647 C16.080752,23.9200626 16.249164,23.8863802 16.4019608,23.8137255 C16.5321488,23.7398406 16.648303,23.6435986 16.745098,23.5294118 L16.745098,23.5294118 C16.7605188,23.638917 16.8165024,23.7386376 16.9019608,23.8088235 C16.9954265,23.8770906 17.1100334,23.9100835 17.2254902,23.9019608 C17.296797,23.9022936 17.3677824,23.8923887 17.4362745,23.872549 L17.6470588,23.7941176 L17.6470588,23.627451 L17.495098,23.627451 C17.4524762,23.6276563 17.410435,23.6175664 17.372549,23.5980392 Z M16.7401961,23.3186275 C16.6730079,23.4036864 16.5917724,23.4766326 16.5,23.5343137 C16.4014821,23.5951523 16.2873114,23.625825 16.1715686,23.622549 C16.0685352,23.6277716 15.9672278,23.5945847 15.8872549,23.5294118 C15.8052494,23.4445754 15.7641119,23.3283172 15.7745098,23.2107843 C15.7713237,23.1093815 15.7968097,23.0091369 15.8480392,22.9215686 C15.9011904,22.8376979 15.9713245,22.7658939 16.0539216,22.7107843 C16.1521198,22.6453028 16.2573528,22.591042 16.3676471,22.5490196 C16.4787582,22.5065359 16.6078431,22.4640523 16.754902,22.4215686 L16.7401961,23.3186275 Z" id="Shape"></path>
                <path d="M19.1470588,23.5784314 C19.0692222,23.5787109 18.9922643,23.5619809 18.9215686,23.5294118 C18.8680281,23.5065737 18.8233167,23.4670212 18.7941176,23.4166667 C18.7632855,23.3572887 18.744935,23.2922277 18.7401961,23.2254902 C18.7354944,23.1356824 18.7354944,23.0456901 18.7401961,22.9558824 L18.7401961,21.5245098 L19.4754902,21.5245098 L19.4754902,21.2745098 L18.7205882,21.2745098 L18.7205882,20.4705882 L18.2303922,20.4705882 L18.2303922,21.2745098 L17.7401961,21.2745098 L17.7401961,21.5245098 L18.2352941,21.5245098 L18.2352941,23.2696078 C18.2251258,23.4338509 18.2718674,23.5965809 18.3676471,23.7303922 C18.4867907,23.8513231 18.6548089,23.9109425 18.8235294,23.8921569 C18.9494898,23.8949879 19.0751377,23.8784553 19.1960784,23.8431373 C19.2973856,23.8104575 19.4052288,23.7712418 19.5196078,23.7254902 L19.5196078,23.5294118 C19.4603777,23.5456808 19.3995714,23.5555413 19.3382353,23.5588235 L19.1470588,23.5784314 Z" id="Shape"></path>
                <path d="M20.5882353,20.4754902 C20.6523189,20.4042354 20.6873082,20.3115137 20.6862745,20.2156863 C20.6866047,20.1272545 20.6512596,20.0424262 20.5882353,19.9803922 C20.5250578,19.9125476 20.4358119,19.8750643 20.3431373,19.877451 C20.254266,19.877984 20.1700808,19.9173898 20.1127451,19.9852941 C20.048851,20.0527409 20.0136931,20.1423936 20.0147059,20.2352941 C20.0152081,20.3250025 20.0503305,20.4110522 20.1127451,20.4754902 C20.1700808,20.5433945 20.254266,20.5828004 20.3431373,20.5833333 C20.4369832,20.5865169 20.5271798,20.5468304 20.5882353,20.4754902 L20.5882353,20.4754902 Z" id="Shape"></path>
                <path d="M20.7892157,23.6078431 C20.7437646,23.5953747 20.7039673,23.5676896 20.6764706,23.5294118 C20.6518068,23.4826798 20.639967,23.4302467 20.6421569,23.377451 L20.6421569,21.2696078 L20.5882353,21.2303922 L19.6764706,21.2892157 L19.6764706,21.4607843 L19.8480392,21.4901961 C19.8979408,21.5006672 19.9459032,21.5188599 19.9901961,21.5441176 C20.0350136,21.5741695 20.0719906,21.6145081 20.0980392,21.6617647 C20.1237742,21.7082779 20.1372683,21.7605676 20.1372549,21.8137255 L20.1372549,23.4019608 C20.1341131,23.4468865 20.1206964,23.4904908 20.0980392,23.5294118 C20.0739088,23.569815 20.0353799,23.5995874 19.9901961,23.6127451 L19.877451,23.6127451 L19.754902,23.6127451 L19.754902,23.7843137 L21,23.7843137 L21,23.6666667 L20.877451,23.6666667 L20.7892157,23.6078431 Z" id="Shape"></path>
                <path d="M22.6078431,21.1911765 C22.2595043,21.1776373 21.9227165,21.3173684 21.6862745,21.5735294 C21.4474826,21.8431082 21.3211629,22.1939963 21.3333333,22.5539216 C21.3314657,22.7466683 21.3664046,22.9380002 21.4362745,23.1176471 C21.4972933,23.2761157 21.5889033,23.4210262 21.7058824,23.5441176 C21.8183034,23.6603157 21.9534685,23.7520945 22.1029412,23.8137255 C22.2580597,23.8786067 22.4250322,23.9103315 22.5931373,23.9068627 C22.7763999,23.9093637 22.9582354,23.8743312 23.127451,23.8039216 C23.281916,23.7352241 23.4192052,23.6330944 23.5294118,23.504902 C23.6403841,23.3742778 23.7237586,23.2225363 23.7745098,23.0588235 C23.8280798,22.8941224 23.8561815,22.7222058 23.8578431,22.5490196 C23.8774791,22.1879604 23.7501691,21.8343216 23.504902,21.5686275 C23.2732651,21.3208227 22.9469661,21.1835274 22.6078431,21.1911765 Z M23.0980392,23.4068627 C22.9985112,23.6023109 22.7977617,23.725412 22.5784314,23.7254902 C22.4603029,23.7301647 22.3436943,23.6975829 22.245098,23.6323529 C22.1636431,23.5575296 22.0999919,23.4654028 22.0588235,23.3627451 C21.9972113,23.2424884 21.9542368,23.1135649 21.9313725,22.9803922 C21.9036447,22.8267474 21.8905143,22.670824 21.8921569,22.5147059 C21.8925759,22.3816309 21.9040533,22.2488209 21.9264706,22.1176471 C21.9461981,21.9912574 21.9859102,21.8688116 22.0441176,21.754902 C22.0975997,21.6474699 22.1767295,21.5548712 22.2745098,21.4852941 C22.3759771,21.4178702 22.4958754,21.3836136 22.6176471,21.3872549 C22.7363972,21.3833393 22.8532594,21.4177106 22.9509804,21.4852941 C23.0442266,21.5530107 23.1198717,21.6421038 23.1715686,21.745098 C23.2287398,21.8611587 23.2683866,21.9850549 23.2892157,22.1127451 C23.3146897,22.2501862 23.327814,22.3896312 23.3284314,22.5294118 C23.3397927,22.8335105 23.2686509,23.1350163 23.122549,23.4019608 L23.0980392,23.4068627 Z" id="Shape"></path>
                <path d="M26.8382353,23.6127451 C26.7938694,23.5980161 26.7558367,23.5686273 26.7303922,23.5294118 C26.7084578,23.4836186 26.6983461,23.4330598 26.7009804,23.3823529 L26.7009804,22.0588235 C26.711764,21.8383955 26.64786,21.6207765 26.5196078,21.4411765 C26.390517,21.2759967 26.1898711,21.18297 25.9803922,21.1911765 C25.8790377,21.1903368 25.7781659,21.2052196 25.6813725,21.2352941 C25.6002817,21.259054 25.5227806,21.2936822 25.4509804,21.3382353 C25.3882987,21.3806211 25.3292697,21.4281723 25.2745098,21.4803922 L25.1176471,21.6323529 L25.1176471,21.6323529 L25.1176471,21.2696078 L25.0833333,21.2352941 L24.2254902,21.2941176 L24.2254902,21.4656863 L24.372549,21.4656863 C24.4140598,21.4733384 24.4538893,21.4882745 24.4901961,21.5098039 C24.536028,21.5407639 24.5731577,21.5829566 24.5980392,21.6323529 C24.623821,21.6823769 24.6372667,21.7378407 24.6372549,21.7941176 L24.6372549,23.3823529 C24.6396837,23.43517 24.62783,23.4876652 24.6029412,23.5343137 C24.5788108,23.574717 24.5402818,23.6044894 24.495098,23.6176471 L24.3823529,23.6176471 L24.2598039,23.6176471 L24.2598039,23.7892157 L25.4901961,23.7892157 L25.4901961,23.6666667 L25.3578431,23.6666667 L25.2401961,23.627451 C25.1929612,23.607888 25.1533834,23.5734725 25.127451,23.5294118 C25.1022382,23.4846616 25.0903333,23.4336404 25.0931373,23.3823529 L25.0931373,21.9117647 L25.1666667,21.7990196 C25.2051904,21.7493614 25.2515497,21.7063135 25.3039216,21.6715686 C25.3617082,21.6299848 25.4242397,21.5954279 25.4901961,21.5686275 C25.5718064,21.5386654 25.6581651,21.5237187 25.745098,21.5245098 C25.866517,21.5236291 25.9818273,21.5776808 26.0588235,21.6715686 C26.1512539,21.7918683 26.1965757,21.9417792 26.1862745,22.0931373 L26.1862745,23.4166667 C26.1887033,23.4694837 26.1768496,23.5219789 26.1519608,23.5686275 C26.1278304,23.6090307 26.0893014,23.6388031 26.0441176,23.6519608 C26.0050442,23.6566837 25.9655441,23.6566837 25.9264706,23.6519608 L25.7941176,23.6519608 L25.7941176,23.8235294 L27.0539216,23.8235294 L27.0539216,23.6666667 L26.9264706,23.6666667 L26.8382353,23.6127451 Z" id="Shape"></path>
                <path d="M29.5343137,23.5980392 C29.4844495,23.5761683 29.4419143,23.5404387 29.4117647,23.495098 C29.397849,23.4420743 29.397849,23.3863571 29.4117647,23.3333333 C29.4117647,23.1045752 29.4117647,22.8937908 29.4117647,22.7009804 C29.4117647,22.5081699 29.4117647,22.2941176 29.4117647,22.0588235 C29.4167135,21.9135644 29.3934063,21.7687265 29.3431373,21.6323529 C29.302266,21.5270311 29.2326265,21.4353108 29.1421569,21.3676471 C29.0538464,21.3023215 28.9514197,21.2586642 28.8431373,21.2401961 C28.7078009,21.2105175 28.569894,21.1941001 28.4313725,21.1911765 C28.3200653,21.1910708 28.2093666,21.207593 28.1029412,21.2401961 C28.0032979,21.2686596 27.9077393,21.3098487 27.8186275,21.3627451 C27.7342628,21.4147899 27.6596162,21.4811425 27.5980392,21.5588235 C27.5024298,21.6885338 27.5024298,21.8653878 27.5980392,21.995098 C27.6409677,22.0575847 27.7135503,22.0929455 27.7892157,22.0882353 C27.8726307,22.0944296 27.955203,22.0680767 28.0196078,22.0147059 C28.0701149,21.9737626 28.1004908,21.9130108 28.1029412,21.8480392 C28.1020798,21.7852032 28.0938537,21.7226848 28.0784314,21.6617647 C28.0647847,21.6121477 28.0565666,21.5611954 28.0539216,21.5098039 C28.096567,21.4720377 28.1466676,21.4436473 28.2009804,21.4264706 C28.2738469,21.3952646 28.3521135,21.3786121 28.4313725,21.377451 C28.5268352,21.3720983 28.6214532,21.3979032 28.7009804,21.4509804 C28.7614477,21.4952785 28.8116149,21.5521346 28.8480392,21.6176471 C28.8798774,21.6738432 28.901456,21.7352591 28.9117647,21.7990196 C28.9143908,21.8430982 28.9143908,21.887294 28.9117647,21.9313725 L28.9117647,22.1911765 C28.7531485,22.2651893 28.5893087,22.3274484 28.4215686,22.377451 L27.9411765,22.5490196 C27.8718517,22.5766864 27.804674,22.609456 27.7401961,22.6470588 C27.6749232,22.6837416 27.616803,22.7318983 27.5686275,22.7892157 C27.5128397,22.8505197 27.4695474,22.9221184 27.4411765,23 C27.4114671,23.0850697 27.3965455,23.174599 27.3970588,23.2647059 C27.389866,23.4394014 27.457645,23.608849 27.5833333,23.7303922 C27.7157293,23.8537671 27.8928749,23.9175395 28.0735294,23.9068627 C28.2425167,23.9151606 28.4109287,23.8814782 28.5637255,23.8088235 C28.6987676,23.7378533 28.8199713,23.6432148 28.9215686,23.5294118 L28.9215686,23.5294118 C28.9369894,23.638917 28.9929729,23.7386376 29.0784314,23.8088235 C29.1718971,23.8770906 29.286504,23.9100835 29.4019608,23.9019608 C29.4732676,23.9022936 29.544253,23.8923887 29.6127451,23.872549 L29.8284314,23.7990196 L29.8284314,23.627451 L29.6568627,23.627451 C29.6142409,23.6276563 29.5721997,23.6175664 29.5343137,23.5980392 Z M28.9215686,23.3137255 C28.8543805,23.3987845 28.7731449,23.4717307 28.6813725,23.5294118 C28.5828546,23.5902504 28.4686839,23.6209231 28.3529412,23.6176471 C28.2439722,23.62935 28.1347801,23.5976491 28.0490196,23.5294118 C27.9646248,23.4402603 27.9249953,23.3177692 27.9411765,23.1960784 C27.9379904,23.0946756 27.9634763,22.9944311 28.0147059,22.9068627 C28.0678571,22.822992 28.1379912,22.751188 28.2205882,22.6960784 C28.3178985,22.6360168 28.4214475,22.5867078 28.5294118,22.5490196 C28.6405229,22.5065359 28.7696078,22.4640523 28.9166667,22.4215686 L28.9215686,23.3137255 Z" id="Shape"></path>
                <path d="M31.0539216,23.6078431 C31.0105917,23.5937469 30.9728391,23.5662905 30.9460784,23.5294118 C30.9214146,23.4826798 30.9095749,23.4302467 30.9117647,23.377451 L30.9117647,19.8333333 L30.8823529,19.7941176 L29.9019608,19.8529412 L29.9019608,20.0196078 L30.1029412,20.0490196 C30.1630189,20.0588906 30.221014,20.0787747 30.2745098,20.1078431 C30.3204022,20.1408003 30.3574464,20.1845797 30.3823529,20.2352941 C30.4088198,20.2903198 30.4222395,20.3507084 30.4215686,20.4117647 L30.4215686,23.3970588 C30.4225813,23.4429028 30.4124905,23.4883115 30.3921569,23.5294118 C30.3673299,23.569191 30.3290694,23.5987559 30.2843137,23.6127451 L30.1715686,23.6127451 L30.0441176,23.6127451 L30.0441176,23.7843137 L31.2990196,23.7843137 L31.2990196,23.6666667 L31.1715686,23.6666667 L31.0539216,23.6078431 Z" id="Shape"></path>
                <path d="M32.7745098,21.2892157 L32.7745098,21.4509804 L33.0147059,21.4852941 C33.084503,21.4935957 33.1524277,21.5134761 33.2156863,21.5441176 C33.2607168,21.5759785 33.2976524,21.6179507 33.3235294,21.6666667 C33.3496796,21.7165525 33.3631478,21.7721085 33.3627451,21.8284314 L33.3627451,23.7892157 C33.3747766,24.0485127 33.3466671,24.3081117 33.2794118,24.5588235 C33.2520927,24.6953009 33.1342213,24.7948819 32.995098,24.7990196 L32.9117647,24.6666667 C32.8940573,24.6122669 32.871072,24.5597292 32.8431373,24.5098039 L32.7352941,24.4215686 C32.6914789,24.3985411 32.6426325,24.3867506 32.5931373,24.3872549 C32.5226905,24.3837043 32.4549588,24.4148243 32.4117647,24.4705882 C32.3697084,24.5272494 32.3473297,24.5961066 32.3480392,24.6666667 C32.3495542,24.7548227 32.3933212,24.8368856 32.4656863,24.8872549 C32.5682355,24.9558729 32.6906115,24.9886215 32.8137255,24.9803922 C32.9563767,24.9819875 33.0974118,24.9500867 33.2254902,24.8872549 C33.35551,24.8214986 33.4706348,24.7297325 33.5637255,24.6176471 C33.6629185,24.4939417 33.7377686,24.3525582 33.7843137,24.2009804 C33.840842,24.026877 33.8689796,23.8448102 33.8676471,23.6617647 L33.8676471,21.2696078 L33.8235294,21.2303922 L32.7745098,21.2892157 Z" id="Shape"></path>
                <path d="M33.5490196,19.877451 C33.4601483,19.877984 33.3759632,19.9173898 33.3186275,19.9852941 C33.2551699,20.0530175 33.2200836,20.1424875 33.2205882,20.2352941 C33.2210905,20.3250025 33.2562128,20.4110522 33.3186275,20.4754902 C33.3759632,20.5433945 33.4601483,20.5828004 33.5490196,20.5833333 C33.6419726,20.5838157 33.7301984,20.5424036 33.7892157,20.4705882 C33.8532993,20.3993334 33.8882886,20.3066117 33.8872549,20.2107843 C33.8888842,20.1230609 33.8553458,20.0383325 33.7941176,19.9754902 C33.7300726,19.9094502 33.6409419,19.8737979 33.5490196,19.877451 Z" id="Shape"></path>
                <path d="M35.7401961,21.1911765 C35.3875842,21.1719906 35.0446352,21.3102475 34.8039216,21.5686275 C34.5651296,21.8382063 34.43881,22.1890943 34.4509804,22.5490196 C34.4491127,22.7417664 34.4840516,22.9330983 34.5539216,23.1127451 C34.6149403,23.2712138 34.7065504,23.4161242 34.8235294,23.5392157 C34.9359504,23.6554138 35.0711155,23.7471925 35.2205882,23.8088235 C35.3757068,23.8737047 35.5426793,23.9054295 35.7107843,23.9019608 C35.8940469,23.9044617 36.0758824,23.8694292 36.245098,23.7990196 C36.4058306,23.7293912 36.5483946,23.6237262 36.6617647,23.4901961 C36.7727371,23.3595719 36.8561116,23.2078304 36.9068627,23.0441176 C36.9573843,22.8838806 36.9838168,22.717026 36.9852941,22.5490196 C37.0049301,22.1879604 36.8776201,21.8343216 36.6323529,21.5686275 C36.401865,21.3221079 36.077624,21.184929 35.7401961,21.1911765 Z M36.2303922,23.4068627 C36.1308641,23.6023109 35.9301147,23.725412 35.7107843,23.7254902 C35.5926559,23.7301647 35.4760473,23.6975829 35.377451,23.6323529 C35.2823344,23.563275 35.2050382,23.4725361 35.1519608,23.3676471 C35.0903485,23.2473903 35.047374,23.1184668 35.0245098,22.9852941 C34.996782,22.8316493 34.9836516,22.6757259 34.9852941,22.5196078 C34.9857132,22.3865329 34.9971906,22.2537229 35.0196078,22.122549 C35.0392537,21.9961399 35.07897,21.8736815 35.1372549,21.7598039 C35.1907369,21.6523719 35.2698667,21.5597732 35.3676471,21.4901961 C35.4691144,21.4227722 35.5890127,21.3885155 35.7107843,21.3921569 C35.8295344,21.3882413 35.9463967,21.4226126 36.0441176,21.4901961 C36.1373639,21.5579126 36.213009,21.6470057 36.2647059,21.75 C36.3218771,21.8660607 36.3615238,21.9899569 36.3823529,22.1176471 C36.407827,22.2550882 36.4209512,22.3945331 36.4215686,22.5343137 C36.4502103,22.8314478 36.3994626,23.1308597 36.2745098,23.4019608 L36.2303922,23.4068627 Z" id="Shape"></path>
                <path d="M39.8627451,23.5686275 L39.7598039,23.4607843 C39.7288678,23.4175398 39.7102331,23.3667179 39.7058824,23.3137255 L39.7058824,21.2696078 L39.7058824,21.2303922 L38.7254902,21.2941176 L38.7254902,21.4656863 L38.9313725,21.4656863 C38.9813195,21.4664741 39.0302429,21.4799702 39.0735294,21.504902 C39.1158744,21.5342764 39.1510589,21.5728118 39.1764706,21.6176471 C39.2005031,21.6646099 39.2123049,21.7168749 39.2107843,21.7696078 L39.2107843,23.2401961 L39.127451,23.3529412 C39.0905252,23.3960496 39.049481,23.4354519 39.004902,23.4705882 C38.9480935,23.5136959 38.8853536,23.5483679 38.8186275,23.5735294 C38.7371632,23.6040335 38.6507031,23.6189978 38.5637255,23.6176471 C38.4477989,23.6174066 38.3380771,23.5652438 38.2647059,23.4754902 C38.1752503,23.3487667 38.1367519,23.1930231 38.1568627,23.0392157 L38.1568627,21.2696078 L38.1176471,21.2352941 L37.254902,21.2941176 L37.254902,21.4656863 L37.4068627,21.4656863 C37.5003267,21.4819334 37.5814198,21.5395995 37.627451,21.622549 C37.6518888,21.6711223 37.6636902,21.7250715 37.6617647,21.7794118 L37.6617647,23.0392157 C37.6459368,23.268631 37.7081266,23.4966601 37.8382353,23.6862745 C37.9657269,23.839788 38.158638,23.9235042 38.3578431,23.9117647 C38.4619302,23.9160947 38.5660688,23.9045237 38.6666667,23.877451 C38.7454751,23.8496819 38.8210722,23.8135267 38.8921569,23.7696078 C38.9574835,23.7325816 39.01834,23.6881728 39.0735294,23.6372549 L39.2156863,23.4852941 L39.2156863,23.4852941 L39.2156863,23.8137255 L39.254902,23.8480392 L40.0980392,23.7892157 L40.0980392,23.6176471 L39.9558824,23.6176471 L39.8627451,23.5686275 Z" id="Shape"></path>
                <path d="M42.0392157,21.2009804 C41.911175,21.2059687 41.7864405,21.2430519 41.6764706,21.3088235 C41.5343531,21.3902405 41.4108016,21.5004351 41.3137255,21.6323529 L41.3137255,21.6323529 L41.3137255,21.2696078 L41.2794118,21.2352941 L40.4215686,21.2941176 L40.4215686,21.4656863 L40.5686275,21.4656863 C40.6101382,21.4733384 40.6499677,21.4882745 40.6862745,21.5098039 C40.7329114,21.5419471 40.7701371,21.585941 40.7941176,21.6372549 C40.8188248,21.6859261 40.8322297,21.7395456 40.8333333,21.7941176 L40.8333333,23.3823529 C40.8357622,23.43517 40.8239084,23.4876652 40.7990196,23.5343137 C40.7748892,23.574717 40.7363603,23.6044894 40.6911765,23.6176471 L40.5784314,23.6176471 L40.4558824,23.6176471 L40.4558824,23.7892157 L41.8137255,23.7892157 L41.8137255,23.6666667 L41.6323529,23.6666667 C41.5754037,23.6604542 41.5194307,23.6472841 41.4656863,23.627451 C41.4121538,23.6124209 41.3664939,23.5772978 41.3382353,23.5294118 C41.3137505,23.4843814 41.3018944,23.4335694 41.3039216,23.3823529 L41.3039216,21.872549 C41.3706011,21.7497719 41.4665824,21.6453712 41.5833333,21.5686275 C41.6692156,21.5106299 41.7691021,21.4767701 41.872549,21.4705882 L41.872549,21.5637255 L41.872549,21.6666667 C41.874381,21.7307111 41.9027994,21.7911002 41.9509804,21.8333333 C42.0130837,21.8873702 42.0944509,21.913903 42.1764706,21.9068627 C42.2572803,21.9120387 42.3344298,21.8725231 42.377451,21.8039216 C42.4208729,21.7332482 42.4429983,21.6515544 42.4411765,21.5686275 C42.4470261,21.4623198 42.4099368,21.3581165 42.3382353,21.2794118 C42.2555782,21.2093428 42.1456229,21.1805021 42.0392157,21.2009804 Z" id="Shape"></path>
                <path d="M45.2401961,23.6127451 C45.1960122,23.5976759 45.1580808,23.5683653 45.1323529,23.5294118 C45.1104186,23.4836186 45.1003068,23.4330598 45.1029412,23.3823529 L45.1029412,22.0588235 C45.1137248,21.8383955 45.0498208,21.6207765 44.9215686,21.4411765 C44.7863633,21.2804188 44.5819847,21.1946527 44.372549,21.2107843 C44.2711945,21.2099447 44.1703228,21.2248274 44.0735294,21.254902 C43.9924386,21.2786619 43.9149375,21.31329 43.8431373,21.3578431 C43.7805224,21.4003194 43.7215006,21.4478647 43.6666667,21.5 L43.5098039,21.6519608 L43.5098039,21.6519608 L43.5098039,21.2696078 L43.4754902,21.2352941 L42.6176471,21.2941176 L42.6176471,21.4656863 L42.7647059,21.4656863 C42.8062166,21.4733384 42.8460462,21.4882745 42.8823529,21.5098039 C42.9281849,21.5407639 42.9653145,21.5829566 42.9901961,21.6323529 C43.0159778,21.6823769 43.0294236,21.7378407 43.0294118,21.7941176 L43.0294118,23.3823529 C43.0318406,23.43517 43.0199869,23.4876652 42.995098,23.5343137 C42.9709677,23.574717 42.9324387,23.6044894 42.8872549,23.6176471 L42.7745098,23.6176471 L42.6519608,23.6176471 L42.6519608,23.7892157 L43.9166667,23.7892157 L43.9166667,23.6666667 L43.7843137,23.6666667 L43.627451,23.6078431 C43.5900613,23.5903243 43.55794,23.5632748 43.5343137,23.5294118 C43.509101,23.4846616 43.497196,23.4336404 43.5,23.3823529 L43.5,21.9117647 L43.5735294,21.7990196 C43.6120532,21.7493614 43.6584124,21.7063135 43.7107843,21.6715686 C43.773201,21.6289712 43.8407235,21.5943865 43.9117647,21.5686275 C43.993375,21.5386654 44.0797337,21.5237187 44.1666667,21.5245098 C44.2880856,21.5236291 44.403396,21.5776808 44.4803922,21.6715686 C44.5647973,21.7828682 44.6096497,21.9191505 44.6078431,22.0588235 L44.6078431,23.3823529 C44.610272,23.43517 44.5984182,23.4876652 44.5735294,23.5343137 C44.549399,23.574717 44.5108701,23.6044894 44.4656863,23.6176471 C44.4266128,23.62237 44.3871127,23.62237 44.3480392,23.6176471 L44.2156863,23.6176471 L44.2156863,23.7892157 L45.4754902,23.7892157 L45.4754902,23.6666667 L45.3480392,23.6666667 L45.2401961,23.6127451 Z" id="Shape"></path>
                <path d="M47.9362745,23.5980392 C47.89181,23.5739292 47.8545823,23.5383937 47.8284314,23.495098 C47.8029566,23.4451359 47.7911201,23.3893351 47.7941176,23.3333333 C47.7941176,23.1045752 47.7941176,22.8937908 47.7941176,22.7009804 C47.7941176,22.5081699 47.7941176,22.2875817 47.7941176,22.0392157 C47.7990665,21.8939565 47.7757592,21.7491186 47.7254902,21.6127451 C47.6914256,21.5103023 47.6304804,21.4188846 47.5490196,21.3480392 C47.4607092,21.2827137 47.3582824,21.2390564 47.25,21.2205882 C47.1236878,21.1993469 46.9957219,21.1895034 46.8676471,21.1911765 C46.7563398,21.1910708 46.6456411,21.207593 46.5392157,21.2401961 C46.439554,21.268608 46.3439889,21.3097998 46.254902,21.3627451 C46.1705373,21.4147899 46.0958907,21.4811425 46.0343137,21.5588235 C45.9387043,21.6885338 45.9387043,21.8653878 46.0343137,21.995098 C46.0772422,22.0575847 46.1498248,22.0929455 46.2254902,22.0882353 C46.3089052,22.0944296 46.3914775,22.0680767 46.4558824,22.0147059 C46.5063894,21.9737626 46.5367653,21.9130108 46.5392157,21.8480392 C46.5383996,21.7851999 46.5301728,21.7226763 46.5147059,21.6617647 C46.5010592,21.6121477 46.4928411,21.5611954 46.4901961,21.5098039 C46.5328415,21.4720377 46.5829421,21.4436473 46.6372549,21.4264706 C46.709257,21.3992381 46.7857766,21.3859303 46.8627451,21.3872549 C46.9582078,21.3819022 47.0528257,21.4077071 47.1323529,21.4607843 C47.1928202,21.5050824 47.2429874,21.5619386 47.2794118,21.627451 C47.3111554,21.6836901 47.3327279,21.7450886 47.3431373,21.8088235 C47.3457985,21.852901 47.3457985,21.897099 47.3431373,21.9411765 L47.3431373,22.2009804 C47.1845279,22.2750095 47.020687,22.3372691 46.8529412,22.3872549 L46.3627451,22.5539216 C46.293413,22.5815718 46.2262341,22.614342 46.1617647,22.6519608 C46.0964918,22.6886435 46.0383716,22.7368003 45.9901961,22.7941176 C45.9344083,22.8554216 45.891116,22.9270204 45.8627451,23.004902 C45.833129,23.0899956 45.8182102,23.1795087 45.8186275,23.2696078 C45.8114346,23.4443034 45.8792137,23.613751 46.004902,23.7352941 C46.1372979,23.858669 46.3144435,23.9224415 46.495098,23.9117647 C46.6640853,23.9200626 46.8324973,23.8863802 46.9852941,23.8137255 C47.1102343,23.7384468 47.2213247,23.642279 47.3137255,23.5294118 L47.3137255,23.5294118 C47.3291463,23.638917 47.3851298,23.7386376 47.4705882,23.8088235 C47.564054,23.8770906 47.6786609,23.9100835 47.7941176,23.9019608 C47.877442,23.9027782 47.9603061,23.8895199 48.0392157,23.8627451 L48.254902,23.7892157 L48.254902,23.627451 L48.0392157,23.627451 C48.0032568,23.6247609 47.9682268,23.6147523 47.9362745,23.5980392 L47.9362745,23.5980392 Z M47.3088235,23.3186275 C47.237878,23.402389 47.1533694,23.4736413 47.0588235,23.5294118 C46.9603056,23.5902504 46.8461349,23.6209231 46.7303922,23.6176471 C46.6296439,23.6230339 46.5303632,23.591682 46.4509804,23.5294118 C46.3689749,23.4445754 46.3278374,23.3283172 46.3382353,23.2107843 C46.33478,23.1093523 46.3602846,23.009034 46.4117647,22.9215686 C46.4649159,22.8376979 46.53505,22.7658939 46.6176471,22.7107843 C46.7158662,22.6453383 46.821095,22.5910796 46.9313725,22.5490196 C47.0424837,22.5065359 47.1715686,22.4640523 47.3186275,22.4215686 L47.3088235,23.3186275 Z" id="Shape"></path>
                <path d="M49.4558824,23.6078431 C49.4111626,23.5911729 49.3732348,23.560141 49.3480392,23.5196078 C49.3233754,23.4728759 49.3115356,23.4204428 49.3137255,23.3676471 L49.3137255,19.8333333 L49.2794118,19.7941176 L48.2990196,19.8529412 L48.2990196,20.0196078 L48.5294118,20.0490196 C48.5894895,20.0588906 48.6474846,20.0787747 48.7009804,20.1078431 C48.7468728,20.1408003 48.783917,20.1845797 48.8088235,20.2352941 C48.8352904,20.2903198 48.8487101,20.3507084 48.8480392,20.4117647 L48.8480392,23.3970588 C48.8509726,23.4499192 48.8390885,23.5025487 48.8137255,23.5490196 C48.7888985,23.5887988 48.750638,23.6183638 48.7058824,23.6323529 L48.5931373,23.6323529 L48.4656863,23.6323529 L48.4656863,23.8039216 L49.7205882,23.8039216 L49.7205882,23.6666667 L49.5931373,23.6666667 L49.4558824,23.6078431 Z" id="Shape"></path>
                <path d="M52.5833333,21.1911765 C52.2349945,21.1776373 51.8982067,21.3173684 51.6617647,21.5735294 C51.4229728,21.8431082 51.2966531,22.1939963 51.3088235,22.5539216 C51.3068352,22.7466786 51.3417782,22.9380332 51.4117647,23.1176471 C51.4727835,23.2761157 51.5643935,23.4210262 51.6813725,23.5441176 C51.793884,23.6602082 51.9290253,23.7519708 52.0784314,23.8137255 C52.2335499,23.8786067 52.4005224,23.9103315 52.5686275,23.9068627 C52.7518901,23.9093637 52.9337256,23.8743312 53.1029412,23.8039216 C53.2636737,23.7342932 53.4062377,23.6286281 53.5196078,23.495098 C53.6304686,23.364397 53.7138299,23.2126793 53.7647059,23.0490196 C53.8224629,22.8767699 53.8522521,22.6963796 53.8529412,22.5147059 C53.8725771,22.1536466 53.7452672,21.8000078 53.5,21.5343137 C53.2580714,21.2933347 52.9240337,21.1682939 52.5833333,21.1911765 L52.5833333,21.1911765 Z M53.0735294,23.4068627 C52.9740013,23.6023109 52.7732519,23.725412 52.5539216,23.7254902 C52.4357931,23.7301647 52.3191845,23.6975829 52.2205882,23.6323529 C52.1253421,23.5634151 52.0480166,23.4726417 51.995098,23.3676471 C51.9335558,23.247361 51.8905849,23.1184483 51.8676471,22.9852941 C51.8399192,22.8316493 51.8267888,22.6757259 51.8284314,22.5196078 C51.8288278,22.3865319 51.8403053,22.25372 51.8627451,22.122549 C51.882391,21.9961399 51.9221072,21.8736815 51.9803922,21.7598039 C52.0338742,21.6523719 52.113004,21.5597732 52.2107843,21.4901961 C52.3122516,21.4227722 52.4321499,21.3885155 52.5539216,21.3921569 C52.6726717,21.3882413 52.7895339,21.4226126 52.8872549,21.4901961 C52.9805011,21.5579126 53.0561462,21.6470057 53.1078431,21.75 C53.1650143,21.8660607 53.2046611,21.9899569 53.2254902,22.1176471 C53.2509642,22.2550882 53.2640885,22.3945331 53.2647059,22.5343137 C53.2857324,22.8336431 53.2265056,23.1331615 53.0931373,23.4019608 L53.0735294,23.4068627 Z" id="Shape"></path>
                <path d="M55.6470588,19.7941176 C55.3511452,19.7902229 55.0702845,19.9243112 54.8872549,20.1568627 C54.6750987,20.4271077 54.5672251,20.7646476 54.5833333,21.1078431 L54.5833333,21.2745098 L54.0931373,21.2745098 L54.0931373,21.5245098 L54.5833333,21.5245098 L54.5833333,23.4019608 C54.5857622,23.4547778 54.5739084,23.507273 54.5490196,23.5539216 C54.5248892,23.5943248 54.4863603,23.6240972 54.4411765,23.6372549 L54.3284314,23.6372549 L54.2058824,23.6372549 L54.2058824,23.8088235 L55.5637255,23.8088235 L55.5637255,23.6666667 L55.3823529,23.6666667 C55.3255598,23.659565 55.2696874,23.6464185 55.2156863,23.627451 C55.1689612,23.6120939 55.1290776,23.5808806 55.1029412,23.5392157 C55.0782226,23.4942746 55.0663511,23.4433968 55.0686275,23.3921569 L55.0686275,21.5245098 L55.7303922,21.5245098 L55.7303922,21.2745098 L55.0686275,21.2745098 L55.0686275,21.0098039 C55.0553929,20.7562744 55.0869203,20.5023955 55.1617647,20.2598039 C55.192712,20.1304541 55.2996674,20.033222 55.4313725,20.0147059 L55.504902,20.1323529 C55.5331575,20.1795821 55.5659957,20.2239137 55.6029412,20.2647059 L55.7156863,20.3578431 C55.75935,20.3812701 55.8083004,20.3930857 55.8578431,20.3921569 C55.9313573,20.3972873 56.0027398,20.3661719 56.0490196,20.3088235 C56.0928112,20.2511878 56.1153252,20.1801821 56.1127451,20.1078431 C56.1112301,20.0196871 56.0674632,19.9376242 55.995098,19.8872549 C55.8923963,19.818974 55.7701365,19.7862566 55.6470588,19.7941176 Z" id="Shape"></path>
                <path d="M58.9313725,22.5784314 C58.855997,22.5131068 58.7718469,22.4586567 58.6813725,22.4166667 C58.5765441,22.3668961 58.4684515,22.3243141 58.3578431,22.2892157 L58.0637255,22.1862745 C57.9950326,22.1607365 57.9292932,22.1278668 57.8676471,22.0882353 C57.8163052,22.0551397 57.7741523,22.0096146 57.745098,21.9558824 C57.7164901,21.8946138 57.7030399,21.8273626 57.7058824,21.7598039 C57.705407,21.6591408 57.7504478,21.5636542 57.8284314,21.5 C57.923742,21.4230546 58.0444074,21.3845816 58.1666667,21.3921569 C58.3313738,21.3897969 58.4902,21.4533274 58.6078431,21.5686275 C58.7313591,21.6907579 58.8136241,21.8484324 58.8431373,22.0196078 L59.0245098,22.0196078 L58.9852941,21.1911765 L58.7990196,21.1911765 L58.7401961,21.3284314 C58.6579848,21.2862859 58.5706553,21.2549791 58.4803922,21.2352941 C58.379431,21.2097006 58.2757223,21.1965312 58.1715686,21.1960784 C57.9400613,21.1841771 57.7130899,21.2633532 57.5392157,21.4166667 C57.387354,21.5524715 57.3015728,21.7472663 57.3039216,21.9509804 C57.3013693,22.0601052 57.3266758,22.1680797 57.377451,22.2647059 C57.4239267,22.3515106 57.4872543,22.4281703 57.5637255,22.4901961 C57.6428701,22.552639 57.7303075,22.6037816 57.8235294,22.6421569 C57.9130569,22.6815247 58.0047013,22.7158913 58.0980392,22.745098 L58.377451,22.8382353 C58.4517166,22.8657512 58.5224691,22.9019501 58.5882353,22.9460784 C58.6410314,22.9830937 58.6846331,23.0317264 58.7156863,23.0882353 C58.7463534,23.1471932 58.7615344,23.2129775 58.7598039,23.2794118 C58.7676616,23.4042841 58.716923,23.5256945 58.622549,23.6078431 C58.5109762,23.6902755 58.3736786,23.7302482 58.2352941,23.7205882 C58.1241352,23.7220372 58.014452,23.6950383 57.9166667,23.6421569 C57.8242469,23.5914572 57.741319,23.5251149 57.6715686,23.4460784 C57.605647,23.3719308 57.5496239,23.2895438 57.504902,23.2009804 C57.4651228,23.1251137 57.4354584,23.0443607 57.4166667,22.9607843 L57.2352941,22.9607843 L57.2598039,23.8578431 L57.4558824,23.8578431 L57.5098039,23.6862745 C57.5926107,23.7472587 57.6833067,23.7967293 57.7794118,23.8333333 C58.1490948,23.9806629 58.5688112,23.9249483 58.8872549,23.6862745 C59.0624311,23.5439344 59.1619558,23.328599 59.1568627,23.1029412 C59.1592614,23.0001738 59.1391858,22.8981226 59.0980392,22.8039216 C59.0593609,22.7176384 59.0025103,22.6407228 58.9313725,22.5784314 L58.9313725,22.5784314 Z" id="Shape"></path>
                <path d="M61.2745098,23.5 C61.149222,23.5856303 60.9996734,23.628604 60.8480392,23.622549 C60.619398,23.6239062 60.4062538,23.5071402 60.2843137,23.3137255 C60.1317098,23.0778348 60.0563265,22.8002875 60.0686275,22.5196078 C60.065172,22.341332 60.0849461,22.1633652 60.127451,21.9901961 C60.1576577,21.8639268 60.2108297,21.7442898 60.2843137,21.6372549 C60.3407691,21.5548989 60.4164951,21.487587 60.504902,21.4411765 C60.5798535,21.4052527 60.6619833,21.3868154 60.745098,21.3872549 C60.8131591,21.3873183 60.8808532,21.3972248 60.9460784,21.4166667 C61.0042039,21.4332205 61.0534974,21.4719511 61.0833333,21.5245098 C61.0760836,21.585685 61.0646185,21.6462867 61.0490196,21.7058824 C61.0293341,21.7844259 61.019455,21.8651057 61.0196078,21.9460784 C61.0205313,22.0141915 61.0509283,22.0785616 61.1029412,22.122549 C61.1698683,22.1787403 61.2559462,22.2068474 61.3431373,22.2009804 C61.4254294,22.2069165 61.5043932,22.1674346 61.5490196,22.0980392 C61.5915406,22.0287782 61.6136307,21.9489141 61.6127451,21.8676471 C61.6179333,21.6747409 61.528174,21.4915586 61.372549,21.377451 C61.192949,21.2491988 60.97533,21.1852948 60.754902,21.1960784 C60.5851363,21.1966014 60.4176413,21.2351253 60.2647059,21.3088235 C60.1156991,21.379618 59.9836359,21.4815909 59.877451,21.6078431 C59.7707559,21.7359192 59.6877572,21.881997 59.6323529,22.0392157 C59.4629952,22.5487385 59.5487069,23.1086001 59.8627451,23.5441176 C60.082386,23.7966131 60.4059876,23.9340082 60.7401961,23.9166667 C60.9481466,23.914258 61.1508756,23.8512246 61.3235294,23.7352941 C61.5142892,23.6128256 61.6710843,23.4442286 61.7794118,23.245098 L61.6127451,23.1372549 C61.5263523,23.2802999 61.4111714,23.4038272 61.2745098,23.5 L61.2745098,23.5 Z" id="Shape"></path>
                <path d="M62.3284314,19.9852941 C62.2645373,20.0527409 62.2293793,20.1423936 62.2303922,20.2352941 C62.2308944,20.3250025 62.2660168,20.4110522 62.3284314,20.4754902 C62.3857671,20.5433945 62.4699523,20.5828004 62.5588235,20.5833333 C62.6517765,20.5838157 62.7400023,20.5424036 62.7990196,20.4705882 C62.8635252,20.3995909 62.8985795,20.3066972 62.8970588,20.2107843 C62.8986881,20.1230609 62.8651498,20.0383325 62.8039216,19.9754902 C62.7407441,19.9076456 62.6514981,19.8701623 62.5588235,19.872549 C62.4691524,19.8742951 62.3848311,19.9155587 62.3284314,19.9852941 Z" id="Shape"></path>
                <path d="M62.9901961,23.6078431 C62.943269,23.5928661 62.903267,23.5615602 62.877451,23.5196078 C62.8527872,23.4728759 62.8409474,23.4204428 62.8431373,23.3676471 L62.8431373,21.2696078 L62.8088235,21.2352941 L61.8970588,21.2941176 L61.8970588,21.4656863 L62.0686275,21.495098 C62.118529,21.5055692 62.1664914,21.5237618 62.2107843,21.5490196 C62.2556018,21.5790715 62.2925788,21.61941 62.3186275,21.6666667 C62.3443624,21.7131799 62.3578565,21.7654695 62.3578431,21.8186275 L62.3578431,23.4068627 C62.360272,23.4596798 62.3484182,23.512175 62.3235294,23.5588235 C62.299399,23.5992268 62.2608701,23.6289992 62.2156863,23.6421569 L62.1029412,23.6421569 L61.9803922,23.6421569 L61.9803922,23.8137255 L63.2352941,23.8137255 L63.2352941,23.6666667 L63.1127451,23.6666667 L62.9901961,23.6078431 Z" id="Shape"></path>
                <path d="M65.3235294,23.5294118 C65.2029497,23.6038434 65.0632122,23.641334 64.9215686,23.6372549 C64.7855682,23.640686 64.6508361,23.6103712 64.5294118,23.5490196 C64.4225251,23.4922836 64.331528,23.4097123 64.2647059,23.3088235 C64.1927292,23.197989 64.1412575,23.075121 64.1127451,22.9460784 C64.0788658,22.794859 64.0624188,22.6402567 64.0637255,22.4852941 L65.7696078,22.4852941 L65.7696078,22.2990196 C65.7708063,22.1531507 65.7509952,22.0078692 65.7107843,21.8676471 C65.6737976,21.7423242 65.6121319,21.6256593 65.5294118,21.5245098 C65.4412089,21.417618 65.3285538,21.3335471 65.2009804,21.2794118 C65.0456251,21.2157855 64.8785751,21.1857165 64.7107843,21.1911765 C64.540722,21.1890298 64.3726241,21.2276923 64.2205882,21.3039216 C64.078239,21.3764231 63.9529221,21.4783475 63.8529412,21.6029412 C63.7490434,21.7331199 63.6693491,21.8808865 63.6176471,22.0392157 C63.5655678,22.1973956 63.5390904,22.3628791 63.5392157,22.5294118 C63.5380109,22.7085085 63.5627783,22.8868339 63.6127451,23.0588235 C63.6580857,23.219311 63.7347194,23.3692466 63.8382353,23.5 C63.9424589,23.62828 64.0750178,23.7306356 64.2254902,23.7990196 C64.3966967,23.8746338 64.5825035,23.9114604 64.7696078,23.9068627 C64.990692,23.9107609 65.2077606,23.8475205 65.3921569,23.7254902 C65.5765659,23.6014661 65.7266378,23.432846 65.8284314,23.2352941 L65.6470588,23.122549 C65.5740032,23.2825208 65.4629337,23.4221991 65.3235294,23.5294118 Z M64.2598039,21.6323529 C64.3657221,21.4865355 64.5354644,21.4007518 64.7156863,21.4019608 C64.8110741,21.3973057 64.9054772,21.4230521 64.9852941,21.4754902 C65.0561311,21.5261469 65.1133779,21.593496 65.1519608,21.6715686 C65.1918212,21.7602992 65.2182545,21.854468 65.2303922,21.9509804 C65.2462956,22.0548071 65.2544879,22.1596691 65.254902,22.2647059 L64.0637255,22.2647059 C64.0566145,22.0333871 64.1254867,21.8061088 64.2598039,21.6176471 L64.2598039,21.6323529 Z" id="Shape"></path>
                <path d="M68.7401961,23.6127451 C68.6942067,23.5986456 68.6544232,23.5692404 68.627451,23.5294118 C68.6055166,23.4836186 68.5954049,23.4330598 68.5980392,23.3823529 L68.5980392,22.0588235 C68.6088228,21.8383955 68.5449188,21.6207765 68.4166667,21.4411765 C68.2814613,21.2804188 68.0770827,21.1946527 67.8676471,21.2107843 C67.7662926,21.2099447 67.6654208,21.2248274 67.5686275,21.254902 C67.4875366,21.2786619 67.4100355,21.31329 67.3382353,21.3578431 C67.2756335,21.4003371 67.2166131,21.4478813 67.1617647,21.5 L67.004902,21.6519608 L67.004902,21.6519608 L67.004902,21.2696078 L66.9705882,21.2352941 L66.1127451,21.2941176 L66.1127451,21.4656863 L66.2598039,21.4656863 C66.3013147,21.4733384 66.3411442,21.4882745 66.377451,21.5098039 C66.4232829,21.5407639 66.4604126,21.5829566 66.4852941,21.6323529 C66.5110759,21.6823769 66.5245216,21.7378407 66.5245098,21.7941176 L66.5245098,23.3823529 C66.5269386,23.43517 66.5150849,23.4876652 66.4901961,23.5343137 C66.4660657,23.574717 66.4275367,23.6044894 66.3823529,23.6176471 L66.2696078,23.6176471 L66.1470588,23.6176471 L66.1470588,23.7892157 L67.4117647,23.7892157 L67.4117647,23.6666667 L67.2794118,23.6666667 L67.1568627,23.6078431 C67.112831,23.5899941 67.0752344,23.5592332 67.0490196,23.5196078 C67.0238068,23.4748577 67.0119019,23.4238365 67.0147059,23.372549 L67.0147059,21.9019608 L67.0882353,21.7892157 C67.126759,21.7395575 67.1731183,21.6965096 67.2254902,21.6617647 C67.2891508,21.6170412 67.3583589,21.5807893 67.4313725,21.5539216 C67.5129829,21.5239596 67.5993415,21.5090129 67.6862745,21.5098039 C67.8076934,21.5089232 67.9230038,21.5629749 68,21.6568627 C68.0920252,21.7773701 68.1372999,21.9271249 68.127451,22.0784314 L68.127451,23.4019608 C68.1298798,23.4547778 68.1180261,23.507273 68.0931373,23.5539216 C68.0690069,23.5943248 68.0304779,23.6240972 67.9852941,23.6372549 C67.9462206,23.6419778 67.9067205,23.6419778 67.8676471,23.6372549 L67.7352941,23.6372549 L67.7352941,23.8088235 L68.995098,23.8088235 L68.995098,23.6666667 L68.8676471,23.6666667 L68.7401961,23.6127451 Z" id="Shape"></path>
                <path d="M71.0392157,23.5 C70.9139278,23.5856303 70.7643793,23.628604 70.6127451,23.622549 C70.3841039,23.6239062 70.1709597,23.5071402 70.0490196,23.3137255 C69.8964156,23.0778348 69.8210324,22.8002875 69.8333333,22.5196078 C69.8298779,22.341332 69.8496519,22.1633652 69.8921569,21.9901961 C69.9223635,21.8639268 69.9755356,21.7442898 70.0490196,21.6372549 C70.105475,21.5548989 70.1812009,21.487587 70.2696078,21.4411765 C70.3445594,21.4052527 70.4266892,21.3868154 70.5098039,21.3872549 C70.577865,21.3873183 70.6455591,21.3972248 70.7107843,21.4166667 C70.7689098,21.4332205 70.8182033,21.4719511 70.8480392,21.5245098 C70.8407895,21.585685 70.8293243,21.6462867 70.8137255,21.7058824 C70.79404,21.7844259 70.7841609,21.8651057 70.7843137,21.9460784 C70.7852372,22.0141915 70.8156341,22.0785616 70.8676471,22.122549 C70.9345741,22.1787403 71.0206521,22.2068474 71.1078431,22.2009804 C71.1901353,22.2069165 71.2690991,22.1674346 71.3137255,22.0980392 C71.3562465,22.0287782 71.3783366,21.9489141 71.377451,21.8676471 C71.3826392,21.6747409 71.2928799,21.4915586 71.1372549,21.377451 C70.9576548,21.2491988 70.7400359,21.1852948 70.5196078,21.1960784 C70.3498421,21.1966014 70.1823472,21.2351253 70.0294118,21.3088235 C69.8804849,21.3797482 69.7484475,21.4817011 69.6421569,21.6078431 C69.535548,21.7359789 69.4525584,21.8820405 69.3970588,22.0392157 C69.227077,22.5412722 69.3052864,23.0941946 69.6078431,23.5294118 C69.827484,23.7819072 70.1510856,23.9193023 70.4852941,23.9019608 C70.6960841,23.9029244 70.9024511,23.841526 71.0784314,23.7254902 C71.2691911,23.6030216 71.4259863,23.4344247 71.5343137,23.2352941 L71.3676471,23.127451 C71.2852056,23.2730773 71.1733566,23.3999508 71.0392157,23.5 L71.0392157,23.5 Z" id="Shape"></path>
                <path d="M73.8284314,23.122549 C73.7533809,23.2771827 73.6424558,23.4116374 73.504902,23.5147059 C73.3843222,23.5891376 73.2445848,23.6266281 73.1029412,23.622549 C72.9669408,23.6259801 72.8322086,23.5956654 72.7107843,23.5343137 C72.6038976,23.4775778 72.5129006,23.3950064 72.4460784,23.2941176 C72.3741018,23.1832831 72.32263,23.0604151 72.2941176,22.9313725 C72.2602384,22.7801532 72.2437913,22.6255508 72.245098,22.4705882 L73.9509804,22.4705882 L73.9509804,22.2990196 C73.9521789,22.1531507 73.9323677,22.0078692 73.8921569,21.8676471 C73.8551702,21.7423242 73.7935044,21.6256593 73.7107843,21.5245098 C73.6225814,21.417618 73.5099264,21.3335471 73.3823529,21.2794118 C73.2269977,21.2157855 73.0599477,21.1857165 72.8921569,21.1911765 C72.7220946,21.1890298 72.5539966,21.2276923 72.4019608,21.3039216 C72.2596931,21.3765484 72.1344007,21.4784529 72.0343137,21.6029412 C71.930416,21.7331199 71.8507217,21.8808865 71.7990196,22.0392157 C71.7469403,22.1973956 71.7204629,22.3628791 71.7205882,22.5294118 C71.7193834,22.7085085 71.7441508,22.8868339 71.7941176,23.0588235 C71.8394582,23.219311 71.9160919,23.3692466 72.0196078,23.5 C72.1238314,23.62828 72.2563904,23.7306356 72.4068627,23.7990196 C72.5780693,23.8746338 72.763876,23.9114604 72.9509804,23.9068627 C73.1720645,23.9107609 73.3891331,23.8475205 73.5735294,23.7254902 C73.7579385,23.6014661 73.9080103,23.432846 74.0098039,23.2352941 L73.8284314,23.122549 Z M72.4411765,21.6176471 C72.5470947,21.4718297 72.716837,21.3860459 72.8970588,21.3872549 C72.9924466,21.3825999 73.0868497,21.4083462 73.1666667,21.4607843 C73.2375037,21.511441 73.2947504,21.5787901 73.3333333,21.6568627 C73.3731937,21.7455934 73.399627,21.8397621 73.4117647,21.9362745 C73.427686,22.0400992 73.4358785,22.1449624 73.4362745,22.25 L72.245098,22.25 C72.2411841,22.0236754 72.3099041,21.8020534 72.4411765,21.6176471 Z" id="Shape"></path>
            </g>
        </g>
    </g>
</svg>