<svg id="Layer_1" xmlns="http://www.w3.org/2000/svg" width="88.6" height="25" enable-background="new 0 0 88.6 25"><g fill="#FFF"><path d="M.3 9.2h4s.1 0 .1-.1V9v-.1l-.1-.1c-.1 0-.2 0-.3-.1-.1 0-.2 0-.2-.1-.1 0-.2 0-.3-.1-.1-.1-.1-.2-.1-.3-.1-.4-.1-1.1-.1-2.4V4.3c0-.5.1-.8.3-1.1.1-.2.3-.4.5-.5.2-.2.5-.3.8-.3.3 0 .6 0 .8.1.2.1.3.3.5.5s.2.5.3.9v2c0 1.3 0 1.9-.1 2.3 0 .2-.1.3-.2.4 0 0-.1.1-.3.1-.1 0-.3.1-.4.1-.1 0-.1 0-.2.1l-.1.1v.1s0 .1.1.1.1.1.2.1H9.4s.1 0 .1-.1v-.1c0-.1 0-.1-.1-.1s-.1-.1-.2-.1H9c-.2 0-.3-.1-.4-.1-.1 0-.1-.1-.1-.1-.1-.4-.2-.5-.2-.8V6.6 4.2c0-.3 0-.6-.1-1 0-.3-.1-.6-.3-.9-.2-.3-.4-.5-.8-.7-.3-.2-.7-.3-1.2-.3-.8 0-1.4.4-1.8.7-.2.2-.4.3-.5.5-.1 0-.1.1-.2.1h-.1v-.9-.3s0-.1-.1-.1h-.1c-.1 0-.1 0-.2.1-.1 0-.1.1-.1.1C2 2 1.4 2.5.7 2.7c0 0-.1 0-.1.1 0 0-.1.1-.1.2 0 0 0 .1.1.1s.1.1.2.1h.3c.2 0 .3.1.4.2 0 0 .1.1.1.2.1.3.1.9.1 1.7 0 1.5 0 2.5-.1 3.1 0 .1 0 .2-.1.2 0 .1-.1.1-.2.2-.2-.2-.3-.1-.4-.1-.1 0-.3.1-.4.1-.1 0-.1 0-.1.1L.3 9v.2c0-.1 0 0 0 0zM9.6 4c.1.1.2.1.3.1.2 0 .4-.1.5-.1.2-.1.3-.2.4-.4.1-.4.3-.9.5-1.2.1-.2.3-.3.5-.4.2-.1.4-.2.7-.2.2 0 .4 0 .5.1l.4.4c.1.1.1.3.1.6v1.3c0 .2-.1.3-.1.4L13 5c-.2.1-.5.3-1 .5s-1.1.5-1.5.9c-.6.4-.9.9-.9 1.5 0 .3.1.7.4 1 .2.3.6.5 1.2.5.5 0 1-.2 1.4-.4.4-.2.7-.6.9-.8.1.3.3.5.5.7.2.2.6.3.9.3.6 0 1-.2 1.3-.5.2-.1.3-.3.4-.4.1-.1.1-.3.1-.4v-.1l-.1-.1h-.1-.1l-.1.1c-.2.1-.4.3-.7.3-.1 0-.2 0-.3-.1-.2 0-.2-.1-.3-.2v-.6c0-.3 0-1.1.1-2 0-.9.1-1.9.1-2.4 0-.3-.1-.6-.2-.8-.2-.3-.5-.5-.9-.6-.4-.1-.8-.1-1.2-.1-1.1 0-1.9.4-2.5.9-.4.2-.6.5-.7.7-.2.3-.3.6-.3.8 0 .1.1.3.2.3zM13 7.8c-.1.2-.3.3-.4.5-.2.1-.3.2-.5.2s-.4-.1-.6-.2c-.2-.1-.3-.4-.3-.7 0-.3.1-.6.3-.8.3-.4.6-.7 1-.9.2-.1.3-.2.5-.3.1 0 .1-.1.2-.1h.2s.1 0 .1.1v.2c0 .4 0 .8-.1 1.2-.2.3-.3.6-.4.8zM36.1 8.3c.7.7 1.6 1.1 2.6 1.1s1.8-.4 2.4-.9c.3-.2.5-.5.7-.7.1-.1.1-.2.2-.3 0 0 0-.1.1-.1v-.1-.1s-.1-.1-.2-.1h-.1s-.1 0-.1.1c-.3.3-.9.9-2.1.9-1 0-1.6-.4-2.1-1-.4-.6-.6-1.4-.6-2.3v-.4c0-.1 0-.1.1-.2 0-.1.1-.1.1-.1h.3c1.5 0 2.8.1 3.9.1.2 0 .4 0 .6-.1.1 0 .1-.1.2-.2 0-.1.1-.2.1-.3 0-.7-.3-1.3-.8-1.8S40.1 1 39.3 1c-1.1 0-2.1.4-2.9 1.2-.9 1-1.4 2-1.4 3.3 0 1.2.4 2.1 1.1 2.8zM39 1.8c.5 0 .8.2 1 .4.2.2.3.5.3.6 0 .2-.1.3-.2.5-.2.2-.5.3-.9.3-.4.1-.8.1-1.2.1-.4 0-.7 0-.8-.1-.1 0-.1 0-.1-.1v-.1c0-.3.2-.7.5-1.1.3-.3.8-.5 1.4-.5zM29.6 3.1h.1c.2 0 .4 0 .5.1.1 0 .1.1.2.2s.1.3.1.7v3.5c0 .5-.1.7-.1.8 0 .1-.1.1-.1.2-.1.1-.2.1-.3.2-.1 0-.2.1-.3.1-.1 0-.2 0-.3.1 0 0-.1 0-.1.1l-.1.1c0 .1 0 .1.1.1s.1.1.2.1h4.3l.1-.1v-.1c0-.1-.1-.1-.2-.1h-.2c-.1 0-.4-.1-.6-.1-.1 0-.2-.1-.3-.1-.1 0-.2-.1-.2-.2 0 0 0-.1-.1-.2-.1-.3-.1-.8-.1-1.5v-.8-1.8c0-.2.1-.4.1-.6 0-.2.1-.3.2-.3l.2-.2c.1-.1.2-.1.3-.1.1 0 .2 0 .3.1.1.1.3.2.4.4.2.1.4.2.6.2.3 0 .5-.1.7-.3.2-.2.3-.4.3-.7 0-.3-.1-.6-.3-.8-.2-.2-.5-.3-.8-.3-.6 0-1.1.3-1.4.7l-.4.4-.1.1V1.6c0-.1 0-.2-.1-.3 0-.1-.1-.1-.2-.1 0 0-.1 0-.2.1-.1 0-.2.1-.3.2-.2.2-.6.5-.9.7-.2.1-.3.2-.5.3-.1.1-.2.1-.3.1-.1 0-.2.1-.3.1 0 0-.1 0-.1.1V3c.1.1.1.1.2.1z"/><path d="M16.3 2.6h.8c.1 0 .1.1.1.1v4.2c0 .7.1 1.3.3 1.7.1.2.3.4.5.5.2.1.5.2.8.2.6 0 1.2-.3 1.7-.5.2-.1.4-.3.5-.4l.2-.2v-.1V8s0-.1-.1-.1H21s-.1 0-.2.1c-.2.1-.7.2-1 .2-.2 0-.4 0-.5-.1-.1 0-.2-.1-.3-.2-.1-.1-.1-.3-.1-.5v-.8-.3c0-2 0-2.9.1-3.5v-.2-.1h2.3c.1 0 .1 0 .1.1 0 0 .1.1.1.2v.3c0 .3-.1 3.2-.1 4.1 0 .9.3 1.5.8 1.8.4.4 1 .5 1.4.5.8 0 1.4-.3 1.8-.7.2-.2.4-.3.5-.4.1-.1.1-.1.2-.1h.1v1.2s0 .1.1.1h.2c.1 0 .2-.1.2-.1.6-.2 1.9-.6 2.2-.6.1 0 .2 0 .3-.1 0 0 .1 0 .1-.1v-.1c0-.1 0-.1-.1-.1l-.1-.1h-.9c-.1 0-.1-.1-.2-.1 0 0 0-.1-.1-.2-.1-.3-.1-.9-.1-1.6 0-1.6.1-3.6.1-4.3 0-.1 0-.2-.1-.3l-.1-.1h-.2l-2.5.1c-.1 0-.2 0-.3.1l-.1.1v.2c.1 0 .1.1.2.1h.3c.2 0 .3 0 .4.1.1 0 .2.1.3.1 0 0 .1.1.1.2 0 .2.1.5.1.9v3c0 .2 0 .4-.1.6 0 .2-.1.3-.1.4-.1.2-.3.4-.6.5-.3.1-.6.2-.9.2-.6 0-.9-.1-1.2-.4-.2-.2-.3-.6-.3-1V2.2 2v-.1c0-.1-.1-.1-.1-.1h-.2-.1l-3.7.1h-.1v-.1V.6c0-.1 0-.2-.1-.2.4-.4.3-.4.2-.4h-.1l-.1.1-.1.1c-.4.7-1.2 1.4-1.8 1.8-.1.1-.2.1-.3.2l-.1.1v.1s0 .1.1.2c-.1-.1-.1-.1 0 0zM.6 15.2zM20.4 24.1c-.1 0-.2-.1-.3-.1-.1 0-.2 0-.3-.1-.3-.1-.5-.1-.6-.2-.1-.1-.2-.1-.2-.2-.1-.2-.1-.4-.2-.8v-1.9-3.5c0-.4 0-.9-.1-1.4-.1-.5-.2-.9-.4-1.3-.3-.4-.7-.8-1.1-1-.5-.3-1.1-.4-1.8-.4-1.9 0-2.9 1.2-3.4 1.7l-.5.5c-.1-.3-.2-.6-.3-.8-.3-.4-.7-.8-1.1-1-.5-.3-1.1-.4-1.8-.4-1.2 0-2 .5-2.6 1-.3.2-.5.5-.7.7l-.2.2c-.1 0-.1.1-.1.1v-.1-1.3-.4c0-.1-.1-.1-.1-.2 0 0-.1-.1-.2-.1s-.2 0-.3.1c-.1 0-.1.1-.2.1-1 .9-2 1.5-3 1.9-.1 0-.1 0-.2.1 0 0 0 .1-.1.1v.2c0 .1.1.1.1.1.1 0 .1 0 .2.1h.3c.1 0 .3.1.4.1.1 0 .2.1.2.2s.1.2.1.3c0 .2.1.5.1.9v1.5c0 2.2 0 3.6-.1 4.4 0 .1-.1.2-.1.3-.1.1-.1.2-.3.2-.1.1-.3.1-.5.2-.3.1-.5.1-.7.2-.1 0-.1.1-.2.1l-.1.1V24.6l.1.1h.8c.6 0 1.7-.1 2.1-.1H5.8c.1 0 .1 0 .2-.1 0 0 .1-.1.1-.2v-.1c0-.1-.1-.1-.2-.1-.2-.1-.3-.1-.4-.1-.1 0-.2-.1-.3-.1-.2-.1-.3-.2-.5-.3-.1-.1-.2-.2-.2-.4-.1-.6-.2-1.6-.2-3.5 0-.7 0-1.5.1-2.1.1-.7.2-1.2.4-1.6.1-.2.4-.5.7-.7.3-.2.8-.4 1.2-.4.5 0 .8 0 1.1.2.3.1.5.3.8.6.2.2.4.6.4 1.2.1.6.1 1.4.1 2.4v.4c0 1.8 0 2.7-.1 3.4 0 .1-.1.3-.1.4l-.3.3c-.1.1-.3.1-.5.2-.1 0-.3 0-.5.1-.1 0-.2 0-.2.1l-.1.1v.1c0 .1 0 .1.1.2 0 0 .1 0 .1.1H13.1c.1 0 .1 0 .1-.1 0 0 .1-.1.1-.2v-.1c0-.1-.1-.1-.1-.1-.1 0-.2-.1-.3-.1-.1 0-.2 0-.3-.1-.3-.1-.5-.1-.6-.2-.1-.1-.2-.1-.2-.2-.1-.2-.1-.4-.2-.8v-1.9-3.5c0-.3 0-.7-.1-1l.7-.7c.4-.4 1-.8 1.7-.8.5 0 .8 0 1.1.2.3.1.5.3.8.6.2.3.4.7.4 1.3.1.6.1 1.4.1 2.4v.4c0 1.8 0 2.7-.1 3.4 0 .1-.1.3-.1.4l-.3.3c-.1.1-.3.1-.5.2-.1-.1-.3-.1-.5 0-.1 0-.2 0-.2.1l-.1.1v.1c0 .1 0 .1.1.2 0 0 .1 0 .1.1H20.3c.1 0 .1 0 .1-.1 0 0 .1-.1.1-.2v-.1c0-.1-.1-.2-.1-.2zM78.6 23.9c-.2 0-.3-.1-.4-.1-.2-.1-.3-.3-.4-.5 0-.1-.1-.2-.1-.5V7.7H77l-3.6 1.4.3.6h.1c.3-.1.6-.2.8-.2.2 0 .3 0 .4.1.1.1.2.2.2.5v.2c0 .6.1 2.1.1 3.2l-.3 8.6v.8c0 .2-.1.4-.1.5-.1.2-.2.4-.4.5-.1 0-.2.1-.4.1H73.3v.6h6.1V24h-.1c-.3 0-.5 0-.7-.1zM59 11.7c.4 0 .7-.1 1-.4.3-.3.4-.6.4-.9 0-.4-.1-.7-.4-.9-.3-.3-.6-.4-1-.4s-.7.1-1 .4c-.3.2-.4.6-.4.9 0 .4.1.7.4.9.3.3.7.4 1 .4zM62.4 24.2c-.1 0-.2-.1-.3-.1-.1 0-.2-.1-.3-.1-.2-.1-.3-.2-.5-.3-.1-.1-.2-.2-.2-.4-.1-.6-.2-1.6-.2-3.5v-5.9-.4c0-.1-.1-.1-.1-.2 0 0-.1-.1-.2-.1s-.2 0-.3.1c-.1 0-.1.1-.2.1-1 .9-2 1.5-3 1.9-.1 0-.1 0-.2.1 0 0 0 .1-.1.1v.2c0 .1.1.1.1.1.1 0 .1 0 .2.1h.3c.1 0 .3.1.4.1.1 0 .2.1.2.2s.1.2.1.3c0 .2.1.5.1.9v1.5c0 2.2 0 3.6-.1 4.4 0 .1-.1.2-.1.3-.1.1-.1.2-.3.2-.1.1-.3.1-.5.2s-.4.1-.6.1c-.1 0-.1.1-.2.1l-.1.1V24.6l.1.1h.8c.6 0 1.7-.1 2.1-.1H62.1c.1 0 .1 0 .2-.1 0 0 .1-.1.1-.2v-.1c.1 0 .1 0 0 0zM87.9 19.9c-.5-.5-1.1-1-2-1.3l-1.9-.8c-.8-.3-1.4-.7-1.6-1-.3-.3-.4-.6-.4-1 0-.2 0-.3.1-.4.1-.1.2-.3.4-.4.4-.3.8-.4 1.4-.4.8 0 1.4.2 1.9.6.5.4.9 1.1 1.2 2.2v.1h.6v-3.8H87v.1c-.1.2-.2.3-.2.3-.1 0-.1.1-.3.1h-.3c-.1 0-.3-.1-.6-.1-.7-.2-1.3-.3-1.7-.3-1.1 0-2 .3-2.7.9-.7.6-1 1.4-1 2.2 0 .7.2 1.3.6 1.7.4.5 1.3 1 2.5 1.5 1.3.5 2.1 1 2.5 1.3.4.3.6.8.6 1.2 0 .2 0 .4-.1.6-.1.2-.2.3-.4.5-.4.3-.8.4-1.4.4-.8 0-1.6-.3-2.3-.8-.7-.5-1.1-1.3-1.4-2.4v-.1h-.6v4h.6v-.1l.2-.2c.1 0 .1-.1.2-.1.2 0 .4 0 .7.1.9.2 1.8.3 2.5.3 1 0 2-.3 2.8-.9.4-.3.7-.7 1-1.1.2-.4.3-.9.3-1.3.1-.5-.2-1.1-.6-1.6zM80.8 18.5zM40.4 17.9c0-.1.1-.1.2-.1h.4c2.1 0 3.9.1 5.4.1h.7c.1 0 .2-.1.3-.2.1-.1.1-.3.1-.5 0-.9-.4-1.8-1.2-2.5-.7-.7-1.7-1.1-2.9-1.1-1.5 0-3 .6-4 1.7-1 1-1.7 2.5-1.7 4.3 0 1.7.6 3 1.5 4s2.2 1.5 3.6 1.5c1.3 0 2.5-.6 3.3-1.3.4-.3.7-.7 1-1 .1-.1.2-.3.3-.4 0-.1.1-.1.1-.2v-.1c0-.1 0-.1-.1-.2 0 0-.1 0-.1-.1h-.1-.1l-.1.1c-.2.2-.5.5-1 .8-.5.3-1.1.5-1.9.5-1.4 0-2.3-.5-2.9-1.4-.6-.8-.9-2-.9-3.2V18l.1-.1zm.3-1.9c.2-.4.5-.8.9-1.1.4-.3 1-.5 1.6-.5.7 0 1.1.2 1.4.5.1.1.2.3.3.5.1.2.1.3.1.4 0 .3-.1.5-.3.7-.3.3-.7.4-1.2.5h-1.6c-.6 0-.9 0-1.1-.1-.1 0-.2-.1-.2-.1v-.1c-.1-.2 0-.4.1-.7zM24.2 19.5zM31.1 22.7h-.2c-.1 0-.1.1-.2.2-.2.2-.6.4-1.1.4-.2 0-.3 0-.4-.1-.2-.1-.3-.3-.3-.5-.1-.2-.1-.5-.1-.8 0-.4 0-1.6.1-2.9 0-1.3.1-2.7.1-3.4 0-.5-.1-.9-.3-1.2-.3-.5-.8-.7-1.3-.9-.5-.2-1.1-.2-1.7-.2-1.6 0-2.9.6-3.7 1.3-.4.4-.8.8-1 1.1-.2.4-.3.7-.3 1 0 .2.1.4.3.5.1.1.3.2.5.2s.5-.1.8-.2c.3-.1.5-.3.6-.6.2-.6.4-1.2.8-1.7.2-.2.4-.5.7-.6.3-.1.6-.2 1-.2.3 0 .6 0 .8.1.2.1.4.3.5.5.1.2.1.5.1.9v1.9c0 .2-.1.4-.2.5-.1.1-.1.2-.2.3-.3.3-.9.5-1.9 1-.7.4-1.6.7-2.3 1.3-.3.3-.6.6-.8.9-.2.4-.3.8-.3 1.2 0 .4.2.9.5 1.4.4.4.9.7 1.7.7.8 0 1.5-.2 2-.6.6-.3 1-.8 1.3-1.2v.1c.1.4.4.8.7 1.1.4.3.8.5 1.4.5.8 0 1.5-.3 2-.7.2-.2.4-.4.5-.6.1-.1.1-.2.1-.3 0-.1.1-.2.1-.2-.1 0-.2-.1-.3-.2.1 0 .1 0 0 0zm-5.2 0c-.2.3-.4.5-.7.6-.2.1-.5.2-.8.2-.3 0-.6-.1-.9-.3-.2-.2-.4-.5-.4-1 0-.4.2-.8.4-1.2.4-.5 1-1 1.5-1.3.3-.2.5-.3.7-.4.1 0 .2-.1.2-.1h.2c.1 0 .1 0 .1.1v.3c0 .6 0 1.2-.1 1.7.1.7 0 1.1-.2 1.4zm0 0z"/><path d="M73.5 23v-.2s0-.1-.1-.1h-.2c-.1 0-.1.1-.2.2-.2.2-.6.4-1.1.4-.2 0-.3 0-.4-.1-.2-.1-.3-.3-.3-.5-.2-.2-.2-.5-.2-.8 0-.4 0-1.6.1-2.9 0-1.3.1-2.7.1-3.4 0-.5-.1-.9-.3-1.2-.3-.5-.8-.7-1.3-.9-.5-.2-1.1-.2-1.7-.2-1.6 0-2.9.6-3.7 1.3-.4.4-.8.8-1 1.1-.2.4-.3.7-.3 1 0 .2.1.4.3.5.1.1.3.2.5.2s.5-.1.8-.2c.3-.1.5-.3.6-.6.2-.6.4-1.2.8-1.7.2-.2.4-.5.7-.6.3-.1.6-.2 1-.2.3 0 .6 0 .8.1.2.1.4.3.5.5.1.2.1.5.1.9v1.9c0 .2-.1.4-.2.5-.1.1-.1.2-.2.3-.3.3-.9.5-1.9 1-.7.4-1.6.7-2.3 1.3-.3.3-.6.6-.8.9-.5.5-.6.9-.6 1.4 0 .4.2.9.5 1.4.4.4.9.7 1.7.7.8 0 1.5-.2 2-.6.6-.3 1-.8 1.3-1.2v.1c.1.4.4.8.7 1.1.4.3.8.5 1.4.5.8 0 1.5-.3 2-.7.2-.2.4-.4.5-.6.1-.1.1-.2.1-.3.3-.2.3-.3.3-.3zm-5.4-.3c-.2.3-.4.5-.7.6-.2.1-.5.2-.8.2-.3 0-.6-.1-.9-.3-.2-.2-.4-.5-.4-1 0-.4.2-.8.4-1.2.4-.5 1-1 1.5-1.3.3-.2.5-.3.7-.4.1 0 .2-.1.2-.1h.2c.1 0 .1 0 .1.1v.3c0 .6 0 1.2-.1 1.7.2.7 0 1.1-.2 1.4zM37.6 22.9c-.1 0-.2.1-.3.1-.3.1-.9.3-1.5.3-.3 0-.5 0-.7-.1-.2-.1-.3-.2-.4-.4-.1-.2-.2-.4-.2-.8v-1.2-.4c0-2.9 0-4.2.1-5.1V15v-.1h1.8c.7 0 1.2 0 1.5.1h.1v-1h-3.2c-.1 0-.1 0-.1-.1 0 0-.1-.1-.1-.2 0-.5.1-1.2.1-1.7 0-.1 0-.2-.1-.3-.1-.1-.2-.1-.3-.1h-.2c-.1 0-.1.1-.2.2 0 .1-.1.1-.1.2-.3.4-.7.9-1.2 1.3s-1 .8-1.4 1.1c-.2.1-.3.2-.4.3-.1 0-.1.1-.1.1 0 .1-.1.1-.1.2v.1c0 .1.1.1.1.1h1.1c.1 0 .1.1.1.2v.3c0 .2 0 1.4-.1 2.7 0 1.3-.1 2.7-.1 3.2 0 1 .1 1.8.5 2.4.2.3.4.6.8.7.3.2.7.3 1.2.3.9 0 1.8-.4 2.4-.8.3-.2.6-.4.8-.6l.2-.2s0-.1.1-.1v-.1c0-.1 0-.1-.1-.2.1-.1.1-.1 0-.1zM54.8 13.3c-.4 0-.8.1-1.2.3-.5.3-.9.7-1.2 1-.1.2-.3.3-.4.4 0 .1-.1.1-.1.1V13.7c0-.2 0-.3-.1-.4l-.1-.1h-.1c-.1 0-.2 0-.3.1-.1.1-.2.2-.4.3-.3.3-.9.7-1.3 1-.2.2-.5.3-.7.4l-.4.2c-.2.1-.3.1-.4.2l-.1.1V15.8s.1.1.2.1h.2c.3 0 .5.1.7.1.1.1.2.1.3.3.1.2.2.5.2.9v5c0 .7-.1 1-.1 1.2 0 .1-.1.2-.2.2-.1.1-.3.2-.5.2-.4.2-.6.2-.7.2-.1 0-.3.1-.4.1-.1 0-.1.1-.2.1 0 0-.1.1-.1.2v.1c0 .1.1.1.1.1.1 0 .2 0 .2.1H48.3c.6 0 1.7-.1 2.3-.1h3.3c.1 0 .1 0 .2-.1 0 0 .1 0 .1-.1v-.1c0-.1 0-.1-.1-.2L54 24c-.1 0-.1 0-.2-.1h-.2c-.2 0-.5-.1-.9-.2-.2-.1-.3-.1-.5-.2-.1-.1-.2-.2-.3-.2 0 0-.1-.2-.1-.3-.1-.4-.1-1.2-.1-2.2v-1.2c0-1 0-1.9.1-2.6 0-.3.1-.6.1-.8.1-.2.1-.4.2-.5l.3-.3c.1-.1.2-.2.4-.2s.3.1.5.1c.2.1.4.3.6.5.2.2.5.3.9.3s.8-.1 1-.4c.3-.3.4-.6.4-1.1 0-.4-.2-.8-.5-1.1 0 0-.4-.2-.9-.2z"/></g></svg>