<svg id="Layer_1" xmlns="http://www.w3.org/2000/svg" width="128.8" height="50" enable-background="new 0 0 128.8 50"><style>.st0{fill:#FFFFFF;} .st1{fill-rule:evenodd;clip-rule:evenodd;fill:#FFFFFF;}</style><path class="st0" d="M11.8 3.3c.4.6.5 1.8.5 2.6v3.5c0 3 0 3 1.1 3.2.3.1.6.1.6.3 0 .2-.2.2-.5.2s-1.7-.1-2.3-.1c-.7 0-2.1.1-2.4.1-.4 0-.6 0-.6-.2s.5-.2.9-.4c.5-.2.8-.3.9-.9.1-.7.1-1.6.1-3.4 0-2.2 0-3.6-.5-4.2-.5-.6-1.1-.8-2-.8-.9 0-1.7.7-2 1.2C5 5.2 5 6.8 5 8.2c0 2 0 2.9.2 3.6.1.4.4.6.7.7.3.1.8.2.8.4s-.3.2-.6.2c-.2 0-2-.1-2.4-.1s-2.3.1-2.5.1c-.3 0-.4 0-.4-.2s.4-.2.8-.4c.5-.1.8-.2.9-.8.2-.7.2-2.1.2-4.3 0-1.5 0-2.5-.2-2.8-.1-.1-.4-.3-.7-.3-.4 0-.6 0-.6-.2 0-.1.1-.2.2-.2 1.1-.4 2-1 3-1.9.1-.1.2-.2.4-.2s.2.2.2.5v1.2c0 .2 0 .3.2.3.4 0 1.4-1.9 3.7-1.9 1.4 0 2.3.6 2.9 1.4zM19.6 11.6c-.6.8-1.6 1.8-3.1 1.8s-2.1-1.2-2.1-2c0-1.8 1.8-2.7 3.3-3.4C20 6.9 20 7.2 20 4.7c0-.7 0-1.2-.1-1.6-.3-.6-.7-.7-1.4-.7-1.6 0-2.1 1.5-2.5 2.7-.2.5-.8.8-1.2.8-.2 0-.6-.2-.6-.6 0-1.1 1.8-3.4 4.8-3.4 1.5 0 3.1.3 3.1 2.2 0 1.5-.2 5.6-.2 6.4 0 .8.2 1.5.9 1.5.8 0 1.2-.7 1.4-.7.1 0 .1.1.1.2 0 .4-.9 1.8-2.5 1.8-1.1 0-1.7-.7-2-1.5 0-.1-.1-.2-.1-.2-.1-.1-.1 0-.1 0zm-.2-3.9c-.3 0-3 1.3-3 3.1 0 1 .8 1.4 1.4 1.4.6 0 1.1-.4 1.5-.9.5-.7.5-1.9.5-3.1 0-.4-.1-.5-.4-.5zM60.1 6c-1.5 0-3.4-.1-5.6-.1-.6 0-.8 0-.8 1.1 0 2.6 1.1 4.8 4 4.8 2.2 0 3.1-1.5 3.3-1.5.1 0 .2.1.2.2 0 .4-2.1 2.9-4.8 2.9-2.9 0-5.2-2.1-5.2-5.5 0-3.6 2.7-6 5.9-6 2.4 0 4.1 1.8 4.1 3.6-.1.5-.4.5-1.1.5zm-3.2-3.7c-2 0-2.9 1.7-2.9 2.5 0 .3.4.4 1.5.4 1.4 0 3.4-.1 3.4-1.4-.1-.4-.6-1.5-2-1.5zM43.3 4.3c-.2 0-.3-.1-.3-.1 0-.2.2-.2.5-.3.4-.1 1.8-1 2.5-1.6.3-.3.5-.4.6-.4.1 0 .2.1.2.4v1.3c0 .2.1.3.1.3.4 0 1.2-1.9 2.9-1.9.9 0 1.6.7 1.6 1.5s-.6 1.4-1.4 1.4c-.9 0-1.1-1-2-1-.4 0-.6.3-.8.5-.4.5-.5 1.9-.5 4 0 1.9 0 3.4.2 3.8.3.4 1.4.6 1.7.7.3.1.5 0 .5.3 0 .2-.3.2-.5.2s-2.1-.1-2.9-.1c-.8 0-2.5.1-2.7.1-.2 0-.5 0-.5-.2s.3-.2.6-.3c.2-.1 1-.2 1.2-.7.2-.4.2-1.4.2-4.4.1-3.2 0-3.5-1.2-3.5z"/><path class="st0" d="M27.7.3c0 .5-.1 1.2-.1 1.7 0 .2.1.4.3.4l5.4-.2c.5 0 .6.1.6.6 0 1 0 2-.1 6.9 0 1.2.6 2.1 2.3 2.1.9 0 1.9-.4 2.3-1.1.3-.5.3-2 .3-3.3 0-2.6 0-3.9-.3-4.2-.2-.2-.6-.3-1.1-.3-.5-.1-.7-.1-.7-.2 0-.2.1-.2.4-.2l3.6-.1c.4 0 .5.1.5.5 0 .9-.2 3.9-.2 6.2 0 1.4 0 2.4.2 2.8.1.2.4.3.9.3h.7c.1 0 .2.1.2.2s-.1.2-.4.2c-.5.1-2.4.6-3.2.9-.1.1-.4.1-.4.1-.2 0-.2-.1-.2-.4V12c0-.2 0-.4-.2-.4-.3 0-1.6 1.9-3.8 1.9-1.3 0-3.1-.7-3.1-3.2 0-1.4.1-5.5.1-6 0-1 0-1-2-1h-1.5c-.4 0-.4.1-.4.6-.1.9-.1 2.2-.1 5.1 0 1.2 0 2 .2 2.4.1.4.5.6 1.1.6.8 0 1.7-.4 1.8-.4.1 0 .1.1.1.1 0 .2-1.7 1.7-3.4 1.7-1.9 0-2.3-1.4-2.3-3.3 0-1 .1-5.5.1-5.8 0-.3 0-.7-.5-.7H24c-.1 0-.2 0-.2-.1 0-.2.2-.2.6-.5.8-.6 2.1-1.6 2.7-2.5.2-.3.2-.5.4-.5s.2.1.2.3z"/><path class="st1" d="M67.9 24.9c2.5 0 4.5.9 6 2.6 1.3 1.5 1.9 3.2 1.9 5.2 0 1.4-.4 2.8-1.1 4.2-.7 1.4-1.7 2.4-2.9 3.1-1.2.7-2.6 1.1-4.1 1.1-2.5 0-4.4-.9-5.9-2.8-1.2-1.5-1.8-3.3-1.8-5.2 0-1.4.4-2.8 1.1-4.2.7-1.4 1.7-2.4 2.9-3.1 1.3-.6 2.5-.9 3.9-.9zm-.6 1.1c-.6 0-1.3.2-1.9.5-.6.3-1.1 1-1.5 1.8-.4.9-.6 2-.6 3.4 0 2.2.5 4.1 1.4 5.8 1 1.6 2.2 2.4 3.7 2.4 1.2 0 2.1-.4 2.9-1.3.7-.9 1.1-2.4 1.1-4.6 0-2.7-.6-4.8-1.9-6.4-.8-1.1-1.8-1.6-3.2-1.6z"/><path class="st0" d="M60.1 27c-.4-.1-1.1-.1-2-.1h-2.2c-.5 0-.6.1-.6.9-.1 1.2-.1 3.1-.1 7.2 0 1.7 0 2.7.3 3.4.3.6.9.8 1.7.8 1.2 0 2.4-.6 2.5-.6.1 0 .2.1.2.2 0 .3-2.3 2.4-4.8 2.4-2.7 0-3.2-2-3.2-4.7 0-1.4.2-7.7.2-8.1 0-.4 0-1-.7-1h-1.1c-.1 0-.3 0-.3-.2 0-.3.3-.3.8-.7 1.2-.8 2.9-2.2 3.8-3.5.2-.3.3-.5.5-.5s.3.1.3.4c0 .7-.1 1.7-.1 2.4 0 .3.1.5.4.5l4.3-.2.1 1.4z"/><path class="st1" d="M42.1 24.8c2.5 0 4.4.9 5.9 2.6 1.3 1.5 1.9 3.2 1.9 5.2 0 1.4-.4 2.7-1 4.1-.7 1.4-1.7 2.5-2.9 3.2-1.2.7-2.6 1.1-4.1 1.1-2.5 0-4.4-.9-5.9-2.7-1.2-1.5-1.8-3.3-1.8-5.2 0-1.4.4-2.8 1.1-4.2.7-1.4 1.7-2.4 2.9-3.1 1.2-.7 2.5-1 3.9-1zm-.6 1.1c-.6 0-1.3.2-1.9.5-.6.3-1.1 1-1.5 1.8-.4.9-.6 2-.6 3.4 0 2.2.5 4.1 1.4 5.7.9 1.6 2.2 2.4 3.7 2.4 1.2 0 2.1-.4 2.8-1.3.7-.9 1.1-2.4 1.1-4.6 0-2.7-.6-4.8-1.9-6.4-.7-1-1.8-1.5-3.1-1.5z"/><path class="st0" d="M31.6 26.8c.6.9.7 2.6.7 3.7v5c0 4.3 0 4.2 1.5 4.6.4.1.9.1.9.4 0 .3-.3.3-.7.3-.4 0-2.4-.1-3.3-.1-.9 0-3 .1-3.5.1-.6 0-.9 0-.9-.2 0-.3.7-.3 1.3-.5.7-.3 1.2-.4 1.3-1.3.1-.9.1-2.3.1-4.9 0-3.2 0-5.1-.7-6-.8-.9-1.5-1.1-2.8-1.1-1.3 0-2.5.9-2.9 1.7-.6 1.1-.6 3.3-.6 5.4 0 2.8 0 4.2.2 5.1.1.5.5.8 1.1 1 .4.2 1.2.3 1.2.6s-.5.3-.8.3c-.4 0-2.8-.1-3.4-.1-.6 0-3.3.1-3.5.1-.5 0-.6 0-.6-.3s.5-.4 1.1-.5c.8-.2 1.2-.3 1.3-1.1.2-1.2.2-3.2.2-6.4 0-2.2 0-12.1-.3-12.5-.2-.2-.5-.4-.9-.4-.6-.1-.9-.1-.9-.3 0-.2.1-.3.3-.3 1.5-.5 2.9-1.5 4.3-2.7.1-.1.4-.3.5-.3.3 0 .3.3.3.7v1.7c0 .2.1 9 .3 9 .6 0 2-2.7 5.3-2.7 1.9 0 3.1.8 3.9 2z"/><path class="st0" d="M2.4 29.3c0-1.5 0-1.7-1-2.4l-.4-.2c-.2-.2-.2-.6 0-.7 1-.4 2.8-1.3 3.8-2.1.2 0 .4.1.5.3-.1.7-.2 1.3-.2 1.7 0 .3.1.5.3.5.5-.2 2.9-1.8 5.3-1.8 3.8 0 6.3 3.1 6.3 7 0 5.3-3.9 9.1-9.3 9.1-.7 0-1.7-.1-2.1-.2-.3.1-.5.3-.5 1.1v4c0 2.7.1 3 1.4 3.2l1.6.2c.3.2.2.8-.1 1-1.8-.1-2.9-.1-4.3-.1s-2.5 0-3.6.1c-.3-.1-.3-.8-.1-1l1-.1c1.4-.2 1.4-.6 1.4-3.3V29.3zm2.8 7.1c0 1.2.4 1.7 1.1 2.3.8.6 1.9.8 2.7.8 3.1 0 4.9-2.9 4.9-6.8 0-3-1.7-6.1-5.1-6.1-1.6 0-2.8.6-3.2 1.1-.3.4-.5 1-.5 2.2v6.5zM115.7 35c-.4 2-1.3 3.6-2.6 4.7s-2.7 1.6-4.3 1.6c-1.9 0-3.5-.7-4.9-2.2-1.4-1.5-2.1-3.4-2.1-5.9 0-2.4.8-4.4 2.3-5.9 1.5-1.5 3.4-2.3 5.6-2.3 1.6 0 2.9.4 4 1.2 1 .8 1.6 1.6 1.6 2.5 0 .4-.1.8-.4 1-.3.3-.7.4-1.2.4-.7 0-1.2-.2-1.6-.6-.2-.2-.3-.7-.4-1.3-.1-.7-.3-1.2-.7-1.5-.4-.3-1-.5-1.7-.5-1.2 0-2.2.4-2.9 1.2-1 1.1-1.5 2.5-1.5 4.4 0 1.8.5 3.5 1.4 4.9 1 1.4 2.3 2.1 3.9 2.1 1.2 0 2.2-.4 3.2-1.1.7-.5 1.3-1.5 1.9-2.8l.4.1zM127.5 25v5.2h-.6c-.5-1.6-1-2.8-1.8-3.4-.7-.6-1.6-.9-2.7-.9-.8 0-1.5.2-2 .6-.5.4-.8.9-.8 1.4 0 .6.2 1.2.6 1.6.4.5 1.1.9 2.3 1.5l2.6 1.2c2.4 1.1 3.7 2.6 3.7 4.4 0 1.4-.6 2.5-1.7 3.4-1.1.9-2.4 1.3-3.8 1.3-1 0-2.2-.2-3.5-.5-.4-.1-.7-.2-1-.2-.3 0-.5.1-.6.4h-.6v-5.5h.6c.3 1.6 1 2.8 1.9 3.5.9.8 2 1.2 3.2 1.2.8 0 1.5-.2 2-.7.5-.5.8-1 .8-1.6 0-.8-.3-1.4-.9-1.9-.6-.5-1.7-1.2-3.5-2-1.7-.8-2.9-1.5-3.4-2.2-.5-.6-.8-1.4-.8-2.4 0-1.3.5-2.3 1.4-3.2.9-.9 2.1-1.3 3.6-1.3.6 0 1.4.1 2.4.4.6.2 1 .2 1.2.2.2 0 .3 0 .4-.1.1-.1.2-.3.4-.5h.6v.1zM97.1 18.1c.5 0 1 .2 1.3.5.4.3.6.8.6 1.2 0 .5-.2.9-.6 1.3-.4.4-.8.5-1.3.5s-1-.2-1.3-.5c-.4-.3-.6-.8-.6-1.3s.2-.9.5-1.2c.4-.3.8-.5 1.4-.5zM94.4 40.2c.8-.2 1.2-.3 1.4-1.2.2-1.2.2-3.4.2-6.6 0-2.3 0-3.7-.3-4.1-.2-.2-.5-.4-1-.4-.6-.1-.9-.1-.9-.3 0-.2.1-.3.3-.3 1.6-.5 3-1.5 4.5-2.8.1-.1.4-.3.6-.3.3 0 .3.3.3.8v1.8c0 .2-.1 4.9-.1 7.1 0 2.9 0 4.3.2 5.3.1.6.5.8 1.1 1.1.4.2 1.2.3 1.2.6s-.5.3-.8.3c-.4 0-2.9-.1-3.6-.1-.7 0-3.4.1-3.7.1H93c-.4 0-2.3-.1-3.2-.1-.9 0-3 .1-3.4.1-.6 0-.9 0-.9-.2 0-.3.7-.3 1.2-.5.7-.2 1.1-.4 1.2-1.3.1-.9.1-2.2.1-4.7 0-3.1 0-5-.7-5.8-.7-.9-1.5-1.1-2.8-1.1-1.3 0-2.4.9-2.8 1.6-.6 1-.6 3.2-.6 5.2 0 2.7 0 4 .2 5 .1.5.5.8 1 1 .4.2 1.2.2 1.2.5s-.4.3-.8.3c-.3 0-2.7-.1-3.3-.1-.6 0-3.2.1-3.4.1-.4 0-.6 0-.6-.2 0-.3.5-.3 1.1-.5.8-.2 1.2-.3 1.3-1.1.2-1.2.2-3.1.2-6.2 0-2.1 0-3.4-.3-3.8-.1-.2-.5-.4-.9-.4-.5-.1-.9-.1-.9-.3 0-.2.1-.2.2-.3 1.5-.5 2.8-1.4 4.2-2.6.1-.1.3-.3.5-.3.3 0 .3.3.3.7v1.6c0 .2 0 .5.2.5.6 0 2-2.7 5.2-2.7 2 0 3.2.8 4 2 .6.8.7 2.5.7 3.6v4.9c0 4.2 0 4.1 1.5 4.5 0 0 .4.1.7.1.6-.4 1-.5 1-.5z"/></svg>