<svg width="24" height="24" viewBox="0 0 24 24" xmlns="http://www.w3.org/2000/svg" xmlns:xlink="http://www.w3.org/1999/xlink"><title>icon-icon / social / youtube</title><desc>Created with Sketch.</desc><defs><path d="M7.935 9.696l-.001-5.659 5.404 2.839-5.403 2.82zm11.865-6.64s-.196-1.388-.795-1.999c-.761-.803-1.613-.806-2.004-.853-2.799-.204-6.997-.204-6.997-.204h-.009s-4.198 0-6.997.204c-.391.047-1.243.05-2.004.853-.599.611-.794 1.999-.794 1.999s-.2 1.63-.2 3.26v1.528c0 1.63.2 3.26.2 3.26s.195 1.388.794 1.999c.761.803 1.761.777 2.206.861 1.6.155 6.8.203 6.8.203s4.203-.006 7.001-.21c.391-.047 1.243-.051 2.004-.854.599-.611.795-1.999.795-1.999s.2-1.63.2-3.26v-1.528c0-1.63-.2-3.26-.2-3.26z" id="a"/></defs><g transform="translate(2 5)" fill="none"><mask id="b"><use xlink:href="#a"/></mask><use fill="#666" xlink:href="#a"/><path d="M-2-5h24v24h-24z" mask="url(#b)" fill="#333"/></g></svg>