<?xml version="1.0" encoding="UTF-8" standalone="no"?>
<!-- Created with Inkscape (http://www.inkscape.org/) -->

<svg
   xmlns:dc="http://purl.org/dc/elements/1.1/"
   xmlns:cc="http://creativecommons.org/ns#"
   xmlns:rdf="http://www.w3.org/1999/02/22-rdf-syntax-ns#"
   xmlns:svg="http://www.w3.org/2000/svg"
   xmlns="http://www.w3.org/2000/svg"
   xmlns:sodipodi="http://sodipodi.sourceforge.net/DTD/sodipodi-0.dtd"
   xmlns:inkscape="http://www.inkscape.org/namespaces/inkscape"
   width="210mm"
   height="297mm"
   viewBox="0 0 210 297"
   version="1.1"
   id="svg8"
   sodipodi:docname="paperparser_logo.svg"
   inkscape:version="0.92.2 5c3e80d, 2017-08-06">
  <defs
     id="defs2" />
  <sodipodi:namedview
     id="base"
     pagecolor="#ffffff"
     bordercolor="#666666"
     borderopacity="1.0"
     inkscape:pageopacity="0.0"
     inkscape:pageshadow="2"
     inkscape:zoom="1.4"
     inkscape:cx="315.95174"
     inkscape:cy="718.22079"
     inkscape:document-units="mm"
     inkscape:current-layer="layer1"
     showgrid="false"
     inkscape:snap-global="false"
     inkscape:window-width="1280"
     inkscape:window-height="755"
     inkscape:window-x="0"
     inkscape:window-y="1"
     inkscape:window-maximized="1" />
  <metadata
     id="metadata5">
    <rdf:RDF>
      <cc:Work
         rdf:about="">
        <dc:format>image/svg+xml</dc:format>
        <dc:type
           rdf:resource="http://purl.org/dc/dcmitype/StillImage" />
      </cc:Work>
    </rdf:RDF>
  </metadata>
  <g
     inkscape:label="Layer 1"
     inkscape:groupmode="layer"
     id="layer1">
    <rect
       y="70.854744"
       x="40.055874"
       height="76.236214"
       width="54.239586"
       id="rect817"
       style="opacity:1;vector-effect:none;fill:#666666;fill-opacity:1;stroke:none;stroke-width:0.3905741;stroke-linecap:butt;stroke-linejoin:miter;stroke-miterlimit:4.1500001;stroke-dasharray:none;stroke-dashoffset:0;stroke-opacity:1;paint-order:fill markers stroke"
       ry="1.7008928" />
    <g
       id="g1126"
       transform="matrix(1.1157511,0,0,1.1357541,-35.031242,33.778262)">
      <g
         id="g1131"
         transform="matrix(1.0289371,0,0,0.73397314,-2.5551437,10.895564)">
        <path
           style="fill:#ff2800;fill-opacity:1;stroke:#000000;stroke-width:0.28648096px;stroke-linecap:butt;stroke-linejoin:miter;stroke-opacity:1"
           d="m 59.393994,6.0931636 c -4.672554,8.9765784 0.623512,19.6639744 -1.228851,29.2516634 -0.649732,3.362963 -2.730563,6.347702 -3.425704,9.701891 -1.570736,7.579109 -2.931742,15.527241 -1.600431,23.15046 1.000551,5.72925 3.004245,11.75641 7.037284,16.009989 3.716939,3.920194 9.254788,6.014019 14.52213,7.401463 7.66602,2.019268 15.955413,2.33227 23.785921,1.060484 6.770527,-1.099629 14.371297,-2.552927 19.171357,-7.370862 3.97273,-3.987512 4.88725,-10.219114 5.86751,-15.714965 0.84821,-4.755452 -0.007,-9.656031 -0.0683,-14.483556 -0.16507,-12.941142 1.77509,-26.127298 -0.80733,-38.818374 -1.07511,-5.283558 -6.01394,-15.0458898 -6.01394,-15.0458898 1.28559,9.1715088 0.33145,12.6786968 -1.44371,15.1239518 -1.12706,-11.9283072 -1.42815,-12.9874018 -3.192,-19.2988967 -1.26395,-4.5226979 -5.6562,-5.6661901 -5.26329,-13.1887503 0,0 -2.95027,8.0887173 -3.43064,12.263318 -0.21677,1.8837574 0.87378,3.83906443 0.25967,5.6627826 -0.83468,2.4786795 -5.106786,6.4207628 -5.106786,6.4207628 0,0 -1.920654,-9.7729626 -1.478775,-14.6822802 0.574118,-6.3785642 2.093362,-13.3918192 5.320771,-18.6918172 -7.6092,0.715814 -8.955757,13.709199 -11.016404,16.9427492 -1.608498,-4.0098842 -0.195163,-15.3772572 -5.877413,-20.8550272 4.911041,6.609323 1.997329,15.283888 1.37921,22.9338455 -0.292263,3.617102 -2.393068,10.7024886 -2.393068,10.7024886 0,0 -4.531101,-7.6709102 -5.202684,-11.8674329 -0.482307,-3.0137912 0.912738,-9.1213592 0.912738,-9.1213592 0,0 -6.363057,3.574316 -7.692267,6.405734 -2.290488,4.8790794 0.879343,10.43749473 0.718416,15.6670323 -0.103407,3.3603501 -1.080754,10.0518937 -1.080754,10.0518937 0,0 -11.209987,-7.854956 -4.351824,-17.1149704 -4.947284,0.1090723 -6.667759,4.3662229 -8.300886,7.503672 z"
           id="path1093"
           inkscape:connector-curvature="0"
           sodipodi:nodetypes="caaaaaaaaaaccacaacacccacacaaccac" />
        <path
           sodipodi:nodetypes="caaaaaaaaaaccacaacacccacacaaccac"
           inkscape:connector-curvature="0"
           id="path1095"
           d="m 61.123459,12.308808 c -3.223285,8.132256 1.338699,16.981692 0.314789,25.383482 -0.366944,3.010996 -1.960806,5.798948 -2.295518,8.813566 -0.73789,6.645882 -1.494634,13.709317 0.677712,20.044844 1.761159,5.136319 5.206986,9.949518 9.571116,13.265312 3.52167,2.675707 8.08738,3.991926 12.488399,4.65211 6.786107,1.017964 13.963972,0.674464 20.557983,-1.200841 5.62285,-1.599111 11.79384,-3.78617 15.37595,-8.334374 3.00724,-3.818276 3.29808,-9.216356 3.65332,-14.031451 0.30698,-4.160907 -0.86276,-8.300678 -1.34421,-12.445603 -1.29053,-11.110663 -2.05138,-22.307914 -4.13973,-33.300877 -0.7962,-4.191202 -3.18945,-12.4009864 -3.18945,-12.4009864 1.92002,7.7706664 -1.44581,11.1654334 -2.75604,13.4253074 -2.02829,-10.1547965 -2.38132,-11.0385708 -4.45897,-16.30797488 -1.48882,-3.77595472 -5.36911,-4.36892892 -5.6987,-10.87105312 0,0 -1.820351,7.215988 -1.863126,10.84760132 -0.01931,1.63873968 1.092465,3.22288048 0.725969,4.84529438 -0.498109,2.205079 -3.823695,5.9735593 -3.823695,5.9735593 0,0 -2.519764,-8.2313393 -2.575305,-12.4911787 -0.07217,-5.5347117 0.612459,-11.6990163 2.918735,-16.5421243 -6.482935,1.291206 -6.488254,12.581355 -7.974121,15.5442902 -1.739727,-3.3044823 -1.532648,-13.2026622 -6.907444,-17.4072912 4.811724,5.245933 3.074829,12.9623324 3.221978,19.59398259 0.06958,3.13561941 -1.108987,9.41358681 -1.108987,9.41358681 0,0 -4.579065,-6.1923345 -5.529295,-9.74048414 -0.682422,-2.54815296 -0.02427,-7.92279696 -0.02427,-7.92279696 0,0 -5.157139,3.6380146 -6.049416,6.1902695 -1.537565,4.3980279 1.682866,8.895129 2.00854,13.4053122 0.209266,2.898113 -0.0377,8.73771 -0.0377,8.73771 0,0 -10.34148,-5.757373 -5.262993,-14.3274187 -4.246643,0.5331646 -5.349004,4.3458878 -6.47559,7.1882337 z"
           style="fill:#ff8900;fill-opacity:1;stroke:#000000;stroke-width:0.2476896px;stroke-linecap:butt;stroke-linejoin:miter;stroke-opacity:1" />
        <path
           style="fill:#ffd700;fill-opacity:1;stroke:#000000;stroke-width:0.1868315px;stroke-linecap:butt;stroke-linejoin:miter;stroke-opacity:1"
           d="m 70.214013,14.25791 c -3.441693,5.564261 -1.414324,12.528009 -2.902684,18.641818 -0.614834,2.525585 -1.890292,4.868572 -2.477236,7.400553 -1.122572,4.842593 -2.0875,9.808585 -1.967941,14.773772 0.07412,3.07804 -0.266777,6.662944 1.659434,9.091706 2.797698,3.527622 7.965177,4.339974 12.444367,5.525052 5.026028,1.329756 10.441331,2.009838 15.682341,1.643979 5.271391,-0.367977 10.714616,-1.129488 15.157876,-3.812708 3.77851,-2.281788 7.08995,-5.800341 8.76493,-9.834892 1.19175,-2.870599 0.63938,-6.18814 0.52408,-9.286236 -0.31145,-8.368082 -1.36282,-16.754028 -3.27632,-24.913975 -0.79459,-3.388469 -3.38421,-9.887695 -3.38421,-9.887695 0.48937,5.930739 -2.4739,8.005463 -3.74352,9.500825 -0.2762,-7.691326 -0.43361,-8.382374 -1.35155,-12.499331 -0.65778,-2.9501323 -3.51639,-3.8611266 -2.96097,-8.6669017 0,0 -2.26826,5.0649905 -2.749896,7.7212932 -0.217345,1.1986365 0.426726,2.4961305 -0.05093,3.6401765 -0.649197,1.554912 -3.628284,3.908466 -3.628284,3.908466 0,0 -0.885541,-6.341994 -0.400465,-9.4707848 0.630245,-4.0651671 1.910226,-8.49883578 4.252073,-11.7651175 -5.058308,0.1503468 -6.459186,8.424073 -7.948504,10.4131323 -0.905708,-2.6354044 0.475403,-9.8642061 -3.065621,-13.605619 2.986728,4.4354364 0.719615,9.877417 0.01031,14.7557198 -0.335378,2.3065904 -2.002644,6.7629162 -2.002644,6.7629162 0,0 -2.693837,-5.100474 -2.972848,-7.8175261 -0.200376,-1.9512888 0.961903,-5.80947748 0.961903,-5.80947748 0,0 -4.346882,2.03306518 -5.336868,3.79402278 -1.705936,3.0344697 0.171047,6.7257238 -0.140888,10.0711548 -0.200444,2.149675 -1.109548,6.399106 -1.109548,6.399106 0,0 -7.101777,-5.489193 -2.204115,-11.1465257 -3.27476,-0.1306469 -4.579437,2.5282987 -5.78236,4.4730917 z"
           id="path1097"
           inkscape:connector-curvature="0"
           sodipodi:nodetypes="caaaaaaaaaaccacaacacccacacaaccac" />
      </g>
    </g>
    <rect
       style="opacity:1;vector-effect:none;fill:#ffffff;fill-opacity:1;stroke:#1a1a1a;stroke-width:0.38727871;stroke-linecap:butt;stroke-linejoin:miter;stroke-miterlimit:4.1500001;stroke-dasharray:none;stroke-dashoffset:0;stroke-opacity:1;paint-order:fill markers stroke"
       id="rect815"
       width="54.050598"
       height="75.217262"
       x="38.468376"
       y="69.79641" />
    <g
       id="g1070"
       transform="translate(-23.519717,42.207717)">
      <rect
         ry="0"
         y="32.595646"
         x="66.767921"
         height="13.022401"
         width="21.549261"
         id="rect841"
         style="opacity:1;vector-effect:none;fill:#ffffff;fill-opacity:1;stroke:#ff0000;stroke-width:1.14900005;stroke-linecap:butt;stroke-linejoin:miter;stroke-miterlimit:4.1500001;stroke-dasharray:none;stroke-dashoffset:0;stroke-opacity:1;paint-order:fill markers stroke" />
      <rect
         style="opacity:1;vector-effect:none;fill:#ff0000;fill-opacity:1;stroke:#ff0000;stroke-width:1.14900005;stroke-linecap:butt;stroke-linejoin:miter;stroke-miterlimit:4.1500001;stroke-dasharray:none;stroke-dashoffset:0;stroke-opacity:1;paint-order:fill markers stroke"
         id="rect843"
         width="22.941677"
         height="13.022401"
         x="88.317184"
         y="32.595646"
         ry="0" />
      <rect
         rx="0"
         ry="0.98472941"
         y="48.669643"
         x="66.807297"
         height="2.0788732"
         width="44.412193"
         id="rect819"
         style="opacity:1;vector-effect:none;fill:#333333;fill-opacity:1;stroke:none;stroke-width:0.38727871;stroke-linecap:butt;stroke-linejoin:miter;stroke-miterlimit:4.1500001;stroke-dasharray:none;stroke-dashoffset:0;stroke-opacity:1;paint-order:fill markers stroke" />
      <rect
         style="opacity:1;vector-effect:none;fill:#333333;fill-opacity:1;stroke:none;stroke-width:0.38727871;stroke-linecap:butt;stroke-linejoin:miter;stroke-miterlimit:4.1500001;stroke-dasharray:none;stroke-dashoffset:0;stroke-opacity:1;paint-order:fill markers stroke"
         id="rect821"
         width="44.412193"
         height="2.0788732"
         x="66.807297"
         y="53.961311"
         ry="0.98472941"
         rx="0" />
      <rect
         rx="0"
         ry="0.98472941"
         y="59.252979"
         x="66.807297"
         height="2.0788732"
         width="44.412193"
         id="rect823"
         style="opacity:1;vector-effect:none;fill:#cccccc;fill-opacity:1;stroke:none;stroke-width:0.38727871;stroke-linecap:butt;stroke-linejoin:miter;stroke-miterlimit:4.1500001;stroke-dasharray:none;stroke-dashoffset:0;stroke-opacity:1;paint-order:fill markers stroke" />
      <rect
         style="opacity:1;vector-effect:none;fill:#cccccc;fill-opacity:1;stroke:none;stroke-width:0.38727871;stroke-linecap:butt;stroke-linejoin:miter;stroke-miterlimit:4.1500001;stroke-dasharray:none;stroke-dashoffset:0;stroke-opacity:1;paint-order:fill markers stroke"
         id="rect825"
         width="44.412193"
         height="2.0788732"
         x="66.807297"
         y="64.544647"
         ry="0.98472941"
         rx="0" />
      <rect
         rx="0"
         ry="0.98472941"
         y="69.836311"
         x="66.807297"
         height="2.0788732"
         width="44.412193"
         id="rect827"
         style="opacity:1;vector-effect:none;fill:#cccccc;fill-opacity:1;stroke:none;stroke-width:0.38727871;stroke-linecap:butt;stroke-linejoin:miter;stroke-miterlimit:4.1500001;stroke-dasharray:none;stroke-dashoffset:0;stroke-opacity:1;paint-order:fill markers stroke" />
      <rect
         style="opacity:1;vector-effect:none;fill:#cccccc;fill-opacity:1;stroke:none;stroke-width:0.38727871;stroke-linecap:butt;stroke-linejoin:miter;stroke-miterlimit:4.1500001;stroke-dasharray:none;stroke-dashoffset:0;stroke-opacity:1;paint-order:fill markers stroke"
         id="rect829"
         width="44.412193"
         height="2.0788732"
         x="66.807297"
         y="75.127975"
         ry="0.98472941"
         rx="0" />
      <rect
         rx="0"
         ry="0.98472941"
         y="80.41964"
         x="66.807297"
         height="2.0788732"
         width="44.412193"
         id="rect831"
         style="opacity:1;vector-effect:none;fill:#cccccc;fill-opacity:1;stroke:none;stroke-width:0.38727871;stroke-linecap:butt;stroke-linejoin:miter;stroke-miterlimit:4.1500001;stroke-dasharray:none;stroke-dashoffset:0;stroke-opacity:1;paint-order:fill markers stroke" />
      <rect
         style="opacity:1;vector-effect:none;fill:#cccccc;fill-opacity:1;stroke:none;stroke-width:0.38727871;stroke-linecap:butt;stroke-linejoin:miter;stroke-miterlimit:4.1500001;stroke-dasharray:none;stroke-dashoffset:0;stroke-opacity:1;paint-order:fill markers stroke"
         id="rect833"
         width="44.412193"
         height="2.0788732"
         x="66.807297"
         y="85.711304"
         ry="0.98472941"
         rx="0" />
      <rect
         rx="0"
         ry="0.98472941"
         y="91.002968"
         x="66.807297"
         height="2.0788732"
         width="44.412193"
         id="rect835"
         style="opacity:1;vector-effect:none;fill:#cccccc;fill-opacity:1;stroke:none;stroke-width:0.38727871;stroke-linecap:butt;stroke-linejoin:miter;stroke-miterlimit:4.1500001;stroke-dasharray:none;stroke-dashoffset:0;stroke-opacity:1;paint-order:fill markers stroke" />
      <rect
         style="opacity:1;vector-effect:none;fill:#cccccc;fill-opacity:1;stroke:none;stroke-width:0.38727871;stroke-linecap:butt;stroke-linejoin:miter;stroke-miterlimit:4.1500001;stroke-dasharray:none;stroke-dashoffset:0;stroke-opacity:1;paint-order:fill markers stroke"
         id="rect837"
         width="44.412193"
         height="2.0788732"
         x="66.807297"
         y="96.294632"
         ry="0.98472941"
         rx="0" />
      <rect
         rx="0"
         ry="0.98472941"
         y="96.294632"
         x="66.807297"
         height="2.0788732"
         width="44.412193"
         id="rect839"
         style="opacity:1;vector-effect:none;fill:#cccccc;fill-opacity:1;stroke:none;stroke-width:0.38727871;stroke-linecap:butt;stroke-linejoin:miter;stroke-miterlimit:4.1500001;stroke-dasharray:none;stroke-dashoffset:0;stroke-opacity:1;paint-order:fill markers stroke" />
      <g
         style="fill:#ffffff"
         transform="matrix(0.40425525,0,0,1,86.188926,-0.49136519)"
         id="g1034">
        <rect
           style="opacity:1;vector-effect:none;fill:#ffffff;fill-opacity:1;stroke:none;stroke-width:0.38727871;stroke-linecap:butt;stroke-linejoin:miter;stroke-miterlimit:4.1500001;stroke-dasharray:none;stroke-dashoffset:0;stroke-opacity:1;paint-order:fill markers stroke"
           id="rect819-3"
           width="44.412197"
           height="2.0788732"
           x="11.43378"
           y="35.912941"
           ry="0.98472941"
           rx="0" />
        <rect
           rx="0"
           ry="0.98472941"
           y="41.204609"
           x="11.43378"
           height="2.0788732"
           width="44.412197"
           id="rect821-9"
           style="opacity:1;vector-effect:none;fill:#ffffff;fill-opacity:1;stroke:none;stroke-width:0.38727871;stroke-linecap:butt;stroke-linejoin:miter;stroke-miterlimit:4.1500001;stroke-dasharray:none;stroke-dashoffset:0;stroke-opacity:1;paint-order:fill markers stroke" />
      </g>
      <g
         id="g1044"
         transform="matrix(0.36170205,0,0,1,65.374939,-0.49136519)">
        <rect
           rx="0"
           ry="0.98472941"
           y="35.912941"
           x="11.43378"
           height="2.0788732"
           width="44.412197"
           id="rect1040"
           style="opacity:1;vector-effect:none;fill:#333333;fill-opacity:1;stroke:none;stroke-width:0.38727871;stroke-linecap:butt;stroke-linejoin:miter;stroke-miterlimit:4.1500001;stroke-dasharray:none;stroke-dashoffset:0;stroke-opacity:1;paint-order:fill markers stroke" />
        <rect
           style="opacity:1;vector-effect:none;fill:#333333;fill-opacity:1;stroke:none;stroke-width:0.38727871;stroke-linecap:butt;stroke-linejoin:miter;stroke-miterlimit:4.1500001;stroke-dasharray:none;stroke-dashoffset:0;stroke-opacity:1;paint-order:fill markers stroke"
           id="rect1042"
           width="44.412197"
           height="2.0788732"
           x="11.43378"
           y="41.204609"
           ry="0.98472941"
           rx="0" />
      </g>
    </g>
  </g>
</svg>
