<?xml version="1.0" encoding="UTF-8" standalone="no"?>
<svg width="1010px" height="279px" viewBox="0 0 1010 279" version="1.1" xmlns="http://www.w3.org/2000/svg" xmlns:xlink="http://www.w3.org/1999/xlink" xmlns:sketch="http://www.bohemiancoding.com/sketch/ns">
    <!-- Generator: Sketch 3.2 (9964) - http://www.bohemiancoding.com/sketch -->
    <title>logo-science</title>
    <desc>Created with Sketch.</desc>
    <defs></defs>
    <g id="Page-1" stroke="none" stroke-width="1" fill="none" fill-rule="evenodd" sketch:type="MSPage">
        <g id="logo-science" sketch:type="MSLayerGroup" transform="translate(-1.000000, 0.000000)" fill="#FFFFFF">
            <path d="M26.8892128,257.615741 L15.4450923,275.555556 L3.28571429,275.555556 L1.13994169,185.856481 L9.72303207,185.856481 C24.7434402,226.759259 46.9164237,265.509259 91.2623907,265.509259 C122.733722,265.509259 138.469388,246.134259 138.469388,217.430556 C138.469388,193.75 127.025267,176.527778 103.421769,166.481481 C83.3945578,157.87037 69.8046647,152.847222 49.7774538,143.518519 C23.3129252,131.319444 7.57725948,109.791667 7.57725948,76.0648148 C7.57725948,35.162037 39.0485909,5.02314815 81.2487852,5.02314815 C99.1302235,5.02314815 122.018465,12.9166667 134.8931,23.6805556 L145.621963,6.45833333 L158.496599,6.45833333 L160.642371,94.0046296 L152.059281,94.0046296 C137.75413,50.2314815 120.587949,17.2222222 74.0962099,17.2222222 C64.0826045,17.2222222 38.3333333,26.5509259 38.3333333,56.6898148 C38.3333333,80.3703704 48.3469388,93.287037 69.8046647,106.203704 C86.9708455,116.25 104.852284,121.273148 120.587949,129.166667 C149.198251,143.518519 170.655977,159.305556 170.655977,198.773148 C170.655977,245.416667 135.608358,278.425926 88.4013605,278.425926 C58.3605442,276.273148 37.6180758,266.944444 26.8892128,257.615741" id="Shape" sketch:type="MSShapeGroup"></path>
            <path d="M179.239067,183.703704 C179.239067,136.342593 209.279883,92.5694444 257.202138,92.5694444 C292.965015,92.5694444 310.846453,113.37963 310.846453,137.060185 C310.846453,149.976852 303.693878,158.587963 291.5345,158.587963 C284.381924,158.587963 270.792031,154.282407 270.792031,139.212963 C270.792031,123.425926 275.083576,122.708333 275.083576,115.532407 C272.937804,104.050926 267.931001,101.898148 256.48688,101.898148 C235.744412,101.898148 216.432459,121.990741 216.432459,180.115741 C216.432459,226.759259 232.883382,259.050926 262.924198,259.050926 C286.527697,259.050926 300.832847,246.851852 311.56171,224.606481 L319.429543,230.347222 C306.554908,255.462963 282.236152,276.273148 255.056365,276.273148 C204.273081,276.273148 179.239067,236.805556 179.239067,183.703704" id="Shape" sketch:type="MSShapeGroup"></path>
            <path d="M340.172012,25.1157407 C340.172012,12.1990741 350.185617,0.717592593 363.060253,0.717592593 C377.365403,0.717592593 386.663751,10.7638889 386.663751,23.6805556 C386.663751,37.3148148 376.650146,48.7962963 363.060253,48.7962963 C350.185617,48.7962963 340.172012,38.0324074 340.172012,25.1157407 L340.172012,25.1157407 Z M323.721088,263.356481 C329.443149,262.638889 334.449951,261.921296 339.456754,260.486111 C345.894072,258.333333 348.755102,251.157407 348.755102,243.263889 L348.755102,132.75463 C348.039845,124.861111 345.178814,117.685185 339.456754,113.37963 C335.165209,110.509259 324.436346,106.203704 318.714286,106.203704 L318.714286,99.0277778 L380.941691,94.7222222 L383.087464,97.5925926 L383.087464,241.111111 C383.087464,249.00463 386.663751,255.462963 392.385811,259.050926 C397.392614,261.921296 403.829932,263.356481 408.121477,263.356481 L408.121477,271.25 L324.436346,271.25 L324.436346,263.356481 L323.721088,263.356481 Z" id="Shape" sketch:type="MSShapeGroup"></path>
            <path d="M508.972789,160.740741 C508.972789,132.75463 503.965986,101.898148 479.64723,101.898148 C458.904762,101.898148 443.884354,125.578704 443.169096,162.175926 L508.972789,160.740741 L508.972789,160.740741 Z M405.975705,182.986111 C405.975705,137.060185 433.155491,92.5694444 479.64723,92.5694444 C527.569485,92.5694444 545.450923,127.013889 545.450923,166.481481 L545.450923,170.069444 L443.169096,170.069444 L443.169096,174.375 C443.169096,223.888889 457.474247,259.050926 493.237123,259.050926 C518.986395,259.050926 528.284742,248.287037 541.159378,224.606481 L548.311953,228.912037 C536.152575,256.180556 512.549077,275.555556 483.938776,275.555556 C431.009718,276.273148 405.975705,233.935185 405.975705,182.986111 L405.975705,182.986111 Z" id="Shape" sketch:type="MSShapeGroup"></path>
            <path d="M547.596696,263.356481 C553.318756,262.638889 558.325559,261.921296 563.332362,260.486111 C569.769679,258.333333 572.630709,251.875 572.630709,243.263889 L572.630709,132.75463 C571.915452,124.861111 569.054422,116.967593 563.332362,112.662037 C559.756074,109.791667 551.888241,106.921296 546.166181,106.203704 L546.166181,99.0277778 L604.102041,94.7222222 L606.963071,97.5925926 L606.963071,123.425926 L607.678328,123.425926 C621.268222,109.074074 634.142857,91.8518519 662.753158,91.8518519 C694.22449,91.8518519 709.244898,116.25 709.244898,152.847222 L709.244898,241.828704 C709.244898,250.439815 712.105928,256.180556 717.827988,259.050926 C722.834791,261.203704 727.126336,262.638889 733.563654,263.356481 L733.563654,271.25 L649.163265,271.25 L649.163265,263.356481 C654.885326,262.638889 660.607386,261.921296 664.898931,260.486111 C671.336249,258.333333 674.197279,251.875 674.197279,243.263889 L674.197279,152.12963 C674.197279,125.578704 661.322643,111.226852 647.017493,111.226852 C623.413994,111.226852 609.824101,127.013889 606.247813,136.342593 L606.247813,241.111111 C606.247813,249.722222 609.108844,255.462963 614.830904,258.333333 C619.122449,261.203704 625.559767,262.638889 630.566569,262.638889 L630.566569,270.532407 L546.881438,270.532407 L546.881438,263.356481 L547.596696,263.356481 Z" id="Shape" sketch:type="MSShapeGroup"></path>
            <path d="M727.126336,183.703704 C727.126336,136.342593 757.167153,92.5694444 805.089407,92.5694444 C840.852284,92.5694444 858.733722,113.37963 858.733722,137.060185 C858.733722,149.976852 851.581147,158.587963 839.421769,158.587963 C832.269193,158.587963 818.6793,154.282407 818.6793,139.212963 C818.6793,123.425926 822.970845,122.708333 822.970845,115.532407 C820.825073,104.050926 815.81827,101.898148 804.37415,101.898148 C783.631681,101.898148 764.319728,121.990741 764.319728,180.115741 C764.319728,226.759259 780.770651,259.050926 810.811467,259.050926 C834.414966,259.050926 848.720117,246.851852 859.44898,224.606481 L867.316812,230.347222 C854.442177,255.462963 830.123421,276.273148 802.943635,276.273148 C752.16035,276.273148 727.126336,236.805556 727.126336,183.703704" id="Shape" sketch:type="MSShapeGroup"></path>
            <path d="M971.029155,160.740741 C971.029155,132.75463 966.022352,101.898148 941.703596,101.898148 C920.961127,101.898148 905.940719,125.578704 905.225462,162.175926 L971.029155,160.740741 L971.029155,160.740741 Z M868.03207,182.986111 C868.03207,137.060185 895.211856,92.5694444 941.703596,92.5694444 C989.62585,92.5694444 1007.50729,127.013889 1007.50729,166.481481 L1007.50729,170.069444 L905.225462,170.069444 L905.225462,174.375 C905.225462,223.888889 919.530612,259.050926 955.293489,259.050926 C981.04276,259.050926 990.341108,248.287037 1003.21574,224.606481 L1010.36832,228.912037 C998.208941,256.180556 974.605442,275.555556 945.995141,275.555556 C892.350826,276.273148 868.03207,233.935185 868.03207,182.986111 L868.03207,182.986111 Z" id="Shape" sketch:type="MSShapeGroup"></path>
        </g>
    </g>
</svg>