<svg id="Layer_1" xmlns="http://www.w3.org/2000/svg" width="64.4" height="25" enable-background="new 0 0 64.4 25"><style>.st0{fill:#FFFFFF;} .st1{fill-rule:evenodd;clip-rule:evenodd;fill:#FFFFFF;}</style><path class="st0" d="M5.9 1.7c.2.3.2.9.2 1.3v1.7c0 1.5 0 1.5.5 1.6.1 0 .3 0 .3.1s-.1.1-.2.1H4.3c-.2.1-.3 0-.3 0 0-.1.2-.1.4-.2s.4-.1.4-.5C5 5.5 5 5 5 4.1c0-1.1 0-1.7-.3-2-.3-.3-.5-.4-1-.4s-.9.3-1 .6c-.2.3-.2 1.1-.2 1.8 0 1 0 1.5.1 1.8 0 .2.2.3.4.4.1.1.4.1.4.2s-.2.1-.3.1H.7c-.2 0-.2 0-.2-.1s.2-.1.4-.2c.3-.1.4-.1.5-.4.1-.4.1-1.1.1-2.2 0-.8 0-1.2-.1-1.4-.2-.1-.3-.1-.5-.1s-.3 0-.3-.1 0-.1.1-.1c.5-.2 1-.5 1.5-.9 0 0 .1-.1.2-.1s.1.1.1.3v.6c0 .1 0 .2.1.2.2 0 .7-1 1.9-1 .7-.1 1.1.2 1.4.6zM9.8 5.8c-.3.4-.8.9-1.6.9-.7 0-1-.6-1-1 0-.9.9-1.4 1.6-1.7 1.1-.6 1.2-.5 1.2-1.7 0-.4 0-.6-.1-.8-.2-.3-.4-.3-.7-.3-.8 0-1.1.7-1.2 1.3-.1.3-.4.4-.6.4-.1 0-.3-.1-.3-.3C7.1 2 8 .9 9.5.9 10.2.9 11 1 11 2v3.2c0 .4.1.8.4.8.4 0 .6-.3.7-.3.1 0 .1.1.1.1 0 .2-.5.9-1.2.9-.5 0-.9-.4-1-.7-.1-.2-.1-.2-.2-.2zm-.1-2c-.2 0-1.5.7-1.5 1.5 0 .5.4.7.7.7.3 0 .5-.2.7-.5.2-.3.3-.9.3-1.5 0-.1-.1-.2-.2-.2zM30 3c-.8 0-1.7-.1-2.8-.1-.3 0-.4 0-.4.5 0 1.3.6 2.4 2 2.4 1.1 0 1.6-.8 1.6-.8.1 0 .1 0 .1.1 0 .2-1 1.5-2.4 1.5-1.5 0-2.6-1.1-2.6-2.8 0-1.8 1.4-3 2.9-3 1.2 0 2.1.9 2.1 1.8.1.4-.1.4-.5.4zm-1.6-1.8c-1 0-1.5.8-1.5 1.3 0 .2.2.2.8.2.7 0 1.7-.1 1.7-.7 0-.3-.2-.8-1-.8z"/><path class="st0" d="M21.7 2.1c-.1 0-.1 0-.1-.1s.1-.1.2-.2c.2-.1.9-.5 1.3-.8.2-.2.2-.2.3-.2.1 0 .1 0 .1.2v.6c0 .1 0 .1.1.1.2 0 .6-.9 1.4-.9.5 0 .8.3.8.8 0 .4-.3.7-.7.7-.5 0-.6-.5-1-.5-.2 0-.3.2-.4.2-.2.2-.2.9-.2 2 0 1 0 1.7.1 1.9.1.2.7.3.9.3.1 0 .3 0 .3.1s-.2.1-.3.1h-2.8c-.1 0-.3 0-.3-.1s.1-.1.3-.1c.1 0 .5-.1.6-.3.1-.2.1-.7.1-2.2-.1-1.4-.1-1.5-.7-1.6zM13.9.2v.9c0 .1.1.2.1.2l2.7-.1c.3 0 .3.1.3.3V5c0 .6.3 1 1.1 1 .5 0 .9-.2 1.1-.6.1-.3.1-1 .1-1.6 0-1.3 0-2-.1-2.1-.1-.1-.3-.1-.5-.2-.3 0-.4 0-.4-.1s0-.1.2-.1h1.8c.2 0 .3.1.3.2 0 .5-.1 1.9-.1 3.1 0 .7 0 1.2.1 1.4h.7c.1 0 .1 0 .1.1s-.1.1-.2.1c-.2 0-1.2.3-1.6.5-.1 0-.2.1-.2.1-.1 0-.1-.1-.1-.2V6c0-.1 0-.2-.1-.2s-.8.9-1.9.9c-.6 0-1.5-.4-1.5-1.6v-3c0-.5 0-.5-1-.5H14c-.2 0-.2 0-.2.3v2.6c0 .6 0 1 .1 1.2.1.2.3.3.6.3.4 0 .9-.2.9-.2s.1 0 .1.1-.8.9-1.7.9c-.9 0-1.2-.7-1.2-1.7 0-.5.1-2.8.1-2.9 0-.2 0-.3-.3-.3H12c-.1 0-.1 0-.1-.1s.1-.1.3-.3c.4-.3 1-.8 1.3-1.2.1-.2.2-.3.2-.3.1 0 .2.1.2.2z"/><path class="st1" d="M34 12.4c1.2 0 2.2.4 3 1.3.6.8 1 1.6 1 2.6 0 .7-.2 1.4-.5 2.1-.4.7-.8 1.2-1.5 1.6-.6.4-1.3.5-2.1.5-1.2 0-2.2-.5-2.9-1.4-.6-.8-.9-1.6-.9-2.6 0-.7.2-1.4.6-2.1.4-.7.9-1.2 1.5-1.5.4-.3 1.1-.5 1.8-.5zm-.3.6c-.3 0-.6.1-1 .3-.3.2-.6.5-.8.9-.2.4-.3 1-.3 1.7 0 1.1.2 2.1.7 2.9.5.8 1.1 1.2 1.9 1.2.6 0 1.1-.2 1.4-.7.4-.4.6-1.2.6-2.3 0-1.4-.3-2.4-.9-3.2-.4-.5-1-.8-1.6-.8z"/><path class="st0" d="M30 13.5h-2.1c-.2 0-.3 0-.3.4 0 .6-.1 1.5-.1 3.6 0 .8 0 1.4.2 1.7.2.3.4.4.9.4.6 0 1.2-.3 1.3-.3.1 0 .1 0 .1.1 0 .2-1.2 1.2-2.4 1.2-1.3 0-1.6-1-1.6-2.3 0-.7.1-3.8.1-4.1 0-.2 0-.5-.4-.5h-.5c-.1 0-.1 0-.1-.1 0-.2.1-.2.4-.4.6-.4 1.5-1.1 1.9-1.7.1-.1.1-.3.3-.3.1 0 .2.1.2.2v1.2c0 .2.1.3.2.3l2.1-.1-.2.7z"/><path class="st1" d="M21 12.4c1.2 0 2.2.4 3 1.3.6.7 1 1.6 1 2.6 0 .7-.2 1.4-.5 2.1-.3.7-.8 1.2-1.5 1.6-.6.4-1.3.5-2 .5-1.2 0-2.2-.5-2.9-1.4-.6-.8-.9-1.6-.9-2.6 0-.7.2-1.4.6-2.1.4-.7.9-1.2 1.5-1.5.4-.3 1.1-.5 1.7-.5zm-.2.5c-.3 0-.6.1-1 .3-.3.2-.6.5-.8.9-.2.4-.3 1-.3 1.7 0 1.1.2 2.1.7 2.9.5.8 1.1 1.2 1.9 1.2.6 0 1-.2 1.4-.7.4-.4.6-1.2.6-2.3 0-1.4-.3-2.4-.9-3.2-.5-.5-1-.8-1.6-.8z"/><path class="st0" d="M15.8 13.4c.3.4.4 1.3.4 1.8v2.5c0 2.2 0 2.1.8 2.3.2.1.4.1.4.2s-.2.2-.4.2-1.2-.1-1.7-.1-1.5.1-1.7.1c-.3 0-.5 0-.5-.1 0-.2.4-.2.6-.3.4-.1.6-.2.6-.7.1-.5.1-1.1.1-2.4 0-1.6 0-2.5-.4-3-.4-.4-.8-.6-1.4-.6-.7 0-1.2.5-1.5.8-.3.5-.3 1.6-.3 2.7 0 1.4 0 2.1.1 2.6.1.3.3.4.5.5.2.1.6.1.6.3 0 .2-.2.1-.4.1s-1.4-.1-1.7-.1c-.3 0-1.6.1-1.8.1-.2 0-.3 0-.3-.1s.3-.2.6-.3c.4-.1.6-.2.7-.6.1-.6.1-1.6.1-3.2 0-1.1 0-6-.2-6.2.1.1-.1 0-.3-.1-.3 0-.4 0-.4-.2 0-.1.1-.1.1-.2.8-.3 1.4-.7 2.2-1.3.1-.1.2-.1.3-.1.1 0 .2.2.2.4v.8c0 .1 0 4.5.1 4.5.3 0 1-1.4 2.7-1.4.9.1 1.5.5 1.9 1.1z"/><path class="st0" d="M1.2 14.7c0-.7 0-.8-.5-1.2l-.2-.1c-.1-.1-.1-.3 0-.3.5-.2 1.4-.7 1.9-1 .1 0 .2 0 .2.1 0 .3-.1.6-.1.9 0 .1 0 .2.2.2.2-.1 1.4-.9 2.7-.9 1.9 0 3.2 1.6 3.2 3.5 0 2.6-1.9 4.5-4.6 4.5-.3 0-.9 0-1-.1-.2 0-.3.1-.3.5v2c0 1.3 0 1.5.7 1.6l.7.1c.1.1.1.4 0 .5-.9 0-1.5-.1-2.1-.1-.7 0-1.3 0-1.8.1-.1-.1-.2-.4 0-.5l.4-.1c.7-.1.7-.3.7-1.7v-8zm1.4 3.5c0 .6.2.8.6 1.1.4.3 1 .4 1.4.4 1.6 0 2.5-1.4 2.5-3.4 0-1.5-.9-3.1-2.6-3.1-.8 0-1.4.3-1.6.5-.2.2-.2.5-.2 1.1v3.4zM57.8 17.5c-.2 1-.7 1.8-1.3 2.3-.6.5-1.4.8-2.1.8-.9 0-1.8-.4-2.4-1.1-.7-.7-1-1.7-1-3 0-1.2.4-2.2 1.2-2.9.8-.8 1.7-1.1 2.8-1.1.8 0 1.5.2 2 .6.5.4.8.8.8 1.2 0 .2-.1.4-.2.5-.4.2-.6.2-.8.2-.4 0-.6-.1-.8-.3-.1-.1-.2-.3-.2-.7 0-.3-.1-.6-.4-.8-.2-.2-.5-.3-.9-.3-.6 0-1.1.2-1.4.6-.5.5-.7 1.3-.7 2.2 0 .9.2 1.7.7 2.4.5.7 1.1 1.1 2 1.1.6 0 1.1-.2 1.6-.6.3-.3.6-.7 1-1.4l.1.3zM63.8 12.5v2.6h-.3c-.2-.8-.5-1.4-.9-1.7-.4-.3-.8-.4-1.4-.4-.4 0-.8.1-1 .3-.3.2-.4.4-.4.7 0 .3.1.6.3.8.2.2.6.5 1.1.7l1.3.6c1.2.6 1.8 1.3 1.8 2.2 0 .7-.3 1.3-.9 1.7-.6.4-1.2.6-1.9.6-.5 0-1.1-.1-1.7-.3-.2-.1-.4-.1-.5-.1-.1 0-.2.1-.3.2h-.3v-2.7h.3c.2.8.5 1.4 1 1.8.5.4 1 .6 1.6.6.4 0 .7-.1 1-.3.3-.2.4-.5.4-.8 0-.4-.1-.7-.4-1-.3-.3-.9-.6-1.7-1-.9-.4-1.4-.8-1.7-1.1-.3-.3-.4-.7-.4-1.2 0-.6.2-1.2.7-1.6.5-.4 1.1-.6 1.8-.6.3 0 .7.1 1.2.2.3.1.5.1.6.1.1 0 .2 0 .2-.1.1 0 .1-.1.2-.3h.3v.1zM48.5 9c.3 0 .5.1.7.3.2.2.3.4.3.6 0 .2-.1.5-.3.6-.2.2-.4.3-.7.3-.3 0-.5-.1-.7-.3-.2-.2-.3-.4-.3-.6 0-.2.1-.5.3-.6.2-.2.5-.3.7-.3zM47.2 20.1c.4-.1.6-.2.7-.6.1-.6.1-1.7.1-3.3 0-1.1 0-1.8-.2-2.1-.1-.1-.3-.2-.5-.2-.3 0-.5 0-.5-.2 0-.1.1-.1.1-.2.8-.3 1.5-.8 2.3-1.4.1-.1.2-.1.3-.1.1 0 .2.2.2.4v4.4c0 1.5 0 2.2.1 2.7.1.3.3.4.5.5.2.1.6.1.6.3 0 .2-.2.1-.4.1s-1.5-.1-1.8-.1h-2.2c-.2 0-1.2-.1-1.6-.1-.5 0-1.5.1-1.7.1-.3 0-.4 0-.4-.1 0-.2.3-.1.6-.2s.6-.2.6-.6c.1-.5.1-1.1.1-2.4 0-1.6 0-2.5-.4-2.9-.4-.4-.7-.6-1.4-.6-.6 0-1.2.5-1.4.8-.3.5-.3 1.6-.3 2.6 0 1.4 0 2 .1 2.5 0 .3.3.4.5.5.2.1.6.1.6.3 0 .1-.2.1-.4.1s-1.4-.1-1.7-.1c-.3 0-1.6.1-1.7.1-.2 0-.3 0-.3-.1s.3-.2.6-.2c.4-.1.6-.2.6-.5.1-.5.1-1.5.1-3 0-1.1 0-1.7-.2-1.9-.1-.1-.2-.2-.5-.2s-.4 0-.4-.1 0-.1.1-.1c.7-.2 1.4-.7 2.1-1.3.1 0 .2-.1.3-.1.1 0 .2.2.2.4v.8c0 .1 0 .2.1.2.3 0 1-1.3 2.6-1.3 1 0 1.6.4 2 1 .3.4.4 1.2.4 1.8v2.4c0 2.1 0 2.1.7 2.3h.4c.2-.3.4-.3.4-.3z"/></svg>