<svg xmlns="http://www.w3.org/2000/svg" width="196" height="25" viewBox="-0.091 161.469 196 25" enable-background="new -0.091 161.469 196 25"><path d="M122.433 176.652h-2.063l-4.01-5.75h-.707v5.75h-1.71v-13.62h2.063c1.21 0 2.506.028 3.597.618 1.15.678 1.8 1.946 1.8 3.243 0 1.946-1.3 3.567-3.274 3.803l4.303 5.956zm-6.78-7.164h.53c1.74 0 3.627-.325 3.627-2.506 0-2.122-2.034-2.447-3.715-2.447h-.442v4.953zM125.854 163.03h7.31v1.563h-5.63v3.803h5.454v1.562h-5.454v5.16h5.63v1.56h-7.31v-13.647zM139.03 176.652h-1.71v-13.62h1.947c4.187 0 5.484 1.444 5.484 3.95 0 2.86-2.18 3.98-4.775 3.98h-.973v5.69h.03zm0-7.223h.532c1.74 0 3.626-.325 3.626-2.507 0-2.123-2.034-2.388-3.714-2.388h-.442v4.894z"/><path fill="none" d="M161.673 169.84c0 4.04-3.184 7.106-7.134 7.106-3.952 0-7.136-3.066-7.136-7.105 0-3.89 3.243-7.104 7.135-7.104 3.89.03 7.133 3.214 7.133 7.105zm-1.71 0c0-3.006-2.24-5.512-5.424-5.512s-5.425 2.506-5.425 5.513c0 3.097 2.505 5.514 5.424 5.514 2.947 0 5.423-2.388 5.423-5.513z"/><path d="M173.85 176.652h-2.064l-4.01-5.75h-.708v5.75h-1.71v-13.62h2.064c1.208 0 2.506.028 3.597.618 1.15.678 1.797 1.946 1.797 3.243 0 1.946-1.297 3.567-3.272 3.803l4.304 5.956zm-6.782-7.164h.53c1.74 0 3.627-.325 3.627-2.506 0-2.122-2.035-2.447-3.715-2.447h-.442v4.953zM180.57 176.652h-1.71v-12.058h-3.242v-1.562h8.167v1.562h-3.243v12.058h.03zM193.277 165.625c-.5-.855-1.15-1.268-2.182-1.268-1.09 0-2.27.737-2.27 1.946 0 1.062 1.06 1.622 1.887 1.946l.973.382c1.946.767 3.39 1.828 3.39 4.098 0 2.477-1.916 4.245-4.362 4.245-2.21 0-3.92-1.62-4.216-3.803l1.71-.354c-.03 1.503 1.18 2.594 2.624 2.594 1.475 0 2.507-1.238 2.507-2.653 0-1.475-1.18-2.094-2.36-2.596l-.942-.383c-1.563-.677-2.948-1.56-2.948-3.448 0-2.21 1.946-3.508 4.01-3.508 1.502 0 2.77.737 3.507 2.064l-1.327.737z"/><path fill="#E1001A" d="M150.706 178.302l.147-1.12c-.118-.03-.266-.06-.383-.088-.147-.03-.266-.03-.413-.03l-.147 1.12c-.383 0-.737.03-1.062.12l-.413-1.033c-.266.09-.5.178-.737.296l.412 1.03c-.324.178-.62.385-.854.65l-.885-.708c-.176.206-.353.413-.5.62l.884.707c-.177.295-.324.65-.413 1.002l-1.12-.147c-.03.118-.06.265-.088.383-.03.147-.03.265-.03.413l1.12.147c0 .383.03.737.12 1.06l-1.033.414c.087.265.176.5.293.737l1.032-.413c.177.325.383.62.65.856l-.71.884c.208.177.414.354.62.5l.708-.883c.295.177.648.324 1.002.413l-.147 1.12c.118.03.265.06.383.09.148.028.266.028.414.028l.147-1.12c.384 0 .738-.03 1.092-.118l.413 1.032c.266-.088.5-.176.737-.294l-.412-1.032c.324-.177.62-.383.854-.65l.885.71c.176-.208.353-.414.5-.62l-.884-.708c.177-.295.324-.648.413-1.002l1.12.147c.03-.118.06-.265.088-.383.03-.147.03-.266.03-.413l-1.12-.147c0-.383-.03-.738-.12-1.062l1.033-.413c-.087-.266-.176-.5-.293-.737l-1.032.413c-.177-.323-.383-.618-.648-.854l.708-.884c-.207-.177-.413-.354-.62-.5l-.677.883c-.384-.176-.708-.324-1.062-.413zm.206.797c.03 0 .03.028.06.028.44.207.854.5 1.15.885 0 .03.028.03.028.06.295.383.472.854.53 1.355v.06c.03.235.03.47 0 .736-.03.236-.117.472-.206.708 0 .03-.03.03-.03.06-.205.44-.5.854-.884 1.148-.03.03-.03.03-.06.03-.382.295-.854.472-1.355.53h-.06c-.235.03-.47.03-.736 0-.237-.03-.473-.117-.71-.206-.028 0-.028-.03-.058-.03-.442-.206-.855-.5-1.15-.884 0-.03-.03-.03-.03-.06-.294-.382-.47-.854-.53-1.355v-.06c-.03-.234-.03-.47 0-.736.03-.237.118-.473.206-.71 0-.03.03-.03.03-.058.207-.442.5-.854.884-1.15.03 0 .03-.03.06-.03.382-.294.854-.47 1.355-.53h.06c.235-.03.47-.03.736 0 .267.06.503.118.71.207zM163.235 170.52v-1.15h-1.68c-.03-.5-.147-1.002-.295-1.474l1.562-.648-.442-1.062-1.562.65c-.236-.443-.5-.856-.825-1.24l1.208-1.208-.854-.855-1.208 1.21c-.383-.325-.796-.59-1.238-.827l.648-1.562-1.06-.442-.65 1.562c-.472-.147-.973-.236-1.474-.295v-1.71h-1.15v1.68c-.5.03-1 .146-1.473.294l-.648-1.562-1.06.442.647 1.562c-.443.236-.856.5-1.24.825l-1.238-1.178-.825.826 1.208 1.21c-.324.382-.59.795-.825 1.237l-1.562-.648-.442 1.062 1.562.647c-.147.472-.236.973-.294 1.474h-1.68v1.15h1.68c.03.502.147 1.003.294 1.475l-1.562.65.442 1.06 1.562-.648c.236.442.5.855.825 1.238l-1.208 1.208.825.826 1.21-1.21c.382.324.795.59 1.237.826l-.65 1.56 1.062.443.648-1.563c.472.147.973.236 1.474.295v1.68h1.15v-1.68c.5-.06 1.002-.148 1.474-.295l.648 1.562 1.062-.443-.648-1.562c.442-.236.855-.5 1.238-.826l1.208 1.208.826-.826-1.21-1.208c.325-.383.59-.796.827-1.238l1.56.648.443-1.06-1.562-.65c.148-.472.237-.973.296-1.474h1.74v.03zm-8.46 5.01c-3.097 0-5.603-2.505-5.603-5.6 0-3.096 2.506-5.603 5.602-5.603s5.602 2.506 5.602 5.602c0 3.095-2.506 5.6-5.602 5.6z"/><path d="M6.867 165.272c-.62-.973-1.474-1.592-2.742-1.592-1.444 0-2.535 1.15-2.535 2.565s1.327 2.005 2.417 2.536l2.564 1.328c1.033.648 1.534 1.474 1.534 2.683 0 2.242-2.034 3.922-4.216 3.922-1.887 0-3.332-1.15-3.98-2.89l.737-.353c.56 1.443 1.622 2.416 3.243 2.416 1.77 0 3.332-1.386 3.332-3.184 0-1.533-1.562-2.152-2.712-2.742l-2.417-1.297c-.883-.56-1.385-1.327-1.385-2.417 0-2.005 1.445-3.42 3.45-3.42 1.356 0 2.653.737 3.302 1.887l-.59.56zM23.17 165.832c-1.032-1.268-2.86-2.123-4.51-2.123-3.362 0-6.133 2.888-6.133 6.19 0 1.562.678 3.066 1.798 4.157 1.12 1.062 2.712 1.857 4.304 1.857 1.56 0 3.507-.855 4.51-2.063v1.18c-1.268 1.062-2.83 1.68-4.48 1.68-3.745 0-7.018-3.125-7.018-6.898 0-3.833 3.214-6.928 7.046-6.928 1.622 0 3.272.648 4.48 1.74v1.208zM28.624 176.534h-.855V163.06h.854v13.474zM34.49 163.857v4.894h5.426v.797H34.49v6.162h5.573v.795h-6.427v-13.443h6.427v.796H34.49zM56.985 177.005l-11.32-12.028v11.586h-.856v-13.68l11.32 11.94v-11.762h.855v13.945zM65.004 176.534h-.855v-12.677h-3.48v-.796h7.842v.797h-3.48v12.677h-.028zM73.023 176.534h-.855V163.06h.855v13.474zM78.89 163.857v4.894h4.452v.797H78.89v6.987h-.855V163.06h5.424v.797h-4.57zM88.943 176.534h-.855V163.06h.855v13.474zM104.656 165.832c-1.032-1.268-2.86-2.123-4.51-2.123-3.36 0-6.133 2.888-6.133 6.19 0 1.562.678 3.066 1.8 4.157 1.12 1.062 2.74 1.857 4.333 1.857 1.562 0 3.508-.855 4.51-2.063v1.18c-1.268 1.062-2.83 1.68-4.48 1.68-3.745 0-7.017-3.125-7.017-6.898 0-3.833 3.212-6.928 7.045-6.928 1.622 0 3.272.648 4.48 1.74v1.208h-.03z"/></svg>