<?xml version="1.0" encoding="utf-8"?>
<!-- Generator: Adobe Illustrator 19.2.1, SVG Export Plug-In . SVG Version: 6.00 Build 0)  -->
<svg version="1.1" id="Layer_1" xmlns="http://www.w3.org/2000/svg" xmlns:xlink="http://www.w3.org/1999/xlink" x="0px" y="0px"
	 width="350.4px" height="45px" viewBox="0 0 350.4 45" style="enable-background:new 0 0 350.4 45;" xml:space="preserve">
<style type="text/css">
	.st0{fill:#ED1C24;}
</style>
<g>
	<path d="M220,27.3h-3.7l-7.2-10.3h-1.3v10.3h-3V2.8h3.7c2.2,0,4.5,0,6.5,1.1c2,1.2,3.2,3.5,3.2,5.8c0,3.5-2.3,6.4-5.9,6.8L220,27.3
		z M207.8,14.4h1c3.1,0,6.5-0.6,6.5-4.5c0-3.8-3.6-4.4-6.6-4.4h-0.8V14.4z"/>
	<polygon points="226.1,2.8 239.3,2.8 239.3,5.6 229.2,5.6 229.2,12.5 239,12.5 239,15.2 229.2,15.2 229.2,24.5 239.3,24.5 
		239.3,27.3 226.1,27.3 	"/>
	<path d="M249.8,27.3h-3.1V2.8h3.5c7.5,0,9.9,2.6,9.9,7.1c0,5.2-3.9,7.1-8.6,7.1h-1.8V27.3z M249.8,14.3h1c3.1,0,6.5-0.6,6.5-4.5
		c0-3.8-3.6-4.3-6.6-4.3h-0.8V14.3z"/>
	<path d="M312.3,27.3h-3.7l-7.2-10.3h-1.3v10.3h-3V2.8h3.7c2.2,0,4.5,0,6.5,1.1c2,1.2,3.2,3.5,3.2,5.8c0,3.5-2.3,6.4-5.9,6.8
		L312.3,27.3z M300.2,14.4h1c3.1,0,6.5-0.6,6.5-4.5c0-3.8-3.6-4.4-6.6-4.4h-0.8V14.4z"/>
	<polygon points="324.4,27.3 321.3,27.3 321.3,5.6 315.5,5.6 315.5,2.8 330.2,2.8 330.2,5.6 324.4,5.6 	"/>
	<path d="M347.2,7.5c-0.9-1.5-2.1-2.3-3.9-2.3c-1.9,0-4.1,1.3-4.1,3.5c0,1.9,1.9,2.9,3.4,3.5l1.8,0.7c3.5,1.4,6.1,3.3,6.1,7.4
		c0,4.4-3.4,7.6-7.8,7.6c-4,0-7-2.9-7.6-6.8l3.1-0.6c0,2.7,2.1,4.6,4.7,4.6c2.6,0,4.5-2.2,4.5-4.8c0-2.6-2.1-3.8-4.2-4.6l-1.7-0.7
		c-2.8-1.2-5.3-2.8-5.3-6.2c0-4,3.5-6.3,7.2-6.3c2.7,0,5,1.3,6.3,3.7L347.2,7.5z"/>
	<path class="st0" d="M270.8,30.2l0.3-2c-0.2-0.1-0.5-0.1-0.7-0.1c-0.2,0-0.5-0.1-0.7-0.1l-0.3,2c-0.7,0-1.3,0.1-1.9,0.2l-0.8-1.9
		c-0.5,0.1-0.9,0.3-1.3,0.5l0.7,1.9c-0.6,0.3-1.1,0.7-1.6,1.2l-1.6-1.3c-0.3,0.4-0.6,0.7-0.9,1.1l1.6,1.2c-0.3,0.5-0.6,1.1-0.8,1.8
		l-2-0.3c-0.1,0.2-0.1,0.5-0.1,0.7c0,0.2-0.1,0.5-0.1,0.7l2,0.3c0,0.7,0.1,1.3,0.2,1.9L261,39c0.1,0.5,0.3,0.9,0.5,1.3l1.9-0.8
		c0.3,0.6,0.7,1.1,1.2,1.6l-1.3,1.6c0.4,0.3,0.7,0.6,1.1,0.9l1.2-1.6c0.5,0.3,1.1,0.6,1.8,0.8l-0.3,2c0.2,0.1,0.5,0.1,0.7,0.1
		c0.2,0,0.5,0.1,0.7,0.1l0.3-2c0.7,0,1.3-0.1,1.9-0.2l0.7,1.9c0.5-0.1,0.9-0.3,1.3-0.5l-0.8-1.9c0.6-0.3,1.1-0.7,1.6-1.2l1.6,1.2
		c0.3-0.3,0.6-0.7,0.9-1.1l-1.6-1.2c0.3-0.5,0.6-1.1,0.8-1.8l2,0.3c0.1-0.2,0.1-0.5,0.1-0.7c0-0.2,0.1-0.5,0.1-0.7l-2-0.3
		c0-0.7-0.1-1.3-0.2-1.9l1.9-0.7c-0.1-0.5-0.3-0.9-0.5-1.3l-1.9,0.8c-0.3-0.6-0.7-1.1-1.2-1.6l1.3-1.6c-0.4-0.3-0.7-0.6-1.1-0.9
		l-1.2,1.6C272,30.7,271.4,30.4,270.8,30.2z M271.1,31.7l0.1,0c0.8,0.4,1.5,0.9,2,1.6l0.1,0.1c0.5,0.7,0.8,1.5,1,2.4l0,0.1
		c0,0.4,0,0.9,0,1.3c-0.1,0.4-0.2,0.9-0.4,1.3l0,0.1c-0.4,0.8-0.9,1.5-1.6,2l-0.1,0.1c-0.7,0.5-1.5,0.9-2.4,1l-0.1,0
		c-0.4,0-0.9,0-1.3,0c-0.4-0.1-0.9-0.2-1.3-0.4l-0.1,0c-0.8-0.4-1.5-0.9-2-1.6l-0.1-0.1c-0.5-0.7-0.9-1.5-1-2.4l0-0.1
		c-0.1-0.4-0.1-0.9,0-1.3c0.1-0.4,0.2-0.9,0.4-1.3l0-0.1c0.4-0.8,0.9-1.5,1.6-2l0.1-0.1c0.7-0.5,1.5-0.9,2.4-1l0.1,0
		c0.4,0,0.9,0,1.3,0C270.3,31.4,270.7,31.5,271.1,31.7z"/>
	<path class="st0" d="M293.3,16.2v-2.1h-3c-0.1-0.9-0.3-1.8-0.5-2.6l2.8-1.2l-0.8-1.9l-2.8,1.2c-0.4-0.8-0.9-1.6-1.5-2.2l2.2-2.1
		l-1.5-1.5l-2.1,2.2c-0.7-0.6-1.4-1.1-2.2-1.5l1.2-2.8l-1.9-0.8l-1.2,2.8c-0.8-0.3-1.7-0.4-2.6-0.5V0H277v3
		c-0.9,0.1-1.8,0.3-2.6,0.5l-1.2-2.8l-1.9,0.8l1.2,2.8c-0.8,0.4-1.6,0.9-2.2,1.5l-2.1-2.2l-1.5,1.5l2.1,2.1
		c-0.6,0.7-1.1,1.4-1.5,2.2l-2.8-1.2l-0.8,1.9l2.8,1.2c-0.3,0.8-0.4,1.7-0.5,2.6h-3v2.1h3c0.1,0.9,0.3,1.8,0.5,2.6l-2.8,1.2l0.8,1.9
		l2.8-1.2c0.4,0.8,0.9,1.6,1.5,2.2l-2.2,2.1l1.5,1.5l2.1-2.1c0.7,0.6,1.4,1.1,2.2,1.5l-1.2,2.8l1.9,0.8l1.2-2.8
		c0.8,0.3,1.7,0.4,2.6,0.5v3h2.1v-3c0.9-0.1,1.8-0.3,2.6-0.5l1.2,2.8l1.9-0.8l-1.2-2.8c0.8-0.4,1.6-0.9,2.2-1.5l2.1,2.1l1.5-1.5
		l-2.2-2.1c0.6-0.7,1.1-1.4,1.5-2.2l2.8,1.2l0.8-1.9l-2.8-1.2c0.3-0.8,0.4-1.7,0.5-2.6H293.3z M278.1,25.2c-5.5,0-10-4.5-10-10
		c0-5.5,4.5-10,10-10s10,4.5,10,10C288.1,20.7,283.6,25.2,278.1,25.2z"/>
	<path d="M12.4,6.8C11.3,5.1,9.8,4,7.5,4C4.9,4,3,6.1,3,8.6c0,2.5,2.4,3.6,4.4,4.5l4.6,2.4c1.8,1.2,2.8,2.6,2.8,4.8c0,4-3.7,7-7.6,7
		c-3.4,0-6-2.1-7.1-5.2l1.3-0.6c1,2.6,2.9,4.4,5.8,4.4c3.2,0,6-2.5,6-5.7c0-2.7-2.8-3.9-4.9-4.9L3.9,13c-1.6-1-2.5-2.4-2.5-4.3
		c0-3.6,2.6-6.1,6.2-6.1c2.4,0,4.8,1.3,5.9,3.4L12.4,6.8z"/>
	<path d="M41.7,7.8C39.8,5.5,36.6,4,33.6,4c-6,0-11,5.2-11,11.1c0,2.8,1.2,5.5,3.2,7.5c2,1.9,4.9,3.3,7.8,3.3c2.8,0,6.3-1.5,8.1-3.7
		v2.1c-2.3,1.9-5.1,3-8.1,3C26.9,27.4,21,21.8,21,15c0-6.9,5.8-12.5,12.7-12.5c2.9,0,5.9,1.2,8,3.1V7.8z"/>
	<rect x="50" y="2.9" width="1.5" height="24.2"/>
	<polygon points="62.1,4.3 62.1,13.1 71.8,13.1 71.8,14.6 62.1,14.6 62.1,25.6 72.1,25.6 72.1,27.1 60.5,27.1 60.5,2.9 72.1,2.9 
		72.1,4.3 	"/>
	<polygon points="102.5,27.9 82.1,6.3 82.1,27.1 80.6,27.1 80.6,2.5 100.9,24 100.9,2.9 102.5,2.9 	"/>
	<polygon points="116.9,27.1 115.3,27.1 115.3,4.3 109.1,4.3 109.1,2.9 123.1,2.9 123.1,4.3 116.9,4.3 	"/>
	<rect x="129.7" y="2.9" width="1.5" height="24.2"/>
	<polygon points="141.8,4.3 141.8,13.1 149.8,13.1 149.8,14.6 141.8,14.6 141.8,27.1 140.2,27.1 140.2,2.9 150,2.9 150,4.3 	"/>
	<rect x="158.3" y="2.9" width="1.5" height="24.2"/>
	<path d="M188,7.8c-1.9-2.3-5.1-3.8-8.1-3.8c-6,0-11,5.2-11,11.1c0,2.8,1.2,5.5,3.2,7.5c2,1.9,4.9,3.3,7.8,3.3
		c2.8,0,6.3-1.5,8.1-3.7v2.1c-2.3,1.9-5.1,3-8.1,3c-6.7,0-12.6-5.6-12.6-12.4c0-6.9,5.8-12.5,12.6-12.5c2.9,0,5.9,1.2,8,3.1V7.8z"/>
</g>
</svg>
