<?xml version="1.0" encoding="utf-8"?>
<!-- Generator: Adobe Illustrator 19.2.1, SVG Export Plug-In . SVG Version: 6.00 Build 0)  -->
<svg version="1.1" id="Layer_1" xmlns="http://www.w3.org/2000/svg" xmlns:xlink="http://www.w3.org/1999/xlink" x="0px" y="0px"
	 width="109.7px" height="25px" viewBox="0 0 109.7 25" style="enable-background:new 0 0 109.7 25;" xml:space="preserve">
<style type="text/css">
	.st0{fill:#FFFFFF;}
</style>
<g>
	<path class="st0" d="M0.1,8.6c0,0,0.1,0,0.2,0c0.1,0,1.3-0.1,1.6-0.1c0.3,0,1.4,0.1,1.5,0.1l0.1,0c0.1,0,0.2,0,0.2,0l0.1-0.1
		c0,0,0-0.1,0-0.1c0-0.1,0-0.1-0.1-0.1c-0.1,0-0.2-0.1-0.2-0.1c-0.1,0-0.2,0-0.2-0.1l0,0C3.1,8,2.9,7.9,2.9,7.7l0,0l0,0
		c-0.1-0.4-0.1-1-0.1-2.3c0-0.9,0-1.9,0.3-2.4c0.2-0.3,0.7-0.7,1.3-0.7c0.6,0,0.9,0.1,1.2,0.5c0.3,0.3,0.3,1.1,0.3,2.4
		c0,0.1,0,0.2,0,0.3c0,1.2,0,1.8-0.1,2.2c0,0.2-0.1,0.3-0.2,0.4C5.6,8,5.4,8.1,5.3,8.1C5.1,8.2,5,8.2,4.9,8.2c-0.1,0-0.1,0-0.2,0.1
		c0,0-0.1,0.1-0.1,0.1l0,0.1c0.1,0.1,0.2,0.1,0.4,0.1c0.2,0,1.2-0.1,1.6-0.1c0.4,0,1.3,0.1,1.5,0.1c0.1,0,0.2,0,0.2,0
		c0.1,0,0.1-0.1,0.1-0.2c0-0.1,0-0.1-0.1-0.1C8.4,8.2,8.3,8.2,8.1,8.1C8,8.1,7.8,8.1,7.7,8C7.6,7.9,7.6,7.9,7.5,7.6
		c0-0.3,0-0.7,0-1.5c0-0.5,0-1.2,0-2.2c0-0.5-0.1-1.3-0.3-1.7l0,0c-0.4-0.5-1-0.9-1.9-0.9c-0.8,0-1.3,0.3-1.7,0.6
		C3.4,2,3.2,2.2,3.1,2.3C3,2.4,3,2.4,2.9,2.4c0,0-0.1,0-0.1,0l0,0c0,0,0-0.1,0-0.1V1.6c0-0.1,0-0.2,0-0.3c0-0.1-0.1-0.1-0.2-0.1
		c-0.1,0-0.2,0.1-0.3,0.1l0,0l0,0c-0.6,0.6-1.3,1-1.9,1.2l0,0L0.3,2.6c0,0,0,0.1,0,0.1c0,0,0,0.1,0,0.1c0.1,0.1,0.2,0.1,0.4,0.1l0,0
		C0.9,2.9,1,3,1.1,3.1l0,0c0.1,0.1,0.1,0.3,0.1,0.6c0,0.3,0,0.7,0,1.2c0,1.4,0,2.3-0.1,2.9C1.1,7.8,1,7.9,0.9,8
		C0.9,8,0.7,8.1,0.6,8.1c-0.1,0-0.3,0.1-0.4,0.1c-0.1,0-0.1,0-0.1,0.1C0,8.3,0,8.4,0,8.4l0,0.1C0.1,8.5,0.1,8.6,0.1,8.6z"/>
	<path class="st0" d="M8.7,3.8C8.8,3.8,8.9,3.9,9,3.9c0.3,0,0.7-0.2,0.9-0.5l0,0l0,0c0.1-0.4,0.3-0.8,0.5-1.1
		c0.2-0.3,0.6-0.5,1.1-0.6c0.2,0,0.4,0,0.5,0.1c0.1,0.1,0.2,0.2,0.3,0.4c0.1,0.1,0.1,0.3,0.1,0.6c0,0.1,0,0.2,0,0.4
		c0,0.8,0,1.1-0.2,1.3c-0.2,0.2-0.5,0.4-1.3,0.7l0,0c-0.5,0.2-1,0.5-1.4,0.8C9,6.3,8.7,6.8,8.7,7.4C8.7,7.7,8.8,8,9,8.3
		c0.2,0.3,0.6,0.5,1.1,0.5c1,0,1.7-0.6,2.1-1.1l0,0l0,0l0,0l0,0l0,0c0.2,0.5,0.6,1,1.3,1c0.5,0,0.9-0.2,1.2-0.5
		c0.1-0.1,0.3-0.3,0.3-0.4c0.1-0.1,0.1-0.2,0.1-0.3c0,0,0-0.1,0-0.1c0,0-0.1-0.1-0.1-0.1c-0.1,0-0.1,0-0.1,0.1
		c-0.1,0.1-0.4,0.3-0.7,0.3c-0.2,0-0.3-0.1-0.4-0.3c-0.1-0.2-0.1-0.4-0.1-0.6c0-0.5,0.1-3.1,0.1-4.1c0-0.6-0.3-1-0.7-1.2
		c-0.4-0.2-0.9-0.3-1.4-0.3c-1,0-1.8,0.4-2.3,0.9C8.9,2.5,8.6,3,8.6,3.4C8.6,3.6,8.6,3.7,8.7,3.8z M11.9,7.3
		c-0.3,0.4-0.5,0.6-0.9,0.6c-0.2,0-0.4-0.1-0.5-0.2c-0.2-0.1-0.3-0.3-0.3-0.6c0-0.5,0.4-1,0.9-1.4c0.2-0.2,0.5-0.3,0.6-0.4
		c0.1,0,0.2-0.1,0.2-0.1c0.1,0,0.1,0,0.1,0c0.1,0,0.1,0,0.1,0c0,0,0,0.1,0,0.2C12.2,6.1,12.2,6.9,11.9,7.3z"/>
	<path class="st0" d="M34.6,3.9c1.4,0,2.6,0.1,3.6,0.1c0.2,0,0.4,0,0.5-0.1c0.1,0,0.1-0.1,0.2-0.2c0-0.1,0-0.2,0-0.3
		c0-1.2-1.2-2.4-2.7-2.4c-1,0-2,0.4-2.7,1.1c-0.7,0.7-1.1,1.7-1.1,2.9c0,1.1,0.4,2,1,2.6c0.6,0.6,1.5,1,2.4,1c0.9,0,1.7-0.4,2.2-0.8
		c0.3-0.2,0.5-0.4,0.7-0.6c0.1-0.1,0.1-0.2,0.2-0.3C39,6.9,39,6.8,39,6.8l0-0.1c0,0-0.1-0.1-0.1,0c-0.1,0-0.1,0-0.1,0.1
		c-0.2,0.2-0.8,0.9-2,0.9c-0.9,0-1.5-0.4-1.9-0.9c-0.4-0.6-0.6-1.3-0.6-2.1c0-0.3,0-0.5,0.1-0.6C34.3,3.9,34.4,3.9,34.6,3.9z
		 M34.8,2.2c0.3-0.3,0.8-0.6,1.4-0.6c0.5,0,0.8,0.2,1,0.4c0.2,0.2,0.3,0.4,0.3,0.6c0,0.2-0.1,0.3-0.2,0.4c-0.4,0.3-1.2,0.4-1.9,0.4
		c-0.4,0-0.6,0-0.8-0.1c-0.1,0-0.1,0-0.1-0.1c0,0,0,0,0-0.1C34.4,2.9,34.5,2.5,34.8,2.2z"/>
	<path class="st0" d="M27.3,2.8c0,0,0.1,0,0.1,0l0,0l0,0c0.2,0,0.3,0,0.4,0.1C28,3,28.1,3.2,28.2,3.5c0,0.3,0.1,0.8,0.1,1.5
		c0,1.9,0,2.5-0.1,2.8c0,0.1-0.2,0.2-0.3,0.3c-0.2,0.1-0.3,0.1-0.4,0.1l0,0l0,0c-0.1,0-0.2,0-0.3,0.1c0,0-0.1,0-0.1,0.1
		c0,0-0.1,0.1-0.1,0.1c0,0,0,0.1,0.1,0.1c0.1,0.1,0.2,0.1,0.3,0.1c0.1,0,1.2-0.1,1.7-0.1c0.5,0,1.7,0.1,1.8,0.1c0.1,0,0.2,0,0.2,0
		c0,0,0.1,0,0.1,0c0,0,0.1-0.1,0.1-0.1c0,0,0-0.1,0-0.1c0,0-0.1-0.1-0.2-0.1c-0.1,0-0.1,0-0.2,0c-0.1,0-0.3-0.1-0.6-0.1
		C30.2,8,30,7.9,29.9,7.8l0,0c0-0.1-0.1-0.3-0.1-0.6c0-0.3,0-0.7,0-1.1c0-0.2,0-0.5,0-0.8c0-0.7,0-1.2,0-1.6c0-0.4,0.1-0.7,0.2-0.9
		c0.1-0.1,0.2-0.3,0.5-0.3c0.3,0,0.4,0.1,0.6,0.3c0.2,0.2,0.4,0.3,0.7,0.3c0.2,0,0.5-0.1,0.7-0.3c0.2-0.2,0.3-0.4,0.3-0.7
		c0-0.3-0.1-0.5-0.3-0.7c-0.2-0.2-0.5-0.3-0.8-0.3c-0.6,0-1,0.3-1.3,0.6C30.3,2,30.1,2.1,30,2.3c0,0.1-0.1,0.1-0.1,0.1l-0.1,0l0,0
		c0,0,0,0,0-0.1V1.5c0-0.1,0-0.2-0.1-0.3c0-0.1-0.1-0.1-0.2-0.1c0,0-0.1,0-0.2,0c-0.1,0-0.1,0.1-0.3,0.2l0,0c-0.4,0.4-1.4,0.9-1.6,1
		l0,0c-0.1,0-0.2,0.1-0.2,0.1c-0.1,0-0.1,0.1-0.1,0.2C27.2,2.8,27.3,2.8,27.3,2.8z"/>
	<path class="st0" d="M14.9,2.4c0,0,0.1,0,0.1,0h0.5c0.2,0,0.2,0,0.2,0.1c0,0.1,0,0.2,0,0.3c0,0.2-0.1,3.1-0.1,3.8
		c0,0.6,0.1,1.2,0.3,1.6c0.2,0.4,0.6,0.6,1.3,0.6c0.6,0,1.1-0.2,1.6-0.5c0.2-0.1,0.4-0.3,0.5-0.4c0.1-0.1,0.1-0.1,0.1-0.2
		c0,0,0.1-0.1,0.1-0.1c0,0,0-0.1,0-0.1c0,0-0.1,0-0.1,0l-0.1,0c-0.2,0.1-0.7,0.3-1.1,0.3c-0.4,0-0.6-0.1-0.8-0.4
		c-0.1-0.3-0.2-0.7-0.2-1.3c0-0.1,0-0.2,0-0.3c0-1.9,0-2.7,0.1-3.3c0-0.2,0-0.3,0.1-0.3l0,0c0,0,0.1,0,0.1,0c0.2,0,0.6,0,1,0
		c0.6,0,1,0,1.1,0.1c0.1,0,0.1,0.1,0.1,0.2c0,0.1,0,0.2,0,0.4c0,0.3-0.1,3-0.1,3.9c0,0.8,0.3,1.4,0.7,1.7c0.4,0.3,0.9,0.5,1.3,0.5
		c0.7,0,1.3-0.3,1.7-0.6C23.7,8,23.9,7.8,24,7.7c0.1-0.1,0.1-0.1,0.2-0.1l0,0l0,0l0,0l0.1,0c0,0,0,0.1,0,0.1c0,0.3,0,0.5,0,0.7
		c0,0.1,0,0.2,0,0.2c0,0.1,0.1,0.1,0.2,0.1c0,0,0.1,0,0.1,0c0.1,0,0.1,0,0.2-0.1l0,0l0,0c0.5-0.2,1.8-0.5,2.1-0.6v0
		c0.1,0,0.2,0,0.2-0.1c0.1,0,0.1-0.1,0.1-0.2c0,0,0-0.1,0-0.1c0,0-0.1,0-0.1,0c-0.1,0-0.3,0-0.4,0c-0.2,0-0.3,0-0.4,0
		c-0.1,0-0.1-0.1-0.2-0.1C26,7.5,26,7.3,26,7c0-0.3,0-0.7,0-1.2c0-1.5,0.1-3.4,0.1-4c0-0.1,0-0.2-0.1-0.3c-0.1-0.1-0.2-0.1-0.3-0.1
		l0,0v0l-2.3,0.1l0,0c-0.1,0-0.2,0-0.3,0.1c-0.1,0-0.1,0.1-0.1,0.2c0,0,0,0.1,0,0.1c0,0,0.1,0.1,0.2,0.1c0.1,0,0.2,0,0.3,0l0,0l0,0
		c0.3,0,0.5,0.1,0.7,0.2l0,0l0,0c0.1,0,0.1,0.3,0.1,0.7c0,0.4,0,1.1,0,1.9c0,0.4,0,0.9,0,1.2c0,0.4-0.1,0.7-0.2,0.9
		c-0.2,0.4-0.8,0.7-1.4,0.7c-0.5,0-0.9-0.1-1.1-0.4c-0.2-0.2-0.3-0.5-0.3-0.9c0-3.2,0-3.8,0-4.5c0-0.2,0-0.3-0.1-0.4
		c0,0-0.1-0.1-0.1-0.1c-0.1,0-0.1,0-0.2,0l-0.1,0l-3.5,0.1c0,0-0.1,0-0.1,0c0,0,0-0.1,0-0.1c0-0.3,0-0.8,0-1.1c0-0.1,0-0.1-0.1-0.2
		C17.4,0,17.3,0,17.3,0c-0.1,0-0.1,0-0.2,0.1C17,0.1,17,0.2,17,0.3c-0.4,0.6-1.2,1.2-1.7,1.6C15.1,1.9,15,2,15,2
		c-0.1,0-0.1,0.1-0.1,0.2C14.8,2.3,14.9,2.3,14.9,2.4z"/>
	<polygon class="st0" points="27.3,13.3 27.3,13.3 27.3,13.3 	"/>
	<path class="st0" d="M29.3,12.8c-0.7,0-1.3,0.2-2,0.5c-0.6,0.3-1.1,0.9-1.5,1.6c-0.4,0.7-0.6,1.4-0.6,2.1c0,1,0.3,1.9,0.9,2.7
		c0.7,0.9,1.7,1.4,3,1.4c0.8,0,1.5-0.2,2.1-0.5c0.6-0.4,1.1-0.9,1.5-1.6c0.4-0.7,0.5-1.4,0.5-2.1c0-1-0.3-1.9-1-2.6
		C31.5,13.2,30.5,12.8,29.3,12.8z M29.5,20.3c-0.8,0-1.4-0.4-1.8-1.2c-0.5-0.8-0.7-1.7-0.7-2.9c0-0.7,0.1-1.2,0.3-1.7
		c0.2-0.4,0.4-0.7,0.7-0.9c0.3-0.2,0.6-0.3,0.9-0.3c0.6,0,1.2,0.3,1.6,0.8c0.6,0.8,0.9,1.8,0.9,3.2c0,1.1-0.2,1.8-0.5,2.3
		C30.6,20.1,30.1,20.3,29.5,20.3z"/>
	<path class="st0" d="M8.8,20.4L8.8,20.4L8.8,20.4c-0.2,0-0.3-0.1-0.4-0.1c-0.1-0.1-0.2-0.2-0.2-0.5c0-0.3,0-0.8,0-1.6
		c0-0.5,0-1.3,0-2.4c0-0.6-0.1-1.4-0.4-1.8c-0.4-0.6-1-1-2-1c-0.8,0-1.4,0.3-1.8,0.7c-0.2,0.2-0.4,0.3-0.5,0.5
		c-0.1,0.1-0.1,0.1-0.2,0.1c0,0-0.1,0-0.1,0l0,0c0,0,0-0.1,0-0.1v-0.8c0-0.1,0-0.2,0-0.3c0-0.1-0.1-0.1-0.2-0.1
		c-0.1,0-0.2,0.1-0.3,0.1l0,0l0,0c-0.7,0.6-1.4,1.1-2.1,1.3c0,0-0.1,0-0.1,0.1c0,0-0.1,0.1-0.1,0.1c0,0,0,0.1,0.1,0.1
		c0.1,0.1,0.2,0.1,0.4,0.1l0,0l0,0c0.2,0,0.4,0.1,0.4,0.2l0,0l0,0c0.1,0.1,0.1,0.3,0.1,0.6c0,0.3,0,0.7,0,1.3c0,1.5,0,2.5-0.1,3.1
		c0,0.2-0.1,0.3-0.2,0.3c-0.1,0.1-0.2,0.1-0.4,0.2c-0.1,0-0.3,0.1-0.4,0.1c-0.1,0-0.1,0-0.1,0.1c0,0-0.1,0.1-0.1,0.1l0,0.1
		c0,0,0.1,0.1,0.1,0.1c0.1,0,0.1,0,0.2,0c0.1,0,1.4-0.1,1.7-0.1c0.3,0,1.5,0.1,1.7,0.1l0.1,0c0.1,0,0.2,0,0.2,0
		c0.1,0,0.1-0.1,0.1-0.2c0-0.1,0-0.1-0.1-0.1c-0.1,0-0.2-0.1-0.3-0.1c-0.1,0-0.2-0.1-0.3-0.1l0,0c-0.3-0.1-0.4-0.2-0.5-0.5l0,0l0,0
		C3,19.4,3,18.8,3,17.4c0-1,0-2.1,0.3-2.6C3.5,14.5,4,14,4.7,14c0.6,0,1,0.1,1.3,0.5c0.3,0.4,0.3,1.2,0.3,2.6c0,0.1,0,0.2,0,0.3
		c0,1.3,0,1.9-0.1,2.4c0,0.2-0.1,0.3-0.2,0.4c-0.1,0.1-0.2,0.1-0.4,0.2c-0.1,0-0.3,0.1-0.4,0.1c-0.1,0-0.1,0-0.2,0.1
		c0,0-0.1,0.1-0.1,0.1c0,0,0,0.1,0,0.1c0.1,0.1,0.2,0.1,0.5,0.1c0.2,0,1.3-0.1,1.7-0.1c0.5,0,1.4,0.1,1.6,0.1c0.1,0,0.2,0,0.3,0
		c0.1,0,0.1-0.1,0.1-0.2c0-0.1,0-0.1-0.1-0.1C9.1,20.4,8.9,20.4,8.8,20.4z"/>
	<path class="st0" d="M16.5,19.6c0,0,0-0.1,0-0.1c0,0-0.1-0.1-0.1-0.1c-0.1,0-0.1,0-0.2,0.1c-0.2,0.1-0.4,0.4-0.8,0.4
		c-0.2,0-0.4-0.1-0.4-0.3c-0.1-0.2-0.1-0.4-0.1-0.7c0-0.5,0.1-3.4,0.1-4.5c0-0.7-0.3-1.1-0.7-1.3c-0.4-0.2-1-0.3-1.5-0.3
		c-1.1,0-1.9,0.4-2.5,0.9c-0.6,0.5-0.9,1.1-0.9,1.5c0,0.2,0.1,0.3,0.2,0.4c0.1,0.1,0.2,0.1,0.3,0.1c0.3,0,0.8-0.2,0.9-0.6l0,0
		c0.1-0.4,0.3-0.9,0.5-1.2c0.3-0.4,0.6-0.6,1.2-0.6c0.2,0,0.4,0,0.5,0.1c0.1,0.1,0.3,0.2,0.4,0.4c0.1,0.1,0.1,0.4,0.1,0.6
		c0,0.1,0,0.3,0,0.4c0,0.8,0,1.2-0.2,1.4c-0.2,0.2-0.6,0.4-1.4,0.8c-0.5,0.3-1.1,0.5-1.5,0.9c-0.5,0.4-0.8,0.9-0.8,1.5
		c0,0.3,0.1,0.7,0.4,1c0.2,0.3,0.6,0.5,1.2,0.5c1.1,0,1.8-0.7,2.2-1.2l0,0l0,0l0,0.1l0,0l0,0c0.2,0.6,0.7,1.1,1.4,1.1
		c0.6,0,1-0.2,1.3-0.5c0.2-0.1,0.3-0.3,0.4-0.4C16.4,19.8,16.5,19.7,16.5,19.6z M12.8,19.4c-0.3,0.4-0.6,0.6-1,0.6
		c-0.2,0-0.4-0.1-0.6-0.2c-0.2-0.1-0.3-0.4-0.3-0.7c0-0.6,0.4-1.1,0.9-1.5c0.2-0.2,0.5-0.3,0.7-0.4c0.1-0.1,0.2-0.1,0.3-0.1
		c0.1,0,0.1,0,0.1,0c0.1,0,0.1,0,0.2,0.1c0,0,0.1,0.1,0.1,0.2C13.2,18.2,13.2,19,12.8,19.4z"/>
	<path class="st0" d="M25,20.4L25,20.4L25,20.4c-0.2,0-0.3-0.1-0.4-0.1c-0.1-0.1-0.2-0.2-0.2-0.5c0-0.3,0-0.8,0-1.6
		c0-0.5,0-1.3,0-2.4c0-0.6-0.1-1.4-0.4-1.8c-0.4-0.6-1-1-2-1c-0.8,0-1.4,0.3-1.8,0.7c-0.2,0.2-0.4,0.3-0.5,0.5
		c-0.1,0.1-0.1,0.1-0.2,0.1c0,0-0.1,0-0.1,0l0,0c0,0,0-0.1,0-0.1v-0.8c0-0.1,0-0.2,0-0.3c0-0.1-0.1-0.1-0.2-0.1
		c-0.1,0-0.2,0.1-0.3,0.1l0,0l0,0c-0.7,0.6-1.4,1.1-2.1,1.3c0,0-0.1,0-0.1,0.1c0,0-0.1,0.1-0.1,0.1c0,0,0,0.1,0.1,0.1
		c0.1,0.1,0.2,0.1,0.4,0.1l0,0c0.2,0,0.4,0.1,0.4,0.2l0,0l0,0c0.1,0.1,0.1,0.3,0.1,0.6c0,0.3,0,0.7,0,1.3c0,1.5,0,2.5-0.1,3.1
		c0,0.2-0.1,0.3-0.2,0.3c-0.1,0.1-0.2,0.1-0.4,0.2c-0.1,0-0.3,0.1-0.4,0.1c-0.1,0-0.1,0-0.1,0.1c0,0-0.1,0.1-0.1,0.1l0,0.1
		c0,0,0.1,0.1,0.1,0.1c0.1,0,0.1,0,0.2,0c0.1,0,1.4-0.1,1.7-0.1c0.3,0,1.5,0.1,1.7,0.1l0.1,0c0.1,0,0.2,0,0.2,0
		c0.1,0,0.1-0.1,0.1-0.2c0-0.1,0-0.1-0.1-0.1c-0.1,0-0.2-0.1-0.3-0.1c-0.1,0-0.2-0.1-0.3-0.1c-0.3-0.1-0.4-0.2-0.5-0.5l0,0l0,0
		c-0.1-0.5-0.1-1.1-0.1-2.5c0-1,0-2.1,0.3-2.6c0.2-0.3,0.7-0.8,1.4-0.8c0.6,0,1,0.1,1.3,0.5c0.3,0.4,0.3,1.2,0.3,2.6
		c0,0.1,0,0.2,0,0.3c0,1.3,0,1.9-0.1,2.4c0,0.2-0.1,0.3-0.2,0.4c-0.1,0.1-0.2,0.1-0.4,0.2c-0.1,0-0.3,0.1-0.4,0.1
		c-0.1,0-0.1,0-0.2,0.1c0,0-0.1,0.1-0.1,0.1c0,0,0,0.1,0,0.1c0.1,0.1,0.2,0.1,0.5,0.1c0.2,0,1.3-0.1,1.7-0.1c0.5,0,1.4,0.1,1.6,0.1
		c0.1,0,0.2,0,0.3,0c0.1,0,0.1-0.1,0.1-0.2c0-0.1,0-0.1-0.1-0.1C25.3,20.4,25.2,20.4,25,20.4z"/>
	<path class="st0" d="M54.1,17.8l-0.3-0.1l-0.1,0l0,0.1c-0.3,0.7-0.6,1.2-1,1.4l0,0c-0.5,0.4-1,0.6-1.6,0.6c-0.8,0-1.5-0.3-2-1
		c-0.5-0.7-0.7-1.5-0.7-2.5c0-0.9,0.2-1.6,0.7-2.2c0.4-0.4,0.8-0.6,1.4-0.6c0.4,0,0.7,0.1,0.9,0.2c0.2,0.2,0.3,0.4,0.3,0.7l0,0
		c0,0.3,0.1,0.6,0.2,0.7l0,0l0,0l0,0l0,0c0.2,0.2,0.5,0.3,0.9,0.3c0.3,0,0.5-0.1,0.7-0.2c0.2-0.1,0.3-0.3,0.3-0.6
		c0-0.5-0.3-0.9-0.8-1.3c-0.5-0.4-1.2-0.6-2.1-0.6c-1.1,0-2.1,0.4-2.9,1.2c-0.8,0.8-1.2,1.8-1.2,3.1c0,1.3,0.4,2.3,1.1,3.1
		c0.7,0.8,1.6,1.1,2.5,1.1c0.8,0,1.6-0.3,2.2-0.8C53.4,19.7,53.9,18.9,54.1,17.8L54.1,17.8z"/>
	<path class="st0" d="M79.9,14L79.9,14L79.9,14c-0.8-0.9-1.8-1.4-3.1-1.4c-0.7,0-1.4,0.2-2,0.5c-0.6,0.3-1.2,0.9-1.5,1.6
		c-0.4,0.7-0.6,1.4-0.6,2.2c0,1,0.3,1.9,1,2.7c0.8,1,1.8,1.4,3.1,1.4c0.8,0,1.5-0.2,2.1-0.6c0.6-0.4,1.2-0.9,1.5-1.7
		c0.4-0.7,0.5-1.5,0.5-2.2C80.9,15.7,80.5,14.8,79.9,14z M78.5,19.7c-0.4,0.4-0.8,0.7-1.4,0.7c-0.8,0-1.4-0.4-1.9-1.2
		c-0.5-0.8-0.7-1.8-0.7-2.9c0-0.7,0.1-1.3,0.3-1.7c0.2-0.4,0.5-0.7,0.8-0.9c0.3-0.2,0.6-0.3,1-0.3c0.7,0,1.2,0.3,1.6,0.8
		c0.6,0.8,1,1.9,1,3.3C79,18.5,78.8,19.3,78.5,19.7L78.5,19.7z"/>
	<path class="st0" d="M83.9,20.3c-0.1-0.1-0.3-0.2-0.3-0.3c-0.1-0.1-0.1-0.5-0.1-1V8.5H83h0l-2.6,1l0.2,0.4l0.1,0
		c0.2-0.1,0.4-0.1,0.6-0.1c0.1,0,0.2,0,0.3,0.1l0,0c0.1,0.1,0.1,0.2,0.2,0.4c0,0.2,0.1,0.7,0.1,1.6V19c0,0.5,0,0.8-0.1,1
		c-0.1,0.2-0.2,0.3-0.3,0.3c-0.1,0.1-0.4,0.1-0.8,0.1h-0.1v0.4v0.1h4.3v-0.4v-0.1h-0.1C84.3,20.4,84,20.4,83.9,20.3z"/>
	<path class="st0" d="M106.9,13.4L106.9,13.4v0.4v0.1h0.1c0.3,0,0.4,0,0.5,0.1l0,0l0,0c0.1,0,0.2,0.1,0.2,0.1l0,0l0,0
		c0,0,0,0.1,0,0.2c0,0.2,0,0.4-0.1,0.7l-1.8,4.2l-2-3.8c-0.2-0.4-0.3-0.7-0.3-0.9c0-0.1,0.1-0.3,0.2-0.4c0.1-0.1,0.3-0.2,0.6-0.2
		h0.2h0.1v-0.4v-0.1l-0.1,0c0,0-0.8,0-1.8,0c-0.5,0-1.1,0-1.6,0l-0.1,0c-0.5,0-1,0-1.4-0.1c-0.4,0-0.7-0.1-0.8-0.1
		c-0.6-0.4-1.3-0.5-2.1-0.5c-1,0-1.8,0.3-2.4,0.8c-0.6,0.6-0.9,1.2-0.9,2c0,0.5,0.1,1,0.4,1.4c0.3,0.4,0.6,0.7,1.1,0.9
		c-0.6,0.5-1,0.8-1.1,1.1l0,0c-0.2,0.3-0.3,0.5-0.3,0.7c0,0.2,0.1,0.4,0.2,0.5l0,0l0,0c0.1,0.1,0.3,0.3,0.6,0.4
		c-0.5,0.5-0.8,0.8-0.9,0.9l0,0l0,0l0,0c-0.3,0.4-0.5,0.7-0.6,0.9c-0.1,0.1-0.1,0.3-0.1,0.4c0,0.3,0.2,0.6,0.7,0.9
		c0.8,0.5,1.8,0.7,3,0.7c1.5,0,2.8-0.4,3.7-1.3c0.6-0.6,1-1.2,1-1.8c0-0.5-0.2-0.9-0.5-1.2c-0.3-0.3-0.8-0.5-1.4-0.6
		c-0.4-0.1-1.2-0.1-2.4-0.1c-0.7,0-1.1,0-1.3-0.1c-0.3,0-0.5-0.1-0.6-0.2c-0.1-0.1-0.1-0.2-0.1-0.2c0-0.1,0-0.2,0.1-0.4
		c0.1-0.1,0.3-0.3,0.5-0.5c0.4,0.1,0.8,0.2,1.2,0.2c1,0,1.8-0.3,2.4-0.8c0.6-0.5,0.9-1.2,0.9-1.9c0-0.6-0.2-1.1-0.5-1.5l1.5-0.2
		c0.1,0,0.1,0.1,0.2,0.1c0.1,0.1,0.2,0.2,0.4,0.4c0.2,0.3,0.3,0.5,0.4,0.6l3,5.8l-0.6,1.3c-0.2,0.5-0.4,0.8-0.6,1
		c-0.2,0.2-0.4,0.2-0.5,0.2c0,0-0.2,0-0.4-0.1c-0.3-0.1-0.6-0.2-0.8-0.2c-0.3,0-0.5,0.1-0.7,0.2l0,0l0,0c-0.2,0.2-0.3,0.4-0.3,0.6
		c0,0.3,0.1,0.5,0.4,0.7c0.2,0.2,0.6,0.3,0.9,0.3c0.5,0,1-0.2,1.6-0.6c0.5-0.4,1-1,1.3-1.7l3.4-7.7c0.2-0.4,0.3-0.6,0.3-0.6
		c0.1-0.2,0.3-0.3,0.4-0.4c0.1-0.1,0.3-0.1,0.5-0.1l0.1,0v-0.4v-0.1H106.9z M97.9,17.3c-0.3,0.3-0.6,0.5-1.1,0.5
		c-0.5,0-0.8-0.2-1.1-0.5c-0.4-0.5-0.6-1.2-0.6-2c0-0.7,0.1-1.2,0.4-1.5c0.3-0.3,0.6-0.5,1.1-0.5c0.5,0,0.8,0.2,1.1,0.5
		c0.4,0.5,0.6,1.2,0.6,2.1C98.3,16.5,98.1,17,97.9,17.3L97.9,17.3L97.9,17.3z M94.9,20.8c0.7,0.1,1.8,0.2,3.1,0.2
		c0.9,0,1.5,0.1,1.8,0.2c0.3,0.1,0.4,0.3,0.4,0.6c0,0.4-0.2,0.7-0.8,1.1c-0.5,0.3-1.3,0.5-2.4,0.5c-1.1,0-2-0.2-2.6-0.5
		c-0.3-0.2-0.5-0.4-0.5-0.7c0-0.2,0.1-0.4,0.2-0.7C94.4,21.4,94.6,21.1,94.9,20.8z"/>
	<path class="st0" d="M41.6,15.8c1.6,0,2.9,0.1,4.1,0.1c0.3,0,0.4,0,0.6-0.1c0.1,0,0.1-0.1,0.2-0.2c0-0.1,0.1-0.2,0.1-0.3
		c0-1.3-1.3-2.6-3-2.6c-1.2,0-2.2,0.4-3,1.2c-0.8,0.8-1.3,1.9-1.3,3.2c0,1.2,0.4,2.2,1.1,3c0.7,0.7,1.6,1.1,2.7,1.1
		c1,0,1.9-0.5,2.5-0.9c0.3-0.2,0.6-0.5,0.7-0.7c0.1-0.1,0.2-0.2,0.2-0.3c0-0.1,0.1-0.1,0.1-0.2c0,0,0-0.1,0-0.1c0,0-0.1-0.1-0.1-0.1
		c-0.1,0-0.1,0-0.1,0.1c-0.2,0.2-0.9,1-2.3,1c-1,0-1.7-0.4-2.2-1c-0.5-0.6-0.7-1.5-0.7-2.4c0-0.4,0-0.6,0.1-0.6
		C41.3,15.8,41.4,15.8,41.6,15.8z M41.8,13.9c0.3-0.4,0.9-0.7,1.5-0.7c0.5,0,0.9,0.2,1.1,0.4c0.2,0.2,0.3,0.5,0.3,0.7
		c0,0.2-0.1,0.4-0.2,0.5c-0.4,0.4-1.4,0.4-2.2,0.4c-0.4,0-0.7,0-0.9-0.1c-0.1,0-0.1,0-0.2-0.1c0,0,0-0.1,0-0.1
		C41.3,14.8,41.5,14.3,41.8,13.9z"/>
	<path class="st0" d="M72.4,20.5L72.4,20.5L72.4,20.5c-0.2-0.1-0.3-0.1-0.4-0.1c-0.1-0.1-0.2-0.2-0.3-0.5c0-0.3,0-0.8,0-1.6
		c0-0.5,0-1.3,0-2.5c0-0.6-0.1-1.4-0.4-1.9c-0.4-0.6-1.1-1-2.1-1c-0.8,0-1.5,0.4-1.9,0.7c-0.2,0.2-0.4,0.3-0.5,0.5
		c-0.1,0.1-0.1,0.1-0.2,0.2c0,0-0.1,0-0.1,0l0,0c0,0,0-0.1,0-0.1v-0.8c0-0.1,0-0.2,0-0.3c0-0.1-0.1-0.2-0.2-0.1
		c-0.1,0-0.2,0.1-0.3,0.2l0,0l0,0c-0.7,0.6-1.4,1.1-2.2,1.3c0,0-0.1,0-0.1,0.1c0,0-0.1,0.1-0.1,0.1c0,0,0,0.1,0.1,0.1
		c0.1,0.1,0.2,0.1,0.4,0.1l0,0c0.2,0,0.4,0.1,0.4,0.2l0,0l0,0c0.1,0.1,0.1,0.3,0.1,0.6c0,0.3,0,0.8,0,1.3c0,1.6,0,2.6-0.1,3.2
		c0,0.2-0.1,0.3-0.2,0.3c-0.1,0.1-0.2,0.1-0.4,0.2c-0.1,0-0.3,0.1-0.4,0.1c-0.1,0-0.1,0-0.1,0.1c0,0-0.1,0.1-0.1,0.1l0,0.1
		c0,0,0.1,0.1,0.1,0.1c0.1,0,0.1,0,0.2,0c0.1,0,1.5-0.1,1.8-0.1c0.3,0,1.5,0.1,1.7,0.1l0.1,0c0.1,0,0.2,0,0.2,0
		c0.1,0,0.1-0.1,0.1-0.2c0-0.1,0-0.1-0.1-0.1c-0.1,0-0.2-0.1-0.3-0.1c-0.1,0-0.2-0.1-0.3-0.1c-0.3-0.1-0.5-0.2-0.5-0.5l0,0l0,0
		c-0.1-0.5-0.1-1.1-0.1-2.6c0-1,0-2.2,0.3-2.7c0.2-0.4,0.8-0.8,1.4-0.8c0.7,0,1,0.1,1.4,0.5c0.3,0.4,0.4,1.2,0.4,2.7
		c0,0.1,0,0.2,0,0.3c0,1.3,0,2-0.1,2.4c0,0.2-0.1,0.3-0.2,0.4c-0.1,0.1-0.2,0.1-0.4,0.2c-0.1,0-0.3,0.1-0.4,0.1
		c-0.1,0-0.1,0-0.2,0.1c0,0-0.1,0.1-0.1,0.1c0,0,0,0.1,0,0.1c0.1,0.1,0.2,0.1,0.5,0.1c0.2,0,1.3-0.1,1.8-0.1c0.5,0,1.5,0.1,1.7,0.1
		c0.1,0,0.2,0,0.3,0c0.1,0,0.1-0.1,0.1-0.2c0-0.1,0-0.1-0.1-0.1C72.7,20.6,72.5,20.6,72.4,20.5z"/>
	<path class="st0" d="M91.7,14c-0.8-0.9-1.8-1.4-3.1-1.4c-0.7,0-1.4,0.2-2,0.5c-0.6,0.3-1.2,0.9-1.5,1.6c-0.4,0.7-0.6,1.4-0.6,2.2
		c0,1,0.3,1.9,1,2.7c0.8,1,1.8,1.4,3.1,1.4c0.8,0,1.5-0.2,2.1-0.6c0.6-0.4,1.2-0.9,1.5-1.7c0.4-0.7,0.5-1.5,0.5-2.2
		C92.7,15.7,92.4,14.8,91.7,14z M90.3,19.7c-0.4,0.4-0.8,0.7-1.4,0.7c-0.8,0-1.4-0.4-1.9-1.2c-0.5-0.8-0.7-1.8-0.7-2.9
		c0-0.7,0.1-1.3,0.3-1.7c0.2-0.4,0.5-0.7,0.8-0.9c0.3-0.2,0.6-0.3,1-0.3c0.7,0,1.2,0.3,1.6,0.8c0.6,0.8,1,1.9,1,3.3
		C90.9,18.5,90.7,19.3,90.3,19.7L90.3,19.7L90.3,19.7z"/>
	<path class="st0" d="M62.7,20.5L62.7,20.5L62.7,20.5c-0.2-0.1-0.3-0.1-0.4-0.1c-0.1-0.1-0.2-0.2-0.3-0.5c0-0.3,0-0.8,0-1.6
		c0-0.5,0-1.3,0-2.5c0-0.6-0.1-1.4-0.4-1.9c-0.4-0.6-1.1-1-2.1-1c-0.8,0-1.5,0.4-1.9,0.7c-0.2,0.2-0.4,0.3-0.5,0.5
		c-0.1,0.1-0.1,0.1-0.2,0.2l-0.1,0c0,0,0-0.1,0-0.2c-0.1-1-0.1-4.2-0.1-4.3V8.9c0-0.1,0-0.2,0-0.3c0-0.1-0.1-0.2-0.2-0.1
		c-0.1,0-0.2,0.1-0.3,0.2l0,0l0,0c-0.7,0.6-1.4,1.1-2.2,1.3c0,0-0.1,0-0.1,0.1c0,0-0.1,0.1-0.1,0.1c0,0,0,0.1,0.1,0.1
		c0.1,0.1,0.2,0.1,0.4,0.1l0,0c0.2,0,0.4,0.1,0.4,0.2l0,0l0,0l0,0c0,0,0,0.1,0,0.3c0.1,1.2,0.1,5,0.1,5.9c0,1.6,0,2.6-0.1,3.2
		c0,0.2-0.1,0.3-0.2,0.3c-0.1,0.1-0.2,0.1-0.4,0.2c-0.1,0-0.3,0.1-0.4,0.1c-0.1,0-0.1,0-0.1,0.1c0,0-0.1,0.1-0.1,0.1l0,0.1
		c0,0,0.1,0.1,0.1,0.1c0.1,0,0.1,0,0.2,0c0.1,0,1.5-0.1,1.8-0.1c0.3,0,1.5,0.1,1.7,0.1l0.1,0c0.1,0,0.2,0,0.2,0
		c0.1,0,0.1-0.1,0.1-0.2c0-0.1,0-0.1-0.1-0.1c-0.1,0-0.2-0.1-0.3-0.1c-0.1,0-0.2-0.1-0.3-0.1c-0.3-0.1-0.5-0.2-0.5-0.5l0,0
		c-0.1-0.5-0.1-1.1-0.1-2.6c0-1,0-2.2,0.3-2.7c0.2-0.4,0.8-0.8,1.4-0.8c0.7,0,1,0.1,1.4,0.5c0.3,0.4,0.4,1.2,0.4,2.7
		c0,0.1,0,0.2,0,0.3c0,1.3,0,2-0.1,2.4c0,0.2-0.1,0.3-0.2,0.4c-0.1,0.1-0.2,0.1-0.4,0.2c-0.1,0-0.3,0.1-0.4,0.1
		c-0.1,0-0.1,0-0.2,0.1c0,0-0.1,0.1-0.1,0.1c0,0,0,0.1,0,0.1C59,21,59.1,21,59.4,21c0.2,0,1.3-0.1,1.8-0.1c0.5,0,1.5,0.1,1.7,0.1
		c0.1,0,0.2,0,0.3,0c0.1,0,0.1-0.1,0.1-0.2c0-0.1,0-0.1-0.1-0.1C63,20.6,62.9,20.6,62.7,20.5z"/>
	<path class="st0" d="M36.6,13.1c0,0,0-0.1,0-0.2c0-0.4,0-0.9,0-1.2c0-0.1,0-0.2-0.1-0.2c0-0.1-0.1-0.1-0.2-0.1
		c-0.1,0-0.1,0-0.2,0.1c0,0.1-0.1,0.1-0.1,0.2c-0.4,0.6-1.3,1.3-1.9,1.8c-0.1,0.1-0.2,0.1-0.3,0.2c-0.1,0-0.1,0.1-0.1,0.2
		c0,0.1,0,0.1,0.1,0.1c0,0,0.1,0,0.1,0h0.6c0.2,0,0.2,0.1,0.3,0.1c0,0.1,0,0.2,0,0.3c0,0.2-0.1,3.5-0.1,4.2c0,0.7,0.1,1.3,0.3,1.8
		c0.3,0.4,0.7,0.7,1.4,0.7c0.7,0,1.3-0.3,1.7-0.6c0.2-0.1,0.4-0.3,0.6-0.4c0.1-0.1,0.1-0.1,0.2-0.2c0-0.1,0.1-0.1,0.1-0.1
		c0,0,0-0.1,0-0.1c0,0-0.1,0-0.1,0l-0.1,0c-0.2,0.1-0.7,0.3-1.2,0.3c-0.4,0-0.7-0.1-0.8-0.4c-0.2-0.3-0.2-0.7-0.2-1.4
		c0-0.1,0-0.2,0-0.3c0-2.1,0-3,0.1-3.7c0-0.2,0-0.3,0.1-0.3l0.1,0c0,0,0.1,0,0.1,0c0.3,0,0.6,0,1.1,0c0.5,0,0.8,0,1,0l0.1,0l0-0.8
		l-2.3,0.1C36.6,13.1,36.6,13.1,36.6,13.1z"/>
</g>
</svg>
