<svg xmlns="http://www.w3.org/2000/svg" width="135" height="20" viewBox="-0.375 0 135 20" enable-background="new -0.375 0 135 20"><path d="M61.03 6.538c.888-.984 2.035-1.45 3.438-1.45 1.404 0 2.548.444 3.484 1.38.912.912 1.38 2.13 1.38 3.646 0 1.403-.444 2.62-1.333 3.648-.89 1.028-2.035 1.543-3.438 1.543-1.356 0-2.5-.49-3.437-1.495-.935-1.006-1.404-2.247-1.404-3.765-.045-1.356.422-2.524 1.31-3.507zm1.683-.282c-.702.655-1.053 1.756-1.053 3.32 0 1.264.283 2.43.843 3.51.56 1.073 1.355 1.635 2.386 1.635.792 0 1.4-.348 1.82-1.073.446-.726.657-1.686.657-2.854 0-1.215-.28-2.384-.82-3.436-.56-1.075-1.33-1.612-2.36-1.612-.584-.023-1.052.163-1.473.514v-.004zm6.828-4.7v-.35C70.36 1.02 71.063.81 71.716.6c.654-.21.982-.352 1.03-.352.02.048.02.07.02.14V6.82c.19-.352.445-.652.82-.982.654-.54 1.4-.794 2.242-.794 1.03 0 1.92.443 2.643 1.31.727.865 1.1 2.01 1.1 3.41 0 1.5-.468 2.785-1.426 3.86-.96 1.077-2.197 1.613-3.764 1.613-.772 0-1.545-.16-2.316-.468-.77-.302-1.12-.606-1.12-.935v-11.2c0-.396-.05-.7-.166-.865s-.373-.257-.77-.257l-.468.046v-.003zm3.998 12.696c.493.166.914.232 1.287.232.98 0 1.706-.373 2.175-1.12.49-.75.7-1.64.7-2.69s-.233-2.01-.653-2.92c-.445-.89-1.17-1.334-2.15-1.334-.49 0-.982.164-1.473.47s-.704.7-.704 1.166v5.402c.07.373.352.63.82.794h-.002zm7.39-2.57h.35c.165.818.398 1.426.653 1.847.493.793 1.218 1.19 2.177 1.19.537 0 .936-.14 1.24-.442.302-.282.465-.678.465-1.146 0-.28-.07-.585-.258-.865-.187-.28-.49-.562-.936-.82l-1.19-.676c-.865-.467-1.497-.937-1.917-1.404-.42-.467-.608-1.028-.608-1.657 0-.797.28-1.452.842-1.943.56-.49 1.287-.77 2.127-.77.376 0 .774.067 1.24.21.444.14.702.21.772.21.14 0 .234-.023.28-.048.047-.028.118-.095.142-.165h.257l.07 2.97h-.326c-.14-.68-.35-1.216-.56-1.614-.446-.7-1.077-1.052-1.896-1.052-.49 0-.887.143-1.17.445-.278.303-.418.653-.418 1.074 0 .655.49 1.238 1.45 1.73l1.402.75c1.496.818 2.245 1.753 2.245 2.852 0 .818-.305 1.52-.937 2.033-.607.537-1.45.792-2.43.792-.424 0-.914-.066-1.45-.21-.54-.14-.867-.21-.96-.21-.07 0-.166.023-.233.094-.07.047-.117.14-.142.21h-.28V11.66v.02l.002.004z"/><path fill="#E30613" d="M55.442 2.61c0-.865.702-1.568 1.566-1.568.863 0 1.566.703 1.566 1.567S57.872 4.17 57.01 4.17c-.865 0-1.567-.7-1.567-1.565v.002z"/><path d="M54.32 18.367c.35.446.655.655.935.655.443 0 .747-.257.91-.77.095-.306.142-.82.142-1.543 0-.26.024-.913.024-1.92V7.824c0-.49-.047-.818-.14-1.053-.094-.232-.305-.35-.63-.35-.095 0-.235.022-.4.047-.162.022-.325.07-.49.14v-.35l.912-.278c.234-.07.492-.165.842-.28.352-.142.68-.235 1.004-.376l.63-.234c.025.048.05.093.05.143v9.796c0 1.216-.164 2.174-.47 2.852-.56 1.263-1.658 1.872-3.225 1.872-.515 0-.982-.117-1.405-.326-.397-.213-.607-.493-.607-.843 0-.234.07-.444.235-.63.163-.186.373-.258.63-.258.352.02.702.23 1.052.674l.002-.003z"/><path fill="#E30613" d="M9.357 6.514c.374.538.445 1.614.445 2.315 0 1.496-.025 2.43-.025 3.108 0 2.688 0 2.644.96 2.898.232.072.56.072.56.26 0 .163-.187.186-.444.186s-1.496-.07-2.08-.07c-.584 0-1.894.07-2.175.07-.397 0-.56-.022-.56-.14 0-.212.442-.186.816-.306.444-.164.725-.28.795-.82.068-.606.068-1.447.068-3.06 0-1.99.024-3.182-.444-3.72-.468-.56-.96-.7-1.778-.7-.82 0-1.543.585-1.823 1.053-.375.652-.398 2.033-.398 3.343 0 1.754.023 2.594.14 3.18.07.328.328.492.653.654.26.118.75.164.75.353 0 .185-.282.185-.49.185-.234 0-1.755-.068-2.127-.068-.397 0-2.034.068-2.198.068-.28 0-.374-.02-.374-.164 0-.184.328-.23.702-.3.49-.143.75-.212.818-.703.116-.748.14-2.01.14-3.974 0-1.333 0-2.198-.21-2.457-.094-.142-.306-.233-.587-.28-.35-.048-.56-.048-.56-.188S0 7.075.094 7.05c.936-.303 1.824-.91 2.712-1.68.07-.072.234-.19.328-.19.188 0 .21.214.21.446V6.68c0 .14.024.28.165.28.374 0 1.287-1.707 3.344-1.707 1.238.024 1.962.538 2.5 1.264l.005-.003zm6.968 7.413c-.49.724-1.45 1.565-2.806 1.565-1.334 0-1.87-1.076-1.87-1.824 0-1.638 1.66-2.407 2.922-3.064 2.034-1.03 2.08-.77 2.08-2.923 0-.63.025-1.12-.116-1.4-.28-.562-.653-.655-1.216-.655-1.45 0-1.917 1.333-2.222 2.384-.14.443-.703.702-1.098.702-.234 0-.536-.164-.536-.515 0-.982 1.59-3.063 4.325-3.063 1.308 0 2.804.28 2.804 1.917 0 1.357-.188 5.028-.188 5.707 0 .702.14 1.333.795 1.333.703 0 1.076-.587 1.217-.587.093 0 .14.096.14.188 0 .397-.817 1.614-2.22 1.614-.935 0-1.542-.633-1.777-1.333-.024-.07-.046-.142-.14-.142-.05.05-.095.05-.095.097v.002zm-.166-3.53c-.28 0-2.665 1.167-2.665 2.756 0 .888.702 1.263 1.215 1.263.562 0 .983-.305 1.333-.818.423-.61.47-1.66.47-2.76 0-.327-.118-.443-.353-.443v.002zm7.458-6.573c0 .42-.045 1.076-.045 1.52 0 .235.093.327.257.327l4.816-.185c.445-.022.493.094.493.562 0 .912-.024 1.822-.07 6.172 0 1.074.514 1.846 2.008 1.846.82 0 1.685-.396 2.012-1.028.257-.443.257-1.822.257-2.944 0-2.362 0-3.484-.257-3.74-.234-.213-.562-.235-.98-.28-.446-.07-.632-.07-.632-.235 0-.142.068-.212.373-.235l3.18-.068c.35-.024.446.118.446.396 0 .818-.164 3.462-.164 5.54 0 1.264.022 2.176.187 2.46.116.207.327.277.794.277.163 0 .512-.022.607-.022.094 0 .165.068.165.164 0 .116-.117.187-.397.234-.42.07-2.128.49-2.876.818-.14.046-.327.14-.374.14-.166 0-.21-.116-.21-.35 0-.327.022-.608.022-1.03 0-.186-.023-.35-.187-.35-.258 0-1.45 1.658-3.367 1.658-1.146 0-2.76-.653-2.76-2.9 0-1.237.07-4.886.07-5.33 0-.887-.023-.887-1.823-.887-.585 0-1.053.022-1.38.022-.305.02-.35.046-.4.56-.045.795-.068 1.966-.068 4.562 0 1.072-.023 1.75.234 2.172.233.397.56.537 1.12.537.75 0 1.544-.397 1.614-.397.07 0 .14.046.14.118 0 .208-1.474 1.52-3.04 1.52-1.708 0-2.08-1.264-2.08-2.97 0-.866.116-4.91.116-5.19 0-.282-.024-.61-.47-.61h-.7c-.093 0-.187-.022-.187-.116 0-.21.186-.234.514-.443.77-.538 1.87-1.402 2.385-2.22.14-.187.187-.353.328-.353.233-.002.327.092.327.278zM37.555 7.38c-.14-.023-.258-.048-.258-.142 0-.14.14-.187.42-.28.328-.14 1.662-.865 2.245-1.45.28-.28.42-.328.515-.328.117 0 .233.07.233.376V6.68c0 .21.07.233.142.233.304 0 1.075-1.686 2.572-1.686.84 0 1.404.607 1.404 1.333 0 .773-.563 1.24-1.217 1.24-.84 0-1.027-.867-1.8-.867-.397 0-.56.282-.703.446-.397.442-.42 1.705-.42 3.527 0 1.706-.023 3.04.186 3.392.26.397 1.24.538 1.522.608.257.046.444.02.444.234 0 .162-.282.162-.47.162-.186 0-1.868-.07-2.546-.07-.7 0-2.22.068-2.41.068-.184 0-.443-.02-.443-.162 0-.187.26-.21.492-.28.188-.045.89-.187 1.03-.584.14-.398.185-1.238.185-3.906-.023-2.687-.07-2.944-1.12-2.99h-.002zM52.1 8.922c-1.36 0-3.043-.14-5.03-.14-.515 0-.75.02-.75.98 0 2.292 1.005 4.303 3.58 4.303 1.916 0 2.78-1.333 2.922-1.333.14 0 .164.07.164.142 0 .397-1.848 2.595-4.256 2.595-2.62 0-4.654-1.918-4.654-4.96 0-3.178 2.41-5.377 5.238-5.377 2.106 0 3.695 1.59 3.695 3.203.045.584-.284.584-.913.584l.002.002zm-2.877-3.296c-1.755 0-2.62 1.497-2.62 2.293 0 .278.304.35 1.38.35 1.263 0 3.016-.096 3.016-1.24 0-.445-.444-1.405-1.776-1.405z"/><path d="M90.35 13.95c0-.82.585-1.427 1.333-1.427.818 0 1.333.655 1.333 1.426 0 .77-.538 1.332-1.333 1.332-.678-.024-1.333-.54-1.334-1.333zm13.164-8.464c.188.162.352.56.352.98 0 .444-.234.888-.536.888-.117 0-.234-.045-.352-.163-.54-.654-1.428-1.286-2.408-1.286-1.686 0-3.322 1.333-3.322 3.88 0 1.872 1.29 4.118 3.86 4.118 1.4 0 2.126-.633 2.664-1.45.187-.047.397.117.444.35-.82 1.778-2.62 2.456-4.02 2.456-1.288 0-2.433-.396-3.274-1.238-.843-.818-1.405-2.013-1.405-3.578 0-2.595 1.825-5.38 5.8-5.38.61 0 1.544.118 2.198.423zm9.586 4.98c0 1.87-.653 4.068-2.76 4.068-2.126 0-3.11-2.36-3.11-4.56 0-2.643 1.194-4.185 2.76-4.185 2.27 0 3.11 2.617 3.11 4.676zm-2.826-5.402c-2.83 0-5.122 2.174-5.122 5.216 0 3.014 2.174 4.977 4.91 4.977 3.017 0 5.074-2.173 5.074-5.19 0-2.97-2.173-5.003-4.862-5.003zm20.152 3.647c0-1.658-.724-2.5-2.22-2.5-.912 0-1.662.396-1.99.842-.28.35-.35.607-.35 1.45v3.693c0 1.73.048 1.964.912 2.104l.49.065c.164.118.117.54-.046.61-.726-.048-1.427-.07-2.27-.07-.862 0-1.518.022-2.173.07-.164-.07-.21-.492-.048-.608l.445-.068c.887-.142.91-.352.91-2.107v-3.48c0-1.61-.724-2.5-2.22-2.5-.983 0-1.66.443-2.01.864-.235.28-.353.61-.353 1.38v3.74c0 1.73.047 1.966.912 2.104l.445.07c.164.117.117.54-.046.61-.653-.05-1.333-.07-2.174-.07-.865 0-1.59.02-2.34.07-.163-.07-.21-.493-.046-.61l.585-.07c.887-.115.91-.35.91-2.103v-4.23c0-.936 0-1.076-.652-1.497l-.21-.142c-.096-.093-.096-.35.02-.443.562-.185 1.918-.818 2.41-1.192.093 0 .21.046.257.164-.047.56-.047.912-.047 1.122 0 .14.094.256.258.256.912-.653 2.033-1.238 3.204-1.238 1.19 0 1.87.444 2.55 1.425.21.048.395-.046.607-.187.958-.678 2.127-1.238 3.272-1.238 1.915 0 2.85 1.33 2.85 2.99v4.164c0 1.728.048 1.964.914 2.103l.585.07c.16.118.116.54-.05.607-.794-.045-1.496-.066-2.338-.066-.865 0-1.52.02-2.174.066-.165-.066-.21-.49-.048-.607l.445-.068c.888-.14.91-.35.91-2.104l-.096-3.437.006-.005z"/></svg>