<svg width="24" height="24" viewBox="0 0 24 24" xmlns="http://www.w3.org/2000/svg" xmlns:xlink="http://www.w3.org/1999/xlink"><title>icon-icon / social / twitter</title><desc>Created with Sketch.</desc><defs><path d="M17.641 3.35c.849-.536 1.502-1.385 1.806-2.396-.793.496-1.671.856-2.607 1.048-.744-.838-1.811-1.366-2.991-1.366-2.267 0-4.104 1.938-4.104 4.327 0 .339.035.671.105.985-3.405-.182-6.432-1.903-8.455-4.523-.353.641-.555 1.385-.555 2.178 0 1.502.725 2.825 1.825 3.603-.671-.023-1.304-.22-1.858-.541v.052c0 2.096 1.414 3.847 3.293 4.243-.346.101-.707.152-1.083.152-.262 0-.524-.026-.772-.077.524 1.722 2.036 2.976 3.833 3.009-1.406 1.161-3.175 1.851-5.099 1.851-.332 0-.657-.017-.978-.058 1.816 1.226 3.973 1.942 6.29 1.942 7.547 0 11.674-6.596 11.674-12.315l-.01-.559c.803-.611 1.502-1.374 2.047-2.242-.737.344-1.528.576-2.357.681l-.002.005z" id="a"/></defs><g transform="translate(2 3)" fill="none"><mask id="b"><use xlink:href="#a"/></mask><use fill="#666" xlink:href="#a"/><path d="M-2-3h24v24h-24z" mask="url(#b)" fill="#333"/></g></svg>