<?xml version="1.0" encoding="utf-8"?>
<!-- Generator: Adobe Illustrator 18.1.1, SVG Export Plug-In . SVG Version: 6.00 Build 0)  -->
<svg version="1.1" id="Layer_1" xmlns="http://www.w3.org/2000/svg" xmlns:xlink="http://www.w3.org/1999/xlink" x="0px" y="0px"
	 width="108px" height="50px" viewBox="0 0 108 50" enable-background="new 0 0 108 50" xml:space="preserve">
<g>
	<path fill="#FFFFFF" d="M11.9,3.6c0.5,0.7,0.6,1.9,0.6,2.8c0,1.8,0,3,0,3.8c0,3.3,0,3.2,1.2,3.5c0.3,0.1,0.7,0.1,0.7,0.3
		c0,0.2-0.2,0.2-0.5,0.2c-0.3,0-1.8-0.1-2.5-0.1c-0.7,0-2.3,0.1-2.7,0.1c-0.5,0-0.7,0-0.7-0.2c0-0.2,0.5-0.2,1-0.4
		c0.5-0.2,0.9-0.3,1-1C9.9,12,9.9,11,9.9,9c0-2.4,0-3.9-0.6-4.5C8.7,3.8,8.1,3.6,7.2,3.6c-1,0-1.9,0.7-2.2,1.3
		C4.5,5.7,4.5,7.4,4.5,9c0,2.1,0,3.1,0.2,3.9c0.1,0.4,0.4,0.6,0.8,0.8c0.3,0.1,0.9,0.2,0.9,0.4c0,0.2-0.3,0.2-0.6,0.2
		c-0.3,0-2.1-0.1-2.6-0.1c-0.5,0-2.5,0.1-2.7,0.1c-0.3,0-0.5,0-0.5-0.2c0-0.2,0.4-0.3,0.9-0.4c0.6-0.2,0.9-0.2,1-0.8
		C2,11.9,2,10.4,2,8c0-1.6,0-2.7-0.2-3C1.6,4.8,1.4,4.7,1,4.7C0.6,4.6,0.4,4.6,0.4,4.4c0-0.2,0.1-0.2,0.2-0.2c1.1-0.4,2.2-1.1,3.3-2
		C4,2.1,4.1,2,4.3,2c0.2,0,0.2,0.2,0.2,0.6v1.3c0,0.2,0,0.4,0.2,0.4c0.5,0,1.5-2.1,4-2.1C10.3,2.1,11.2,2.7,11.9,3.6"/>
	<path fill="#FFFFFF" d="M20.3,12.6c-0.6,0.9-1.8,1.9-3.4,1.9c-1.6,0-2.3-1.3-2.3-2.2c0-2,2-2.9,3.5-3.7c2.5-1.2,2.5-0.9,2.5-3.5
		c0-0.8,0-1.4-0.1-1.7c-0.3-0.7-0.8-0.8-1.5-0.8c-1.8,0-2.3,1.6-2.7,2.9c-0.2,0.5-0.9,0.8-1.3,0.8c-0.3,0-0.6-0.2-0.6-0.6
		c0-1.2,1.9-3.7,5.2-3.7c1.6,0,3.4,0.3,3.4,2.3c0,1.7-0.2,6.1-0.2,6.9c0,0.8,0.2,1.6,1,1.6c0.8,0,1.3-0.7,1.5-0.7
		c0.1,0,0.2,0.1,0.2,0.2c0,0.5-1,1.9-2.7,1.9c-1.1,0-1.9-0.8-2.2-1.6c0-0.1-0.1-0.2-0.2-0.2C20.4,12.5,20.3,12.6,20.3,12.6
		 M20.1,8.3c-0.4,0-3.2,1.4-3.2,3.4c0,1.1,0.8,1.5,1.5,1.5c0.7,0,1.2-0.4,1.6-1c0.5-0.7,0.6-2,0.6-3.3C20.5,8.5,20.4,8.3,20.1,8.3"
		/>
	<path fill="#FFFFFF" d="M64.3,6.5c-1.7,0-3.7-0.2-6.1-0.2c-0.6,0-0.9,0-0.9,1.2c0,2.8,1.2,5.2,4.4,5.2c2.3,0,3.4-1.6,3.6-1.6
		c0.2,0,0.2,0.1,0.2,0.2c0,0.5-2.2,3.2-5.2,3.2c-3.2,0-5.7-2.3-5.7-6c0-3.9,2.9-6.5,6.4-6.5c2.6,0,4.5,1.9,4.5,3.9
		C65.4,6.5,65,6.5,64.3,6.5 M60.8,2.5c-2.1,0-3.2,1.8-3.2,2.8c0,0.3,0.4,0.4,1.7,0.4c1.5,0,3.7-0.1,3.7-1.5
		C63,3.7,62.4,2.5,60.8,2.5"/>
	<path fill="#FFFFFF" d="M46.1,4.6c-0.2,0-0.3-0.1-0.3-0.2c0-0.2,0.2-0.2,0.5-0.4c0.4-0.2,2-1,2.7-1.8C49.4,2,49.6,2,49.7,2
		C49.8,2,50,2.1,50,2.4v1.4C50,4,50,4.1,50.1,4.1c0.4,0,1.3-2,3.1-2c1,0,1.7,0.7,1.7,1.6c0,0.9-0.7,1.5-1.5,1.5
		c-1,0-1.2-1.1-2.2-1.1c-0.5,0-0.7,0.3-0.8,0.5c-0.5,0.5-0.5,2.1-0.5,4.3c0,2.1,0,3.7,0.2,4.1c0.3,0.5,1.5,0.7,1.9,0.7
		c0.3,0.1,0.6,0,0.6,0.3c0,0.2-0.4,0.2-0.6,0.2c-0.2,0-2.3-0.1-3.1-0.1c-0.9,0-2.7,0.1-2.9,0.1c-0.2,0-0.6,0-0.6-0.2
		c0-0.2,0.3-0.2,0.6-0.3c0.2-0.1,1.1-0.2,1.3-0.7c0.2-0.5,0.2-1.5,0.2-4.7S47.4,4.7,46.1,4.6"/>
	<path fill="#FFFFFF" d="M29.2,0.3c0,0.5-0.1,1.3-0.1,1.9c0,0.3,0.1,0.4,0.3,0.4l5.9-0.2c0.6,0,0.6,0.1,0.6,0.7c0,1.1,0,2.2-0.1,7.5
		c0,1.3,0.6,2.2,2.4,2.2c1,0,2-0.5,2.5-1.2C41,11,41.1,9.4,41.1,8c0-2.9,0-4.3-0.3-4.5c-0.3-0.2-0.7-0.3-1.2-0.3
		C39,3,38.8,3,38.8,2.8c0-0.2,0.1-0.2,0.5-0.3l3.9-0.1c0.4,0,0.6,0.1,0.6,0.5c0,1-0.2,4.2-0.2,6.7c0,1.5,0,2.7,0.2,3
		c0.1,0.2,0.4,0.3,1,0.3c0.2,0,0.6,0,0.7,0c0.1,0,0.2,0.1,0.2,0.2c0,0.1-0.1,0.2-0.5,0.3c-0.5,0.1-2.6,0.6-3.5,1
		c-0.2,0.1-0.4,0.2-0.5,0.2c-0.2,0-0.2-0.1-0.2-0.4c0-0.4,0-0.7,0-1.3c0-0.2,0-0.4-0.2-0.4c-0.3,0-1.8,2-4.1,2
		c-1.4,0-3.3-0.8-3.3-3.5c0-1.5,0.1-5.9,0.1-6.5c0-1.1,0-1.1-2.2-1.1c-0.7,0-1.3,0-1.7,0c-0.4,0-0.4,0.1-0.5,0.7
		c-0.1,1-0.1,2.4-0.1,5.6c0,1.3,0,2.1,0.3,2.7c0.3,0.5,0.7,0.6,1.4,0.6c0.9,0,1.9-0.5,2-0.5c0.1,0,0.2,0.1,0.2,0.1
		c0,0.2-1.8,1.9-3.7,1.9c-2.1,0-2.5-1.5-2.5-3.6c0-1,0.1-6,0.1-6.3c0-0.3,0-0.7-0.6-0.7h-0.8c-0.1,0-0.2,0-0.2-0.1
		c0-0.2,0.2-0.3,0.6-0.6c0.9-0.6,2.3-1.7,2.9-2.7C28.7,0.2,28.8,0,28.9,0C29.1,0,29.2,0.1,29.2,0.3"/>
</g>
<g>
	<path fill="#FFFFFF" d="M35,24.5c0.7,1,0.8,3,0.8,4.3c0,2.8,0,4.5,0,5.7c0,5,0,4.9,1.8,5.3c0.4,0.1,1,0.1,1,0.5
		c0,0.3-0.3,0.3-0.8,0.3c-0.5,0-2.8-0.1-3.8-0.1c-1.1,0-3.5,0.1-4,0.1c-0.7,0-1,0-1-0.3c0-0.4,0.8-0.3,1.5-0.6
		c0.8-0.3,1.3-0.5,1.5-1.5c0.1-1.1,0.1-2.6,0.1-5.6c0-3.7,0-5.9-0.8-6.9c-0.9-1-1.8-1.3-3.3-1.3c-1.5,0-2.9,1.1-3.4,1.9
		c-0.7,1.2-0.7,3.8-0.7,6.2c0,3.2,0,4.8,0.3,5.9c0.1,0.6,0.6,0.9,1.2,1.2c0.5,0.2,1.4,0.3,1.4,0.6c0,0.3-0.5,0.3-0.9,0.3
		c-0.4,0-3.2-0.1-3.9-0.1c-0.7,0-3.8,0.1-4.1,0.1c-0.5,0-0.7,0-0.7-0.3c0-0.3,0.6-0.4,1.3-0.6c0.9-0.2,1.4-0.4,1.5-1.3
		c0.2-1.4,0.2-3.7,0.2-7.3c0-2.5,0-4.1-0.4-4.6c-0.2-0.2-0.6-0.4-1.1-0.5c-0.6-0.1-1-0.1-1-0.3c0-0.2,0.1-0.3,0.3-0.3
		c1.7-0.6,3.3-1.7,5-3.1c0.1-0.1,0.4-0.3,0.6-0.3c0.3,0,0.4,0.4,0.4,0.8v1.9c0,0.3,0.1,0.6,0.3,0.6c0.7,0,2.3-3.2,6.1-3.2
		C32.6,22.2,34,23.2,35,24.5L35,24.5z"/>
	<path fill="#FFFFFF" d="M56.1,26.1c-0.3,0-0.5-0.1-0.5-0.2c0-0.3,0.3-0.3,0.8-0.6c0.6-0.2,3-1.6,4.1-2.7c0.6-0.6,0.8-0.6,1-0.6
		c0.2,0,0.4,0.1,0.4,0.7v2.1c0,0.4,0.1,0.4,0.2,0.4c0.6,0,2-3.1,4.8-3.1c1.6,0,2.6,1.1,2.6,2.5c0,1.4-1,2.3-2.2,2.3
		c-1.6,0-1.9-1.6-3.3-1.6c-0.7,0-1,0.5-1.3,0.8c-0.7,0.8-0.8,3.1-0.8,6.5c0,3.2-0.1,5.6,0.3,6.2c0.5,0.7,2.3,1,2.8,1.1
		c0.5,0.1,0.8,0.1,0.8,0.4c0,0.3-0.6,0.3-0.9,0.3c-0.3,0-3.4-0.1-4.7-0.1c-1.3,0-4.1,0.1-4.5,0.1c-0.3,0-0.8,0-0.8-0.3
		c0-0.3,0.5-0.4,0.9-0.5c0.3-0.1,1.7-0.3,1.9-1.1c0.3-0.7,0.3-2.3,0.3-7.2C58.2,26.7,58.1,26.2,56.1,26.1L56.1,26.1z"/>
	<path fill="#FFFFFF" d="M53.2,29c-2.5,0-5.6-0.2-9.3-0.2c-1,0-1.4,0-1.4,1.8c0,4.2,1.9,7.9,6.6,7.9c3.6,0,5.1-2.5,5.4-2.5
		c0.2,0,0.3,0.1,0.3,0.3c0,0.7-3.4,4.8-7.9,4.8c-4.8,0-8.6-3.5-8.6-9.1c0-5.9,4.5-10,9.7-10c3.9,0,6.8,2.9,6.8,5.9
		C54.9,29,54.3,29,53.2,29L53.2,29z M47.8,22.9c-3.2,0-4.8,2.8-4.8,4.2c0,0.5,0.6,0.7,2.6,0.7c2.3,0,5.6-0.2,5.6-2.3
		C51.1,24.6,50.3,22.9,47.8,22.9L47.8,22.9z"/>
	<path fill="#FFFFFF" d="M14.8,29c-2.5,0-5.6-0.2-9.3-0.2c-1,0-1.4,0-1.4,1.8c0,4.2,1.9,7.9,6.6,7.9c3.6,0,5.1-2.5,5.4-2.5
		c0.2,0,0.3,0.1,0.3,0.3c0,0.7-3.4,4.8-7.9,4.8c-4.8,0-8.6-3.5-8.6-9.1C0,26,4.5,22,9.7,22c3.9,0,6.8,2.9,6.8,5.9
		C16.5,29,15.9,29,14.8,29L14.8,29z M9.5,22.9c-3.2,0-4.8,2.8-4.8,4.2c0,0.5,0.6,0.7,2.6,0.7c2.3,0,5.6-0.2,5.6-2.3
		C12.8,24.6,11.9,22.9,9.5,22.9L9.5,22.9z"/>
	<path fill="#FFFFFF" d="M74,33.8c-1.2-0.5-2.1-1.3-2.7-2.2c-0.6-1-0.9-2-0.9-3.2c0-1.8,0.7-3.3,2.1-4.6c1.4-1.3,3.3-1.9,5.5-1.9
		c1.8,0,3.4,0.4,4.8,1.3c0,0,3.3,0.3,5.4,0.3c3.6,0,7.9,0,7.9,0v0.7h-0.4c-0.6,0-1.1,0.1-1.4,0.4c-0.3,0.2-0.5,0.6-0.5,0.9
		c0,0.5,0.2,1.2,0.7,2.1l4.7,9l4.3-9.9c0.2-0.5,0.4-1.1,0.4-1.6c0-0.2,0-0.4-0.1-0.5c-0.1-0.1-0.3-0.3-0.5-0.3
		c-0.2-0.1-0.7-0.1-1.3-0.1v-0.7h6.2v0.7c-0.5,0.1-0.9,0.2-1.2,0.3c-0.3,0.2-0.6,0.5-0.9,0.9c-0.1,0.2-0.4,0.7-0.7,1.5l-7.8,17.9
		c-0.8,1.7-1.7,3-3,3.9C93.2,49.6,92,50,90.9,50c-0.8,0-1.5-0.2-2-0.7c-0.5-0.4-0.8-1-0.8-1.5c0-0.5,0.2-1,0.6-1.3
		c0.4-0.3,0.9-0.5,1.6-0.5c0.5,0,1.1,0.1,1.9,0.4c0.6,0.2,0.9,0.3,1,0.3c0.4,0,0.9-0.2,1.4-0.6c0.5-0.4,1-1.2,1.5-2.3l1.4-3.1
		l-6.9-13.5c-0.2-0.4-0.5-0.9-1-1.5c-0.3-0.5-0.6-0.8-0.9-0.9c-0.1-0.1-0.3-0.2-0.5-0.2c0,0.1-3.8,0.4-3.8,0.4
		c0.8,0.9,1.2,2.1,1.2,3.6c0,1.7-0.7,3.1-2,4.3c-1.4,1.2-3.2,1.8-5.5,1.8c-0.9,0-1.9-0.1-2.9-0.4c-0.6,0.5-1,0.9-1.3,1.3
		c-0.2,0.4-0.3,0.7-0.3,0.9c0,0.2,0.1,0.4,0.3,0.6c0.2,0.2,0.7,0.4,1.4,0.5c0.4,0.1,1.4,0.1,2.9,0.1c2.9,0.1,4.7,0.2,5.6,0.3
		c1.3,0.2,2.3,0.6,3.1,1.3c0.8,0.7,1.2,1.6,1.2,2.7c0,1.5-0.7,2.9-2.2,4.1c-2.2,1.9-5,2.9-8.5,2.9c-2.7,0-5-0.6-6.8-1.7
		c-1-0.7-1.6-1.3-1.6-2c0-0.3,0.1-0.6,0.2-0.9c0.2-0.5,0.7-1.2,1.5-2c0.1-0.1,0.8-0.8,2.1-2.1c-0.7-0.4-1.2-0.8-1.5-1.1
		c-0.3-0.3-0.4-0.7-0.4-1.1c0-0.5,0.2-1,0.6-1.6C71.6,35.8,72.6,34.9,74,33.8L74,33.8z M77.6,22.8c-1,0-1.9,0.4-2.6,1.2
		c-0.7,0.8-1,2-1,3.5c0,2.1,0.5,3.7,1.4,4.8c0.7,0.9,1.6,1.3,2.8,1.3c1.1,0,1.9-0.4,2.6-1.1c0.7-0.7,1-1.9,1-3.5
		c0-2.1-0.5-3.7-1.4-4.9C79.7,23.2,78.8,22.8,77.6,22.8L77.6,22.8z M73.8,40.3c-0.7,0.7-1.2,1.3-1.5,1.9c-0.3,0.6-0.5,1.1-0.5,1.6
		c0,0.6,0.4,1.2,1.2,1.6c1.4,0.8,3.4,1.2,6,1.2c2.5,0,4.4-0.4,5.5-1.3c1.2-0.8,1.8-1.7,1.8-2.6c0-0.7-0.4-1.2-1.1-1.4
		c-0.7-0.3-2.2-0.5-4.3-0.5C77.9,40.7,75.5,40.5,73.8,40.3L73.8,40.3z"/>
</g>
</svg>
