<?xml version="1.0" encoding="UTF-8"?>
<svg width="255px" height="33px" viewBox="0 0 255 33" version="1.1" xmlns="http://www.w3.org/2000/svg" xmlns:xlink="http://www.w3.org/1999/xlink">
    <!-- Generator: Sketch 52.3 (67297) - http://www.bohemiancoding.com/sketch -->
    <title>Nature Research / default</title>
    <desc>Created with Sketch.</desc>
    <defs>
        <polygon id="path-1" points="0.700135135 0.429891892 65.7368919 0.429891892 65.7368919 22.2437838 0.700135135 22.2437838"></polygon>
        <polygon id="path-3" points="0.0535135135 0.106135135 253.712027 0.106135135 253.712027 32.9464865 0.0535135135 32.9464865"></polygon>
    </defs>
    <g id="Nature-Research-/-default" stroke="none" stroke-width="1" fill="none" fill-rule="evenodd">
        <g id="NatureResearch_rgb">
            <g id="Group-6" transform="translate(115.054054, 10.702703)">
                <mask id="mask-2" fill="white">
                    <use xlink:href="#path-1"></use>
                </mask>
                <g id="Clip-2"></g>
                <path d="M3.60948649,7.14048649 C3.60948649,5.31032432 3.60948649,5.31032432 2.29572973,5.02937838 C1.73294595,4.93483784 1.59202703,4.74754054 1.59202703,4.37205405 C1.59202703,4.09021622 1.68567568,3.95018919 2.01389189,3.80927027 C3.60948649,2.96464865 4.45410811,2.35459459 5.5332973,1.04083784 C5.90878378,0.524432432 6.0497027,0.429891892 6.28427027,0.429891892 C6.70613514,0.429891892 6.89432432,0.71172973 6.89432432,1.36905405 C6.89432432,1.65089189 6.89432432,1.4627027 6.70613514,3.24559459 L6.70613514,3.80927027 C6.70613514,4.09021622 6.80067568,4.27840541 6.98797297,4.27840541 C7.08162162,4.27840541 7.22254054,4.13748649 7.41072973,3.90291892 C7.45710811,3.85564865 7.50437838,3.762 8.20808108,3.01102703 C9.56910811,1.69727027 10.7419459,1.08721622 11.9156757,1.08721622 C13.3694595,1.08721622 14.4022703,2.16640541 14.4022703,3.66835135 C14.4022703,4.84118919 13.6985676,5.63854054 12.6193784,5.63854054 C12.102973,5.63854054 11.7274865,5.49851351 11.0701622,5.02937838 C10.3191892,4.55935135 9.89732432,4.41932432 9.38091892,4.41932432 C7.87986486,4.41932432 7.03524324,5.82672973 7.03524324,8.40786486 L7.03524324,16.6667838 C7.03524324,19.4352162 7.08162162,19.4815946 9.85094595,19.7634324 C11.4456486,19.9507297 11.7274865,20.0452703 11.7274865,20.6080541 C11.7274865,21.2181081 11.3992703,21.3117568 9.38091892,21.3117568 L7.50437838,21.2644865 L5.11143243,21.2644865 C4.36045946,21.3117568 4.17227027,21.3117568 2.20118919,21.4526757 C2.01389189,21.4990541 1.73294595,21.4990541 1.49748649,21.4990541 C0.981972973,21.4990541 0.700135135,21.3117568 0.700135135,20.9362703 C0.700135135,20.6080541 0.888324324,20.5135135 1.54475676,20.2325676 C3.60948649,19.4352162 3.56221622,19.5288649 3.60948649,16.995 L3.60948649,7.14048649" id="Fill-1" fill="#50504D" mask="url(#mask-2)"></path>
                <path d="M20.1264324,3.90291892 C18.999973,4.74754054 18.1080811,6.24859459 18.1080811,7.04683784 C18.1080811,7.60962162 18.4835676,7.84418919 19.5163784,7.84418919 C20.0327838,7.84418919 21.6747568,7.79781081 22.7075676,7.75054054 C24.6313784,7.60962162 26.3206216,7.42232432 26.8834054,7.18775676 C27.4934595,6.90591892 27.8689459,6.34313514 27.8689459,5.63854054 C27.8689459,3.90291892 26.1324324,2.54189189 23.8804054,2.54189189 C22.5202703,2.54189189 21.2056216,3.01102703 20.1264324,3.90291892 Z M18.719027,9.15883784 C17.2170811,9.15883784 17.1234324,9.29886486 17.1234324,11.2699459 C17.1234324,16.2912973 20.0327838,19.4815946 24.725027,19.4815946 C26.3206216,19.4815946 27.5407297,19.1061081 28.8544865,18.1678378 C30.2618919,17.2295676 30.2155135,17.2295676 30.4491892,17.2295676 C30.7782973,17.2295676 31.0601351,17.4641351 31.0601351,17.7450811 C31.0601351,18.0741892 30.9192162,18.3087568 29.9336757,19.1997568 C27.6816486,21.3117568 25.6632973,22.250027 23.2703514,22.250027 C20.1264324,22.250027 17.2170811,20.7017027 15.4341892,18.2151081 C14.2604595,16.4785946 13.6504054,14.3202162 13.6504054,11.6918108 C13.6504054,5.92037838 18.3908108,0.993567568 23.9749459,0.993567568 C27.9625946,0.993567568 31.5765405,4.27840541 31.5765405,7.84418919 C31.5765405,9.01702703 31.2474324,9.15883784 28.5262703,9.15883784 L18.719027,9.15883784 Z" id="Fill-3" fill="#50504D" mask="url(#mask-2)"></path>
                <path d="M44.9504595,4.55935135 L44.9968378,5.68581081 C44.9968378,6.24859459 44.8095405,6.43678378 44.4340541,6.43678378 C43.9649189,6.43678378 43.7303514,6.20221622 43.4948919,5.40486486 C42.8857297,3.43378378 41.6647297,2.44824324 39.8818378,2.44824324 C38.0052973,2.44824324 36.5506216,3.762 36.5506216,5.40486486 C36.5506216,6.5777027 37.3015946,7.42232432 39.0844865,8.40786486 C40.3991351,9.11156757 41.3365135,9.67435135 42.462973,10.3316757 C45.1377568,11.9736486 46.1696757,13.5692432 46.1696757,15.8685405 C46.1696757,19.6225135 43.0739189,22.2972973 38.709,22.2972973 C36.9261081,22.2972973 34.7204595,21.639973 33.7821892,20.8426216 C33.5003514,20.6080541 33.3603243,20.0916486 33.3603243,19.4352162 L33.3603243,16.9004595 C33.3603243,16.0094595 33.5003514,15.7276216 33.9703784,15.7276216 C34.2513243,15.7276216 34.3922432,15.9621892 34.9077568,17.135027 C35.9869459,19.6225135 37.3488649,20.7953514 39.3199459,20.7953514 C41.4783243,20.7953514 42.8857297,19.3415676 42.8857297,17.135027 C42.8857297,15.4457838 42.2756757,14.5547838 40.3045946,13.3810541 C39.5072432,13.0064595 37.7243514,11.8336216 36.456973,10.9881081 C34.5322703,9.67435135 33.6885405,8.45424324 33.6885405,6.67135135 C33.6885405,3.38651351 36.5978919,0.993567568 40.5391622,0.993567568 C42.3229459,0.993567568 44.4813243,1.41543243 44.7622703,1.74454054 C44.9504595,1.97910811 44.9504595,2.58916216 44.9504595,4.09021622 L44.9504595,4.55935135" id="Fill-4" fill="#50504D" mask="url(#mask-2)"></path>
                <path d="M54.2876757,3.90291892 C53.1612162,4.74754054 52.2693243,6.24859459 52.2693243,7.04683784 C52.2693243,7.60962162 52.6448108,7.84418919 53.6776216,7.84418919 C54.1931351,7.84418919 55.836,7.79781081 56.8679189,7.75054054 C58.7926216,7.60962162 60.480973,7.42232432 61.0446486,7.18775676 C61.6547027,6.90591892 62.0292973,6.34313514 62.0292973,5.63854054 C62.0292973,3.90291892 60.2936757,2.54189189 58.0416486,2.54189189 C56.6806216,2.54189189 55.3668649,3.01102703 54.2876757,3.90291892 Z M52.8802703,9.15883784 C51.3783243,9.15883784 51.2846757,9.29886486 51.2846757,11.2699459 C51.2846757,16.2912973 54.1931351,19.4815946 58.8862703,19.4815946 C60.480973,19.4815946 61.7010811,19.1061081 63.0157297,18.1678378 C64.4231351,17.2295676 64.3758649,17.2295676 64.6113243,17.2295676 C64.9395405,17.2295676 65.2213784,17.4641351 65.2213784,17.7450811 C65.2213784,18.0741892 65.0795676,18.3087568 64.0949189,19.1997568 C61.8428919,21.3117568 59.8245405,22.250027 57.4315946,22.250027 C54.2876757,22.250027 51.3783243,20.7017027 49.5954324,18.2151081 C48.4225946,16.4785946 47.8116486,14.3202162 47.8116486,11.6918108 C47.8116486,5.92037838 52.5520541,0.993567568 58.1352973,0.993567568 C62.1238378,0.993567568 65.7368919,4.27840541 65.7368919,7.84418919 C65.7368919,9.01702703 65.4086757,9.15883784 62.6875135,9.15883784 L52.8802703,9.15883784 Z" id="Fill-5" fill="#50504D" mask="url(#mask-2)"></path>
            </g>
            <path d="M192.381973,24.4592432 C192.429243,23.2864054 192.052865,22.629973 191.442811,22.629973 C190.645459,22.629973 188.58073,23.7555405 187.407892,24.882 C186.516,25.7266216 186.000486,26.8994595 186.000486,28.0259189 C186.000486,29.6215135 186.844216,30.4661351 188.392541,30.4661351 C189.284432,30.4661351 190.316351,30.1379189 191.020054,29.526973 C191.959216,28.7768919 192.334703,27.7440811 192.381973,25.8675405 L192.381973,24.4592432 Z M192.47473,18.125027 C192.47473,15.9193784 192.334703,15.2156757 191.865568,14.6992703 C191.349162,14.1828649 190.691838,13.9482973 189.612649,13.9482973 C187.829757,13.9482973 186.796946,14.9811081 186.000486,17.514973 C185.530459,19.0632973 184.874027,19.6733514 183.747568,19.6733514 C183.090243,19.6733514 182.57473,19.2042162 182.57473,18.5468919 C182.57473,17.6558919 183.278432,16.4357838 184.498541,15.2156757 C186.704189,13.0572973 189.237162,11.8362973 191.442811,11.8362973 C192.662919,11.8362973 193.742108,12.2590541 194.540351,13.0572973 C195.432243,13.9019189 195.806838,14.8401892 195.806838,16.4821622 L195.806838,17.6086216 L195.619541,24.882 L195.619541,25.3047568 L195.57227,25.7266216 L195.57227,26.1484865 C195.57227,28.7768919 195.947757,29.8088108 196.886919,29.8088108 C197.543351,29.8088108 197.966108,29.5742432 198.763459,28.9178108 C199.373514,28.4014054 199.514432,28.3077568 199.70173,28.3077568 C199.982676,28.3077568 200.218135,28.5887027 200.218135,28.9178108 C200.218135,29.4805946 199.467162,30.3724865 198.106135,31.4044054 C197.167865,32.1553784 196.604189,32.3899459 195.713189,32.3899459 C195.055865,32.3899459 194.493081,32.2017568 194.070324,31.9671892 C193.694838,31.7798919 193.789378,31.8735405 192.662919,30.7007027 C192.56927,30.5125135 192.429243,30.4661351 192.241054,30.4661351 C192.099243,30.4661351 191.865568,30.6534324 191.537351,30.8416216 C190.129054,31.8271622 187.877027,32.5308649 186.140514,32.5308649 C183.934865,32.5308649 182.714757,31.4044054 182.714757,29.4342162 C182.714757,28.0259189 183.419351,26.3839459 184.638568,25.1165676 C186.140514,23.5682432 188.111595,22.3481351 191.208243,21.2216757 C192.429243,20.7998108 192.429243,20.7525405 192.429243,19.2042162 L192.47473,18.125027 Z" id="Fill-7" fill="#50504D"></path>
            <g id="Group-13">
                <mask id="mask-4" fill="white">
                    <use xlink:href="#path-3"></use>
                </mask>
                <g id="Clip-9"></g>
                <path d="M203.549351,17.8431892 C203.549351,16.013027 203.549351,16.013027 202.236486,15.7320811 C201.673703,15.6375405 201.532784,15.4502432 201.532784,15.0747568 C201.532784,14.7929189 201.626432,14.6528919 201.954649,14.511973 C203.549351,13.6673514 204.394865,13.0572973 205.474054,11.7435405 C205.848649,11.2271351 205.990459,11.1325946 206.224135,11.1325946 C206.646892,11.1325946 206.835081,11.4144324 206.835081,12.0717568 C206.835081,12.3535946 206.835081,12.1654054 206.646892,13.9482973 L206.646892,14.511973 C206.646892,14.7929189 206.740541,14.9811081 206.92873,14.9811081 C207.022378,14.9811081 207.163297,14.8401892 207.350595,14.6056216 C207.397865,14.5583514 207.445135,14.4647027 208.148838,13.7137297 C209.509865,12.399973 210.682703,11.7899189 211.855541,11.7899189 C213.310216,11.7899189 214.343027,12.8691081 214.343027,14.3710541 C214.343027,15.5438919 213.639324,16.3412432 212.559243,16.3412432 C212.04373,16.3412432 211.668243,16.2012162 211.011811,15.7320811 C210.260838,15.2620541 209.838081,15.122027 209.321676,15.122027 C207.81973,15.122027 206.975108,16.5294324 206.975108,19.1105676 L206.975108,27.3694865 C206.975108,30.1379189 207.022378,30.1842973 209.790811,30.4661351 C211.386405,30.6534324 211.668243,30.747973 211.668243,31.3107568 C211.668243,31.9208108 211.340027,32.0144595 209.321676,32.0144595 L207.445135,31.9671892 L205.051297,31.9671892 C204.300324,32.0144595 204.113027,32.0144595 202.141946,32.1553784 C201.954649,32.2017568 201.673703,32.2017568 201.438243,32.2017568 C200.92273,32.2017568 200.640892,32.0144595 200.640892,31.638973 C200.640892,31.3107568 200.829081,31.2162162 201.485514,30.9352703 C203.549351,30.1379189 203.503865,30.2315676 203.549351,27.6977027 L203.549351,17.8431892" id="Fill-8" fill="#50504D" mask="url(#mask-4)"></path>
                <path d="M230.202649,14.4183243 C230.202649,15.1684054 229.498054,15.8721081 228.701595,15.8721081 C228.326108,15.8721081 227.950622,15.7320811 227.527865,15.4502432 C227.434216,15.3565946 228.043378,15.8257297 225.604054,13.9482973 C225.134027,13.5264324 224.289405,13.2918649 223.492054,13.2918649 C219.83173,13.2918649 217.297865,16.7167297 217.297865,21.5035135 C217.297865,26.7121622 220.535432,30.4188649 224.993108,30.4188649 C226.588703,30.4188649 227.575135,30.1379189 229.358027,29.1523784 C229.545324,29.0587297 229.686243,29.0114595 229.827162,29.0114595 C229.920811,29.0114595 230.06173,29.0587297 230.155378,29.1523784 C230.342676,29.2932973 230.437216,29.4805946 230.437216,29.6215135 C230.437216,29.9497297 229.310757,30.888 227.762432,31.6862432 C226.355027,32.4835946 224.477595,32.9527297 223.022919,32.9527297 C217.907919,32.9527297 213.778459,28.2132162 213.778459,22.3945135 C213.778459,16.8112703 218.752541,11.7435405 224.149378,11.7435405 C227.575135,11.7435405 230.202649,12.9163784 230.202649,14.4183243" id="Fill-10" fill="#50504D" mask="url(#mask-4)"></path>
                <path d="M237.850622,13.3855135 C237.850622,14.8865676 237.850622,14.8865676 238.17973,14.8865676 C238.273378,14.8865676 238.367027,14.8401892 238.696135,14.6056216 C240.572676,12.8691081 242.543757,11.9781081 244.654865,11.9781081 C248.597027,11.9781081 250.849946,14.2301351 250.849946,18.2650541 L250.849946,27.3694865 C250.849946,29.4805946 251.178162,30.0906486 252.679216,30.4661351 C253.430189,30.7007027 253.712027,30.888 253.712027,31.2634865 C253.712027,31.7798919 253.382919,32.0144595 252.726486,32.0144595 C252.351,32.0144595 251.647297,31.9671892 250.943595,31.9671892 C250.474459,31.9208108 250.051703,31.9208108 249.817135,31.9208108 L248.221541,31.9208108 C247.987865,31.9208108 247.424189,31.9671892 246.766865,32.0144595 C246.345,32.0617297 245.874973,32.0617297 245.687676,32.0617297 C244.749405,32.0617297 244.326649,31.8271622 244.326649,31.3107568 C244.326649,30.8416216 244.654865,30.6534324 245.687676,30.4661351 C247.142351,30.3252162 247.424189,29.8560811 247.424189,27.4631351 L247.424189,20.4707027 C247.424189,18.125027 247.142351,16.8576486 246.485919,15.8721081 C245.781324,14.8401892 244.467568,14.2301351 242.966514,14.2301351 C241.699135,14.2301351 240.338108,14.7929189 239.306189,15.6848108 C238.227,16.5758108 237.850622,17.6558919 237.850622,19.767 L237.850622,26.5712432 C237.850622,29.246027 238.086081,29.8560811 238.930703,30.1379189 C239.258919,30.2315676 239.212541,30.2315676 241.183622,30.4661351 C241.604595,30.5125135 241.840054,30.8416216 241.840054,31.2162162 C241.840054,31.6862432 241.370919,32.0144595 240.667216,32.0144595 C240.479919,32.0144595 239.493486,31.9671892 238.884324,31.9671892 C238.086081,31.9208108 237.522405,31.9208108 237.194189,31.9208108 L235.458568,31.9208108 C234.754865,31.9208108 234.143919,31.9671892 233.628405,32.0144595 C233.112,32.0617297 232.549216,32.1081081 232.408297,32.1081081 C231.798243,32.1081081 231.516405,31.8735405 231.516405,31.3571351 C231.516405,30.8416216 231.657324,30.7943514 232.689243,30.6061622 C233.675676,30.3252162 234.003892,30.1842973 234.238459,29.6687838 C234.332108,29.4805946 234.379378,29.1051081 234.379378,28.5887027 L234.379378,27.2749459 L234.425757,26.5712432 L234.425757,7.66045946 C234.425757,6.91037838 234.332108,5.31478378 234.238459,4.75110811 C234.143919,3.67191892 234.096649,3.67191892 232.313757,3.01548649 C231.704595,2.78091892 231.516405,2.59272973 231.516405,2.26451351 C231.516405,1.93540541 231.704595,1.79537838 232.126459,1.74810811 C233.722054,1.41989189 235.504946,0.856216216 236.771432,0.246162162 C237.006892,0.152513514 237.194189,0.106135135 237.287838,0.106135135 C237.476027,0.106135135 237.710595,0.246162162 237.757865,0.340702703 C237.850622,0.57527027 237.850622,0.57527027 237.850622,2.92094595 L237.850622,13.3855135" id="Fill-11" fill="#50504D" mask="url(#mask-4)"></path>
                <path d="M20.6767297,13.3846216 C21.4758649,14.5173243 21.6426486,16.7809459 21.6426486,18.2793243 C21.6426486,21.4428649 21.6096486,23.4407027 21.6096486,24.8721892 C21.6096486,30.566027 21.6096486,30.4661351 23.6404865,30.9994865 C24.1399459,31.1323784 24.8061892,31.1653784 24.8061892,31.5319459 C24.8061892,31.8646216 24.4066216,31.9315135 23.8732703,31.9315135 C23.3408108,31.9315135 20.7106216,31.7647297 19.4789189,31.7647297 C18.2463243,31.7647297 15.4493514,31.9315135 14.85,31.9315135 C14.0178649,31.9315135 13.6512973,31.8976216 13.6512973,31.6318378 C13.6512973,31.1983784 14.5842162,31.2322703 15.3494595,30.9655946 C16.2814865,30.6329189 16.8817297,30.3992432 17.0476216,29.2005405 C17.2144054,27.9688378 17.2144054,26.2046757 17.2144054,22.7744595 C17.2144054,18.546 17.2474054,16.0487027 16.2484865,14.883 C15.2495676,13.7181892 14.2176486,13.3846216 12.4864865,13.3846216 C10.7214324,13.3846216 9.19005405,14.6172162 8.6237027,15.6161351 C7.82456757,17.0146216 7.79156757,19.9444865 7.79156757,22.7084595 C7.79156757,26.4374595 7.82456757,28.2016216 8.09124324,29.4672162 C8.22413514,30.1664595 8.79048649,30.533027 9.48972973,30.8327027 C10.0221892,31.0654865 11.0541081,31.1653784 11.0541081,31.5649459 C11.0541081,31.9645135 10.4547568,31.9315135 9.98918919,31.9315135 C9.52272973,31.9315135 6.29318919,31.7647297 5.46016216,31.7647297 C4.62802703,31.7647297 1.13181081,31.9315135 0.799135135,31.9315135 C0.199783784,31.9315135 0,31.8976216 0,31.5979459 C0,31.1983784 0.699243243,31.1323784 1.49837838,30.9325946 C2.5302973,30.6659189 3.06364865,30.4991351 3.22954054,29.4672162 C3.46321622,27.9019459 3.49621622,25.2048649 3.49621622,21.0432973 C3.49621622,18.1794324 3.49621622,16.3813784 3.06364865,15.815027 C2.86297297,15.5492432 2.39740541,15.3164595 1.83105405,15.2495676 C1.09881081,15.1496757 0.665351351,15.1496757 0.665351351,14.85 C0.665351351,14.5833243 0.799135135,14.5173243 0.998918919,14.4504324 C2.99675676,13.7841892 4.82781081,12.5194865 6.72575676,10.8873243 C6.89254054,10.7544324 7.19221622,10.5216486 7.425,10.5216486 C7.79156757,10.5216486 7.85756757,10.9542162 7.85756757,11.4875676 L7.85756757,13.7181892 C7.85756757,14.0178649 7.92445946,14.3505405 8.19113514,14.3505405 C8.99027027,14.3505405 10.8882162,10.7214324 15.2495676,10.7214324 C17.9805405,10.7214324 19.5788108,11.8532432 20.6767297,13.3846216" id="Fill-12" fill="#CF232A" mask="url(#mask-4)"></path>
            </g>
            <path d="M35.1271622,21.6096486 C34.4939189,21.6096486 29.4663243,24.0730541 29.4663243,27.4693784 C29.4663243,29.3673243 30.9317027,30.1334595 32.0305135,30.1334595 C33.1953243,30.1334595 34.0943514,29.4672162 34.8604865,28.3684054 C35.7595135,27.0698108 35.8594054,24.8391892 35.8594054,22.5416757 C35.8594054,21.8424324 35.6257297,21.6096486 35.1271622,21.6096486 Z M35.4598378,29.0676486 C34.394027,30.599027 32.3631892,32.3970811 29.4993243,32.3970811 C26.6693514,32.3970811 25.5375405,30.1334595 25.5375405,28.5681892 C25.5375405,25.1058649 29.0337568,23.4407027 31.7308378,22.0752162 C36.0591892,19.9114865 36.1251892,20.4769459 36.1251892,15.9158108 C36.1251892,14.5833243 36.1920811,13.5514054 35.8924054,12.9520541 C35.2930541,11.7533514 34.4939189,11.5535676 33.3282162,11.5535676 C30.2654595,11.5535676 29.2665405,14.3835405 28.6002973,16.5811622 C28.3006216,17.5140811 27.1019189,18.0465405 26.2697838,18.0465405 C25.8033243,18.0465405 25.137973,17.7138649 25.137973,16.9477297 C25.137973,14.85 28.5004054,10.4547568 34.2941351,10.4547568 C37.0581081,10.4547568 40.2546486,11.0211081 40.2546486,14.5503243 C40.2546486,17.4471892 39.8880811,25.2048649 39.8880811,26.6702432 C39.8880811,28.1356216 40.1877568,29.5341081 41.5862432,29.5341081 C43.0516216,29.5341081 43.8507568,28.3015135 44.1504324,28.3015135 C44.3502162,28.3015135 44.4162162,28.5012973 44.4162162,28.6680811 C44.4162162,29.5002162 42.6520541,32.0644054 39.6882973,32.0644054 C37.6904595,32.0644054 36.3918649,30.7328108 35.9262973,29.2674324 C35.8924054,29.1006486 35.8255135,28.9677568 35.6596216,28.9677568 C35.5597297,28.9677568 35.4928378,29.0007568 35.4598378,29.0676486 Z" id="Fill-14" fill="#CF232A"></path>
            <path d="M50.9395135,7.69167568 C50.9395135,8.5907027 50.8396216,9.9882973 50.8396216,10.9212162 C50.8396216,11.3867838 51.0394054,11.6204595 51.3720811,11.6204595 L61.5940541,11.2208919 C62.559973,11.1878919 62.6598649,11.4206757 62.6598649,12.4195946 C62.6598649,14.3835405 62.592973,16.2484865 62.526973,25.5384324 C62.526973,27.8359459 63.6257838,29.4342162 66.7884324,29.4342162 C68.5534865,29.4342162 70.3515405,28.6020811 71.0837838,27.2695946 C71.6171351,26.3036757 71.6501351,23.4407027 71.6501351,21.0432973 C71.6501351,16.0487027 71.6501351,13.6182973 71.0837838,13.1188378 C70.6182162,12.6853784 69.8850811,12.6193784 69.0199459,12.5194865 C68.054027,12.3857027 67.6874595,12.3857027 67.6874595,12.053027 C67.6874595,11.7533514 67.8212432,11.6204595 68.4865946,11.5865676 L75.2462432,11.4206757 C76.0114865,11.3867838 76.2112703,11.6534595 76.2112703,12.2867027 C76.2112703,14.0178649 75.8785946,19.6109189 75.8785946,24.0070541 C75.8785946,26.6702432 75.9115946,28.6350811 76.2451622,29.2344324 C76.4779459,29.667 76.9444054,29.7998919 77.9094324,29.7998919 C78.2421081,29.7998919 79.0082432,29.7338919 79.208027,29.7338919 C79.4078108,29.7338919 79.5407027,29.8667838 79.5407027,30.0665676 C79.5407027,30.2993514 79.3079189,30.4331351 78.7085676,30.533027 C77.8095405,30.6989189 74.1804324,31.5979459 72.6151622,32.2641892 C72.3493784,32.3640811 71.9168108,32.5308649 71.816027,32.5308649 C71.4833514,32.5308649 71.3834595,32.2971892 71.3834595,31.7647297 C71.3834595,31.0654865 71.4503514,30.4991351 71.4503514,29.5671081 C71.4503514,29.2005405 71.3834595,28.8348649 71.0507838,28.8348649 C70.5174324,28.8348649 67.9871351,32.3640811 63.9254595,32.3640811 C61.4941622,32.3640811 58.0987297,30.9655946 58.0987297,26.2376757 C58.0987297,23.6065946 58.2646216,15.8819189 58.2646216,14.9168919 C58.2646216,13.0189459 58.1977297,13.0189459 54.4357297,13.0189459 C53.2031351,13.0189459 52.2042162,13.0519459 51.504973,13.0849459 C50.8396216,13.1188378 50.7397297,13.1848378 50.6728378,14.2836486 C50.5729459,15.9488108 50.5060541,18.4791081 50.5060541,23.9731622 C50.5060541,26.2706757 50.4730541,27.6691622 50.9725135,28.6020811 C51.438973,29.4342162 52.1382162,29.7338919 53.3369189,29.7338919 C54.9012973,29.7338919 56.5994595,28.9008649 56.7662432,28.9008649 C56.933027,28.9008649 57.0329189,29.0007568 57.0329189,29.1345405 C57.0329189,29.5671081 53.9023784,32.3640811 50.5729459,32.3640811 C46.9768378,32.3640811 46.1777027,29.7 46.1777027,26.0378919 C46.1777027,24.2059459 46.4104865,15.6161351 46.4104865,15.0167838 C46.4104865,14.4174324 46.3774865,13.7181892 45.4115676,13.7181892 L43.9470811,13.7181892 C43.7472973,13.7181892 43.5805135,13.6512973 43.5805135,13.4845135 C43.5805135,13.0519459 43.9800811,13.0189459 44.6793243,12.5194865 C46.2775946,11.3867838 48.642,9.52272973 49.7738108,7.82456757 C50.0404865,7.425 50.1733784,7.09143243 50.4730541,7.09143243 C50.7727297,7.09143243 50.9395135,7.29121622 50.9395135,7.69167568" id="Fill-15" fill="#CF232A"></path>
            <path d="M80.4727297,15.1826757 C80.1730541,15.1496757 79.9402703,15.0827838 79.9402703,14.9168919 C79.9402703,14.6172162 80.2399459,14.5173243 80.8392973,14.2836486 C81.5385405,14.0178649 84.3355135,12.4525946 85.6011081,11.2208919 C86.2334595,10.5876486 86.5001351,10.5216486 86.699027,10.5216486 C86.9327027,10.5216486 87.1654865,10.6884324 87.1654865,11.3207838 L87.1654865,13.7181892 C87.1654865,14.1507568 87.2983784,14.2176486 87.4321622,14.2176486 C88.0984054,14.2176486 89.7296757,10.6545405 92.8923243,10.6545405 C94.6912703,10.6545405 95.8560811,11.9531351 95.8560811,13.5184054 C95.8560811,15.1166757 94.6573784,16.1155946 93.2927838,16.1155946 C91.4947297,16.1155946 91.1281622,14.2506486 89.4968919,14.2506486 C88.6638649,14.2506486 88.3311892,14.85 88.0315135,15.1826757 C87.1993784,16.1155946 87.1324865,18.7787838 87.1324865,22.6745676 C87.1324865,26.3036757 87.0655946,29.1345405 87.5320541,29.8337838 C88.0645135,30.6659189 90.1292432,30.9655946 90.7615946,31.0984865 C91.2949459,31.1983784 91.7275135,31.1653784 91.7275135,31.5979459 C91.7275135,31.9315135 91.0942703,31.9315135 90.7285946,31.9315135 C90.362027,31.9315135 86.7998108,31.7647297 85.3014324,31.7647297 C83.8030541,31.7647297 80.5726216,31.9315135 80.1730541,31.9315135 C79.7734865,31.9315135 79.208027,31.8976216 79.208027,31.5979459 C79.208027,31.2322703 79.7734865,31.1653784 80.2738378,31.0324865 C80.6725135,30.9325946 82.1708919,30.6329189 82.4705676,29.7998919 C82.7702432,28.9677568 82.8371351,27.2027027 82.8371351,21.5427568 C82.8371351,15.8819189 82.7372432,15.3164595 80.4727297,15.1826757" id="Fill-16" fill="#CF232A"></path>
            <path d="M105.246811,11.4875676 C101.550811,11.4875676 99.6858649,14.6832162 99.6858649,16.3153784 C99.6858649,16.9147297 100.352108,17.0806216 102.61573,17.0806216 C105.279811,17.0806216 109.008811,16.8808378 109.008811,14.4504324 C109.008811,13.5184054 108.043784,11.4875676 105.246811,11.4875676 Z M111.339324,18.4791081 C108.443351,18.4791081 104.880243,18.2133243 100.684784,18.2133243 C99.585973,18.2133243 99.1195135,18.2463243 99.1195135,20.2771622 C99.1195135,25.1388649 101.251135,29.4012162 106.711297,29.4012162 C110.806865,29.4012162 112.604919,26.5373514 112.937595,26.5373514 C113.20427,26.5373514 113.271162,26.6702432 113.271162,26.837027 C113.271162,27.6691622 109.375378,32.3640811 104.247892,32.3640811 C98.6869459,32.3640811 94.3585946,28.3015135 94.3585946,21.8754324 C94.3585946,15.1166757 99.4860811,10.4547568 105.479595,10.4547568 C109.94173,10.4547568 113.337162,13.8180811 113.337162,17.2474054 C113.337162,18.4791081 112.671811,18.4791081 111.339324,18.4791081 Z" id="Fill-17" fill="#CF232A"></path>
        </g>
    </g>
</svg>