<svg id="Layer_1" xmlns="http://www.w3.org/2000/svg" width="177.1" height="50" enable-background="new 0 0 177.1 50"><g fill="#FFF"><path d="M.7 18.4c.1.1.3.1.6.1.1 0 .8 0 1.6-.1.7 0 1.5-.1 1.8-.1.3 0 1 0 1.7.1.7 0 1.4.1 1.6.1h.7c.1 0 .1-.1.2-.1.1-.1.1-.2.1-.3 0-.1 0-.1-.1-.2s-.2-.1-.2-.2c-.1-.1-.3-.1-.5-.2-.2 0-.3-.1-.4-.1L7 17c-.2-.1-.3-.3-.3-.5-.2-.9-.2-2.2-.2-4.9 0-1 0-2 .1-2.9.1-.9.2-1.7.5-2.2.2-.3.6-.7 1-1 .5-.3 1-.5 1.7-.5.6 0 1.1.1 1.5.2.4.2.8.4 1.1.8.3.4.5.9.6 1.8.1.8.1 1.9.1 3.3v.6c0 2.5 0 3.8-.1 4.7-.1.4-.2.6-.4.8-.2.2-.4.3-.8.4-.3.1-.6.1-.8.2-.1 0-.2.1-.3.1l-.1.1c0 .1-.1.1-.1.2s0 .2.1.2c.1.1.2.1.4.1h.6c.2 0 .8 0 1.5-.1.7 0 1.4-.1 1.9-.1.4 0 1.1 0 1.8.1.6 0 1.2.1 1.4.1.2 0 .4 0 .5-.1.1 0 .2-.1.2-.1.1-.1.1-.2.1-.2 0-.1-.1-.2-.1-.3-.1-.1-.3-.1-.4-.2-.1 0-.3-.1-.4-.1-.4-.1-.6-.2-.8-.3l-.3-.3c-.1-.2-.2-.6-.2-1.2v-2.6-4.8c0-.6 0-1.2-.1-1.9s-.3-1.3-.6-1.8c-.4-.6-.9-1.1-1.6-1.4-.7-.4-1.5-.6-2.5-.6-1.8 0-3 .7-3.9 1.4-.4.3-.7.7-1 .9l-.3.3c-.1.1-.1.1-.2.1v-.1-1.8c0-.2 0-.4-.1-.5 0-.1-.1-.2-.1-.2-.1-.2-.2-.2-.3-.2-.1 0-.2.1-.4.1l-.2.2C4.1 4 2.8 4.9 1.3 5.4c-.1 0-.2.1-.2.1-.1.1-.1.2-.1.3 0 .1 0 .2.1.3.1.1.2.1.4.1.1 0 .3 0 .5.1.4 0 .7.2.8.4 0 0 .1.1.1.3.1.6.1 1.7.1 3.3 0 3 0 5-.2 6.1 0 .2-.1.3-.1.4-.1.2-.2.2-.4.3-.2.1-.4.1-.7.2-.3.1-.6.1-.8.2-.1 0-.2.1-.3.1-.1.1-.1.2-.1.3 0 .1 0 .1.1.2.1.2.1.2.2.3zM19.2 8.1c.2.2.4.2.6.2.3 0 .7-.1 1.1-.3.3-.2.6-.5.8-.9.2-.8.5-1.7 1-2.4.3-.3.6-.6.9-.8.4-.2.9-.3 1.4-.3.4 0 .8 0 1 .2.3.1.5.4.7.8.1.3.2.7.2 1.3v.8c0 .8 0 1.4-.1 1.9 0 .3-.1.6-.2.8-.2.3-.4.5-.9.7-.5.3-1.1.5-2 1-1 .5-2.1 1.1-3 1.8-.9.8-1.6 1.7-1.6 3.1 0 .6.2 1.3.7 1.9.5.6 1.3 1 2.3 1 1.1 0 2-.3 2.7-.8.7-.5 1.3-1.1 1.7-1.7v.1c.2.6.5 1.1 1 1.5.5.4 1.1.7 1.9.7 1.1 0 2-.5 2.6-1.1.3-.3.5-.6.7-.9.2-.3.3-.5.3-.7 0-.1 0-.2-.1-.3l-.1-.1h-.2c-.1 0-.1 0-.2.1s-.2.1-.3.2c-.3.3-.8.6-1.4.6-.2 0-.4-.1-.5-.1-.2-.1-.3-.4-.4-.7-.1-.3-.1-.7-.1-1.1 0-.5.1-2.2.1-4 .1-1.8.1-3.8.1-4.8 0-.7-.2-1.2-.4-1.6-.4-.6-1.1-1-1.8-1.2-.7-.2-1.5-.3-2.3-.3-2.2 0-3.9.8-5 1.8-.6.5-1 1.1-1.3 1.6-.3.5-.5 1-.5 1.5.3.1.4.3.6.5zm6.8 7.5c-.3.4-.6.7-.9.9-.3.2-.7.3-1.1.3-.4 0-.8-.1-1.1-.4-.3-.3-.6-.7-.6-1.4 0-.6.2-1.1.6-1.6.5-.7 1.3-1.4 2-1.8.4-.2.7-.4.9-.5.1-.1.2-.1.3-.1h.4c.1 0 .1.1.1.1 0 .1.1.2.1.4 0 .8 0 1.7-.1 2.4-.1.6-.3 1.3-.6 1.7zM72.1 16.6c1.3 1.4 3.2 2.1 5.2 2.1 1.9 0 3.6-.9 4.8-1.8.6-.5 1.1-1 1.4-1.4.2-.2.3-.4.4-.6 0-.1.1-.2.1-.2v-.2c0-.1 0-.2-.1-.3-.1-.1-.2-.1-.3-.1h-.1c-.1 0-.1.1-.2.2-.5.5-1.8 1.9-4.2 1.9-2 0-3.3-.8-4.1-1.9-.9-1.2-1.2-2.8-1.2-4.6 0-.4 0-.6.1-.8 0-.1.1-.2.1-.3.1-.1.1-.1.3-.2h.5c3.1 0 5.7.2 7.8.2.5 0 .9 0 1.2-.1 0-.1.2-.2.2-.4.1-.2.1-.3.1-.6 0-1.3-.6-2.6-1.7-3.5-1.1-1-2.5-1.6-4.2-1.6-2.2 0-4.3.9-5.8 2.4S70 8.4 70 10.9c0 2.4.8 4.4 2.1 5.7zm6-13.1c1 0 1.6.4 2 .8.4.4.6.9.6 1.2 0 .4-.1.7-.4.9-.4.4-1 .6-1.8.7-.7.1-1.6.1-2.3.1-.8 0-1.4 0-1.7-.1-.1 0-.2-.1-.3-.1 0 0-.1-.1-.1-.2 0-.5.3-1.4 1-2.1.7-.6 1.7-1.2 3-1.2zM59.1 6.2h.2c.4 0 .7.1.9.2.2.1.3.2.4.3.2.3.3.7.3 1.3 0 .6.1 1.5.1 2.7 0 2.1 0 3.4-.1 4.3 0 .9-.1 1.4-.2 1.6 0 .1-.1.2-.3.3-.2.1-.4.3-.7.3-.2.1-.5.1-.6.2-.2 0-.4.1-.5.1-.1 0-.2.1-.2.1-.1.1-.1.2-.1.3 0 .1.1.2.1.3.1.1.2.1.4.1h.4c.2 0 .8 0 1.6-.1.8 0 1.6-.1 2.2-.1.5 0 1.5 0 2.3.1.8 0 1.5.1 1.7.1h.5c.1 0 .2 0 .2-.1.1-.1.1-.2.1-.3 0-.1 0-.2-.1-.3-.1-.1-.2-.1-.3-.2-.1 0-.3 0-.4-.1-.2-.1-.7-.1-1.2-.3-.2-.1-.5-.2-.7-.3-.2-.1-.3-.2-.4-.3 0-.1-.1-.2-.1-.4-.1-.6-.1-1.7-.1-3.1v-1.7c0-1.4 0-2.6.1-3.5 0-.5.1-.8.2-1.2.1-.3.2-.5.3-.7.1-.1.2-.3.4-.4.1-.1.3-.2.6-.2s.5.1.7.2c.3.2.5.5.9.7.3.2.7.5 1.2.5s1-.2 1.4-.6c.4-.4.6-.9.6-1.5s-.2-1.2-.6-1.6c-.4-.4-1-.7-1.7-.7-1.2 0-2.1.7-2.8 1.3-.3.3-.6.7-.8.9l-.3.3-.1.1V3.2c0-.2 0-.4-.1-.6-.1-.1-.2-.2-.4-.2-.1 0-.2 0-.4.1-.1.1-.3.2-.6.5-.4.4-1.2.9-1.9 1.4-.3.2-.7.4-.9.5-.3.1-.5.3-.6.3-.2.1-.4.1-.5.2-.1 0-.1.1-.2.2 0 .1-.1.1-.1.2s0 .1.1.2c0 .1.1.1.1.2z"/><path d="M32.5 5.1h1.3c.2 0 .3 0 .3.1.1.1.2.1.2.3V6c0 .2 0 1.9-.1 3.7 0 1.8-.1 3.7-.1 4.4 0 1.3.1 2.5.6 3.4.2.4.6.8 1 1 .5.2 1 .4 1.7.4 1.3 0 2.5-.5 3.3-1.1.4-.3.8-.6 1.1-.8l.3-.3.1-.1v-.2c0-.1 0-.2-.1-.2-.1-.1-.2-.1-.2-.1h-.1c-.1 0-.2.1-.3.1-.5.2-1.3.5-2.1.5-.4 0-.7-.1-1-.2-.2-.1-.4-.3-.6-.6-.1-.3-.2-.6-.3-1.1v-1.7-.6c0-4 0-5.9.1-7.1v-.5-.2s0-.1.1-.1h4c.3 0 .5 0 .6.1.1 0 .2.1.2.1.4.1.5.2.5.4v.7c0 .7-.1 6.3-.1 8.3 0 1.8.6 2.9 1.5 3.6.9.7 2 1 2.9 1 1.5 0 2.8-.7 3.7-1.3.4-.3.8-.7 1.1-.9.1-.1.3-.2.3-.3l.1-.1h.1l.1.1V18.2c0 .2 0 .4.1.5 0 .1.1.1.2.2.1 0 .1.1.2.1h.1c.1 0 .4-.1.5-.2 1.1-.5 3.8-1.1 4.4-1.3.2 0 .4-.1.5-.2.1 0 .1-.1.2-.1 0-.1.1-.1.1-.2s0-.2-.1-.3c-.1-.1-.2-.1-.3-.1h-.9c-.3 0-.6 0-.8-.1-.2-.1-.3-.1-.3-.3 0-.1-.1-.2-.1-.5-.1-.7-.1-1.8-.1-3.3 0-3.2.2-7.3.2-8.6 0-.2 0-.4-.2-.6-.1-.1-.2-.1-.3-.2h-.3-.1l-4.9.1c-.3 0-.4 0-.5.1-.1 0-.1.1-.1.2v.2c0 .1 0 .2.1.3.1.1.2.1.4.2.2 0 .4.1.6.1.3 0 .6.1.8.1.2.1.4.1.6.3.1 0 .1.2.2.5.1.4.1 1 .1 1.9v3.3c0 .9 0 1.8-.1 2.7 0 .4-.1.8-.1 1.1-.1.3-.1.6-.2.7-.2.5-.7.8-1.2 1.1-.5.3-1.2.4-1.8.4-1.1 0-1.9-.3-2.3-.7-.5-.5-.6-1.1-.6-1.9 0-6.8.1-8.1.1-9.6v-.4c0-.1 0-.2-.1-.3l-.3-.3c-.4-.1-.5-.1-.7-.1h-.1l-7.5.3c-.1 0-.1 0-.2-.1 0 0-.1-.1-.1-.3 0-.7.1-1.7.1-2.4 0-.2 0-.3-.1-.4 0 0-.2-.1-.3-.1-.1 0-.2 0-.2.1-.1.1-.2.1-.2.2-.1.1-.1.2-.2.3-.8 1.2-2.5 2.6-3.7 3.4-.2.2-.4.3-.6.4l-.2.2c-.1.1-.1.2-.1.3v.2c.1-.1.2 0 .2 0zM1.2 30.4zM40.7 48.2c-.2-.1-.3-.1-.5-.2-.2 0-.4-.1-.5-.1-.5-.1-.9-.2-1.2-.4-.2-.1-.3-.2-.4-.4-.2-.3-.3-.8-.3-1.7v-3.8-7c0-.8 0-1.8-.2-2.8-.2-1-.4-1.9-.9-2.5-.6-.8-1.3-1.6-2.3-2.1-1-.5-2.1-.8-3.6-.8-3.7 0-5.8 2.5-6.9 3.4l-1 1.2c-.2-.6-.4-1.2-.7-1.6-.6-.8-1.3-1.6-2.3-2.1-1-.5-2.1-.8-3.6-.8-2.4 0-4.1 1-5.3 2-.6.5-1.1 1-1.5 1.3-.2.2-.3.3-.5.4-.1.1-.2.1-.2.1s0-.1-.1-.1V27.5c0-.3 0-.6-.1-.8 0-.1-.1-.2-.2-.3-.1-.1-.2-.1-.4-.1s-.4.1-.5.2c-.1.1-.3.2-.4.3-2 1.7-3.9 3-6 3.7-.1 0-.2.1-.3.2-.1.1-.1.1-.1.2v.4c.1.1.1.2.2.2.1.1.3.1.5.1s.4.1.7.1c.3 0 .5.1.7.2.2.1.3.2.4.3.1.1.2.3.2.6.1.4.1 1.1.2 1.9v2.9c0 4.4 0 7.2-.3 8.9 0 .3-.1.4-.2.6-.1.2-.3.3-.5.5-.2.1-.6.2-1 .3-.4.1-.8.2-1.1.3-.2.1-.3.1-.4.2-.1 0-.1.1-.1.2v.1c0 .1 0 .3.1.3 0 .1.1.1.2.2s.2.1.3.1h1.3c1.2 0 3.5-.1 4.1-.1.4 0 1.5 0 2.5.1 1 0 2 .1 2.3.1h.2c.2 0 .5 0 .7-.1.1 0 .2-.1.3-.2.1-.1.1-.2.1-.4 0-.1 0-.2-.1-.3-.1-.1-.2-.2-.4-.3-.2-.1-.5-.2-.7-.2-.2-.1-.5-.1-.6-.2-.4-.2-.7-.3-.9-.5-.2-.2-.4-.4-.4-.7-.3-1.3-.3-3.2-.3-7.1 0-1.5 0-3 .1-4.3.1-1.3.3-2.4.7-3.1.3-.5.8-1.1 1.5-1.5.7-.4 1.5-.7 2.4-.7.9 0 1.6.1 2.2.3.6.2 1.1.6 1.6 1.2.4.5.7 1.4.8 2.6.1 1.2.1 2.8.1 4.8v.8c0 3.6 0 5.5-.2 6.8 0 .3-.1.5-.2.7-.1.3-.3.4-.5.6-.2.1-.5.3-.9.4l-1.2.3c-.2 0-.3.1-.5.2-.1 0-.1.1-.2.2s-.1.2-.1.3c0 .1.1.3.1.3.1.1.2.1.2.1.3.1.6.1 1.1.1.3 0 1.2 0 2.2-.1 1 0 2-.1 2.7-.1.6 0 1.7 0 2.6.1.9 0 1.8.1 2.1.1.3 0 .6 0 .8-.1.1 0 .2-.1.3-.2.1-.1.1-.2.1-.4 0-.1 0-.2-.1-.2l-.3-.3c-.2-.1-.3-.1-.5-.2-.2 0-.4-.1-.5-.1-.5-.1-.9-.2-1.2-.4-.2-.1-.3-.2-.4-.4-.2-.3-.3-.8-.3-1.7v-3.8-7c0-.6 0-1.3-.1-2.1l1.4-1.4c.7-.8 2-1.5 3.3-1.5.9 0 1.6.1 2.2.3.6.2 1.1.6 1.6 1.2.4.5.7 1.4.8 2.6.1 1.2.1 2.8.1 4.8v.8c0 3.6 0 5.5-.2 6.8 0 .3-.1.5-.2.7-.1.3-.3.4-.5.6-.2.1-.5.3-.9.4l-1.2.3c-.2 0-.3.1-.5.2-.1 0-.1.1-.2.2s-.1.2-.1.3c0 .1.1.3.1.3.1.1.2.1.2.1.3.1.6.1 1.1.1.3 0 1.2 0 2.2-.1 1 0 2-.1 2.7-.1.6 0 1.7 0 2.6.1.9 0 1.8.1 2.1.1.3 0 .6 0 .8-.1.1 0 .2-.1.3-.2.1-.1.1-.2.1-.4 0-.1 0-.2-.1-.2.1-.2 0-.3-.1-.3zM157.2 47.9c-.4-.1-.7-.1-.9-.2-.4-.2-.7-.5-.9-.9-.1-.2-.2-.5-.2-.9s-.1-1-.1-1.7V15.4h-1.4l-7.1 2.7.6 1.2.2-.1c.7-.2 1.2-.4 1.6-.4.4 0 .6.1.8.3.2.2.4.5.5 1v.3c.1 1.1.1 4.3.1 6.4L150 44c0 .7 0 1.2-.1 1.6-.1.4-.1.8-.2 1-.2.4-.5.7-.8.9-.2.1-.4.2-.8.2-.3 0-.8.1-1.3.1h-.2v1.3h12.2V48h-.2c-.6 0-1-.1-1.4-.1zM118.1 23.5c.8 0 1.4-.3 1.9-.8s.8-1.1.8-1.8-.3-1.3-.8-1.8-1.2-.8-1.9-.8c-.8 0-1.4.3-2 .8-.5.5-.8 1.1-.8 1.8s.3 1.3.8 1.8 1.2.8 2 .8zM124.8 48.3c-.2-.1-.5-.2-.7-.2-.2-.1-.5-.1-.6-.2-.4-.2-.7-.3-.9-.5-.2-.2-.4-.4-.4-.8-.3-1.3-.3-3.2-.3-7.1 0-2.9.1-9.2.1-9.5v-2.4c0-.3 0-.6-.1-.8 0-.1-.1-.2-.2-.3-.1-.1-.2-.1-.4-.1s-.4.1-.5.2c-.1.1-.3.2-.4.3-2 1.7-3.9 3-6 3.7-.1 0-.2.1-.3.2-.1.1-.1.1-.1.2v.4c.1.1.1.2.2.2.1.1.3.1.5.1s.4.1.7.1c.3 0 .5.1.7.2.2.1.3.2.4.3.1.1.2.3.2.6.1.4.1 1.1.2 1.9v2.9c0 4.4 0 7.2-.3 8.9 0 .3-.1.4-.2.6-.1.2-.3.3-.5.5-.2.1-.6.2-1 .3-.4.1-.8.2-1.1.3-.2.1-.3.1-.4.2-.1 0-.1.1-.1.2s-.1.2-.1.2c0 .1 0 .2.1.3 0 .1.1.1.2.2s.2.1.3.1h1.3c1.2 0 3.5-.1 4.1-.1.4 0 1.5 0 2.5.1 1 0 2 .1 2.3.1h.2c.2 0 .5 0 .7-.1.1 0 .2-.1.3-.2.1-.1.1-.2.1-.4 0-.1 0-.2-.1-.3-.1-.1-.2-.2-.4-.3zM175.7 39.8c-.9-1-2.3-1.9-4.1-2.7l-3.8-1.6c-1.6-.7-2.7-1.4-3.2-1.9-.5-.6-.8-1.2-.8-2.1 0-.3.1-.6.3-.9.2-.3.4-.6.8-.8.7-.5 1.6-.8 2.8-.8 1.6 0 2.8.4 3.8 1.2 1 .8 1.8 2.3 2.5 4.5v.2h1.2v-7.6H174l-.1.1c-.2.4-.4.6-.5.6-.1.1-.3.1-.5.1-.1 0-.3 0-.6-.1s-.7-.1-1.1-.3c-1.4-.4-2.5-.5-3.5-.5-2.2 0-4 .6-5.4 1.8-1.4 1.2-2.1 2.7-2.1 4.5 0 1.4.4 2.5 1.2 3.4.8.9 2.5 1.9 5.1 3 2.5 1.1 4.2 2 5 2.7.8.7 1.2 1.5 1.2 2.5 0 .4-.1.8-.3 1.1-.2.3-.4.7-.8 1-.7.6-1.6.9-2.8.9-1.7 0-3.2-.5-4.5-1.6-1.3-1-2.2-2.6-2.7-4.7v-.2h-1.3v7.9h1.2l.1-.1c.1-.2.2-.3.3-.4.1-.1.3-.1.4-.1.3 0 .8.1 1.4.2 1.9.5 3.6.7 5.1.7 2.1 0 4-.6 5.7-1.8.9-.6 1.5-1.3 1.9-2.1.4-.8.6-1.7.6-2.7.1-1.2-.4-2.3-1.3-3.4zM161.5 37zM80.7 35.8c.1-.1.2-.2.4-.2h.7c4.2 0 7.8.3 10.8.3h.9c.2 0 .4 0 .5-.1.2-.1.5-.2.6-.5.1-.2.2-.5.2-.9 0-1.8-.9-3.6-2.3-4.9-1.5-1.3-3.5-2.2-5.8-2.2-3.1 0-5.9 1.2-8 3.3-2.1 2.1-3.4 5.1-3.4 8.6 0 3.3 1.1 6.1 2.9 8 1.8 1.9 4.4 3 7.3 3 2.7 0 5-1.2 6.6-2.6.8-.7 1.5-1.4 2-1.9.2-.3.4-.6.5-.8.1-.1.1-.2.1-.3 0-.1.1-.2.1-.3 0-.1 0-.2-.1-.4-.1-.1-.1-.1-.2-.1h-.2c-.1 0-.1 0-.2.1s-.2.1-.3.2c-.4.4-1 1-1.9 1.6-.9.6-2.2 1-3.9 1-2.7 0-4.5-1.1-5.7-2.7-1.2-1.7-1.7-3.9-1.7-6.4 0-.5 0-.9.1-1.2-.1-.3-.1-.5 0-.6zm.7-3.8c.3-.8.9-1.6 1.8-2.3.8-.6 1.9-1.1 3.3-1.1s2.2.5 2.8 1.1c.3.3.5.6.6.9.1.4.1.7.1.9 0 .6-.2 1-.6 1.3-.5.5-1.5.8-2.5 1-1 .2-2.2.2-3.2.2-1.1 0-1.9 0-2.3-.2-.2-.1-.3-.1-.4-.2v-.2c0-.4.1-.9.4-1.4zM48.4 38.9zM62.2 45.4c-.1 0-.2-.1-.2-.1-.1 0-.2 0-.3.1-.1.1-.3.2-.4.3-.5.4-1.1.9-2.1.9-.3 0-.6-.1-.8-.2-.3-.2-.5-.5-.6-1-.1-.4-.2-1-.2-1.5 0-.7.1-3.1.2-5.7s.2-5.3.2-6.8c0-.9-.2-1.7-.6-2.3-.6-.9-1.6-1.4-2.6-1.7-1.1-.3-2.3-.4-3.4-.4-3.2 0-5.7 1.2-7.5 2.6-.9.7-1.5 1.5-2 2.3-.5.8-.7 1.5-.7 2.1 0 .5.2.8.5 1 .3.2.6.3.9.3.5 0 1.1-.1 1.6-.4.5-.3 1-.7 1.2-1.2.4-1.1.8-2.4 1.6-3.4.4-.5.8-.9 1.4-1.2.5-.3 1.2-.5 2-.5.6 0 1.1.1 1.5.2.4.2.7.5 1.1 1.1.2.4.2 1 .2 1.8v1.2c0 1.2 0 2-.1 2.6-.1.5-.2.8-.3 1.1-.1.2-.3.4-.5.5-.6.5-1.8 1-3.8 1.9-1.5.7-3.2 1.5-4.5 2.6-.7.5-1.3 1.2-1.7 1.9-.4.7-.7 1.5-.7 2.5 0 .9.3 1.9 1.1 2.7.7.8 1.9 1.5 3.5 1.4 1.6 0 3-.5 4.1-1.2 1.1-.7 2-1.6 2.6-2.4v.1c.3.8.8 1.6 1.5 2.1.7.6 1.7.9 2.8.9 1.7 0 3-.7 3.9-1.5.5-.4.8-.8 1.1-1.2l.3-.6c.1-.2.1-.3.1-.5 0-.1 0-.2-.1-.4-.1.1-.2 0-.3 0zm-10.5.1c-.4.6-.8 1-1.3 1.3-.5.3-1 .5-1.6.5-.5 0-1.2-.2-1.7-.6-.5-.4-.9-1-.9-1.9 0-.8.3-1.6.8-2.3.8-1.1 1.9-2 3-2.6.5-.3 1-.6 1.4-.7.2-.1.4-.1.5-.2.1 0 .2-.1.2-.1h.3c.1 0 .2.1.2.2.1.1.1.3.1.5 0 1.2 0 2.3-.2 3.4 0 1-.3 1.9-.8 2.5zm0 0z"/><path d="M146.9 45.9c0-.1 0-.2-.1-.4 0-.1-.1-.1-.2-.2-.1 0-.2-.1-.2-.1-.1 0-.2 0-.3.1-.1.1-.3.2-.4.3-.5.4-1.1.9-2.1.9-.3 0-.6-.1-.8-.2-.3-.2-.5-.5-.6-1-.1-.4-.2-1-.2-1.5 0-.7.1-3.1.2-5.7s.2-5.3.2-6.8c0-.9-.2-1.7-.6-2.3-.6-.9-1.6-1.4-2.6-1.7-1.1-.3-2.3-.4-3.4-.4-3.2 0-5.7 1.2-7.5 2.6-.9.7-1.5 1.5-2 2.3-.5.8-.7 1.5-.7 2.1 0 .5.2.8.5 1 .3.2.6.3.9.3.5 0 1.1-.1 1.6-.4.5-.3 1-.7 1.2-1.2.4-1.1.8-2.4 1.6-3.4.4-.5.8-.9 1.4-1.2.5-.3 1.2-.5 2-.5.6 0 1.1.1 1.5.2.4.2.7.5 1.1 1.1.2.4.2 1 .2 1.8v1.2c0 1.2 0 2-.1 2.6-.1.5-.2.8-.3 1.1-.1.2-.3.4-.5.5-.6.5-1.8 1-3.8 1.9-1.5.7-3.2 1.5-4.5 2.6-.7.5-1.3 1.2-1.7 1.9-.4.7-.7 1.5-.7 2.5 0 .9.3 1.9 1.1 2.7.7.8 1.9 1.5 3.5 1.4 1.6 0 3-.5 4.1-1.2 1.1-.7 2-1.6 2.6-2.4v.1c.3.8.8 1.6 1.5 2.1.7.6 1.7.9 2.8.9 1.7 0 3-.7 3.9-1.5.5-.4.8-.8 1.1-1.2l.3-.6v-.3zm-10.7-.4c-.4.6-.8 1-1.3 1.3-.5.3-1 .5-1.6.5-.5 0-1.2-.2-1.7-.6-.5-.4-.9-1-.9-1.9 0-.8.3-1.6.8-2.3.8-1.1 1.9-2 3-2.6.5-.3 1-.6 1.4-.7.2-.1.4-.1.5-.2.1 0 .2-.1.2-.1h.3c.1 0 .2.1.2.2.1.1.1.3.1.5 0 1.2 0 2.3-.2 3.4-.1 1-.4 1.9-.8 2.5zM75.2 45.8h-.1c-.1 0-.3.1-.5.2-.7.3-1.9.7-3 .7-.6 0-1.1-.1-1.4-.2-.4-.2-.6-.4-.9-.8-.2-.4-.3-.9-.4-1.5-.1-.7-.1-1.4-.1-2.4V41c0-5.8.1-8.5.2-10.2 0-.3 0-.5.1-.7 0-.1 0-.2.1-.2 0 0 0-.1.1-.1 0 0 .1 0 .1-.1h.3c.7 0 1.8-.1 3.1-.1 1.4 0 2.3 0 2.9.1h.2v-1.9l-6.4-.1c-.1 0-.2 0-.2-.1-.1-.1-.1-.2-.1-.4 0-1 .1-2.4.1-3.4 0-.2 0-.4-.2-.6-.1-.2-.3-.2-.5-.2-.1 0-.2 0-.3.1l-.3.3c-.1.1-.2.3-.3.4-.6.9-1.5 1.8-2.5 2.7-1 .9-2 1.6-2.9 2.2-.4.3-.6.4-.9.5l-.3.3c-.1.1-.1.3-.1.4 0 .1 0 .2.1.2.1.1.2.2.3.2h1.8c.2 0 .4 0 .5.1.2.1.2.2.3.4.1.2.1.4.1.7 0 .3-.1 2.7-.1 5.3-.1 2.6-.1 5.3-.1 6.3 0 1.9.2 3.6.9 4.9.4.6.9 1.1 1.5 1.5.7.3 1.5.5 2.4.5 1.8 0 3.6-.8 4.8-1.6.6-.4 1.2-.8 1.6-1.2.2-.2.3-.3.4-.5.1-.1.1-.1.1-.2s.1-.1.1-.2-.1-.3-.1-.3c-.2-.2-.3-.2-.4-.2zM109.6 26.6c-.9 0-1.6.2-2.3.6-1 .6-1.8 1.4-2.4 2-.3.3-.5.6-.7.8-.1.1-.2.2-.3.2h-.1v-.1-2.7c0-.4-.1-.6-.2-.8l-.2-.2c-.1 0-.2-.1-.3-.1-.1 0-.3 0-.5.1s-.5.3-.8.7c-.6.6-1.7 1.4-2.7 2-.5.3-1 .6-1.4.8-.4.2-.7.4-.9.4-.3.1-.6.2-.7.3-.1.1-.2.1-.2.2-.1.1-.1.2-.1.3 0 .1 0 .2.1.3.1.1.2.1.3.2.1 0 .2.1.4.1.6 0 1 .1 1.3.2.2.1.4.3.5.5.2.4.3 1 .4 1.9.1.9.1 2.2.1 3.9 0 3 0 4.9-.1 6.3-.1 1.3-.2 2-.3 2.4-.1.2-.2.3-.4.5-.3.2-.6.4-1 .5-.3.1-.7.2-.8.2-.3.1-.5.1-.8.2-.1 0-.2.1-.3.2-.1.1-.2.2-.2.4 0 .1 0 .1.1.2s.2.2.3.2c.1.1.3.1.5.1h1.3c1.2 0 3.4-.1 4.6-.1.8 0 2.1 0 3.3.1.6 0 1.1 0 1.6.1h1.5c.1 0 .2-.1.4-.1.1 0 .1-.1.1-.2s.1-.1.1-.2 0-.3-.1-.4l-.2-.2c-.1-.1-.3-.1-.4-.1-.1 0-.3 0-.4-.1-.3-.1-1-.2-1.7-.4-.3-.1-.7-.2-.9-.4-.3-.1-.5-.3-.6-.5-.1-.1-.1-.3-.2-.6-.2-.9-.2-2.5-.2-4.4v-2.4c0-2.1 0-3.8.1-5.1.1-.7.2-1.2.3-1.7.1-.4.3-.8.5-1 .2-.2.3-.4.5-.6.2-.2.5-.3.8-.3.4 0 .7.1 1 .3.4.3.8.7 1.3 1 .5.4 1 .7 1.8.7s1.5-.3 2-.8.9-1.3.9-2.2c0-.9-.3-1.7-.9-2.3-.9-.6-1.8-.9-2.8-.9z"/></g></svg>