<svg width="24" height="24" viewBox="0 0 24 24" xmlns="http://www.w3.org/2000/svg" xmlns:xlink="http://www.w3.org/1999/xlink"><title>icon-icon / social / fb</title><desc>Created with Sketch.</desc><defs><path d="M2.004 16c-1.107 0-2.004-.895-2.004-1.994v-12.012c0-1.101.895-1.994 1.994-1.994h12.012c1.101 0 1.994.895 1.994 1.994v12.012c0 1.101-.887 1.994-2.003 1.994h-2.957v-6.196h2.08l.311-2.415h-2.391v-1.542c0-.699.194-1.176 1.197-1.176l1.279-.001v-2.16c-.221-.029-.98-.095-1.863-.095-1.844 0-3.106 1.125-3.106 3.192v1.781h-2.085v2.415h2.085v6.196h-6.542z" id="a"/></defs><g transform="translate(4 4)" fill="none"><mask id="b"><use xlink:href="#a"/></mask><use fill="#666" xlink:href="#a"/><path d="M-4-4h24v24h-24z" mask="url(#b)" fill="#333"/></g></svg>