<?xml version="1.0" encoding="UTF-8" standalone="no"?>
<svg width="151px" height="50px" viewBox="0 0 151 50" version="1.1" xmlns="http://www.w3.org/2000/svg" xmlns:xlink="http://www.w3.org/1999/xlink">
    <!-- Generator: Sketch 47 (45396) - http://www.bohemiancoding.com/sketch -->
    <title>Nature_Primary_stacked</title>
    <desc>Created with Sketch.</desc>
    <defs></defs>
    <g id="Page-1" stroke="none" stroke-width="1" fill="none" fill-rule="evenodd">
        <g id="article-kitchen-sink" transform="translate(-221.000000, -162.000000)" fill-rule="nonzero" fill="#FFFFFF">
            <g id="Nature_Primary_stacked" transform="translate(221.000000, 161.000000)">
                <path d="M31.59,33.86 C32.29,33.86 32.82,33.77 32.82,33.33 C32.82,32.89 31.94,32.8 31.28,32.63 C28.59,31.92 28.59,32.06 28.59,24.52 C28.59,22.63 28.59,19.98 28.59,15.8 C28.59,13.8 28.37,10.8 27.31,9.32 C25.7057769,6.98821277 23.0066475,5.65568326 20.18,5.8 C14.41,5.8 11.9,10.6 10.84,10.6 C10.49,10.6 10.4,10.16 10.4,9.76 L10.4,6.76 C10.4,6.06 10.31,5.48 9.83,5.48 C9.47633989,5.56002071 9.15336648,5.74060799 8.9,6 C6.70515545,8.05729424 4.13053063,9.66728391 1.32,10.74 C1.05294869,10.7663775 0.856794277,11.0026544 0.88,11.27 C0.88,11.67 1.45,11.67 2.42,11.8 C3.03813764,11.8368392 3.61988901,12.1045162 4.05,12.55 C4.62,13.3 4.62,15.68 4.62,19.47 C4.7228391,23.1836557 4.60596842,26.9001433 4.27,30.6 C4.05,32 3.35,32.19 2,32.54 C0.94,32.8 0,32.89 0,33.42 C0,33.95 0.26,33.86 1.06,33.86 C1.5,33.86 6.13,33.64 7.23,33.64 C8.33,33.64 12.6,33.86 13.23,33.86 C13.86,33.86 14.64,33.86 14.64,33.38 C14.64,32.9 13.27,32.72 12.57,32.38 C11.6792747,32.1527074 10.9709159,31.4784407 10.7,30.6 C10.35,28.93 10.3,26.6 10.3,21.66 C10.3,18 10.3,14.13 11.4,12.28 C12.4986798,10.4926741 14.4138527,9.3683064 16.51,9.28 C18.8,9.28 20.17,9.72 21.51,11.28 C22.85,12.84 22.79,16.13 22.79,21.72 C22.8746156,24.5552203 22.8011684,27.392953 22.57,30.22 C22.35,31.81 21.57,32.11 20.32,32.55 C19.32,32.9 18.07,32.86 18.07,33.43 C18.07,33.78 18.55,33.83 19.66,33.83 C20.45,33.83 24.15,33.61 25.78,33.61 C27.41,33.61 30.88,33.86 31.59,33.86 Z" id="Shape"></path>
                <path d="M58.77,29.55 C58.7901235,29.4395449 58.7640709,29.3256698 58.6979227,29.2349522 C58.6317744,29.1442346 58.5313183,29.0846121 58.42,29.07 C58,29.06 57,30.69 55,30.69 C53,30.69 52.75,28.84 52.75,26.9 C52.75,24.96 53.23,14.7 53.23,10.9 C53.23,6.23 49,5.48 45.34,5.48 C37.67,5.48 33.23,11.3 33.23,14.07 C33.2325409,14.4625097 33.3930213,14.8374633 33.6752371,15.1102719 C33.957453,15.3830806 34.3376296,15.5307621 34.73,15.52 C36.0469394,15.5285947 37.2489532,14.7714821 37.81,13.58 C38.72,10.65 40,6.9 44.1,6.9 C45.64,6.9 46.7,7.16 47.49,8.75 C47.89,9.54 47.8,10.91 47.8,12.67 C47.8,18.67 47.71,17.96 41.98,20.82 C38.41,22.63 33.79,24.82 33.79,29.41 C33.7695222,30.7853898 34.3165746,32.1084662 35.3023847,33.0677862 C36.2881947,34.0271062 37.625678,34.5379252 39,34.48 C42.1927569,34.3881055 45.1389922,32.7413504 46.89,30.07 C46.9439532,29.9797295 47.0454117,29.9290003 47.15,29.94 C47.353527,29.9608867 47.506315,30.1355016 47.5,30.34 C48.1495415,32.5542103 50.1926313,34.0660968 52.5,34.04 C56.43,34 58.77,30.65 58.77,29.55 Z M46.13,29.15 C45.3662244,30.5174366 43.9540903,31.3971886 42.39,31.48 C41.4716138,31.4916614 40.5887183,31.1257458 39.9478319,30.4678448 C39.3069456,29.8099437 38.9642842,28.9177655 39,28 C39,23.51 45.65,20.25 46.49,20.25 C47.15,20.25 47.49,20.56 47.49,21.48 C47.44,24.48 47.31,27.43 46.12,29.15 L46.13,29.15 Z" id="Shape"></path>
                <path d="M105.24,31.4 C105.23482,31.2885644 105.18552,31.1837675 105.102976,31.1087269 C105.020431,31.0336862 104.911424,30.9945675 104.8,31 C104.54,31 103.52,31.09 103.08,31.09 C101.8,31.09 101.19,30.91 100.88,30.34 C100.44,29.55 100.4,26.95 100.4,23.42 C100.4,17.6 100.84,10.2 100.84,7.91 C100.84,7.07 100.58,6.72 99.56,6.76 L90.62,6.98 C89.74,6.98 89.56,7.2 89.56,7.6 C89.56,8 90,8 91.32,8.18 C92.2751069,8.18002976 93.2083978,8.46558892 94,9 C94.75,9.66 94.75,12.88 94.75,19.48 C94.75,22.65 94.75,26.48 94,27.72 C93,29.48 90.65,30.58 88.32,30.58 C84.14,30.58 82.68,28.47 82.68,25.43 C82.82,13.11 82.9,10.65 82.9,8 C82.9,6.68 82.77,6.37 81.49,6.41 L68,7 C67.7743574,6.99158501 67.5645146,6.88195775 67.4287247,6.70155127 C67.2929349,6.52114479 67.2456513,6.28916111 67.3,6.07 C67.3,4.84 67.43,2.99 67.43,1.8 C67.4810925,1.60307528 67.4355148,1.39358939 67.307224,1.23569302 C67.1789332,1.07779665 66.9832135,0.990301083 66.78,1 C66.38,1 66.21,1.44 65.85,2 C64.35,4.25 61.22,6.71 59.11,8.21 C58.18,8.87 57.66,8.91 57.66,9.49 C57.6789025,9.59674078 57.7413784,9.69079842 57.83244,9.74960903 C57.9235016,9.80841964 58.0349321,9.82667654 58.14,9.8 L60.08,9.8 C61.36,9.8 61.4,10.72 61.4,11.52 C61.4,12.32 61.1,23.64 61.1,26.07 C61.1,30.92 62.16,34.44 66.92,34.44 C71.33,34.44 75.47,30.74 75.47,30.17 C75.4707498,30.0803589 75.4326584,29.9947821 75.3655518,29.9353448 C75.2984451,29.8759075 75.2088945,29.8484299 75.12,29.86 C73.6706423,30.4707047 72.1360865,30.8551868 70.57,31 C68.98,31 68.06,30.6 67.44,29.5 C66.82,28.4 66.82,26.42 66.82,23.38 C66.82,16.11 66.91,12.76 67.04,10.56 C67.13,9.11 67.26,9.02 68.14,8.97 C69.02,8.92 70.39,8.84 72,8.84 C77,8.84 77.07,8.84 77.07,11.35 C77.07,12.63 76.85,22.85 76.85,26.35 C76.85,32.61 81.34,34.46 84.56,34.46 C89.93,34.46 93.28,29.79 93.99,29.79 C94.43,29.79 94.52,30.27 94.52,30.79 C94.52,32.02 94.43,32.79 94.43,33.7 C94.43,34.4 94.56,34.7 95,34.7 C95.3618142,34.6107869 95.7162006,34.4937725 96.06,34.35 C98.6938292,33.3749323 101.394059,32.5895932 104.14,32 C104.93,31.88 105.24,31.71 105.24,31.4 Z" id="Shape"></path>
                <path d="M120.08,32.76 C119.24,32.58 116.51,32.19 115.81,31.09 C115.19,30.17 115.28,26.42 115.28,21.62 C115.28,16.47 115.37,12.94 116.47,11.71 C116.873793,11.0047178 117.599859,10.5443769 118.41,10.48 C120.57,10.48 121.05,12.95 123.41,12.95 C124.323794,12.9698764 125.205361,12.6121477 125.846915,11.9611313 C126.488469,11.3101149 126.833253,10.4234047 126.8,9.51 C126.815008,8.47744978 126.402421,7.48464516 125.660014,6.76685888 C124.917607,6.04907259 123.911457,5.67019076 122.88,5.72 C118.69,5.72 116.54,10.43 115.66,10.43 C115.48,10.43 115.31,10.34 115.31,9.77 L115.31,6.6 C115.31,5.76 115,5.54 114.69,5.54 C114.099489,5.63779414 113.575164,5.97408518 113.24,6.47 C111.352225,8.09531373 109.253177,9.45767659 107,10.52 C106.21,10.83 105.81,10.96 105.81,11.36 C105.81,11.58 106.12,11.67 106.51,11.71 C109.51,11.89 109.64,12.64 109.64,20.12 C109.64,27.6 109.55,29.94 109.16,31.05 C108.77,32.16 106.78,32.55 106.25,32.68 C105.72,32.81 104.84,32.94 104.84,33.43 C104.84,33.92 105.59,33.87 106.12,33.87 C106.65,33.87 110.92,33.65 112.9,33.65 C114.88,33.65 119.6,33.87 120.08,33.87 C120.56,33.87 121.4,33.87 121.4,33.43 C121.4,32.99 120.79,32.9 120.08,32.76 Z" id="Shape"></path>
                <path d="M137.93,34.44 C144.71,34.44 149.87,28.23 149.87,27.13 C149.886459,27.0121803 149.843651,26.8938367 149.755625,26.813813 C149.667598,26.7337893 149.545723,26.7024194 149.43,26.73 C148.99,26.73 146.61,30.52 141.19,30.52 C133.97,30.52 131.19,24.88 131.19,18.45 C131.19,15.76 131.81,15.72 133.26,15.72 C138.81,15.72 143.52,16.07 147.36,16.07 C149.12,16.07 150,16.07 150,14.44 C150,9.9 145.51,5.44 139.6,5.44 C135.624891,5.4273722 131.814829,7.02844615 129.041942,9.87673505 C126.269055,12.7250239 124.770753,16.5766595 124.89,20.55 C124.84,29.06 130.57,34.44 137.93,34.44 Z M139.25,6.82 C142.95,6.82 144.25,9.51 144.25,10.74 C144.25,13.96 139.32,14.22 135.79,14.22 C132.79,14.22 131.91,14 131.91,13.22 C131.89,11 134.36,6.82 139.25,6.82 L139.25,6.82 Z" id="Shape"></path>
                <path d="M0.42,41.45 C0.554916963,41.4631455 0.688636936,41.4865465 0.82,41.52 C0.95612521,41.5500232 1.08982768,41.5901339 1.22,41.64 C1.33643725,41.6722645 1.4364236,41.7472543 1.5,41.85 C1.54237593,41.9477188 1.56285493,42.0535269 1.56,42.16 L1.56,47.64 C1.56566516,47.7554084 1.5378859,47.8699979 1.48,47.97 C1.41562115,48.0592493 1.32458788,48.1257736 1.22,48.16 C1.09636229,48.1959085 0.968686596,48.2160678 0.84,48.22 L0.42,48.22 L0.42,48.6 L3.83,48.6 L3.83,48.25 C3.68554959,48.2449995 3.54174372,48.2282779 3.4,48.2 L3,48.1 C2.89148929,48.0572691 2.80010191,47.9799413 2.74,47.88 C2.68665342,47.7854525 2.65906701,47.6785551 2.66,47.57 L2.66,42.1 C2.65879125,41.9894079 2.68272712,41.8799868 2.73,41.78 C2.78612803,41.6748621 2.88428102,41.5985209 3,41.57 C3.13091759,41.5301244 3.26461973,41.5000414 3.4,41.48 L3.79,41.48 L3.79,41.07 L0.42,41.07 L0.42,41.45 Z" id="Shape"></path>
                <path d="M10,48.17 C9.89845373,48.1463301 9.80934238,48.0857344 9.75,48 C9.70525396,47.906582 9.68462596,47.803442 9.69,47.7 L9.69,45 C9.71199851,44.5503269 9.58163437,44.1063841 9.32,43.74 C9.04418109,43.4120543 8.62724876,43.2370916 8.2,43.27 C7.99323683,43.2682872 7.78745851,43.2986479 7.59,43.36 C7.42457475,43.4084702 7.26647247,43.4791117 7.12,43.57 C6.99215698,43.6565045 6.87174077,43.7535065 6.76,43.86 L6.44,44.17 L6.44,44.17 L6.44,43.39 L6.37,43.32 L4.62,43.44 L4.62,43.79 L4.92,43.79 C5.00468195,43.8056103 5.0859342,43.8360799 5.16,43.88 C5.25349716,43.9431583 5.32924161,44.0292316 5.38,44.13 C5.43259475,44.2320488 5.46002416,44.3451951 5.46,44.46 L5.46,47.7 C5.46495483,47.8077468 5.44077319,47.9148369 5.39,48.01 C5.34077404,48.0924227 5.26217494,48.1531584 5.17,48.18 L4.94,48.18 L4.69,48.18 L4.69,48.53 L7.21,48.53 L7.21,48.28 L6.94,48.28 L6.7,48.16 C6.61277205,48.1289973 6.53637007,48.0734323 6.48,48 C6.42856597,47.9087096 6.40427988,47.8046264 6.41,47.7 L6.41,44.7 L6.56,44.47 C6.63858845,44.3686972 6.73316139,44.2808795 6.84,44.21 C6.96727565,44.1230097 7.10503345,44.0524509 7.25,44 C7.41648506,43.9388775 7.59265674,43.9083862 7.77,43.91 C8.01769463,43.9082034 8.25292774,44.0184689 8.41,44.21 C8.59855787,44.4554114 8.6910145,44.7612295 8.67,45.07 L8.67,47.77 C8.67495483,47.8777468 8.65077319,47.9848369 8.6,48.08 C8.55077404,48.1624227 8.47217494,48.2231584 8.38,48.25 C8.30029009,48.2596348 8.21970991,48.2596348 8.14,48.25 L7.87,48.25 L7.87,48.6 L10.44,48.6 L10.44,48.28 L10.18,48.28 L10,48.17 Z" id="Shape"></path>
                <path d="M13.58,48.1 C13.4212132,48.1005703 13.2642191,48.0664411 13.12,48 C13.0107773,47.9534103 12.919566,47.8727233 12.86,47.77 C12.7971025,47.648869 12.7596674,47.5161446 12.75,47.38 C12.7404085,47.1967921 12.7404085,47.0132079 12.75,46.83 L12.75,43.91 L14.25,43.91 L14.25,43.4 L12.72,43.4 L12.72,41.76 L11.72,41.76 L11.72,43.4 L10.72,43.4 L10.72,43.91 L11.67,43.91 L11.67,47.47 C11.6492566,47.8050559 11.7446094,48.1370251 11.94,48.41 C12.1830531,48.6566991 12.5258101,48.7783226 12.87,48.74 C13.1269591,48.7457753 13.3832809,48.7120487 13.63,48.64 C13.8366667,48.5733333 14.0566667,48.4933333 14.29,48.4 L14.29,48 C14.1691704,48.0331888 14.0451257,48.0533042 13.92,48.06 L13.58,48.1 Z" id="Shape"></path>
                <path d="M18.49,48 C18.2442536,48.1523871 17.959022,48.2289127 17.67,48.22 C17.3925592,48.2269994 17.1177056,48.1651573 16.87,48.04 C16.6519511,47.9242586 16.4663172,47.755813 16.33,47.55 C16.1727667,47.3162551 16.0608268,47.055062 16,46.78 C15.9308863,46.4715124 15.8973343,46.1561237 15.9,45.84 L19.4,45.84 L19.4,45.49 C19.4027247,45.1924097 19.3623046,44.8959954 19.28,44.61 C19.2045471,44.3543413 19.0787491,44.116345 18.91,43.91 C18.7303406,43.6916526 18.5004479,43.5200908 18.24,43.41 C17.9230752,43.2802024 17.5822933,43.2188616 17.24,43.23 C16.8931145,43.2260085 16.550285,43.3048592 16.24,43.46 C15.949774,43.6081587 15.6941774,43.8160439 15.49,44.07 C15.2702186,44.3468079 15.1040392,44.6622096 15,45 C14.8937582,45.322687 14.8397444,45.6602734 14.84,46 C14.848358,46.33899 14.9021716,46.6753252 15,47 C15.0924948,47.3273945 15.2488275,47.633263 15.46,47.9 C15.6726161,48.1616911 15.9430364,48.3704966 16.25,48.51 C16.5992613,48.6642529 16.9783071,48.7393791 17.36,48.73 C17.8110116,48.7379523 18.2538315,48.6089418 18.63,48.36 C19.0061945,48.1069908 19.3123411,47.7630059 19.52,47.36 L19.15,47.13 C19.006614,47.4708598 18.7796213,47.7700773 18.49,48 Z M16.32,44.1 C16.5360731,43.8025325 16.8823474,43.6275336 17.25,43.63 C17.4445911,43.6205037 17.6371735,43.6730262 17.8,43.78 C17.9445075,43.8833396 18.0612908,44.0207318 18.14,44.18 C18.2213152,44.3610104 18.2752392,44.5531147 18.3,44.75 C18.3324795,44.9618023 18.3491921,45.1757234 18.35,45.39 L15.92,45.39 C15.9127175,44.9283983 16.05284,44.4765033 16.32,44.1 Z" id="Shape"></path>
                <path d="M23.41,43.25 C23.148797,43.2601761 22.8943387,43.3358259 22.67,43.47 C22.379907,43.6358497 22.1278157,43.8606878 21.93,44.13 L21.93,44.13 L21.93,43.39 L21.86,43.32 L20.11,43.44 L20.11,43.79 L20.41,43.79 C20.4946819,43.8056103 20.5759342,43.8360799 20.65,43.88 C20.7451393,43.945572 20.8210796,44.0353197 20.87,44.14 C20.9204027,44.2392892 20.9477486,44.3486729 20.95,44.46 L20.95,47.7 C20.9549548,47.8077468 20.9307732,47.9148369 20.88,48.01 C20.830774,48.0924227 20.7521749,48.1531584 20.66,48.18 L20.43,48.18 L20.18,48.18 L20.18,48.53 L22.95,48.53 L22.95,48.28 L22.58,48.28 C22.4638235,48.2673266 22.3496386,48.2404596 22.24,48.2 C22.1377549,48.1657802 22.0520965,48.0943981 22,48 C21.9495741,47.9083202 21.9253562,47.8045294 21.93,47.7 L21.93,44.62 C22.0575613,44.3729417 22.2427921,44.1602693 22.47,44 C22.6451999,43.881685 22.8489682,43.8126109 23.06,43.8 L23,44 L23,44.21 C23.0037373,44.3406507 23.0617108,44.4638444 23.16,44.55 C23.2866906,44.6602352 23.4526798,44.7143621 23.62,44.7 C23.7650862,44.7112463 23.9066548,44.6516384 24,44.54 C24.0885808,44.3958263 24.1337166,44.2291709 24.13,44.06 C24.1643764,43.8539276 24.1177999,43.6425421 24,43.47 C23.8475246,43.3099971 23.6300092,43.2288896 23.41,43.25 L23.41,43.25 Z" id="Shape"></path>
                <path d="M29.94,48.17 C29.8494935,48.1399529 29.7719069,48.0799996 29.72,48 C29.675254,47.906582 29.654626,47.803442 29.66,47.7 L29.66,45 C29.6819985,44.5503269 29.5516344,44.1063841 29.29,43.74 C29.0141811,43.4120543 28.5972488,43.2370916 28.17,43.27 C27.9632368,43.2682872 27.7574585,43.2986479 27.56,43.36 C27.3945747,43.4084702 27.2364725,43.4791117 27.09,43.57 C26.9621293,43.6564671 26.8417101,43.7534715 26.73,43.86 L26.41,44.17 L26.41,44.17 L26.41,43.39 L26.34,43.32 L24.59,43.44 L24.59,43.79 L24.89,43.79 C24.9746819,43.8056103 25.0559342,43.8360799 25.13,43.88 C25.2234972,43.9431583 25.2992416,44.0292316 25.35,44.13 C25.4025948,44.2320488 25.4300242,44.3451951 25.43,44.46 L25.43,47.7 C25.4349548,47.8077468 25.4107732,47.9148369 25.36,48.01 C25.310774,48.0924227 25.2321749,48.1531584 25.14,48.18 L24.91,48.18 L24.66,48.18 L24.66,48.53 L27.24,48.53 L27.24,48.28 L26.97,48.28 L26.73,48.2 C26.6151574,48.1702273 26.5154096,48.0989788 26.45,48 C26.398566,47.9087096 26.3742799,47.8046264 26.38,47.7 L26.38,44.7 L26.53,44.47 C26.6085884,44.3686972 26.7031614,44.2808795 26.81,44.21 C26.9404009,44.1222541 27.0815627,44.0516732 27.23,44 C27.3964851,43.9388775 27.5726567,43.9083862 27.75,43.91 C27.9976946,43.9082034 28.2329277,44.0184689 28.39,44.21 C28.5785579,44.4554114 28.6710145,44.7612295 28.65,45.07 L28.65,47.77 C28.6549548,47.8777468 28.6307732,47.9848369 28.58,48.08 C28.530774,48.1624227 28.4521749,48.2231584 28.36,48.25 C28.2802901,48.2596348 28.1997099,48.2596348 28.12,48.25 L27.85,48.25 L27.85,48.6 L30.42,48.6 L30.42,48.28 L30.16,48.28 L29.94,48.17 Z" id="Shape"></path>
                <path d="M35.44,48.14 C35.3495747,48.0904289 35.2737211,48.0180232 35.22,47.93 C35.1680315,47.8280773 35.1438849,47.7142435 35.15,47.6 C35.15,47.1333333 35.15,46.7033333 35.15,46.31 C35.15,45.9166667 35.15,45.4666667 35.15,44.96 C35.1569025,44.6630159 35.105956,44.3675258 35,44.09 C34.9166226,43.8751435 34.7745581,43.6880341 34.59,43.55 C34.4156902,43.4195495 34.2138949,43.3306227 34,43.29 C33.7423298,43.2466139 33.4812744,43.2265327 33.22,43.23 C32.9929331,43.2297845 32.7671078,43.2634897 32.55,43.33 C32.3467278,43.3880657 32.1517882,43.4720913 31.97,43.58 C31.7978962,43.6861715 31.6456169,43.8215308 31.52,43.98 C31.3249569,44.2446089 31.3249569,44.6053911 31.52,44.87 C31.607574,44.9974728 31.7556426,45.0696088 31.91,45.06 C32.0801666,45.0726364 32.2486141,45.0188765 32.38,44.91 C32.4830343,44.8264757 32.5450012,44.702542 32.55,44.57 C32.5482428,44.4418145 32.5314615,44.3142771 32.5,44.19 C32.4721608,44.0887813 32.4553958,43.9848386 32.45,43.88 C32.5369967,43.8029569 32.6392019,43.7450406 32.75,43.71 C32.8968842,43.6544457 33.0529842,43.6272979 33.21,43.63 C33.4047439,43.6190805 33.5977644,43.6717224 33.76,43.78 C33.8833532,43.870368 33.9856944,43.9863547 34.06,44.12 C34.124757,44.2347277 34.1687649,44.3599808 34.19,44.49 C34.1953572,44.5799203 34.1953572,44.6700797 34.19,44.76 L34.19,45.29 C33.8664369,45.4410194 33.5322014,45.5680289 33.19,45.67 L32.19,46.01 C32.0485774,46.0664402 31.911535,46.1332902 31.78,46.21 C31.6468434,46.2848328 31.5282782,46.3830725 31.43,46.5 C31.3161929,46.6250601 31.2278767,46.7711215 31.17,46.93 C31.1093929,47.1035423 31.0789529,47.286182 31.08,47.47 C31.0653266,47.8263789 31.2035959,48.1720521 31.46,48.42 C31.7300877,48.6716848 32.0914648,48.8017806 32.46,48.78 C32.8047341,48.7969277 33.1482946,48.7282156 33.46,48.58 C33.7255836,48.4292748 33.9625381,48.2329411 34.16,48 L34.16,48 C34.1914584,48.2233907 34.3056648,48.4268208 34.48,48.57 C34.6706701,48.7092649 34.9044682,48.7765704 35.14,48.76 C35.285466,48.760679 35.4302762,48.740473 35.57,48.7 L36,48.54 L36,48.2 L35.69,48.2 C35.6030514,48.2004189 35.5172875,48.1798355 35.44,48.14 Z M34.15,47.57 C34.0129362,47.7435203 33.8472156,47.8923306 33.66,48.01 C33.4590234,48.1341108 33.2261152,48.1966831 32.99,48.19 C32.7798118,48.200654 32.5731447,48.1329527 32.41,48 C32.2427088,47.8269338 32.1587883,47.5897672 32.18,47.35 C32.1735004,47.1431383 32.2254917,46.9386394 32.33,46.76 C32.4384284,46.5889038 32.581502,46.4424236 32.75,46.33 C32.9503244,46.1964177 33.1649996,46.0857258 33.39,46 C33.6166667,45.9133333 33.88,45.8266667 34.18,45.74 L34.15,47.57 Z" id="Shape"></path>
                <path d="M39.06,48.1 C38.9012132,48.1005703 38.7442191,48.0664411 38.6,48 C38.4907773,47.9534103 38.399566,47.8727233 38.34,47.77 C38.2771025,47.648869 38.2396674,47.5161446 38.23,47.38 C38.2204085,47.1967921 38.2204085,47.0132079 38.23,46.83 L38.23,43.91 L39.73,43.91 L39.73,43.4 L38.19,43.4 L38.19,41.76 L37.19,41.76 L37.19,43.4 L36.19,43.4 L36.19,43.91 L37.2,43.91 L37.2,47.47 C37.1792566,47.8050559 37.2746094,48.1370251 37.47,48.41 C37.7130531,48.6566991 38.0558101,48.7783226 38.4,48.74 C38.6569591,48.7457753 38.9132809,48.7120487 39.16,48.64 C39.3666667,48.5733333 39.5866667,48.4933333 39.82,48.4 L39.82,48 C39.6991704,48.0331888 39.5751257,48.0533042 39.45,48.06 L39.06,48.1 Z" id="Shape"></path>
                <path d="M42,41.77 C42.1307305,41.6246401 42.2021087,41.4354879 42.2,41.24 C42.2006737,41.0595993 42.1285696,40.8865494 42,40.76 C41.871118,40.621597 41.6890562,40.5451311 41.5,40.55 C41.3187026,40.5510873 41.1469649,40.6314752 41.03,40.77 C40.899656,40.9075915 40.8279338,41.090483 40.83,41.28 C40.8310246,41.463005 40.9026742,41.6385465 41.03,41.77 C41.1469649,41.9085248 41.3187026,41.9889127 41.5,41.99 C41.6914457,41.9964945 41.8754468,41.915534 42,41.77 L42,41.77 Z" id="Shape"></path>
                <path d="M42.41,48.16 C42.3172798,48.1345644 42.2360933,48.0780869 42.18,48 C42.1296858,47.9046668 42.1055327,47.7977032 42.11,47.69 L42.11,43.39 L42,43.31 L40.14,43.43 L40.14,43.78 L40.49,43.84 C40.5917993,43.8613612 40.6896425,43.8984741 40.78,43.95 C40.8714277,44.0113058 40.9468607,44.0935965 41,44.19 C41.0524994,44.2848869 41.0800273,44.3915578 41.08,44.5 L41.08,47.74 C41.0735907,47.8316485 41.0462207,47.9206011 41,48 C40.950774,48.0824227 40.8721749,48.1431584 40.78,48.17 L40.55,48.17 L40.3,48.17 L40.3,48.52 L42.84,48.52 L42.84,48.28 L42.59,48.28 L42.41,48.16 Z" id="Shape"></path>
                <path d="M46.12,43.23 C45.4093887,43.20238 44.7223416,43.4874315 44.24,44.01 C43.7528645,44.5599408 43.4951723,45.2757524 43.52,46.01 C43.51619,46.4032034 43.5874653,46.7935204 43.73,47.16 C43.8544783,47.4832761 44.0413628,47.7788934 44.28,48.03 C44.5093389,48.2670441 44.7850756,48.4542727 45.09,48.58 C45.4064418,48.7123576 45.7470658,48.7770762 46.09,48.77 C46.4638557,48.7751019 46.8348001,48.7036356 47.18,48.56 C47.4951086,48.4198571 47.7751785,48.2115125 48,47.95 C48.2263837,47.6835267 48.3964676,47.373974 48.5,47.04 C48.6092827,46.7040097 48.6666103,46.3532997 48.67,46 C48.7100574,45.2634392 48.450345,44.542016 47.95,44 C47.4774608,43.4944782 46.8118107,43.214396 46.12,43.23 Z M47.12,47.75 C46.9169628,48.1487143 46.507434,48.3998404 46.06,48.4 C45.819018,48.4095361 45.5811365,48.3430692 45.38,48.21 C45.2138319,48.0573603 45.0839835,47.8694218 45,47.66 C44.874311,47.4146763 44.786643,47.1516723 44.74,46.88 C44.6834352,46.5665646 44.6566492,46.2484809 44.66,45.93 C44.6608549,45.6585271 44.6842688,45.3875947 44.73,45.12 C44.770244,44.8621651 44.8512568,44.6123757 44.97,44.38 C45.0791033,44.1608387 45.2405281,43.9719373 45.44,43.83 C45.6469933,43.6924553 45.8915858,43.6225717 46.14,43.63 C46.3822502,43.6220123 46.6206492,43.6921296 46.82,43.83 C47.0102223,43.9681417 47.1645383,44.1498917 47.27,44.36 C47.3866292,44.5967638 47.4675087,44.849512 47.51,45.11 C47.561967,45.3903799 47.5887405,45.6748476 47.59,45.96 C47.6131771,46.5803614 47.4680478,47.1954332 47.17,47.74 L47.12,47.75 Z" id="Shape"></path>
                <path d="M54.75,48.17 C54.6594935,48.1399529 54.5819069,48.0799996 54.53,48 C54.485254,47.906582 54.464626,47.803442 54.47,47.7 L54.47,45 C54.4919985,44.5503269 54.3616344,44.1063841 54.1,43.74 C53.8366547,43.4030333 53.4273371,43.2132588 53,43.23 C52.7932368,43.2282872 52.5874585,43.2586479 52.39,43.32 C52.2245747,43.3684702 52.0664725,43.4391117 51.92,43.53 C51.7921293,43.6164671 51.6717101,43.7134715 51.56,43.82 L51.24,44.13 L51.24,44.13 L51.24,43.39 L51.17,43.32 L49.42,43.44 L49.42,43.79 L49.72,43.79 C49.8046819,43.8056103 49.8859342,43.8360799 49.96,43.88 C50.0534972,43.9431583 50.1292416,44.0292316 50.18,44.13 C50.2325948,44.2320488 50.2600242,44.3451951 50.26,44.46 L50.26,47.7 C50.2649548,47.8077468 50.2407732,47.9148369 50.19,48.01 C50.140774,48.0924227 50.0621749,48.1531584 49.97,48.18 L49.74,48.18 L49.49,48.18 L49.49,48.53 L52,48.53 L52,48.28 L51.73,48.28 L51.49,48.2 C51.3936409,48.1600915 51.3129022,48.0898839 51.26,48 C51.208566,47.9087096 51.1842799,47.8046264 51.19,47.7 L51.19,44.7 L51.34,44.47 C51.4185884,44.3686972 51.5131614,44.2808795 51.62,44.21 C51.7378848,44.125169 51.865449,44.054673 52,44 C52.1664851,43.9388775 52.3426567,43.9083862 52.52,43.91 C52.7676946,43.9082034 53.0029277,44.0184689 53.16,44.21 C53.3485579,44.4554114 53.4410145,44.7612295 53.42,45.07 L53.42,47.77 C53.4249548,47.8777468 53.4007732,47.9848369 53.35,48.08 C53.300774,48.1624227 53.2221749,48.2231584 53.13,48.25 C53.0502901,48.2596348 52.9697099,48.2596348 52.89,48.25 L52.62,48.25 L52.62,48.6 L55.19,48.6 L55.19,48.28 L54.93,48.28 L54.75,48.17 Z" id="Shape"></path>
                <path d="M60.25,48.14 C60.1482771,48.0953833 60.0615052,48.022495 60,47.93 C59.971612,47.8218315 59.971612,47.7081685 60,47.6 C60,47.1333333 60,46.7033333 60,46.31 C60,45.9166667 60,45.48 60,45 C60.0100956,44.7036713 59.9625488,44.408202 59.86,44.13 C59.7766226,43.9151435 59.6345581,43.7280341 59.45,43.59 C59.2698467,43.4567359 59.0608962,43.367675 58.84,43.33 C58.5639138,43.2694558 58.2825839,43.2359641 58,43.23 C57.7729331,43.2297845 57.5471078,43.2634897 57.33,43.33 C57.1267278,43.3880657 56.9317882,43.4720913 56.75,43.58 C56.5778962,43.6861715 56.4256169,43.8215308 56.3,43.98 C56.1049569,44.2446089 56.1049569,44.6053911 56.3,44.87 C56.387574,44.9974728 56.5356426,45.0696088 56.69,45.06 C56.8601666,45.0726364 57.0286141,45.0188765 57.16,44.91 C57.2630343,44.8264757 57.3250012,44.702542 57.33,44.57 C57.3282428,44.4418145 57.3114615,44.3142771 57.28,44.19 C57.2521608,44.0887813 57.2353958,43.9848386 57.23,43.88 C57.3169967,43.8029569 57.4192019,43.7450406 57.53,43.71 C57.6786476,43.6463397 57.8383116,43.6123686 58,43.61 C58.1947439,43.5990805 58.3877644,43.6517224 58.55,43.76 C58.6733532,43.850368 58.7756944,43.9663547 58.85,44.1 C58.91495,44.2146401 58.9589702,44.3399285 58.98,44.47 C58.9853572,44.5599203 58.9853572,44.6500797 58.98,44.74 L58.98,45.27 C58.6564229,45.4209861 58.3221898,45.5479947 57.98,45.65 L57,46 C56.8585774,46.0564402 56.721535,46.1232902 56.59,46.2 C56.4568434,46.2748328 56.3382782,46.3730725 56.24,46.49 C56.1261929,46.6150601 56.0378767,46.7611215 55.98,46.92 C55.9193929,47.0935423 55.8889529,47.276182 55.89,47.46 C55.8753266,47.8163789 56.0135959,48.1620521 56.27,48.41 C56.5400877,48.6616848 56.9014648,48.7917806 57.27,48.77 C57.6147341,48.7869277 57.9582946,48.7182156 58.27,48.57 C58.545486,48.4252208 58.7927415,48.2321583 59,48 L59,48 C59.0314584,48.2233907 59.1456648,48.4268208 59.32,48.57 C59.5106701,48.7092649 59.7444682,48.7765704 59.98,48.76 C60.125466,48.760679 60.2702762,48.740473 60.41,48.7 L60.85,48.55 L60.85,48.2 L60.5,48.2 C60.4130514,48.2004189 60.3272875,48.1798355 60.25,48.14 Z M59,47.56 C58.8629362,47.7335203 58.6972156,47.8823306 58.51,48 C58.3090234,48.1241108 58.0761152,48.1866831 57.84,48.18 C57.6177034,48.2038741 57.3949513,48.1392041 57.22,48 C57.0478346,47.818131 56.9669904,47.5682492 57,47.32 C56.9935004,47.1131383 57.0454917,46.9086394 57.15,46.73 C57.2584284,46.5589038 57.401502,46.4124236 57.57,46.3 C57.7685129,46.1774743 57.9797529,46.0768838 58.2,46 C58.4266667,45.9133333 58.69,45.8266667 58.99,45.74 L59,47.56 Z" id="Shape"></path>
                <path d="M63.35,48.16 C63.2616071,48.1312437 63.1845919,48.0752327 63.13,48 C63.0796858,47.9046668 63.0555327,47.7977032 63.06,47.69 L63.06,40.46 L63,40.38 L61,40.5 L61,40.84 L61.41,40.9 C61.5325586,40.9201369 61.6508686,40.9607003 61.76,41.02 C61.8536205,41.0872326 61.9291906,41.1765427 61.98,41.28 C62.0339925,41.3922525 62.0613686,41.515445 62.06,41.64 L62.06,47.73 C62.0620659,47.8235216 62.0414806,47.9161554 62,48 C61.949353,48.0811496 61.8713015,48.1414621 61.78,48.17 L61.55,48.17 L61.29,48.17 L61.29,48.52 L63.85,48.52 L63.85,48.28 L63.59,48.28 L63.35,48.16 Z" id="Shape"></path>
                <path d="M66.86,43.43 L66.86,43.76 L67.35,43.83 C67.4923861,43.8469353 67.6309524,43.8874913 67.76,43.95 C67.8518623,44.0149961 67.9272109,44.1006195 67.98,44.2 C68.0333465,44.3017671 68.0608214,44.4151013 68.06,44.53 L68.06,48.53 C68.0845442,49.0589659 68.0272009,49.5885479 67.89,50.1 C67.834269,50.3784139 67.5938115,50.581559 67.31,50.59 L67.14,50.32 C67.1038768,50.2090244 67.056987,50.1018477 67,50 L66.78,49.82 C66.690617,49.7730239 66.5909704,49.7489713 66.49,49.75 C66.3462886,49.7427569 66.208116,49.8062416 66.12,49.92 C66.0342051,50.0355887 65.9885527,50.1760576 65.99,50.32 C65.9930906,50.4998382 66.0823752,50.6672467 66.23,50.77 C66.4392003,50.9099808 66.6888475,50.9767878 66.94,50.96 C67.2310084,50.9632545 67.5187201,50.8981769 67.78,50.77 C68.0452403,50.6358572 68.2800949,50.4486543 68.47,50.22 C68.6723538,49.9676411 68.825048,49.6792187 68.92,49.37 C69.0353176,49.0148291 69.0927183,48.6434128 69.09,48.27 L69.09,43.39 L69,43.31 L66.86,43.43 Z" id="Shape"></path>
                <path d="M68.44,40.55 C68.2587026,40.5510873 68.0869649,40.6314752 67.97,40.77 C67.8405466,40.9081556 67.7689705,41.0906746 67.77,41.28 C67.7710246,41.463005 67.8426742,41.6385465 67.97,41.77 C68.0869649,41.9085248 68.2587026,41.9889127 68.44,41.99 C68.629624,41.990984 68.8096047,41.9065033 68.93,41.76 C69.0607305,41.6146401 69.1321087,41.4254879 69.13,41.23 C69.1333237,41.0510442 69.0649055,40.8781984 68.94,40.75 C68.8093481,40.6152784 68.6275214,40.5425478 68.44,40.55 Z" id="Shape"></path>
                <path d="M72.91,43.23 C72.1906717,43.1908608 71.4910558,43.4729049 71,44 C70.5128645,44.5499408 70.2551723,45.2657524 70.28,46 C70.27619,46.3932034 70.3474653,46.7835204 70.49,47.15 C70.6144783,47.4732761 70.8013628,47.7688934 71.04,48.02 C71.2693389,48.2570441 71.5450756,48.4442727 71.85,48.57 C72.1664418,48.7023576 72.5070658,48.7670762 72.85,48.76 C73.2238557,48.7651019 73.5948001,48.6936356 73.94,48.55 C74.2678944,48.4079581 74.5587249,48.1924014 74.79,47.92 C75.0163837,47.6535267 75.1864676,47.343974 75.29,47.01 C75.3930641,46.6831164 75.4469862,46.3427331 75.45,46 C75.4900574,45.2634392 75.230345,44.542016 74.73,44 C74.2598045,43.4971 73.5983529,43.2172551 72.91,43.23 Z M73.91,47.75 C73.7069628,48.1487143 73.297434,48.3998404 72.85,48.4 C72.609018,48.4095361 72.3711365,48.3430692 72.17,48.21 C71.9759621,48.0690811 71.818278,47.8839736 71.71,47.67 C71.584311,47.4246763 71.496643,47.1616723 71.45,46.89 C71.3934352,46.5765646 71.3666492,46.2584809 71.37,45.94 C71.3708549,45.6685271 71.3942688,45.3975947 71.44,45.13 C71.4800776,44.8721254 71.5610987,44.6223102 71.68,44.39 C71.7891033,44.1708387 71.9505281,43.9819373 72.15,43.84 C72.3569933,43.7024553 72.6015858,43.6325717 72.85,43.64 C73.0922502,43.6320123 73.3306492,43.7021296 73.53,43.84 C73.7202223,43.9781417 73.8745383,44.1598917 73.98,44.37 C74.0966292,44.6067638 74.1775087,44.859512 74.22,45.12 C74.271967,45.4003799 74.2987405,45.6848476 74.3,45.97 C74.3584291,46.5761535 74.2549036,47.1869538 74,47.74 L73.91,47.75 Z" id="Shape"></path>
                <path d="M81.32,48.08 L81.11,47.86 C81.0468903,47.7717813 81.0088755,47.6681046 81,47.56 L81,43.39 L81,43.31 L79,43.44 L79,43.79 L79.42,43.79 C79.5218918,43.7916071 79.6216955,43.8191391 79.71,43.87 C79.7963837,43.9299239 79.8681601,44.0085361 79.92,44.1 C79.9690264,44.1958043 79.993102,44.3024248 79.99,44.41 L79.99,47.41 L79.82,47.64 C79.7446713,47.7279411 79.6609412,47.808322 79.57,47.88 C79.4541107,47.9679396 79.3261213,48.0386706 79.19,48.09 C79.0238129,48.1522283 78.8474343,48.1827554 78.67,48.18 C78.4335097,48.1795095 78.2096772,48.0730973 78.06,47.89 C77.8775106,47.631484 77.7989738,47.3137671 77.84,47 L77.84,43.39 L77.76,43.32 L76,43.44 L76,43.79 L76.31,43.79 C76.5006665,43.8231441 76.6660964,43.9407831 76.76,44.11 C76.8098532,44.2090896 76.833928,44.3191458 76.83,44.43 L76.83,47 C76.7977112,47.4680072 76.9245783,47.9331866 77.19,48.32 C77.4500828,48.6331675 77.8436215,48.8039485 78.25,48.78 C78.4623376,48.7888331 78.6747804,48.7652283 78.88,48.71 C79.0407692,48.6533511 79.1949874,48.5795945 79.34,48.49 C79.4732663,48.4144665 79.5974135,48.3238725 79.71,48.22 L80,47.91 L80,47.91 L80,48.58 L80.08,48.65 L81.8,48.53 L81.8,48.18 L81.51,48.18 L81.32,48.08 Z" id="Shape"></path>
                <path d="M85.76,43.25 C85.498797,43.2601761 85.2443387,43.3358259 85.02,43.47 C84.7300804,43.6360906 84.4780353,43.8608876 84.28,44.13 L84.28,44.13 L84.28,43.39 L84.21,43.32 L82.46,43.44 L82.46,43.79 L82.76,43.79 C82.8446819,43.8056103 82.9259342,43.8360799 83,43.88 C83.0951393,43.945572 83.1710796,44.0353197 83.22,44.14 C83.2704027,44.2392892 83.2977486,44.3486729 83.3,44.46 L83.3,47.7 C83.3049548,47.8077468 83.2807732,47.9148369 83.23,48.01 C83.180774,48.0924227 83.1021749,48.1531584 83.01,48.18 L82.78,48.18 L82.53,48.18 L82.53,48.53 L85.3,48.53 L85.3,48.28 L84.93,48.28 C84.8138235,48.2673266 84.6996386,48.2404596 84.59,48.2 C84.4807938,48.1693386 84.3876476,48.0976876 84.33,48 C84.280051,47.9081381 84.2558645,47.8044817 84.26,47.7 L84.26,44.62 C84.3960263,44.3695346 84.5918281,44.1565572 84.83,44 C85.0051999,43.881685 85.2089682,43.8126109 85.42,43.8 L85.42,43.99 L85.42,44.2 C85.4237373,44.3306507 85.4817108,44.4538444 85.58,44.54 C85.7066906,44.6502352 85.8726798,44.7043621 86.04,44.69 C86.2048517,44.7005589 86.3622367,44.6199471 86.45,44.48 C86.5385808,44.3358263 86.5837166,44.1691709 86.58,44 C86.5919332,43.7831323 86.5162711,43.5705577 86.37,43.41 C86.2013795,43.2670594 85.9770707,43.2082242 85.76,43.25 Z" id="Shape"></path>
                <path d="M92.29,48.17 C92.1998648,48.1392588 92.1224848,48.0794652 92.07,48 C92.025254,47.906582 92.004626,47.803442 92.01,47.7 L92.01,45 C92.0319985,44.5503269 91.9016344,44.1063841 91.64,43.74 C91.3641811,43.4120543 90.9472488,43.2370916 90.52,43.27 C90.3132368,43.2682872 90.1074585,43.2986479 89.91,43.36 C89.7445747,43.4084702 89.5864725,43.4791117 89.44,43.57 C89.3122657,43.6566515 89.1918612,43.753644 89.08,43.86 L88.76,44.17 L88.76,44.17 L88.76,43.39 L88.69,43.32 L86.94,43.44 L86.94,43.79 L87.24,43.79 C87.3246819,43.8056103 87.4059342,43.8360799 87.48,43.88 C87.5734972,43.9431583 87.6492416,44.0292316 87.7,44.13 C87.7525948,44.2320488 87.7800242,44.3451951 87.78,44.46 L87.78,47.7 C87.7849548,47.8077468 87.7607732,47.9148369 87.71,48.01 C87.660774,48.0924227 87.5821749,48.1531584 87.49,48.18 L87.26,48.18 L87.01,48.18 L87.01,48.53 L89.59,48.53 L89.59,48.28 L89.32,48.28 L89,48.16 C88.923725,48.1242615 88.8581975,48.0690805 88.81,48 C88.758566,47.9087096 88.7342799,47.8046264 88.74,47.7 L88.74,44.7 L88.89,44.47 C88.9685884,44.3686972 89.0631614,44.2808795 89.17,44.21 C89.2973301,44.1231013 89.4350759,44.0525485 89.58,44 C89.7464851,43.9388775 89.9226567,43.9083862 90.1,43.91 C90.3476946,43.9082034 90.5829277,44.0184689 90.74,44.21 C90.9121865,44.4370512 91.0036853,44.7150669 91,45 L91,47.7 C91.0049548,47.8077468 90.9807732,47.9148369 90.93,48.01 C90.880774,48.0924227 90.8021749,48.1531584 90.71,48.18 C90.6302901,48.1896348 90.5497099,48.1896348 90.47,48.18 L90.2,48.18 L90.2,48.53 L92.77,48.53 L92.77,48.28 L92.51,48.28 L92.29,48.17 Z" id="Shape"></path>
                <path d="M97.79,48.14 C97.6992923,48.0908156 97.6233479,48.0183232 97.57,47.93 C97.5180315,47.8280773 97.4938849,47.7142435 97.5,47.6 C97.5,47.1333333 97.5,46.7033333 97.5,46.31 C97.5,45.9166667 97.5,45.4666667 97.5,44.96 C97.5100956,44.6636713 97.4625488,44.368202 97.36,44.09 C97.2905082,43.8810166 97.1661801,43.6945245 97,43.55 C96.8198467,43.4167359 96.6108962,43.327675 96.39,43.29 C96.1323232,43.2466677 95.8712726,43.2265869 95.61,43.23 C95.3829331,43.2297845 95.1571078,43.2634897 94.94,43.33 C94.7366902,43.3879602 94.5417374,43.4719916 94.36,43.58 C94.1878962,43.6861715 94.0356169,43.8215308 93.91,43.98 C93.7149569,44.2446089 93.7149569,44.6053911 93.91,44.87 C93.997574,44.9974728 94.1456426,45.0696088 94.3,45.06 C94.4701666,45.0726364 94.6386141,45.0188765 94.77,44.91 C94.8730343,44.8264757 94.9350012,44.702542 94.94,44.57 C94.9383352,44.4418078 94.9215526,44.3142596 94.89,44.19 C94.8621608,44.0887813 94.8453958,43.9848386 94.84,43.88 C94.9269967,43.8029569 95.0292019,43.7450406 95.14,43.71 C95.2868842,43.6544457 95.4429842,43.6272979 95.6,43.63 C95.7947439,43.6190805 95.9877644,43.6717224 96.15,43.78 C96.2733532,43.870368 96.3756944,43.9863547 96.45,44.12 C96.514757,44.2347277 96.5587649,44.3599808 96.58,44.49 C96.585429,44.5799181 96.585429,44.6700819 96.58,44.76 L96.58,45.29 C96.2564369,45.4410194 95.9222014,45.5680289 95.58,45.67 L94.58,46.01 C94.4385625,46.0664065 94.3015176,46.1332577 94.17,46.21 C94.0368434,46.2848328 93.9182782,46.3830725 93.82,46.5 C93.7061929,46.6250601 93.6178767,46.7711215 93.56,46.93 C93.4995832,47.1035909 93.4691487,47.2861977 93.47,47.47 C93.4553266,47.8263789 93.5935959,48.1720521 93.85,48.42 C94.1200877,48.6716848 94.4814648,48.8017806 94.85,48.78 C95.1947341,48.7969277 95.5382946,48.7282156 95.85,48.58 C96.104878,48.4264315 96.3315023,48.2302492 96.52,48 L96.52,48 C96.5514584,48.2233907 96.6656648,48.4268208 96.84,48.57 C97.0306701,48.7092649 97.2644682,48.7765704 97.5,48.76 C97.6699816,48.7616674 97.8390245,48.7346206 98,48.68 L98.44,48.53 L98.44,48.2 L98,48.2 C97.926644,48.1945123 97.8551826,48.1740948 97.79,48.14 L97.79,48.14 Z M96.51,47.57 C96.3652711,47.7408736 96.1928736,47.8862283 96,48 C95.7990234,48.1241108 95.5661152,48.1866831 95.33,48.18 C95.1244736,48.1909891 94.921941,48.1270314 94.76,48 C94.5927088,47.8269338 94.5087883,47.5897672 94.53,47.35 C94.5229511,47.1430787 94.5749806,46.9384294 94.68,46.76 C94.7884284,46.5889038 94.931502,46.4424236 95.1,46.33 C95.300367,46.1964901 95.5150339,46.0858025 95.74,46 C95.9666667,45.9133333 96.23,45.8266667 96.53,45.74 L96.51,47.57 Z" id="Shape"></path>
                <path d="M100.89,48.16 C100.798772,48.1259927 100.721399,48.0626877 100.67,47.98 C100.619686,47.8846668 100.595533,47.7777032 100.6,47.67 L100.6,40.46 L100.53,40.38 L98.53,40.5 L98.53,40.84 L99,40.9 C99.1225586,40.9201369 99.2408686,40.9607003 99.35,41.02 C99.4436205,41.0872326 99.5191906,41.1765427 99.57,41.28 C99.6239925,41.3922525 99.6513686,41.515445 99.65,41.64 L99.65,47.73 C99.6559841,47.8378352 99.6317406,47.9451994 99.58,48.04 C99.529353,48.1211496 99.4513015,48.1814621 99.36,48.21 L99.13,48.21 L98.87,48.21 L98.87,48.56 L101.43,48.56 L101.43,48.28 L101.17,48.28 L100.89,48.16 Z" id="Shape"></path>
                <path d="M107.27,43.23 C106.559389,43.20238 105.872342,43.4874315 105.39,44.01 C104.902864,44.5599408 104.645172,45.2757524 104.67,46.01 C104.665944,46.4032244 104.737228,46.7935878 104.88,47.16 C105.004478,47.4832761 105.191363,47.7788934 105.43,48.03 C105.659523,48.2668247 105.935212,48.4540204 106.24,48.58 C106.556442,48.7123576 106.897066,48.7770762 107.24,48.77 C107.613856,48.7751019 107.9848,48.7036356 108.33,48.56 C108.657894,48.4179581 108.948725,48.2024014 109.18,47.93 C109.406156,47.6633699 109.576213,47.3538659 109.68,47.02 C109.797824,46.6686106 109.858594,46.3006145 109.86,45.93 C109.900057,45.1934392 109.640345,44.472016 109.14,43.93 C108.646466,43.4384028 107.965029,43.1833195 107.27,43.23 L107.27,43.23 Z M108.27,47.75 C108.066963,48.1487143 107.657434,48.3998404 107.21,48.4 C106.969018,48.4095361 106.731136,48.3430692 106.53,48.21 C106.335698,48.0693668 106.177954,47.8841891 106.07,47.67 C105.944454,47.4246164 105.856793,47.1616346 105.81,46.89 C105.753435,46.5765646 105.726649,46.2584809 105.73,45.94 C105.730809,45.668525 105.754223,45.3975888 105.8,45.13 C105.840078,44.8721254 105.921099,44.6223102 106.04,44.39 C106.149103,44.1708387 106.310528,43.9819373 106.51,43.84 C106.716993,43.7024553 106.961586,43.6325717 107.21,43.64 C107.45225,43.6320123 107.690649,43.7021296 107.89,43.84 C108.080222,43.9781417 108.234538,44.1598917 108.34,44.37 C108.456629,44.6067638 108.537509,44.859512 108.58,45.12 C108.631967,45.4003799 108.65874,45.6848476 108.66,45.97 C108.702894,46.5806318 108.582071,47.1916495 108.31,47.74 L108.27,47.75 Z" id="Shape"></path>
                <path d="M113.52,40.38 C112.916336,40.3720547 112.34338,40.6455949 111.97,41.12 C111.537201,41.6712998 111.317139,42.3598812 111.35,43.06 L111.35,43.4 L110.35,43.4 L110.35,43.91 L111.35,43.91 L111.35,47.74 C111.354955,47.8477468 111.330773,47.9548369 111.28,48.05 C111.230774,48.1324227 111.152175,48.1931584 111.06,48.22 L110.83,48.22 L110.58,48.22 L110.58,48.57 L113.35,48.57 L113.35,48.28 L112.98,48.28 C112.864142,48.2655126 112.750162,48.2386938 112.64,48.2 C112.544681,48.1686715 112.463318,48.1049963 112.41,48.02 C112.359574,47.9283202 112.335356,47.8245294 112.34,47.72 L112.34,43.91 L113.69,43.91 L113.69,43.4 L112.34,43.4 L112.34,42.86 C112.313001,42.3427999 112.377317,41.8248868 112.53,41.33 C112.593133,41.0661264 112.811321,40.8677729 113.08,40.83 L113.23,41.07 C113.287641,41.1663475 113.354631,41.2567839 113.43,41.34 L113.66,41.53 C113.749074,41.577791 113.848933,41.6018948 113.95,41.6 C114.099969,41.6104662 114.245589,41.5469906 114.34,41.43 C114.429335,41.312423 114.475263,41.1675715 114.47,41.02 C114.466909,40.8401618 114.377625,40.6727533 114.23,40.57 C114.020489,40.430707 113.771079,40.3639635 113.52,40.38 Z" id="Shape"></path>
                <path d="M120.22,46.06 C120.066234,45.9267379 119.894568,45.8156598 119.71,45.73 C119.49615,45.628468 119.275641,45.5416008 119.05,45.47 L118.45,45.26 C118.309866,45.2079025 118.175758,45.1408484 118.05,45.06 C117.945263,44.9924849 117.859271,44.8996138 117.8,44.79 C117.74164,44.6650121 117.714201,44.5278197 117.72,44.39 C117.71903,44.1846472 117.810914,43.9898546 117.97,43.86 C118.164434,43.7030314 118.410591,43.6245464 118.66,43.64 C118.996003,43.6351857 119.320008,43.7647878 119.56,44 C119.811973,44.249146 119.979793,44.5708022 120.04,44.92 L120.41,44.92 L120.33,43.23 L119.95,43.23 L119.83,43.51 C119.662289,43.4240232 119.484137,43.3601574 119.3,43.32 C119.094039,43.2677891 118.882473,43.2409237 118.67,43.24 C118.197725,43.2157213 117.734703,43.3772405 117.38,43.69 C117.070202,43.9670419 116.895208,44.3644233 116.9,44.78 C116.894793,45.0026147 116.946419,45.2228825 117.05,45.42 C117.14481,45.5970816 117.273999,45.7534673 117.43,45.88 C117.591455,46.0073835 117.769827,46.1117145 117.96,46.19 C118.142636,46.2703104 118.329591,46.3404183 118.52,46.4 L119.09,46.59 C119.241502,46.6461323 119.385837,46.7199781 119.52,46.81 C119.627704,46.8855111 119.716652,46.9847218 119.78,47.1 C119.842561,47.2202741 119.87353,47.3544741 119.87,47.49 C119.88603,47.7447396 119.782523,47.9924167 119.59,48.16 C119.362391,48.3281619 119.082304,48.4097063 118.8,48.39 C118.573236,48.3929559 118.349482,48.3378781 118.15,48.23 C117.961464,48.1265727 117.792291,47.9912344 117.65,47.83 C117.51552,47.6787388 117.401233,47.5106694 117.31,47.33 C117.228851,47.175232 117.168335,47.0104958 117.13,46.84 L116.76,46.84 L116.81,48.67 L117.21,48.67 L117.32,48.32 C117.488926,48.4444078 117.673946,48.5453277 117.87,48.62 C118.624153,48.9205523 119.480375,48.8068946 120.13,48.32 C120.487359,48.0296262 120.69039,47.590342 120.68,47.13 C120.684893,46.9203546 120.643939,46.7121702 120.56,46.52 C120.481096,46.3439823 120.365121,46.1870745 120.22,46.06 L120.22,46.06 Z" id="Shape"></path>
                <path d="M125,47.94 C124.744413,48.1146859 124.439334,48.2023522 124.13,48.19 C123.663572,48.1927686 123.228758,47.954566 122.98,47.56 C122.668688,47.078783 122.514906,46.5125865 122.54,45.94 C122.532951,45.5763173 122.57329,45.213265 122.66,44.86 C122.721622,44.6024107 122.830093,44.3583511 122.98,44.14 C123.095169,43.9719938 123.24965,43.8346775 123.43,43.74 C123.582901,43.6667156 123.750446,43.6291035 123.92,43.63 C124.058845,43.6301293 124.196941,43.6503385 124.33,43.69 C124.448576,43.7237698 124.549135,43.8027802 124.61,43.91 C124.595211,44.0347975 124.571822,44.1584248 124.54,44.28 C124.499842,44.4402288 124.479688,44.6048156 124.48,44.77 C124.481884,44.9089506 124.543894,45.0402656 124.65,45.13 C124.786531,45.2446302 124.96213,45.3019687 125.14,45.29 C125.307876,45.3021097 125.468962,45.2215667 125.56,45.08 C125.646743,44.9387076 125.691807,44.7757848 125.69,44.61 C125.700584,44.2164715 125.517475,43.8427796 125.2,43.61 C124.833616,43.3483656 124.389673,43.2180015 123.94,43.24 C123.593678,43.241067 123.251988,43.3196556 122.94,43.47 C122.636026,43.6144208 122.366617,43.8224454 122.15,44.08 C121.932342,44.3412752 121.763025,44.639274 121.65,44.96 C121.30451,45.9994265 121.479362,47.1415442 122.12,48.03 C122.568067,48.5450907 123.228215,48.8253767 123.91,48.79 C124.334219,48.7850864 124.747786,48.6564982 125.1,48.42 C125.48915,48.1701642 125.809012,47.8262264 126.03,47.42 L125.69,47.2 C125.513759,47.4918117 125.27879,47.7438075 125,47.94 L125,47.94 Z" id="Shape"></path>
                <path d="M127.15,40.77 C127.019656,40.9075915 126.947934,41.090483 126.95,41.28 C126.951025,41.463005 127.022674,41.6385465 127.15,41.77 C127.266965,41.9085248 127.438703,41.9889127 127.62,41.99 C127.809624,41.990984 127.989605,41.9065033 128.11,41.76 C128.241591,41.6151655 128.313102,41.4256623 128.31,41.23 C128.313324,41.0510442 128.244906,40.8781984 128.12,40.75 C127.991118,40.611597 127.809056,40.5351311 127.62,40.54 C127.437071,40.5435619 127.265055,40.6277397 127.15,40.77 Z" id="Shape"></path>
                <path d="M128.5,48.16 C128.404269,48.1294468 128.322665,48.0655827 128.27,47.98 C128.219686,47.8846668 128.195533,47.7777032 128.2,47.67 L128.2,43.39 L128.13,43.32 L126.27,43.44 L126.27,43.79 L126.62,43.85 C126.721799,43.8713612 126.819643,43.9084741 126.91,43.96 C127.001428,44.0213058 127.076861,44.1035965 127.13,44.2 C127.182499,44.2948869 127.210027,44.4015578 127.21,44.51 L127.21,47.75 C127.214955,47.8577468 127.190773,47.9648369 127.14,48.06 C127.090774,48.1424227 127.012175,48.2031584 126.92,48.23 L126.69,48.23 L126.44,48.23 L126.44,48.58 L129,48.58 L129,48.28 L128.75,48.28 L128.5,48.16 Z" id="Shape"></path>
                <path d="M133.26,48 C133.014017,48.1518406 132.728953,48.2283213 132.44,48.22 C132.162559,48.2269994 131.887706,48.1651573 131.64,48.04 C131.421951,47.9242586 131.236317,47.755813 131.1,47.55 C130.953168,47.3238975 130.848165,47.0732468 130.79,46.81 C130.720886,46.5015124 130.687334,46.1861237 130.69,45.87 L134.17,45.87 L134.17,45.49 C134.172445,45.1924275 134.13203,44.8960532 134.05,44.61 C133.974547,44.3543413 133.848749,44.116345 133.68,43.91 C133.500066,43.6919407 133.27025,43.520436 133.01,43.41 C132.693075,43.2802024 132.352293,43.2188616 132.01,43.23 C131.663073,43.2256207 131.320153,43.3044923 131.01,43.46 C130.719608,43.6079032 130.463961,43.8158289 130.26,44.07 C130.048049,44.3355646 129.885472,44.6370084 129.78,44.96 C129.673758,45.282687 129.619744,45.6202734 129.62,45.96 C129.617542,46.3253574 129.668068,46.6891412 129.77,47.04 C129.862495,47.3673945 130.018828,47.673263 130.23,47.94 C130.442616,48.2016911 130.713036,48.4104966 131.02,48.55 C131.369261,48.7042529 131.748307,48.7793791 132.13,48.77 C132.581012,48.7779523 133.023832,48.6489418 133.4,48.4 C133.776195,48.1469908 134.082341,47.8030059 134.29,47.4 L133.92,47.17 C133.770967,47.4963425 133.544385,47.7812862 133.26,48 Z M131.09,44.13 C131.306073,43.8325325 131.652347,43.6575336 132.02,43.66 C132.214591,43.6505037 132.407173,43.7030262 132.57,43.81 C132.714508,43.9133396 132.831291,44.0507318 132.91,44.21 C132.991315,44.3910104 133.045239,44.5831147 133.07,44.78 C133.102443,44.9918065 133.119155,45.2057249 133.12,45.42 L130.69,45.42 C130.675494,44.9481097 130.815993,44.4844619 131.09,44.1 L131.09,44.13 Z" id="Shape"></path>
                <path d="M140.23,48.17 C140.136182,48.141237 140.055023,48.0812503 140,48 C139.955254,47.906582 139.934626,47.803442 139.94,47.7 L139.94,45 C139.961999,44.5503269 139.831634,44.1063841 139.57,43.74 C139.294181,43.4120543 138.877249,43.2370916 138.45,43.27 C138.243237,43.2682872 138.037459,43.2986479 137.84,43.36 C137.674575,43.4084702 137.516472,43.4791117 137.37,43.57 C137.242292,43.6566876 137.121891,43.7536778 137.01,43.86 L136.69,44.17 L136.69,44.17 L136.69,43.39 L136.62,43.32 L134.87,43.44 L134.87,43.79 L135.17,43.79 C135.254682,43.8056103 135.335934,43.8360799 135.41,43.88 C135.503497,43.9431583 135.579242,44.0292316 135.63,44.13 C135.682595,44.2320488 135.710024,44.3451951 135.71,44.46 L135.71,47.7 C135.714955,47.8077468 135.690773,47.9148369 135.64,48.01 C135.590774,48.0924227 135.512175,48.1531584 135.42,48.18 L135.19,48.18 L134.94,48.18 L134.94,48.53 L137.52,48.53 L137.52,48.28 L137.25,48.28 L137,48.16 C136.910175,48.1235879 136.833478,48.0608357 136.78,47.98 C136.728566,47.8887096 136.70428,47.7846264 136.71,47.68 L136.71,44.68 L136.86,44.45 C136.938588,44.3486972 137.033161,44.2608795 137.14,44.19 C137.269868,44.0987641 137.411052,44.0248102 137.56,43.97 C137.726485,43.9088775 137.902657,43.8783862 138.08,43.88 C138.327695,43.8782034 138.562928,43.9884689 138.72,44.18 C138.907731,44.425835 139.000092,44.7313347 138.98,45.04 L138.98,47.74 C138.984955,47.8477468 138.960773,47.9548369 138.91,48.05 C138.860774,48.1324227 138.782175,48.1931584 138.69,48.22 C138.61029,48.2296348 138.52971,48.2296348 138.45,48.22 L138.18,48.22 L138.18,48.57 L140.75,48.57 L140.75,48.28 L140.49,48.28 L140.23,48.17 Z" id="Shape"></path>
                <path d="M144.92,47.94 C144.664413,48.1146859 144.359334,48.2023522 144.05,48.19 C143.583572,48.1927686 143.148758,47.954566 142.9,47.56 C142.588688,47.078783 142.434906,46.5125865 142.46,45.94 C142.452951,45.5763173 142.49329,45.213265 142.58,44.86 C142.641622,44.6024107 142.750093,44.3583511 142.9,44.14 C143.015169,43.9719938 143.16965,43.8346775 143.35,43.74 C143.502901,43.6667156 143.670446,43.6291035 143.84,43.63 C143.978845,43.6301293 144.116941,43.6503385 144.25,43.69 C144.368576,43.7237698 144.469135,43.8027802 144.53,43.91 C144.515211,44.0347975 144.491822,44.1584248 144.46,44.28 C144.419842,44.4402288 144.399688,44.6048156 144.4,44.77 C144.401884,44.9089506 144.463894,45.0402656 144.57,45.13 C144.706531,45.2446302 144.88213,45.3019687 145.06,45.29 C145.227876,45.3021097 145.388962,45.2215667 145.48,45.08 C145.566743,44.9387076 145.611807,44.7757848 145.61,44.61 C145.620584,44.2164715 145.437475,43.8427796 145.12,43.61 C144.753616,43.3483656 144.309673,43.2180015 143.86,43.24 C143.513678,43.241067 143.171988,43.3196556 142.86,43.47 C142.556189,43.6146863 142.286833,43.8226703 142.07,44.08 C141.852518,44.341397 141.683219,44.6393627 141.57,44.96 C141.223237,45.9841952 141.382784,47.112157 142,48 C142.448067,48.5150907 143.108215,48.7953767 143.79,48.76 C144.220012,48.7619657 144.641,48.6367129 145,48.4 C145.38915,48.1501642 145.709012,47.8062264 145.93,47.4 L145.59,47.18 C145.421819,47.4770778 145.193647,47.7358996 144.92,47.94 L144.92,47.94 Z" id="Shape"></path>
                <path d="M150.61,47.17 C150.456897,47.4854527 150.23061,47.7597403 149.95,47.97 C149.704017,48.1218406 149.418953,48.1983213 149.13,48.19 C148.852559,48.1969994 148.577706,48.1351573 148.33,48.01 C148.111951,47.8942586 147.926317,47.725813 147.79,47.52 C147.643168,47.2938975 147.538165,47.0432468 147.48,46.78 C147.410886,46.4715124 147.377334,46.1561237 147.38,45.84 L150.86,45.84 L150.86,45.49 C150.862445,45.1924275 150.82203,44.8960532 150.74,44.61 C150.664547,44.3543413 150.538749,44.116345 150.37,43.91 C150.190066,43.6919407 149.96025,43.520436 149.7,43.41 C149.383075,43.2802024 149.042293,43.2188616 148.7,43.23 C148.353073,43.2256207 148.010153,43.3044923 147.7,43.46 C147.409774,43.6081587 147.154177,43.8160439 146.95,44.07 C146.738049,44.3355646 146.575472,44.6370084 146.47,44.96 C146.363758,45.282687 146.309744,45.6202734 146.31,45.96 C146.307542,46.3253574 146.358068,46.6891412 146.46,47.04 C146.552495,47.3673945 146.708828,47.673263 146.92,47.94 C147.132616,48.2016911 147.403036,48.4104966 147.71,48.55 C148.059261,48.7042529 148.438307,48.7793791 148.82,48.77 C149.271012,48.7779523 149.713832,48.6489418 150.09,48.4 C150.466195,48.1469908 150.772341,47.8030059 150.98,47.4 L150.61,47.17 Z M147.78,44.1 C147.996073,43.8025325 148.342347,43.6275336 148.71,43.63 C148.904591,43.6205037 149.097173,43.6730262 149.26,43.78 C149.404508,43.8833396 149.521291,44.0207318 149.6,44.18 C149.681315,44.3610104 149.735239,44.5531147 149.76,44.75 C149.79248,44.9618023 149.809192,45.1757234 149.81,45.39 L147.38,45.39 C147.372016,44.9282979 147.512204,44.476189 147.78,44.1 Z" id="Shape"></path>
            </g>
        </g>
    </g>
</svg>