<?xml version="1.0" encoding="utf-8"?>
<!-- Generator: Adobe Illustrator 19.2.1, SVG Export Plug-In . SVG Version: 6.00 Build 0)  -->
<svg version="1.1" id="Layer_1" xmlns="http://www.w3.org/2000/svg" xmlns:xlink="http://www.w3.org/1999/xlink" x="0px" y="0px"
	 width="219.5px" height="50px" viewBox="0 0 219.5 50" style="enable-background:new 0 0 219.5 50;" xml:space="preserve">
<style type="text/css">
	.st0{fill:#FFFFFF;}
</style>
<g>
	<path class="st0" d="M0.3,17.1c0.1,0,0.2,0,0.4,0c0.2,0,2.6-0.1,3.2-0.1c0.6,0,2.8,0.1,3.1,0.1l0.1,0c0.1,0,0.3,0,0.4,0L7.7,17
		c0.1-0.1,0.1-0.1,0.1-0.2c0-0.1-0.1-0.2-0.2-0.3c-0.1-0.1-0.3-0.1-0.5-0.2c-0.2,0-0.4-0.1-0.5-0.2l0,0c-0.5-0.2-0.8-0.4-0.9-0.8
		l0,0l0,0c-0.2-0.8-0.2-2-0.2-4.6c0-1.9,0-3.9,0.6-4.8c0.4-0.6,1.4-1.5,2.5-1.5c1.2,0,1.8,0.2,2.5,1c0.6,0.7,0.6,2.2,0.6,4.8
		c0,0.2,0,0.3,0,0.5c0,2.3,0,3.5-0.1,4.4c-0.1,0.4-0.2,0.6-0.3,0.7c-0.2,0.1-0.4,0.2-0.7,0.4c-0.2,0.1-0.5,0.1-0.8,0.2
		c-0.1,0-0.2,0.1-0.3,0.1c-0.1,0.1-0.2,0.2-0.2,0.3L9.4,17c0.2,0.1,0.4,0.1,0.8,0.1c0.4,0,2.3-0.1,3.2-0.1c0.8,0,2.6,0.1,3,0.1
		c0.2,0,0.4,0,0.5-0.1c0.1,0,0.3-0.2,0.3-0.3c0-0.1-0.1-0.2-0.1-0.2c-0.2-0.2-0.5-0.2-0.8-0.2c-0.3-0.1-0.6-0.2-0.8-0.2
		c-0.2-0.1-0.4-0.3-0.4-0.9C15,14.6,15,13.7,15,12.2c0-1,0-2.3,0-4.5c0-1-0.1-2.6-0.7-3.4l0,0c-0.8-1.1-1.9-1.9-3.8-1.9
		C9,2.5,7.9,3.1,7.1,3.7C6.7,4,6.4,4.4,6.2,4.6C6.1,4.7,6,4.8,5.9,4.9C5.8,4.9,5.7,4.9,5.7,4.9L5.6,4.9c0-0.1,0-0.2,0-0.2V3.1
		c0-0.2,0-0.4-0.1-0.5c0-0.1-0.2-0.3-0.4-0.3c-0.2,0-0.4,0.2-0.6,0.3l0,0l0,0C3.3,3.7,2.1,4.6,0.8,5l0,0L0.6,5.1
		C0.5,5.2,0.5,5.3,0.5,5.4c0,0.1,0,0.2,0.1,0.2C0.7,5.8,1,5.7,1.4,5.8l0,0C1.7,5.8,2,6,2.1,6.1l0,0c0.1,0.1,0.2,0.5,0.2,1.1
		c0,0.6,0,1.4,0,2.4c0,2.8,0,4.7-0.2,5.7C2.1,15.7,2,15.8,1.9,16c-0.2,0.1-0.4,0.2-0.8,0.3c-0.3,0.1-0.5,0.1-0.7,0.2
		c-0.1,0-0.2,0.1-0.3,0.1C0.1,16.6,0,16.7,0,16.8L0,17C0.1,17.1,0.2,17.1,0.3,17.1z"/>
	<path class="st0" d="M17.4,7.5c0.2,0.1,0.4,0.2,0.6,0.2c0.6,0,1.5-0.4,1.7-1.1l0,0l0,0c0.2-0.7,0.5-1.6,1-2.2
		c0.5-0.6,1.1-1.1,2.1-1.1c0.4,0,0.7,0,1,0.2c0.3,0.1,0.5,0.3,0.7,0.7c0.1,0.2,0.2,0.7,0.2,1.2c0,0.2,0,0.5,0,0.8
		c0,1.6,0,2.2-0.4,2.6c-0.3,0.4-1.1,0.7-2.6,1.5l0,0c-0.9,0.5-2,1-2.8,1.7c-0.8,0.7-1.5,1.6-1.5,2.8c0,0.6,0.2,1.2,0.7,1.8
		c0.5,0.5,1.2,1,2.2,0.9c2,0,3.4-1.2,4.1-2.3l0.1,0l0,0l0,0.1l0,0l0,0c0.3,1,1.3,2,2.7,2c1,0,1.9-0.5,2.5-1c0.3-0.3,0.5-0.5,0.7-0.8
		c0.2-0.3,0.2-0.5,0.2-0.7c0-0.1,0-0.2-0.1-0.2c0-0.1-0.1-0.1-0.2-0.1c-0.1,0-0.2,0.1-0.3,0.2c-0.3,0.2-0.8,0.7-1.4,0.7
		c-0.4,0-0.7-0.2-0.8-0.5c-0.2-0.3-0.2-0.8-0.2-1.3c0-1,0.2-6.3,0.2-8.3c0-1.2-0.6-2-1.4-2.4c-0.8-0.4-1.8-0.5-2.8-0.5
		c-2,0-3.6,0.8-4.7,1.7c-1.1,0.9-1.7,2.1-1.7,2.8C17.1,7.1,17.3,7.4,17.4,7.5z M23.8,14.5c-0.5,0.7-1.1,1.1-1.8,1.2
		c-0.3,0-0.8-0.1-1.1-0.4c-0.3-0.3-0.5-0.7-0.5-1.3c0-1.1,0.8-2.1,1.7-2.8c0.4-0.3,0.9-0.6,1.3-0.8c0.2-0.1,0.4-0.2,0.5-0.2
		c0.1,0,0.2-0.1,0.2-0.1c0.2,0,0.2,0,0.3,0.1c0.1,0.1,0.1,0.2,0.1,0.4C24.4,12.2,24.3,13.7,23.8,14.5z"/>
	<path class="st0" d="M69.3,7.8c2.9,0,5.3,0.2,7.3,0.2c0.5,0,0.8,0,1.1-0.1c0.1-0.1,0.2-0.2,0.3-0.3C78,7.4,78,7.3,78,7
		c0-2.4-2.4-4.7-5.5-4.8c-2.1,0-4,0.8-5.4,2.2c-1.4,1.4-2.3,3.4-2.3,5.7c0,2.2,0.7,4,2,5.3c1.2,1.3,3,2,4.9,2c1.8,0,3.3-0.8,4.5-1.7
		c0.6-0.4,1-0.9,1.3-1.3c0.2-0.2,0.3-0.4,0.4-0.5c0.1-0.2,0.1-0.3,0.1-0.4l-0.1-0.2c-0.1-0.1-0.2-0.1-0.3-0.1
		c-0.1,0-0.1,0.1-0.2,0.1c-0.4,0.4-1.6,1.8-4,1.8c-1.8,0-3.1-0.7-3.9-1.8c-0.8-1.1-1.2-2.6-1.2-4.3c0-0.7,0.1-1,0.2-1.1
		C68.7,7.8,68.9,7.8,69.3,7.8z M69.6,4.4c0.6-0.7,1.5-1.2,2.7-1.2c0.9,0,1.5,0.3,1.9,0.7c0.4,0.4,0.5,0.9,0.5,1.2
		c0,0.4-0.1,0.7-0.4,0.9c-0.7,0.7-2.5,0.8-3.8,0.8c-0.8,0-1.3,0-1.5-0.1c-0.1,0-0.2-0.1-0.3-0.1c0,0-0.1-0.1-0.1-0.2
		C68.7,5.9,69,5.1,69.6,4.4z"/>
	<path class="st0" d="M54.6,5.7c0.1,0,0.2,0.1,0.3,0.1l0,0l0,0c0.4,0,0.7,0.1,0.9,0.2c0.3,0.1,0.4,0.4,0.5,1c0.1,0.6,0.1,1.6,0.1,3
		c0,3.9-0.1,5.1-0.2,5.6c-0.1,0.2-0.4,0.4-0.7,0.5c-0.3,0.1-0.6,0.2-0.8,0.2l0,0l0,0c-0.2,0-0.3,0.1-0.5,0.1c-0.1,0-0.2,0.1-0.2,0.1
		C54,16.6,54,16.7,54,16.8c0,0.1,0.1,0.2,0.1,0.2c0.2,0.1,0.5,0.1,0.7,0.1c0.3,0,2.5-0.1,3.5-0.1c1,0,3.4,0.1,3.7,0.1
		c0.1,0,0.3,0,0.5,0c0.1,0,0.2,0,0.2-0.1c0.1,0,0.1-0.1,0.1-0.2c0-0.1,0-0.2-0.1-0.2c-0.1-0.1-0.2-0.1-0.3-0.2c-0.1,0-0.2,0-0.4-0.1
		c-0.2,0-0.7-0.1-1.1-0.2c-0.4-0.1-0.9-0.3-1-0.6l0,0c-0.1-0.1-0.2-0.5-0.2-1.1c0-0.6,0-1.3,0-2.2c0-0.5,0-1,0-1.5
		c0-1.3,0-2.4,0.1-3.3c0.1-0.9,0.2-1.5,0.5-1.7c0.2-0.3,0.4-0.6,0.9-0.6c0.5,0,0.8,0.3,1.2,0.6C62.6,6,63,6.4,63.7,6.4
		c0.5,0,1-0.2,1.3-0.5c0.3-0.3,0.6-0.8,0.6-1.4c0-0.6-0.2-1.1-0.6-1.5c-0.4-0.4-0.9-0.6-1.6-0.6c-1.1,0-2,0.6-2.6,1.2
		c-0.3,0.3-0.6,0.6-0.8,0.8c-0.1,0.1-0.2,0.2-0.3,0.3l-0.1,0.1l0,0c0,0,0-0.1,0-0.2V3c0-0.2,0-0.4-0.1-0.5c-0.1-0.1-0.2-0.2-0.3-0.2
		c-0.1,0-0.2,0-0.3,0.1c-0.1,0.1-0.3,0.2-0.5,0.4l0,0c-0.8,0.8-2.8,1.9-3.2,2.1l0,0C54.9,5,54.8,5,54.7,5.1
		c-0.1,0.1-0.2,0.2-0.2,0.3C54.4,5.6,54.5,5.7,54.6,5.7z"/>
	<path class="st0" d="M29.8,4.7c0.1,0,0.2,0.1,0.2,0.1h1c0.3,0,0.4,0.1,0.5,0.2c0.1,0.1,0.1,0.3,0.1,0.5c0,0.4-0.2,6.3-0.2,7.5
		c0,1.3,0.1,2.4,0.6,3.2c0.5,0.8,1.3,1.3,2.5,1.3c1.2,0,2.3-0.5,3.1-1c0.4-0.3,0.8-0.5,1-0.8c0.1-0.1,0.2-0.2,0.3-0.3
		c0.1-0.1,0.1-0.2,0.1-0.3c0-0.1,0-0.2-0.1-0.2c-0.1-0.1-0.1-0.1-0.2-0.1l-0.1,0c-0.3,0.1-1.3,0.5-2.2,0.5c-0.8,0-1.2-0.2-1.5-0.7
		c-0.3-0.5-0.3-1.3-0.3-2.6c0-0.2,0-0.3,0-0.5c0-3.7,0-5.5,0.1-6.6c0-0.4,0.1-0.6,0.1-0.6L35,4.4c0.1,0,0.1,0,0.2,0c0.5,0,1.2,0,2,0
		c1.3,0,1.9,0,2.2,0.1c0.1,0.1,0.2,0.1,0.2,0.3c0,0.2,0,0.4,0,0.7c0,0.7-0.1,5.9-0.1,7.7c0,1.6,0.6,2.7,1.4,3.4
		c0.8,0.7,1.8,0.9,2.7,0.9c1.4,0,2.6-0.6,3.4-1.2c0.4-0.3,0.8-0.6,1-0.8c0.1-0.1,0.2-0.2,0.3-0.3l0.1-0.1l0,0l0,0l0.1,0.1
		c0,0.1,0,0.2,0,0.3c0,0.6,0,1,0,1.5c0,0.2,0,0.3,0.1,0.5c0.1,0.1,0.2,0.2,0.3,0.2c0.1,0,0.2,0,0.3-0.1c0.1,0,0.2-0.1,0.3-0.1l0,0
		l0,0c1-0.4,3.5-1.1,4.1-1.2v0c0.2,0,0.4-0.1,0.5-0.1c0.1-0.1,0.2-0.2,0.2-0.3c0-0.1,0-0.2-0.1-0.3c-0.1-0.1-0.2-0.1-0.3-0.1
		c-0.1,0-0.7,0-0.9,0c-0.3,0-0.6,0-0.7-0.1c-0.2-0.1-0.2-0.1-0.3-0.2C52.1,15,52,14.5,52,13.9c0-0.6,0-1.4,0-2.3c0-3,0.2-6.8,0.2-8
		c0-0.2,0-0.4-0.1-0.5c-0.1-0.1-0.3-0.2-0.5-0.2l-0.1,0v0l-4.6,0.1l0,0c-0.2,0-0.4,0-0.5,0.1c-0.1,0.1-0.2,0.2-0.2,0.3
		c0,0.1,0,0.2,0.1,0.2c0.1,0.1,0.2,0.1,0.3,0.1c0.1,0,0.3,0,0.6,0.1l0,0l0,0c0.6,0.1,1.1,0.1,1.3,0.4l0,0l0,0
		c0.1,0.1,0.3,0.6,0.3,1.5c0,0.9,0,2.1,0,3.8c0,0.8,0,1.7-0.1,2.5c0,0.8-0.2,1.4-0.3,1.7c-0.5,0.9-1.7,1.4-2.8,1.4
		c-1.1,0-1.7-0.3-2.2-0.7c-0.4-0.4-0.6-1.1-0.6-1.8c0-6.3,0.1-7.6,0.1-8.9c0-0.3,0-0.5-0.1-0.7c-0.1-0.1-0.1-0.1-0.2-0.2
		c-0.1,0-0.2,0-0.4,0l-0.1,0l-7,0.3c-0.1,0-0.1,0-0.2-0.1c0,0-0.1-0.1-0.1-0.3c0-0.6,0.1-1.6,0.1-2.2c0-0.2,0-0.3-0.1-0.4
		C34.8,0,34.6,0,34.5,0c-0.2,0-0.3,0.1-0.3,0.2c-0.1,0.1-0.1,0.2-0.2,0.4c-0.8,1.1-2.4,2.4-3.4,3.2c-0.2,0.2-0.4,0.3-0.5,0.3
		c-0.1,0.1-0.3,0.2-0.3,0.4C29.7,4.6,29.7,4.7,29.8,4.7z"/>
	<polygon class="st0" points="54.6,26.5 54.6,26.5 54.6,26.5 	"/>
	<path class="st0" d="M58.5,25.5c-1.4,0-2.7,0.3-3.9,1c-1.2,0.7-2.2,1.7-3,3.1c-0.7,1.4-1.1,2.8-1.1,4.2c0,2,0.6,3.7,1.9,5.3
		c1.5,1.9,3.5,2.8,6,2.8c1.5,0,2.9-0.4,4.2-1.1c1.3-0.7,2.3-1.8,3-3.2c0.7-1.4,1.1-2.8,1.1-4.2c0-2-0.7-3.7-1.9-5.3
		C63.1,26.4,61,25.5,58.5,25.5z M59.1,40.6c-1.5,0-2.7-0.8-3.7-2.4c-0.9-1.6-1.4-3.5-1.4-5.7c0-1.4,0.2-2.5,0.6-3.3
		c0.4-0.9,0.9-1.5,1.5-1.8c0.6-0.3,1.2-0.5,1.9-0.5c1.3,0,2.3,0.5,3.1,1.6c1.2,1.5,1.9,3.6,1.9,6.4c0,2.2-0.4,3.7-1.1,4.5
		C61.1,40.2,60.2,40.6,59.1,40.6z"/>
	<path class="st0" d="M17.6,40.8l0,0.1L17.6,40.8c-0.4-0.1-0.6-0.2-0.8-0.3c-0.3-0.2-0.4-0.4-0.5-1c-0.1-0.6-0.1-1.6-0.1-3.2
		c0-1.1,0-2.5,0-4.9c0-1.1-0.1-2.8-0.7-3.7c-0.8-1.2-2.1-2-4.1-2c-1.6,0-2.8,0.7-3.7,1.4c-0.4,0.3-0.8,0.7-1,0.9
		c-0.1,0.1-0.2,0.2-0.3,0.3c-0.1,0.1-0.2,0.1-0.2,0.1l-0.1-0.1c0-0.1,0-0.2,0-0.3v-1.6C6,26.3,6,26.1,6,26c0-0.2-0.2-0.3-0.4-0.3
		c-0.2,0-0.5,0.2-0.6,0.3l0,0l0,0c-1.4,1.2-2.7,2.1-4.2,2.6c-0.1,0-0.2,0.1-0.2,0.1c-0.1,0.1-0.1,0.2-0.1,0.3c0,0.1,0,0.2,0.1,0.2
		c0.2,0.1,0.5,0.1,0.9,0.2l0,0l0,0c0.4,0,0.7,0.2,0.8,0.4l0,0l0,0c0.1,0.2,0.2,0.6,0.3,1.2c0,0.6,0,1.5,0,2.6c0,3.1,0,5.1-0.2,6.2
		c-0.1,0.4-0.2,0.5-0.4,0.7c-0.2,0.1-0.5,0.2-0.8,0.3c-0.3,0.1-0.6,0.1-0.8,0.2c-0.1,0-0.2,0.1-0.3,0.1C0.1,41.1,0,41.2,0,41.3
		l0,0.2c0.1,0.1,0.2,0.1,0.3,0.2c0.1,0,0.2,0,0.4,0c0.3,0,2.8-0.1,3.4-0.1c0.6,0,3,0.1,3.3,0.1l0.2,0c0.2,0,0.3,0,0.5,0
		c0.1,0,0.3-0.2,0.3-0.3c0-0.1-0.1-0.2-0.2-0.3c-0.1-0.1-0.3-0.1-0.5-0.2c-0.2-0.1-0.4-0.1-0.5-0.2l0,0c-0.5-0.2-0.9-0.5-1-0.9l0,0
		l0,0C6,38.8,6,37.5,6,34.8c0-2,0-4.2,0.6-5.2C7,28.9,8.1,28,9.3,28c1.3,0,2,0.2,2.7,1.1c0.6,0.7,0.7,2.4,0.7,5.2c0,0.2,0,0.4,0,0.6
		c0,2.5,0,3.8-0.1,4.7c-0.1,0.4-0.2,0.7-0.4,0.8c-0.2,0.2-0.5,0.3-0.8,0.4c-0.3,0.1-0.6,0.1-0.8,0.2c-0.1,0-0.2,0.1-0.3,0.1
		c-0.1,0.1-0.2,0.2-0.2,0.3c0,0.1,0,0.2,0.1,0.2c0.2,0.1,0.4,0.1,0.9,0.1c0.5,0,2.5-0.1,3.4-0.1c0.9,0,2.8,0.1,3.2,0.1
		c0.2,0,0.4,0,0.5-0.1c0.1,0,0.3-0.2,0.3-0.4c0-0.1-0.1-0.2-0.1-0.3C18.2,40.9,17.8,40.8,17.6,40.8z"/>
	<path class="st0" d="M33,39.2c0-0.1,0-0.2-0.1-0.2c0-0.1-0.1-0.2-0.3-0.2c-0.1,0-0.2,0.1-0.3,0.2c-0.3,0.3-0.8,0.7-1.6,0.7
		c-0.5,0-0.7-0.2-0.9-0.6c-0.2-0.4-0.2-0.9-0.2-1.4c0-1.1,0.3-6.8,0.3-8.9c0-1.3-0.6-2.2-1.5-2.6c-0.9-0.4-2-0.5-3-0.5
		c-2.2,0-3.9,0.8-5.1,1.8c-1.2,1-1.8,2.2-1.8,3.1c0,0.3,0.1,0.6,0.3,0.7c0.2,0.2,0.4,0.2,0.6,0.2c0.7,0,1.6-0.4,1.8-1.2l0,0
		c0.2-0.8,0.5-1.7,1.1-2.4c0.5-0.7,1.2-1.2,2.3-1.2c0.4,0,0.8,0,1,0.2c0.3,0.1,0.5,0.4,0.7,0.8c0.1,0.3,0.2,0.7,0.2,1.3
		c0,0.3,0,0.5,0,0.8c0,1.7,0,2.4-0.4,2.9c-0.4,0.5-1.2,0.8-2.8,1.6c-1,0.5-2.1,1.1-3,1.8c-0.9,0.8-1.6,1.7-1.6,3.1
		c0,0.6,0.2,1.3,0.7,1.9c0.5,0.6,1.3,1,2.3,1c2.1,0,3.7-1.3,4.5-2.5l0.1,0l0,0l0,0.1l0,0l0,0c0.4,1.1,1.4,2.1,2.9,2.1
		c1.1,0,2-0.5,2.6-1.1c0.3-0.3,0.5-0.6,0.7-0.9C32.9,39.6,33,39.4,33,39.2z M25.7,38.9c-0.6,0.8-1.2,1.2-2,1.2
		c-0.4,0-0.8-0.1-1.2-0.4c-0.3-0.3-0.6-0.7-0.6-1.4c0-1.2,0.9-2.2,1.9-3c0.5-0.4,1-0.7,1.4-0.9c0.2-0.1,0.4-0.2,0.5-0.2
		c0.1-0.1,0.2-0.1,0.3-0.1c0.2,0,0.3,0,0.3,0.1c0.1,0.1,0.1,0.2,0.1,0.5C26.4,36.3,26.3,38,25.7,38.9z"/>
	<path class="st0" d="M50.1,40.8l0,0.1L50.1,40.8c-0.4-0.1-0.6-0.2-0.8-0.3c-0.3-0.2-0.4-0.4-0.5-1c-0.1-0.6-0.1-1.6-0.1-3.2
		c0-1.1,0-2.5,0-4.9c0-1.1-0.1-2.8-0.7-3.7c-0.8-1.2-2.1-2-4.1-2c-1.6,0-2.8,0.7-3.7,1.4c-0.4,0.3-0.8,0.7-1,0.9
		c-0.1,0.1-0.2,0.2-0.3,0.3c-0.1,0.1-0.2,0.1-0.2,0.1l-0.1-0.1c0-0.1,0-0.2,0-0.3v-1.6c0-0.2,0-0.4-0.1-0.5c0-0.2-0.2-0.3-0.4-0.3
		c-0.2,0-0.5,0.2-0.6,0.3l0,0l0,0c-1.4,1.2-2.7,2.1-4.2,2.6c-0.1,0-0.2,0.1-0.2,0.1C33,28.8,33,28.9,33,29c0,0.1,0,0.2,0.1,0.2
		c0.2,0.1,0.5,0.1,0.9,0.2l0,0c0.4,0,0.7,0.2,0.8,0.4l0,0l0,0c0.1,0.2,0.2,0.6,0.3,1.2c0,0.6,0,1.5,0,2.6c0,3.1,0,5.1-0.2,6.2
		c-0.1,0.4-0.2,0.5-0.3,0.7c-0.2,0.1-0.5,0.2-0.8,0.3c-0.3,0.1-0.6,0.1-0.8,0.2c-0.1,0-0.2,0.1-0.3,0.1c-0.1,0.1-0.1,0.2-0.1,0.3
		l0,0.2c0.1,0.1,0.2,0.1,0.3,0.2c0.1,0,0.2,0,0.4,0c0.3,0,2.8-0.1,3.4-0.1c0.6,0,3,0.1,3.3,0.1l0.2,0c0.2,0,0.3,0,0.5,0
		c0.1,0,0.3-0.2,0.3-0.3c0-0.1-0.1-0.2-0.2-0.3c-0.1-0.1-0.3-0.1-0.5-0.2c-0.2-0.1-0.4-0.1-0.5-0.2c-0.5-0.2-0.9-0.5-1-0.9l0,0l0,0
		c-0.2-0.9-0.2-2.2-0.2-5c0-2,0-4.2,0.6-5.2c0.4-0.7,1.5-1.6,2.7-1.6c1.3,0,2,0.2,2.7,1.1c0.6,0.7,0.7,2.4,0.7,5.2
		c0,0.2,0,0.4,0,0.6c0,2.5,0,3.8-0.1,4.7c-0.1,0.4-0.2,0.7-0.4,0.8c-0.2,0.2-0.5,0.3-0.8,0.4c-0.3,0.1-0.6,0.1-0.8,0.2
		c-0.1,0-0.2,0.1-0.3,0.1c-0.1,0.1-0.2,0.2-0.2,0.3c0,0.1,0,0.2,0.1,0.2c0.2,0.1,0.4,0.1,0.9,0.1c0.5,0,2.5-0.1,3.4-0.1
		c0.9,0,2.8,0.1,3.2,0.1c0.2,0,0.4,0,0.5-0.1c0.1,0,0.3-0.2,0.3-0.4c0-0.1-0.1-0.2-0.1-0.3C50.7,40.9,50.4,40.8,50.1,40.8z"/>
	<path class="st0" d="M108.2,35.5l-0.6-0.3l-0.1-0.1l-0.1,0.1c-0.6,1.4-1.3,2.3-1.9,2.8l0,0c-0.9,0.8-2,1.1-3.2,1.1
		c-1.6,0-2.9-0.7-3.9-2.1c-1-1.4-1.4-3.1-1.4-4.9c0-1.8,0.5-3.3,1.5-4.4c0.7-0.8,1.7-1.2,2.9-1.2c0.7,0,1.3,0.2,1.7,0.5
		c0.4,0.3,0.6,0.8,0.7,1.5l0,0c0.1,0.7,0.2,1.2,0.5,1.4l0,0l0,0l0,0l0,0c0.4,0.5,1,0.7,1.7,0.7c0.6,0,1-0.1,1.3-0.4
		c0.3-0.3,0.5-0.7,0.5-1.2c0-0.9-0.6-1.8-1.6-2.6c-1.1-0.8-2.5-1.3-4.2-1.3c-2.2,0-4.2,0.8-5.8,2.4c-1.6,1.6-2.4,3.6-2.4,6.1
		c0,2.6,0.7,4.6,2.2,6.2c1.4,1.5,3.1,2.3,5.1,2.3c1.6,0,3.1-0.6,4.5-1.7C106.8,39.3,107.7,37.7,108.2,35.5L108.2,35.5z"/>
	<path class="st0" d="M159.7,28L159.7,28L159.7,28c-1.6-1.8-3.7-2.8-6.2-2.8c-1.4,0-2.8,0.4-4,1c-1.3,0.7-2.3,1.8-3.1,3.2
		c-0.8,1.4-1.2,2.9-1.2,4.4c0,2,0.6,3.8,1.9,5.4c1.5,1.9,3.6,2.9,6.1,2.9c1.6,0,3-0.4,4.3-1.1c1.3-0.7,2.3-1.9,3-3.3
		c0.7-1.5,1.1-2.9,1.1-4.3C161.7,31.4,161,29.6,159.7,28z M156.9,39.4c-0.8,0.9-1.7,1.3-2.8,1.3c-1.5,0-2.8-0.8-3.8-2.4
		c-1-1.6-1.4-3.6-1.4-5.9c0-1.4,0.2-2.6,0.6-3.4c0.4-0.9,0.9-1.5,1.5-1.8c0.6-0.4,1.3-0.5,1.9-0.5c1.3,0,2.4,0.5,3.2,1.6
		c1.3,1.6,1.9,3.7,1.9,6.5C158,37,157.7,38.5,156.9,39.4L156.9,39.4z"/>
	<path class="st0" d="M167.8,40.6c-0.3-0.2-0.5-0.4-0.7-0.7c-0.1-0.3-0.2-0.9-0.2-1.9V17h-1h0l-5.2,2l0.4,0.8l0.1,0
		c0.5-0.2,0.9-0.3,1.2-0.3c0.3,0,0.5,0.1,0.6,0.2l0,0c0.2,0.1,0.3,0.4,0.4,0.8c0.1,0.4,0.1,1.5,0.1,3.2V38c0,1-0.1,1.6-0.2,1.9
		c-0.2,0.3-0.4,0.5-0.6,0.7c-0.2,0.1-0.8,0.2-1.5,0.2h-0.1v0.7v0.1h8.5V41v-0.1h-0.1C168.7,40.8,168.1,40.7,167.8,40.6z"/>
	<path class="st0" d="M213.8,26.8v0.1v0.6v0.1h0.1c0.5,0,0.9,0,1,0.1l0,0l0,0c0.2,0.1,0.3,0.1,0.4,0.2l0,0l0,0
		c0.1,0.1,0.1,0.2,0.1,0.4c0,0.4-0.1,0.9-0.3,1.3l-3.6,8.3l-3.9-7.6c-0.4-0.8-0.6-1.4-0.6-1.8c0-0.3,0.1-0.5,0.4-0.7
		c0.2-0.2,0.6-0.3,1.2-0.3h0.4h0.1v-0.8v-0.1l-0.1,0c0,0-1.6,0-3.7,0c-1,0-2.1,0-3.2,0l-0.2,0c-0.9,0-2-0.1-2.9-0.1
		c-0.8-0.1-1.4-0.1-1.5-0.1c-1.2-0.7-2.6-1.1-4.1-1.1c-2,0-3.6,0.6-4.8,1.7c-1.3,1.1-1.9,2.5-1.9,4.1c0,1,0.3,2,0.8,2.8
		c0.5,0.8,1.3,1.4,2.2,1.9c-1.2,0.9-1.9,1.6-2.3,2.2l0,0c-0.3,0.5-0.5,1-0.5,1.5c0,0.4,0.1,0.7,0.4,1l0,0l0,0
		c0.3,0.3,0.7,0.6,1.2,0.9c-1.1,1-1.6,1.6-1.7,1.7l0,0l0,0l0,0c-0.6,0.7-1.1,1.3-1.3,1.8c-0.1,0.3-0.2,0.6-0.2,0.9
		c0,0.7,0.5,1.3,1.4,1.9c1.6,1,3.6,1.5,6,1.5c3.1,0,5.5-0.8,7.4-2.5c1.3-1.1,2-2.4,2-3.7c0-1-0.4-1.8-1.1-2.4
		c-0.7-0.7-1.6-1.1-2.7-1.2c-0.7-0.1-2.4-0.2-4.8-0.2c-1.3,0-2.2-0.1-2.5-0.1c-0.6-0.1-0.9-0.2-1.1-0.4c-0.2-0.2-0.2-0.3-0.2-0.5
		c0-0.2,0.1-0.4,0.3-0.7c0.2-0.3,0.5-0.7,1-1.1c0.8,0.2,1.7,0.3,2.5,0.3c2,0,3.6-0.5,4.8-1.6c1.2-1,1.8-2.3,1.8-3.8
		c0-1.2-0.3-2.2-0.9-3l3.1-0.3c0.1,0.1,0.3,0.1,0.4,0.2c0.2,0.1,0.4,0.4,0.7,0.8c0.4,0.5,0.7,0.9,0.9,1.3l5.9,11.6l-1.2,2.6
		c-0.4,1-0.9,1.7-1.3,2c-0.4,0.3-0.8,0.5-1.1,0.5c-0.1,0-0.4-0.1-0.9-0.2c-0.7-0.2-1.2-0.4-1.7-0.4c-0.6,0-1.1,0.1-1.5,0.5l0,0l0,0
		c-0.4,0.3-0.5,0.7-0.5,1.2c0,0.5,0.3,1,0.7,1.4c0.5,0.4,1.1,0.6,1.8,0.6c1,0,2.1-0.4,3.1-1.2c1.1-0.8,2-1.9,2.6-3.5l6.8-15.5
		c0.3-0.7,0.5-1.1,0.6-1.3c0.3-0.4,0.5-0.6,0.8-0.7c0.2-0.1,0.5-0.2,1-0.3l0.1,0v-0.7v-0.1H213.8z M195.7,34.6
		c-0.6,0.6-1.3,0.9-2.2,0.9c-0.9,0-1.7-0.4-2.3-1.1c-0.8-1-1.2-2.3-1.2-4.1c0-1.4,0.3-2.3,0.9-3c0.6-0.6,1.3-1,2.2-1
		c0.9,0,1.7,0.4,2.3,1.1c0.8,1,1.2,2.4,1.2,4.1C196.6,33.1,196.3,34,195.7,34.6L195.7,34.6L195.7,34.6z M189.8,41.6
		c1.5,0.2,3.5,0.3,6.2,0.4c1.9,0,3.1,0.2,3.7,0.4c0.6,0.2,0.8,0.6,0.8,1.1c0,0.8-0.5,1.5-1.5,2.2c-1,0.7-2.6,1.1-4.7,1.1
		c-2.3,0-4-0.4-5.2-1c-0.7-0.4-1-0.8-1-1.3c0-0.4,0.1-0.8,0.4-1.3C188.8,42.7,189.3,42.2,189.8,41.6z"/>
	<path class="st0" d="M83.2,31.7c3.2,0,5.9,0.2,8.1,0.2c0.5,0,0.9,0,1.2-0.1c0.1-0.1,0.3-0.2,0.3-0.3c0.1-0.2,0.1-0.3,0.1-0.6
		c0-2.7-2.6-5.3-6.1-5.3c-2.3,0-4.5,0.9-6,2.5c-1.6,1.6-2.6,3.8-2.6,6.4c0,2.5,0.8,4.5,2.2,5.9c1.4,1.4,3.3,2.2,5.4,2.2
		c2,0,3.7-0.9,5-1.9c0.6-0.5,1.1-1,1.5-1.4c0.2-0.2,0.3-0.4,0.4-0.6c0.1-0.2,0.1-0.3,0.2-0.4c0-0.1,0-0.2-0.1-0.2
		c-0.1-0.1-0.2-0.1-0.3-0.1c-0.1,0-0.2,0.1-0.2,0.1c-0.5,0.4-1.8,2-4.5,2.1c-2,0-3.4-0.8-4.3-2c-0.9-1.2-1.3-3-1.3-4.8
		c0-0.8,0.1-1.1,0.2-1.3C82.5,31.7,82.8,31.7,83.2,31.7z M83.6,27.9c0.7-0.7,1.7-1.3,3.1-1.3c1,0,1.7,0.4,2.1,0.8
		c0.4,0.4,0.6,1,0.6,1.3c0,0.4-0.2,0.7-0.4,1c-0.8,0.8-2.8,0.9-4.3,0.9c-0.9,0-1.4,0-1.7-0.1c-0.2,0-0.3-0.1-0.3-0.1
		c0-0.1-0.1-0.1-0.1-0.2C82.6,29.5,82.9,28.6,83.6,27.9z"/>
	<path class="st0" d="M144.8,41l0,0.1L144.8,41c-0.4-0.1-0.7-0.2-0.9-0.3c-0.3-0.2-0.4-0.4-0.5-1c-0.1-0.6-0.1-1.6-0.1-3.3
		c0-1.1,0-2.6,0-5c0-1.2-0.1-2.9-0.8-3.8c-0.9-1.2-2.1-2.1-4.2-2.1c-1.7,0-2.9,0.7-3.8,1.4c-0.4,0.3-0.8,0.7-1,1
		c-0.1,0.1-0.3,0.2-0.3,0.3c-0.1,0.1-0.2,0.1-0.2,0.1l-0.1-0.1c0-0.1,0-0.2,0-0.3v-1.7c0-0.2,0-0.4-0.1-0.6c0-0.2-0.2-0.3-0.4-0.3
		c-0.3,0-0.5,0.2-0.6,0.3l0,0l0,0c-1.4,1.2-2.8,2.2-4.3,2.7c-0.1,0-0.2,0.1-0.2,0.1c-0.1,0.1-0.1,0.2-0.1,0.3c0,0.1,0,0.2,0.1,0.2
		c0.2,0.1,0.5,0.1,0.9,0.2l0,0c0.4,0,0.7,0.2,0.9,0.4l0,0l0,0c0.1,0.2,0.2,0.6,0.3,1.3c0,0.7,0,1.5,0,2.6c0,3.2,0,5.2-0.2,6.4
		c-0.1,0.4-0.2,0.6-0.4,0.7c-0.2,0.1-0.5,0.2-0.9,0.3c-0.3,0.1-0.6,0.1-0.8,0.2c-0.1,0-0.2,0.1-0.3,0.1c-0.1,0.1-0.1,0.2-0.1,0.3
		l0,0.2c0.1,0.1,0.2,0.1,0.3,0.2c0.1,0,0.2,0,0.4,0c0.3,0,2.9-0.1,3.5-0.1c0.6,0,3.1,0.1,3.4,0.1l0.2,0c0.2,0,0.3,0,0.5,0
		c0.1,0,0.3-0.2,0.3-0.4c0-0.1-0.1-0.2-0.2-0.3c-0.1-0.1-0.3-0.2-0.5-0.2c-0.2-0.1-0.4-0.1-0.5-0.2c-0.5-0.2-0.9-0.5-1-0.9l0,0l0,0
		c-0.2-0.9-0.2-2.3-0.2-5.1c0-2.1,0-4.3,0.6-5.3c0.4-0.7,1.5-1.6,2.8-1.6c1.3,0,2,0.2,2.8,1.1c0.7,0.8,0.7,2.5,0.7,5.3
		c0,0.2,0,0.4,0,0.6c0,2.6,0,3.9-0.1,4.9c-0.1,0.4-0.2,0.7-0.4,0.8c-0.2,0.2-0.5,0.3-0.8,0.4c-0.3,0.1-0.6,0.1-0.9,0.2
		c-0.1,0-0.2,0.1-0.3,0.1c-0.1,0.1-0.2,0.2-0.2,0.3c0,0.1,0,0.2,0.1,0.2c0.2,0.1,0.5,0.1,0.9,0.1c0.5,0,2.6-0.1,3.5-0.1
		c0.9,0,2.9,0.1,3.3,0.1c0.2,0,0.4,0,0.5-0.1c0.2,0,0.3-0.2,0.3-0.4c0-0.1-0.1-0.2-0.1-0.3C145.4,41.1,145.1,41.1,144.8,41z"/>
	<path class="st0" d="M183.5,28c-1.6-1.8-3.7-2.8-6.2-2.8c-1.4,0-2.8,0.4-4,1c-1.3,0.7-2.3,1.8-3.1,3.2c-0.8,1.4-1.2,2.9-1.2,4.4
		c0,2,0.6,3.8,1.9,5.4c1.5,1.9,3.6,2.9,6.1,2.9c1.6,0,3-0.4,4.3-1.1c1.3-0.7,2.3-1.9,3-3.3c0.7-1.5,1.1-2.9,1.1-4.3
		C185.5,31.4,184.8,29.6,183.5,28z M180.7,39.4c-0.8,0.9-1.7,1.3-2.8,1.3c-1.5,0-2.8-0.8-3.8-2.4c-1-1.6-1.4-3.6-1.4-5.9
		c0-1.4,0.2-2.6,0.6-3.4c0.4-0.9,0.9-1.5,1.5-1.8c0.6-0.4,1.3-0.5,1.9-0.5c1.3,0,2.4,0.5,3.2,1.6c1.3,1.6,1.9,3.7,1.9,6.5
		C181.8,37,181.4,38.5,180.7,39.4L180.7,39.4L180.7,39.4z"/>
	<path class="st0" d="M125.4,41l0,0.1L125.4,41c-0.4-0.1-0.7-0.2-0.9-0.3c-0.3-0.2-0.4-0.4-0.5-1c-0.1-0.6-0.1-1.6-0.1-3.3
		c0-1.1,0-2.6,0-5c0-1.2-0.1-2.9-0.8-3.8c-0.8-1.2-2.1-2.1-4.2-2.1c-1.7,0-2.9,0.7-3.8,1.4c-0.4,0.3-0.8,0.7-1,1
		c-0.1,0.1-0.3,0.2-0.3,0.3l-0.1,0.1c0-0.1,0-0.2,0-0.4c-0.1-1.9-0.2-8.3-0.2-8.5v-1.7c0-0.2,0-0.4-0.1-0.6c0-0.2-0.2-0.3-0.4-0.3
		c-0.3,0-0.5,0.2-0.6,0.3l0,0l0,0c-1.4,1.2-2.8,2.2-4.3,2.7c-0.1,0-0.2,0.1-0.2,0.1c-0.1,0.1-0.1,0.2-0.1,0.3c0,0.1,0,0.2,0.1,0.2
		c0.2,0.1,0.5,0.1,0.9,0.2l0,0c0.4,0,0.7,0.2,0.9,0.4l0,0l0,0l0,0c0,0.1,0.1,0.3,0.1,0.6c0.2,2.3,0.2,10,0.2,11.9
		c0,3.2,0,5.2-0.2,6.4c-0.1,0.4-0.2,0.6-0.4,0.7c-0.2,0.1-0.5,0.2-0.9,0.3c-0.3,0.1-0.6,0.1-0.8,0.2c-0.1,0-0.2,0.1-0.3,0.1
		c-0.1,0.1-0.1,0.2-0.1,0.3l0,0.2c0.1,0.1,0.2,0.1,0.3,0.2c0.1,0,0.2,0,0.4,0c0.3,0,2.9-0.1,3.5-0.1c0.6,0,3.1,0.1,3.4,0.1l0.2,0
		c0.2,0,0.3,0,0.5,0c0.1,0,0.3-0.2,0.3-0.4c0-0.1-0.1-0.2-0.2-0.3c-0.1-0.1-0.3-0.2-0.5-0.2c-0.2-0.1-0.4-0.1-0.5-0.2
		c-0.5-0.2-0.9-0.5-1-0.9l0,0c-0.2-0.9-0.2-2.3-0.2-5.1c0-2.1,0-4.3,0.6-5.3c0.4-0.7,1.5-1.6,2.8-1.6c1.3,0,2,0.2,2.8,1.1
		c0.7,0.8,0.7,2.5,0.7,5.3c0,0.2,0,0.4,0,0.6c0,2.6,0,3.9-0.1,4.9c-0.1,0.4-0.2,0.7-0.4,0.8c-0.2,0.2-0.5,0.3-0.8,0.4
		c-0.3,0.1-0.6,0.1-0.9,0.2c-0.1,0-0.2,0.1-0.3,0.1c-0.1,0.1-0.2,0.2-0.2,0.3c0,0.1,0,0.2,0.1,0.2c0.2,0.1,0.5,0.1,0.9,0.1
		c0.5,0,2.6-0.1,3.5-0.1c0.9,0,2.9,0.1,3.3,0.1c0.2,0,0.4,0,0.5-0.1c0.2,0,0.3-0.2,0.3-0.4c0-0.1-0.1-0.2-0.1-0.3
		C126.1,41.1,125.7,41.1,125.4,41z"/>
	<path class="st0" d="M73.2,26.2c0-0.1-0.1-0.2-0.1-0.3c0-0.7,0.1-1.8,0.1-2.5c0-0.2,0-0.3-0.1-0.4c-0.1-0.1-0.2-0.2-0.4-0.2
		c-0.2,0-0.3,0.1-0.4,0.2c-0.1,0.1-0.2,0.3-0.3,0.4c-0.8,1.3-2.6,2.7-3.8,3.5c-0.3,0.2-0.5,0.3-0.6,0.4c-0.2,0.1-0.3,0.2-0.3,0.5
		c0,0.1,0.1,0.2,0.1,0.2c0.1,0,0.2,0.1,0.3,0.1h1.1c0.3,0,0.5,0.1,0.5,0.3c0.1,0.2,0.1,0.4,0.1,0.6c0,0.4-0.2,7-0.2,8.4
		c0,1.4,0.1,2.6,0.7,3.5c0.5,0.9,1.4,1.4,2.8,1.4c1.3,0,2.5-0.5,3.5-1.1c0.5-0.3,0.8-0.6,1.1-0.8c0.1-0.1,0.2-0.2,0.3-0.3
		c0.1-0.1,0.1-0.2,0.1-0.3c0-0.1,0-0.2-0.1-0.2c-0.1-0.1-0.1-0.1-0.2-0.1l-0.1,0C77,39.6,75.9,40,74.9,40c-0.9,0-1.4-0.2-1.7-0.8
		c-0.3-0.6-0.3-1.5-0.3-2.9c0-0.2,0-0.4,0-0.6c0-4.2,0-6.1,0.1-7.4c0-0.4,0.1-0.6,0.1-0.7l0.1-0.1c0.1,0,0.2,0,0.3,0
		c0.5,0,1.3-0.1,2.2-0.1c1,0,1.6,0,2.1,0.1l0.1,0l0-1.6l-4.5,0.2C73.3,26.3,73.2,26.2,73.2,26.2z"/>
</g>
</svg>
